<svg width="663" height="504" fill="none" xmlns="http://www.w3.org/2000/svg"><path d="M637.83 229.11s12.33-3.33 10.67-17c0 0 5.17 7.83 4.17 14.5s6.67-4.33 1.33-20.33c0 0 4.5 10.5 7.5 12.33 0 0-3.67-13.67-3.33-27 .33-13.33 5.16-58.5 4.5-73.67-.67-15.17-3.83-67.33-46.17-70 0 0-4.17-11.17-40.5-1.5s-48.75 34.83-52.25 65.58 10 98.25 7.5 112.25 5-5.75 5.25-15.25c0 0-1 16.25-.75 19.75s9.25-18.25 9.25-17.25 5 22.25 7.25 17.5 6.25-19.25 8.5-10 8.75 17.25 12.25 7 8.5-16.25 12-7 9.25 13.5 14.25 4 10.25-6.75 15.5 3 9.75-15.5 12.25-5.5 10.83 8.59 10.83 8.59z" fill="#2A3A49"/><path d="M65.75 33.27s-1.5-20 8.25-.75c0 0 12.75-26 11.25-5.5 0 0 20.5-11 45.25 2.5s30.25 38.25 32.75 54.25-.75 50.25 8.25 55c0 0-4.75 5.75-12-3.5 0 0 2.5 11-3.5 14.75 0 0 .5-8-4.25-12 0 0 4.25 14.25-21.5 24.5s-79.75 8.25-94.5 1-17-16.75-17.5-23.25c0 0-3.25 7.5-3 12.25 0 0-9.75-.25-5.25-19.75 0 0-6 6.5-10 1 0 0 7.25.5 8-22.25S2.25 31.27 65.75 33.27z" fill="#6B534A"/><path d="M86.92 365.36s3.83 45.83 6 63 3.5 23.83 1.83 27.67c-1.67 3.83-4 15.33 2.17 16.83 6.17 1.5 40.5 2.17 40-1s-25-15.5-27-18.83c-2-3.33-5.5-81.33-5.83-83.83-.34-2.51-17.17-3.84-17.17-3.84z" fill="#EFCAA6"/><path d="M125.6 463.49c-17.13-.78-26.27-3.67-31.19-6.58-1.6 4.46-3.24 14.56 2.51 15.96 6.17 1.5 40.5 2.17 40-1-.23-1.46-5.49-4.83-11.32-8.38z" fill="#1C1C1C"/><path d="M61.67 370.36s3.83 45.83 6 63 3.5 23.83 1.83 27.67c-1.67 3.83-4 15.33 2.17 16.83 6.17 1.5 40.5 2.17 40-1s-25-15.5-27-18.83c-2-3.33-5.5-81.33-5.83-83.83-.34-2.51-17.17-3.84-17.17-3.84z" fill="#EFCAA6"/><path d="M100.35 468.49c-17.13-.78-26.27-3.67-31.19-6.58-1.6 4.46-3.24 14.56 2.51 15.96 6.17 1.5 40.5 2.17 40-1-.23-1.46-5.49-4.83-11.32-8.38z" fill="#1C1C1C"/><path d="M45.67 303.77s-8.17 12.67-8 62c0 0 21.67 14.17 51.5 14.5 29.83.33 44.33-9 45-9.17.67-.17-3-56.17-6.67-64.33-3.67-8.16-82.33-2.33-81.83-3z" fill="#404040"/><path d="M40.25 305.77s32.75 16 91 4c0 0-3.75-49.5-7.5-83.25s-9-60.75-33-65.12H76.12S50 166.78 46.5 216.52c-3.5 49.74-6.25 89.25-6.25 89.25z" fill="#4A4A4A"/><path d="M123.4 282.32c.08-.79-.06-1.53-.77-1.97-1.3-.81-3.88-.42-5.36-.53-2.07-.15-3.66.18-5.42 1.26-3.9 2.38-8.09 5.67-10.96 9.23-1.01 1.25-2.51 3.15-2.08 4.9-3.19 2.51-5.61 6.3-6.96 10.01-.9 2.47-1.88 4.92-2.27 7.53-.26 1.7-.95 4.46.05 6.02 1.73 2.71 4.73-5.1 4.94-5.46 1.15-1.96 2.49-3.72 3.94-5.39-1.17 2.02-2.16 4.15-3.01 6.38-.78 2.05-1.33 4.19-1.36 6.38-.01.84.2 2.79 1.07 3.33 2.22 1.39 5.11-4.01 5.9-5.27 1.17-1.86 2.55-3.57 3.74-5.42.5-.77 1.15-1.42 1.84-2.06-1.73 2.06-3 4.54-3.9 7.04-.32.89-1.1 5.95 1.38 5.18 2.88-.89 4.79-3.5 6.29-5.96l.33-.57c.09.31.2.62.33.91 2.19 4.94 5.91-3.27 6.73-5.04 2.58-5.58 4.63-11.47 5.77-17.52.73-3.93 2.39-9.37-.22-12.98z" fill="#EFCAA6"/><path d="M111 278.78s1.83 6.83 14.17 4.83c0 0 2.17-11.67 4-22.33 1.83-10.67 5.83-37.83-1.5-63s-21.5-29.17-21.5-29.17 11.4 7.82 10.33 58.83c-1 48-5.5 50.84-5.5 50.84z" fill="#666"/><path d="M92.33 292.94c.5.44 16.17-2.17 20.83-8.67 0 0-15.33-27-23-44s-17.5-46.5-19.67-55.33c-2.17-8.83-8.67-12.67-11.17-11.5s-14.83 13.83-7.5 44.83 29.85 65.34 40.51 74.67z" fill="#666"/><path d="M120.76 297.88c3.63 6.72 5.28 5.71 5.66 5.28 2.38-2.72.21-7.75-1.14-10.52-1.7-3.48-5.11-5.73-8.69-6.84-1.4-.43-3.18-.62-4.54.09-.62.32-1.15.77-1.67 1.25-3.04 1.56-6.05 3.16-9.33 4.21-2.75.88-5.06 1.32-5.68 4.43-.54 2.71.66 5.99 1.88 8.35 1.83 3.57 5.37 6.35 6.46 10.23.54 1.91-.49 4.45-.56 6.41-.06 1.67.18 3.38.82 4.92.91 2.19 2.98 1.7 3.87-.08 1.35-2.7 1.34-6.83 1.34-9.76 0-1.22-.65-6.18-.83-7.23 1.17 3.49 1.58 11.33 2.67 14.8.8 2.56 3.12 4.11 4.25.93.67-1.89.54-4.09.55-6.07.02-2.62-1.12-8.62-2.28-11.8 1.22 2.07 2.25 7.36 2.52 9.03.35 2.21-.28 6.1 2.38 7.03 1.78.62 2.36-3.15 2.51-4.01.95-5.48-2-12.09-1.93-12.55.65 1.34 3.29 11.71 5.46 11.75 2.58.04 1.82-4.68.33-10.71-.65-2.63-3.57-7.78-4.05-9.14z" fill="#F4D9BF"/><path d="M76.25 152.4L76 165.15s7.79 11.53 10.67 12.4c2.88.87 5.58-14.15 5.58-14.15s-2.62 0-2-8c0 0-1.13-2.25-14-3z" fill="#EFCAA6"/><path d="M86.62 177.02l4.12-15.62s4.88 1.5 9.62 4c0 0-4.5 23.88-5.75 23.38s-7.75-10.75-7.75-10.75-3.88 11.62-4.75 11.5c-.87-.12-13.86-22.13-15.11-23.51-1.25-1.38 7.42-5.48 9.12-4.62.26.12 2.76 8.25 10.5 15.62z" fill="#404040"/><path d="M158.79 108.42c-2.49-6.31-12.41-9.44-15.03-1.67-.02.05-.02.11-.02.16-5.47 7.37-5.73 23.97 7.05 20.2 8.1-2.4 10.9-11.35 8-18.69z" fill="#EFCAA6"/><path opacity=".5" d="M153.56 111.48c-1.49-3.77-7.42-5.64-8.99-1-.01.03-.01.07-.01.1-3.27 4.41-3.43 14.34 4.22 12.08 4.83-1.44 6.51-6.79 4.78-11.18z" fill="#C69474"/><path d="M51.62 131.47c-.58-2.49-2.49-5.34-4.87-7.25-.34-.6-.69-1.27-.89-1.5-1.2-1.44-3.11-2.23-4.78-2.93-3.24-1.36-7.07.02-8.89 2.91-4.23 6.72 1 16.16 7.82 18.87 7.43 2.96 13.38-2.53 11.61-10.1z" fill="#EFCAA6"/><path opacity=".5" d="M50.45 129.77c-.4-1.71-1.71-3.67-3.35-4.98-.24-.41-.48-.87-.61-1.04-.82-.99-2.13-1.53-3.29-2.01-2.23-.94-4.86.02-6.11 2-2.91 4.62.68 11.11 5.37 12.97 5.12 2.04 9.21-1.74 7.99-6.94z" fill="#C69474"/><path d="M40.62 120.15s13-7.62 15.62-26.88c0 0 5.75 12 17.5-5.5 0 0 3.25 17 24-9.38 0 0 1.25 24 16.88-1.5 0 0 8.88 25.5 18.62-2.25 0 0 15 20.88 16.25 26.25.46 1.99-1.35 6.18-1.83 8.2-.65 2.72-1.34 5.42-2.15 8.09-1.6 5.34-3.62 10.57-6.3 15.46-9.68 17.62-30.28 27.37-49.97 25.58-5.58-.51-11.81-1.64-17.04-3.71-11.24-4.43-19.02-11.63-25.18-21.98-.61-1.03-6.75-12.17-6.4-12.38z" fill="#F4D9BF"/><path d="M96.5 125.12a4.321 4.321 0 11-8.642-.002 4.321 4.321 0 018.642.002z" fill="#461A00"/><path d="M90.51 123.45c0 .49-.39.88-.88.88s-.88-.39-.88-.88.4-.88.88-.88.88.39.88.88z" fill="#fff"/><path d="M136.45 119.33a4.321 4.321 0 11-8.642-.002 4.321 4.321 0 018.642.002z" fill="#461A00"/><path d="M130.459 117.66c0 .49-.39.88-.88.88s-.88-.39-.88-.88.4-.88.88-.88c.48-.01.88.39.88.88z" fill="#fff"/><path d="M95.44 105.65c-2.19-.57-4.85.37-6.88 1.21-2.23.93-4.58 2.01-6.03 4.02-.51.71.27 1.71 1.08 1.49 2-.56 3.74-1.88 5.59-2.81 2.05-1.04 4.27-1.76 6.36-2.7.52-.24.41-1.07-.12-1.21zm41.97 1.64c-.8-1.18-1.89-1.96-3.17-2.57-.65-.31-1.31-.54-2-.73-.38-.11-.79-.27-1.18-.3-.34-.03-1 .08-1.3.02-.46-.09-.76.38-.47.76.77.98 2.32 1.34 3.39 1.9 1.28.67 2.46 1.54 3.85 2 .59.19 1.26-.52.88-1.08z" fill="#51382F"/><path d="M105.61 153.06c-1.69-2.36-4.94-1.62-7.09-.31-.69.42-.3 1.68.54 1.39.93-.32 1.81-.46 2.79-.4.95.05 1.71.51 2.62.73.73.17 1.68-.66 1.14-1.41z" fill="#C69474"/><path opacity=".7" d="M82.58 135.97c-.26-1.95-3.82-3.08-7.94-2.53-4.13.55-7.26 2.58-7 4.54.26 1.95 3.82 3.08 7.95 2.53 4.12-.56 7.25-2.59 6.99-4.54zm-13.19 1.05c.01.04 0 .08-.01.12 0 .03-.01.05-.02.07 0 .15-.09.3-.22.33-.04.04-.07.07-.12.11-.18.12-.4-.01-.47-.19a.296.296 0 01-.02-.1c-.06-.09-.08-.2 0-.31.04-.05.08-.09.11-.14.09-.11.2-.2.32-.29.27-.2.52.14.43.4zm3.24-.18c-.63.14-1.59.27-2.06-.3-.41-.5 0-1.17.43-1.51.35-.28.77-.49 1.21-.56 1.07-.27 2.35-.12 2.2 1.03-.1.81-1.09 1.18-1.78 1.34zm73.22-8.15c-.26-1.95-3.82-3.08-7.94-2.53-4.13.55-7.26 2.58-7 4.54.26 1.95 3.82 3.08 7.95 2.53 4.12-.56 7.25-2.59 6.99-4.54zm-13.2 1.04c.01.04 0 .08-.01.12 0 .03-.01.05-.02.07 0 .15-.09.3-.22.33-.04.04-.07.07-.12.11-.18.12-.4-.01-.47-.19-.01-.03-.02-.06-.02-.1-.06-.09-.08-.2 0-.31.04-.05.08-.09.11-.14.09-.11.2-.2.32-.29.27-.2.53.14.43.4zm3.24-.18c-.63.14-1.59.27-2.06-.3-.41-.5 0-1.17.43-1.51.35-.28.77-.49 1.21-.56 1.07-.27 2.35-.12 2.2 1.03-.1.81-1.09 1.19-1.78 1.34z" fill="#F9CBC9"/><path d="M269.36 191.75s-37.26 4.46-51.96-1.05c-14.7-5.51-26.24-6.3-30.97-16.01-4.72-9.71 7.87-16.27 4.72-22.31-3.15-6.04-14.43-19.94-4.99-29.13 9.45-9.18 10.5-10.5 6.82-30.18-3.67-19.68-2.1-51.96 34.38-75.58 36.48-23.62 64.56-10.76 70.59-.52 0 0 26.24 1.31 41.46 39.89 15.22 38.58-10.5 45.66-2.89 64.03 7.61 18.37 13.91 19.94 5.25 32.02-8.66 12.07 6.82 13.91.79 26.77-6.02 12.85-40.92 19.15-73.2 12.07z" fill="#3E2F28"/><path d="M222.25 149.27s47.25-63 86.5-3c0 0 10.75 165.5 9.08 186.17l-105-2s14.17-157.33 9.42-181.17z" fill="#404040"/><path d="M253.17 171.11l9.33 26.67s-10.83 10.83-26.17 19.5c-15.33 8.67-23.67 8-24.5-9.33-.83-17.33 3.5-55.83 10.42-58.67 6.92-2.84 9.75 42.5 9.75 42.5l21.17-20.67zm55.58-24.84s-8.5 41.75-8.75 44.5 7.5 21.25 13.75 65.5 3.5 51.25 3.5 52.25 17.75-.5 18.5-.25.57-64.32-4.75-94c-6-33.5-15-58-22.25-68z" fill="#4F4F4F"/><path d="M252 127.52s-.75 15.25 17.25 15.75 17-17.25 17-17.25l-34.25 1.5zm2 45.26s13.5-22.5 21.5-22.83c8-.33 13 24.5-13.17 46.17L254 172.78z" fill="#EFCAA6"/><path d="M260.33 222.94s.17-29.33 2.33-48.5c2.17-19.17 14.83-36.83 27-11.17 12.17 25.67 14.67 49.5 14.67 49.5s-8 18.67-44 10.17z" fill="#95DCFF"/><path d="M214.33 95.45c-.84-5.11-5.79-9.59-11.08-7.91-2.8.89-4.89 5.03-5.57 7.62-1.04 3.97 1.38 8.11 3.16 11.42 1.5 2.78 5.61 3.74 8.45 3.77 2.68.03 5.38-3.99 6.25-6.11 1.34-3.25.71-6.05-1.21-8.79z" fill="#EFCAA6"/><path opacity=".5" d="M213.49 97.48c-.59-3.07-4.04-5.76-7.72-4.75-3.3.9-4.46 4.41-3.65 7.5 1.01 3.86 3.89 6.16 7.86 6.19 1.87.02 3.75-2.4 4.36-3.67.93-1.94.49-3.62-.85-5.27z" fill="#C69474"/><path d="M334.23 88.15c-2.31-7.24-12.16-7.46-16.34-2.25-.32.4.04 1 .49 1.08-.61.61-1.16 1.33-1.6 2.17-3.48 6.56-.97 18.92 8.45 17.64 9.04-1.22 11.37-11.23 9-18.64z" fill="#EFCAA6"/><path opacity=".5" d="M329.02 91.57c-1.55-4.2-8.16-4.32-10.97-1.31-.21.23.03.58.33.63-.41.36-.77.77-1.07 1.26-2.34 3.8-.65 10.97 5.67 10.23 6.07-.71 7.63-6.51 6.04-10.81z" fill="#C69474"/><path d="M208.17 66.44c-1.38-.03-11.33 70.33 53.67 68 65-2.33 60-52.33 60.33-69.33 0 0-17-13.67-22-26.67 0 0-15 29.67-92 28z" fill="#F4D9BF"/><path d="M244.84 95.89c0 2.38-1.93 4.32-4.32 4.32a4.321 4.321 0 010-8.64c2.38 0 4.32 1.94 4.32 4.32z" fill="#461A00"/><path d="M238.84 94.22c0 .49-.39.88-.88.88s-.88-.39-.88-.88.4-.88.88-.88c.49 0 .88.39.88.88z" fill="#fff"/><path d="M291.44 94.45a4.321 4.321 0 11-8.642-.002 4.321 4.321 0 018.642.002z" fill="#461A00"/><path d="M285.449 92.77c0 .49-.39.88-.88.88s-.88-.39-.88-.88.4-.88.88-.88.88.4.88.88z" fill="#fff"/><path d="M267.58 124.6c-2.61-1.53-5.8-.44-8.21.97-.77.45-.32 1.75.58 1.49 2.29-.67 4.39-1 6.74-.48 1.15.25 2.01-1.33.89-1.98z" fill="#C69474"/><path d="M302.6 79.97c-2.39-2.63-6.13-2.89-9.46-3.53-4.51-.86-9-1.15-13.5-1.97-.4-.07-.83.4-.46.75 2.37 2.21 5.53 2.15 8.49 2.94 4.63 1.23 9.3 2.21 13.92 3.45.95.24 1.68-.89 1.01-1.64zm-58.56-4.34c-6.3 2.55-15.77 1.98-20.9 6.87-.7.66-.01 1.62.83 1.51 3.84-.5 7.83-1.9 11.51-3.07 2.94-.93 7.49-1.68 9.16-4.68.22-.42-.2-.79-.6-.63z" fill="#3E2F28"/><path opacity=".7" d="M237.99 110.37c-.18-1.96-4.02-3.31-8.59-3.01-4.56.3-8.12 2.13-7.94 4.1.18 1.96 4.02 3.31 8.59 3.01 4.57-.3 8.12-2.13 7.94-4.1zm-14.55.23c.01.04 0 .08-.02.12 0 .03-.01.04-.02.07-.01.15-.12.29-.27.32-.04.04-.08.07-.14.1-.21.12-.44-.04-.5-.22a.296.296 0 01-.02-.1c-.06-.09-.08-.2.02-.31.04-.05.09-.09.13-.13.1-.1.23-.19.37-.27.31-.18.57.17.45.42zm3.57.02c-.7.1-1.76.17-2.24-.43-.42-.53.06-1.17.55-1.48.4-.26.87-.44 1.36-.48 1.19-.2 2.59.03 2.36 1.16-.15.81-1.26 1.12-2.03 1.23zm77.82-3.08c-.18-1.96-4.02-3.31-8.59-3.02-4.56.3-8.12 2.13-7.94 4.1.18 1.96 4.02 3.31 8.59 3.01 4.56-.29 8.11-2.13 7.94-4.09zm-14.55.23c.01.04 0 .08-.02.12 0 .02-.01.04-.02.07-.01.15-.12.29-.27.32-.04.03-.08.07-.14.1-.21.11-.44-.04-.5-.22-.01-.03-.02-.06-.02-.1-.06-.09-.08-.2.02-.31.04-.05.09-.09.13-.13.1-.1.23-.19.37-.27.3-.19.57.17.45.42zm3.57.02c-.7.1-1.76.17-2.24-.43-.42-.53.06-1.17.55-1.47.4-.26.87-.44 1.36-.48 1.19-.2 2.59.02 2.36 1.16-.16.79-1.27 1.11-2.03 1.22z" fill="#F9CBC9"/><path d="M494.75 319.55s-5.38-47.82-8.23-80.75c-2.85-32.93-8.23-83.28-5.38-98.8 0 0-19-16.47-38.63-19 0 0-16.47-9.82-47.5 23.12 0 0 7.28 19.63 7.6 51.62.32 31.98 2.53 110.52-2.22 123.5-.01-.01 58.26 8.86 94.36.31z" fill="#4A4A4A"/><path d="M444.73 323.09c-1.46-13.08-2.13-26.24-2.78-39.41-1-20.54-2.25-41.08-2.49-61.64-.24-20.46.47-40.67 3.94-60.86 1.54-8.94.46-18.22.46-27.26 0-4.32-.46-8.59-.96-12.86l-.4-.06s-16.47-9.82-47.5 23.12c0 0 7.28 19.63 7.6 51.62.32 31.98 2.53 110.52-2.22 123.5 0-.01 20.3 3.08 44.35 3.85z" fill="#666"/><path d="M538.5 182.52c.7-.27 3 16.5 7.75 24.25 0 0-22.75 17-39 19.5s-25.75-39.5-28-48.75c0 0-2.99-30.06 1.88-37.53 0 0 13.37 8.53 30.37 55.53 0 0 21.25-10.75 27-13zM395 144.11s8.75 24.16 9 85.41-2.75 85-2.75 85l-23-3s2.25-44.25 4.5-91.5 8.74-82.82 12.25-75.91zm69.17 117c.04-1 12.17 1.83 24.58-1.33 0 0 4.25 21-7.25 23.25s-18.08-1.92-17.33-21.92z" fill="#404040"/><path d="M403.17 257.61s8.33 1.5 19 .5c0 0 3.05 19.62-6.17 23.67-6.83 3-12.83 1.17-12.83-2.5v-21.67zm25.16-138.5s-20.5 9.17-21.33 13.67c-.83 4.5 18.67 10.5 18.67 12.17s-8.33 4.83-8.33 6.67c0 1.83 21 11.17 23.33 19.67 0 0 23.17-20.5 24.5-21.83 1.33-1.33-10.33-4.5-9-6.67s14.5-9.17 15-11.33c.5-2.18-30.17-17.52-42.84-12.35z" fill="#404040"/><path d="M429.83 120.44s10 35.33 10.83 50.83c0 0 8.67-31.33 7.67-49-1-17.66-17.83-7.33-18.5-1.83zm109.4 63.94s.83-5.66 7.9-10.49 11.67-2.71 7.66 3.06c-4.01 5.78 6.361-1.18 7.541 10.49 1.18 11.67-14.851 20.62-17.911 15.2-3.07-5.42-5.19-18.26-5.19-18.26z" fill="#EFCAA6"/><path d="M456.5 110.27l32-3s4.75-4.25 15.5-13.75 13-12 18-12.25c0 0-2.25-5.5-5.75-11.25 0 0 3-.25 8 4.75 0 0 1.25-16.25-12.25-41.75s-25.75-19.25-28.75-16.75c0 0 0-17-36.25-16.25s-71 14.25-86.5 54l10.75-4.75S363 61.02 361 66.02c0 0 5.25-.5 7.75-.75 0 0-5.25 6.5-5.5 8.25 0 0 6.5 2.25 18.5 17s30.75 15.5 33.75 15.25 41 4.5 41 4.5z" fill="#612C1C"/><path d="M393.53 82.17c-.9-4.92-7.6-6.77-11.27-2.83-4.02 4.33-3.54 13.14.96 16.88 4.21 3.51 11.99 4.77 13.98-1.56 1.13-3.6-.43-9.59-3.67-12.49z" fill="#EFCAA6"/><path opacity=".5" d="M394.1 83.73c-.63-3.48-5.37-4.78-7.96-2-2.84 3.06-2.5 9.29.68 11.93 2.98 2.48 8.47 3.37 9.88-1.1.79-2.55-.31-6.78-2.6-8.83z" fill="#C69474"/><path d="M508.5 81.04c-1.98-7.06-10.59-9.55-14.48-2.64-.28.49.03.94.46 1.04-2.52 2.65-3.3 7.56-2.94 10.97.43 4.05 2.94 5.96 6.84 6.07 3.99.11 6.77-1.55 9.12-4.69 2.37-3.17 1.99-7.24 1-10.75z" fill="#EFCAA6"/><path opacity=".5" d="M504.29 82.33c-1.3-4.64-6.96-6.28-9.52-1.74-.18.32.02.62.3.68-1.66 1.74-2.17 4.97-1.93 7.21.28 2.66 1.93 3.92 4.5 3.99 2.62.07 4.45-1.02 6-3.08 1.55-2.08 1.3-4.76.65-7.06z" fill="#C69474"/><path d="M388.17 69.11s-1.67 58 51.33 58 57-31 60.67-65.33l-4 10s-9.67-20.33-13.33-26l-2.67 15.33s-10.33-9-12.67-13.67c0 0-8.75 12.08-14.25 12.83l3-11.25s-19 16.25-41.5 14.5c0 0 1.75-11.5 4.5-15.25 0 0-14.25 10-21.75 21 0 0-4-7-3.25-16.75 0 0-5.17 10.42-6.08 16.59z" fill="#F4D9BF"/><path d="M421.13 98.15a4.321 4.321 0 11-8.642-.002 4.321 4.321 0 018.642.002z" fill="#461A00"/><path d="M415.13 96.48c0 .49-.39.88-.88.88s-.88-.39-.88-.88.4-.88.88-.88c.49 0 .88.39.88.88z" fill="#fff"/><path d="M466.87 98.15a4.321 4.321 0 11-4.32-4.32c2.38 0 4.32 1.94 4.32 4.32z" fill="#461A00"/><path d="M460.87 96.48c0 .49-.39.88-.88.88s-.88-.39-.88-.88.4-.88.88-.88c.49 0 .88.39.88.88z" fill="#fff"/><path d="M466.68 80.79c-3.42-2.46-8.03 0-11.64-2.01-.31-.17-.77.17-.54.51 1.08 1.57 2.64 2.6 4.58 2.8 2.32.24 4.73.43 7.06.48 1 .02 1.29-1.23.54-1.78zm-46.72-1.07c-1.31 1.05-5.1.9-6.59.88-2.27-.04-5.09-.16-6.96 1.23-.42.31-.33 1.12.13 1.34 2.66 1.3 6.92.48 9.76-.14 1.43-.31 4.63-.93 4.56-2.9 0-.5-.52-.71-.9-.41z" fill="#4C2C1C"/><path d="M446.92 121.46c-1.95-.34-3.92-.12-5.89-.17-1.94-.04-3.71-.1-5.62.26-.37.07-.41.7-.02.77 3.74.71 7.69 1.5 11.49.78.78-.15.88-1.49.04-1.64z" fill="#C69474"/><path opacity=".7" d="M414.3 106.97c-.15-1.72-3.51-2.89-7.49-2.63-3.98.26-7.09 1.86-6.93 3.58.16 1.71 3.51 2.89 7.49 2.63 3.98-.26 7.08-1.86 6.93-3.58zm-12.7.2c.01.04 0 .07-.02.11 0 .02-.01.04-.02.06-.01.13-.1.26-.23.28-.04.03-.07.06-.12.09-.18.1-.38-.03-.44-.19-.01-.03-.01-.06-.02-.08-.06-.08-.07-.18.02-.27.04-.04.08-.08.11-.12.09-.09.2-.17.32-.24.27-.16.5.14.4.36zm3.11.02c-.61.09-1.54.15-1.96-.37-.37-.46.05-1.02.48-1.29.35-.22.76-.38 1.19-.42 1.04-.18 2.26.02 2.06 1.01-.13.7-1.1.98-1.77 1.07zm80.91-.22c-.15-1.72-3.51-2.89-7.49-2.63-3.98.26-7.09 1.86-6.93 3.58.16 1.71 3.51 2.89 7.49 2.63 3.99-.26 7.09-1.86 6.93-3.58zm-12.7.2c.01.04 0 .07-.02.11 0 .02-.01.04-.02.06-.01.13-.1.26-.23.28-.04.03-.07.06-.12.09-.18.1-.38-.03-.44-.19-.01-.03-.01-.06-.02-.08-.06-.08-.07-.18.02-.27.04-.04.08-.08.11-.12.09-.09.2-.17.32-.24.28-.16.51.14.4.36zm3.12.02c-.61.09-1.54.15-1.96-.37-.37-.46.05-1.02.48-1.29.35-.22.76-.38 1.19-.42 1.04-.18 2.26.02 2.06 1.01-.14.7-1.1.98-1.77 1.07z" fill="#F9CBC9"/><path d="M573.2 355.03s.25 46 1.5 72.75 2.5 32.5-4.75 35.75-25 6.5-24.5 12 18.5 5.5 29.25 4.25 15.5-1.5 15-14.75 4.25-102 2.25-110-18.75 0-18.75 0z" fill="#EFCAA6"/><path d="M589.67 462.77c-7.31 3.89-15.11 6.99-23.14 8.49-5.22.98-10.49 1.01-15.06-1.26-3.64 1.59-6.21 3.39-6.01 5.53.5 5.5 18.5 5.5 29.25 4.25s15.5-1.5 15-14.75c-.03-.6-.04-1.36-.04-2.26z" fill="#1C1C1C"/><path d="M602.2 356.53s.25 46 1.5 72.75 2.5 32.5-4.75 35.75-25 6.5-24.5 12 18.5 5.5 29.25 4.25 15.5-1.5 15-14.75 4.25-102 2.25-110-18.75 0-18.75 0z" fill="#EFCAA6"/><path d="M618.67 464.27c-7.31 3.89-15.11 6.99-23.14 8.49-5.22.98-10.49 1.01-15.06-1.26-3.64 1.59-6.21 3.39-6.01 5.53.5 5.5 18.5 5.5 29.25 4.25s15.5-1.5 15-14.75c-.03-.6-.04-1.36-.04-2.26z" fill="#1C1C1C"/><path d="M543.5 296.11c-.33 1 .33 20.17 2.5 43.5s1.5 26.5 3.5 28.17c2 1.67 35 .83 48.33 0 13.33-.83 32.17-2.83 34.33-6.17 2.17-3.33-2-63.33-2-64.83s-29.5-23.67-47-21.67-39.66 21-39.66 21z" fill="#404040"/><path d="M538.66 302.93s.83-86.75 6.91-110.78c6.08-24.04 25.69-30.11 38.68-30.11 12.98 0 39.78 8.01 45.31 34.26 5.53 26.25 6.35 102.22 6.35 102.22s-15.4 14.27-51.15 9.02L583 288.77l-2.25 19.25s-30.93 2.81-42.09-5.09z" fill="#4A4A4A"/><path d="M583.27 283.59c.06-15.86-.1-31.72-.09-47.59 0-7.9-.15-15.84.18-23.73.3-7.35 1.72-14.53 3.02-21.74 1.68-9.26 2.05-18.89 4.67-27.9-2.51-.41-4.82-.6-6.81-.6-12.98 0-32.6 6.08-38.68 30.11-6.08 24.04-6.91 110.78-6.91 110.78 11.16 7.9 42.09 5.09 42.09 5.09l2.25-19.25c.01.01.27-2.61.28-5.17z" fill="#666"/><path d="M580.83 161.77s-17.67 6.83-18.5 10c-.69 2.6 11.83 7.33 11.67 9.33-.16 2-7 8.33-7 10s15.88 7.51 16.17 11.5c.17 2.33 22-12.17 24.17-14 2.17-1.83-8.67-4.5-6-6.67s12-8.67 11.33-10.67c-.67-2-19.67-11.15-31.84-9.49z" fill="#404040"/><path d="M578.21 164.37s4.83 26.58 4.95 38.79c0 0 10.51-28.64 11.12-38.55.61-9.91-17.16-6.28-16.07-.24z" fill="#EFCAA6"/><path d="M602.62 269.9c0 .62.12 6.88 1.12 7.12 1 .24 20.5-.88 22.38-.75 1.88.13.62-8 .62-8s-24.12 1.38-24.12 1.63zm-40 .12c.37-.04 0 6.62-.75 6.75-.75.13-15.5 1.88-22.38.75l.07-7.43c.01.01 7.94 1.81 23.06-.07z" fill="#404040"/><path d="M625.38 184.9c-2.34-.49-4.25 7.88-3.25 33.12s6.71 93.92 8.38 96.25c1.67 2.33 19.83.83 20.83-.33 1-1.17-2.5-41-5.17-64.17-2.67-23.16-13.09-63.25-20.79-64.87zm-73.88-.79c-.28 2.73-6.17 28.33-6.33 55.83-.17 27.5.17 63.17.67 68.67 0 0-11.17 3.17-14.5-.83s-.5-41.6 2.5-73.5c3.33-35.51 19.66-69.67 17.66-50.17z" fill="#404040"/><path d="M655.68 332.82c-.69-3.36-1.93-6.81-3.06-10.05-.45-1.29-1.12-2.49-1.55-3.78-.43-1.3-.7-2.51-1.52-3.62-1.55-2.09-5.95-.18-7.91.02-1.51.15-3.12.03-4.61-.12-.96-.1-1.88-.67-2.83-.15-.32.18-.49.58-.6 1.03-.22.56-.37 1.16-.57 1.68-.78 2.03-1.36 4.09-1.91 6.19-.41 1.58-2.08 6.23-.68 7.71 1.42 1.5 3.78-2.84 5.58-6.92-.07.88-.1 1.76-.16 2.62-.18 2.54-.36 5.16-.13 7.71.19 2.14.43 4.3.92 6.39.25 1.08.45 2.17 1.54 2.6.14.06.36.01.46-.11 1-1.13.96-2.89 1.11-4.33.27-2.6.36-5.18.51-7.78.06-1.01.14-2.03.22-3.05.29 2.34.76 4.68 1.07 6.93.11.78.61 8.29 2.71 7.52 2.13-.77 1.74-6.75 1.76-8.37.02-1.04.02-2.09.02-3.14.2.94.41 1.86.67 2.76.53 1.87.75 5.99 2.63 7.11.21.13.53.12.71-.07 1.77-1.96 1.38-6.17 1.09-8.54l-.21-1.8c.96 3.84 2.58 8.51 4.79 7.3 1.63-.88.2-4.55-.05-5.74zm-109.29-11.5c-.41-3.94-1.3-8.61-3.58-11.91-.01-.01-.02-.01-.03-.02-.08-.18-.26-.32-.46-.25-2.14.79-4.96-.02-7.13-.25-.99-.1-2.28-.05-2.67 1.12-1.91 5.71-.49 11.8-.5 17.64 0 2.46.47 4.93 1.53 7.15.35.73 1.6 1.61 2.25.69 1.17-1.66 1.22-4.35 1.49-6.31.08-.59.17-1.19.26-1.79.03.73.09 1.46.17 2.2.23 2.09.5 6.01 2.6 7.19.19.11.46.15.64.02 1.77-1.2 1.27-4.98 1.36-6.83.1-2.02.05-3.98-.08-5.99-.01-.15 0-.3-.01-.46.18.39.37.79.56 1.18.37.76 2.62 4.63 3.76 2.25.83-1.74.03-3.82-.16-5.63zm-6.96-198.71c-.87-5.23-5.26-10.96-10.69-6.92-6.94 5.16-6.74 15.21-.16 20.63 6.09 5.02 12.84 1.78 13.43-5.79.14-1.79-.91-5.16-2.58-7.92z" fill="#EFCAA6"/><path opacity=".5" d="M538.64 124.15c-.58-3.49-3.51-7.31-7.13-4.62-4.63 3.44-4.5 10.14-.11 13.76 4.06 3.35 8.56 1.18 8.96-3.87.1-1.18-.6-3.43-1.72-5.27z" fill="#C69474"/><path d="M648.99 119.35c-3.58-2.67-9.83-1.53-12.54 1.97-1.32.59-2.49 1.49-3.3 2.62-2.86 4.03-2.95 8.47-1.8 13.12 2.35 9.44 12.42 9.13 18.63 3.74 7.02-6.07 6.09-16.17-.99-21.45z" fill="#EFCAA6"/><path opacity=".5" d="M644.32 123.3c-2.39-1.78-6.56-1.02-8.37 1.32-.88.39-1.66.99-2.2 1.75-1.91 2.69-1.97 5.65-1.2 8.76 1.57 6.3 8.29 6.1 12.44 2.49 4.67-4.05 4.05-10.8-.67-14.32z" fill="#C69474"/><path d="M537.56 96.46s-8.83 32.68 6.95 49.77c15.78 17.09 51.83 27.79 80.19 6.01 28.36-21.79 8.83-57.47 8.83-57.47s.94 11.08-4.32 11.27c-5.26.19-6.57-15.96-6.57-15.96s-.56 13.9-7.32 15.02c-6.76 1.13-10.89-16.9-10.89-16.9s-5.26 19.35-9.39 18.22c-4.13-1.13-10.52-19.53-10.52-19.53s-7.33 18.97-12.4 18.59c-5.07-.38-4.32-16.9-4.32-16.9s-8.83 18.78-14.27 19.15c-5.45.38-4.13-15.78-4.13-15.78s-10.71 38.13-11.84 4.51z" fill="#F4D9BF"/><path d="M612.64 119.87c-.84-2.73-3.81-3.75-6.34-4.49-3.17-.93-6.09-.44-9.24.13-.51.09-.39.85.09.88 2.63.15 5.16.07 7.67.99 2.46.9 4.11 2.3 6.31 3.57.73.42 1.78-.2 1.51-1.08zm-45.17-4.2c-3.94-.7-11.81-.1-14.11 3.82-.47.79.25 2.11 1.26 1.73 1.97-.72 3.66-1.93 5.69-2.61 2.35-.78 4.74-1.45 7.14-2.07.39-.1.48-.78.02-.87z" fill="#2A3A49"/><path d="M587.53 157.92c-2.66-.29-5.37-.57-8.01-.71-.49-.03-.79.62-.43.96.91.88 2.33 1.29 3.53 1.58 1.83.46 3.58.81 5.38.09 1.03-.42.43-1.82-.47-1.92zm20.59-28.31c-2.25.34-4.07 1.3-6.41.65-1.38-.38-2.37-1.67-3.71-2.23-.48-.2-.78.38-.62.76.87 2.07 2.13 3.49 4.26 4.28 2.39.88 5.79.31 7.52-1.56.78-.86.08-2.07-1.04-1.9zm-37.15-2.65c-1.48.99-3.19 1.68-4.91 2.1-1.06.26-2.18.57-3.28.6-.85.03-1.74-.64-2.54-.89-1.27-.41-2.06 1.14-1.29 2.08 3.25 3.95 10.85.82 12.79-3.08.22-.46-.24-1.16-.77-.81z" fill="#C69474"/><path opacity=".7" d="M628.95 140.97c-.15-1.72-3.51-2.89-7.49-2.63-3.98.26-7.09 1.86-6.93 3.58.16 1.71 3.51 2.89 7.49 2.63 3.99-.26 7.09-1.86 6.93-3.58zm-12.7.2c.01.04 0 .07-.02.11 0 .02-.01.04-.02.06-.01.13-.1.26-.23.28-.04.03-.07.06-.12.09-.18.1-.38-.03-.44-.19-.01-.03-.01-.06-.02-.08-.06-.08-.07-.18.02-.27.04-.04.08-.08.11-.12.09-.09.2-.17.32-.24.28-.16.51.14.4.36zm3.12.02c-.61.09-1.54.15-1.96-.37-.37-.46.05-1.02.48-1.29.35-.22.76-.38 1.19-.42 1.04-.18 2.26.02 2.06 1.01-.14.7-1.1.98-1.77 1.07zm-59.75 1.12c-.15-1.71-3.51-2.89-7.49-2.63-3.98.26-7.09 1.86-6.93 3.58.16 1.71 3.51 2.89 7.49 2.63 3.99-.27 7.09-1.87 6.93-3.58zm-12.7.2c.01.03 0 .07-.02.11 0 .02-.01.04-.02.06-.01.13-.1.26-.23.28-.04.03-.07.06-.12.09-.18.1-.38-.03-.44-.19-.01-.03-.01-.05-.02-.08-.06-.08-.07-.18.02-.27.04-.04.08-.08.11-.12.09-.09.2-.17.32-.24.28-.17.5.13.4.36zm3.12.01c-.61.09-1.54.15-1.96-.38-.37-.46.05-1.02.48-1.29.35-.22.76-.38 1.19-.42 1.04-.18 2.26.02 2.06 1.01-.14.71-1.11.99-1.77 1.08z" fill="#F9CBC9"/><path d="M547.83 336.01H125.94v6.87h421.89v-6.87z" fill="#2A3A49"/><path d="M546.11 346.34H127.66v143.29h418.45V346.34zm2.06-9.83H125.61l27.12-23.47h375.32l20.12 23.47z" fill="#394C5F"/><path d="M524.441 368.78h-375.11v97.23h375.11v-97.23z" fill="#2A3A49"/><path d="M517.8 378.06H155.98v78.68H517.8v-78.68z" fill="#48586E"/><path d="M555.651 483.24h-438.01v15.49h438.01v-15.49z" fill="#272726"/><path d="M550.771 342.27h-427.76v15.5h427.76v-15.5z" fill="#48586E"/><path d="M84.61 465.12v37.93h37.52v-37.93c-20.32-13.86-37.52 0-37.52 0zm466.31 0v37.93h37.52v-37.93c-20.32-13.86-37.52 0-37.52 0z" fill="#2A3A49"/><path d="M432.35 320.88c-1.87-3.42-6.19-6.33-9.7-7.76-1.61-.66-3.26-.96-4.92-.99 1.87-1.02 3.8-1.94 5.89-2.67 1.63-.57 3.29-.98 4.99-1.26.87-.15 2.16.11 2.96-.39.33-.21.5-.73.16-1.03-2.7-2.39-6.17-3.29-9.72-3.15 2.95-2.07 5.9-4.36 7.95-7.36.34-.49-.18-1.12-.72-.99-4.69 1.07-8.93 2.94-13 5.35 1.27-1.54 2.23-3.22 2.61-4.97.09-.39-.16-.96-.65-.91-1.86.19-3.61.64-5.32 1.23.13-.13.26-.26.38-.39 2.25-2.36 5.2-5.21 5.44-8.64.03-.49-.44-.78-.88-.71-3.12.53-6.36 1.56-9.21 3.15a60.67 60.67 0 002.43-3.12c.67-.93 2.5-3.23 2.18-4.53-.59-2.4-6.05.46-7.28 1.04-2.5 1.18-5.23 2.89-7.46 4.93.17-.6.33-1.21.45-1.83.67-3.55-.56-6.83-2.04-9.97-.28-.59-1.04-.37-1.26.13-1.1 2.54-3.17 4.87-4.98 6.92-.64.73-1.4 1.48-2.11 2.27-.06-4.75-1.47-9.43-4.58-13.23-.34-.42-.91-.15-1.09.26-.89 2.07-1.49 4.24-2.37 6.3-.58 1.35-1.22 2.67-1.83 4.01.14-3.19-.07-6.4-.6-9.44-.06-.35-.39-.54-.71-.58-2.89-.33-6.39 1.1-9.01 2.17-3.59 1.47-6.29 3.58-9.27 5.88.43-1.05.78-2.13 1.06-3.24.24-.96 1.31-7.16-1.08-6.71-3.79.7-7.42 3.65-10.3 6.07-.48.4-.98.85-1.48 1.32 1.44-3.71 1.96-7.67.87-11.6a.666.666 0 00-.79-.48c-2.06.46-3.95 1.99-5.56 3.29-2.34 1.88-4.57 3.85-6.5 6.16-.67.81-1.33 1.68-1.96 2.58.46-2.14.74-4.31.81-6.51.06-1.69.29-4.46-.5-6.04-.62-1.24-1.62-.69-2.62-.17-4.07 2.14-7.46 5.69-10.24 9.28-1.48 1.9-2.82 3.91-3.82 6.04-.29-.67-.58-1.34-.87-1.99-1.47-3.24-3.79-7.2-6.66-9.39-.38-.29-1.01-.03-1.12.42-.99 4.08-.8 7.94.04 11.8-.08-.12-.14-.24-.22-.36-.92-1.38-2.16-2.57-3.33-3.73-.78-.77-1.55-1.95-2.69-2.17-.51-.1-.87.18-.95.68-.4 2.62-.56 6.26.12 9.46-.85-.83-1.74-1.6-2.61-2.3-3.8-3.06-8.45-5.28-13.35-5.25-.56 0-1.06.64-.72 1.18 1.09 1.71 2.44 3.28 3.54 5.02.74 1.17 1.35 2.42 1.92 3.69-.34-.32-.69-.63-1.05-.94-2.18-1.88-4.79-4.22-7.48-5.28-.49-.19-.97.25-1 .72-.18 3.04.28 6.79 1.61 9.98-.46-.42-.9-.83-1.32-1.22-2.22-2.09-4.9-4.72-7.74-5.92-.35-.15-.85.12-.93.49-1.03 4.72-.85 10.56.77 15.53-2.44-2.87-5.55-5.15-8.28-7.81-.38-.37-1.25-.19-1.19.45.29 2.82 1.06 5.6 2.35 8.11-1.1-1.02-2.42-1.44-3.81-2.09-2.67-1.24-6.22-1.84-9.14-1.7-.61.03-1.01.62-.72 1.19 1.63 3.26 3.68 6.41 6.31 8.8-1.27.08-2.53.27-3.8.69-3.51 1.14-6.43 4.04-8.5 6.96-.43.61.23 1.26.85 1.17 3.78-.53 7.57-.65 11.4-.46.39.02.77.07 1.14.13-3.39 1.5-6.12 3.7-8.78 6.36-.41.41-.23 1.04.29 1.24 7.53 2.86 16.47 2.22 24.16.3 5.38-1.34 10.82-2.58 15.09-5.68-1.26 1.94-3.58 4.89-5.81 5.61-.58.19-.68 1.06-.04 1.25 4.26 1.25 9.21-.06 13.06-1.95 1.67-.82 3.3-1.7 4.81-2.72.27 1.09.68 2.16 1.24 3.22.64 1.21 1.54 2.3 2.44 3.33.49.56 1.57 2.1 2.46 2.12.36.01.76-.24.89-.57.71-1.9 1.43-3.63 2.48-5.38.92-1.53 1.76-3.08 2.53-4.65.4 1.15 1 2.26 1.69 3.39 1.57 2.56 3.48 4.02 5.92 5.62.39.26.91-.05.93-.5.08-1.91.74-3.79 1.03-5.68.21-1.36.24-2.77.12-4.16 1.3 1.87 3.15 3.52 4.68 4.77 3.02 2.46 6.48 4.67 10.42 5.22.4.06.75-.42.64-.79-.55-1.71-.68-3.49-1.02-5.24 1.87 1.87 4.39 3.34 6.23 4.5 3.62 2.28 8.71 4.27 13.08 3.77.38-.04.69-.56.56-.92-.67-1.73-1.69-3.52-2.81-5.2.02.01.04.03.06.04 2.05 1.19 4.33 2.07 6.54 2.9 2.45.91 4.89 1.6 7.45 2.1 1.62.32 3.74.85 5.35.51.56-.12.74-.84.36-1.24-1.3-1.39-2.58-2.87-3.9-4.32 4.14 2.45 9.02 3.88 13.72 4.09.33.02.63-.21.73-.52.36-1.17-.11-2.87-.29-4.09-.17-1.19-.5-2.37-.92-3.51.27.41.54.82.82 1.22.81 1.15 1.67 2.26 2.52 3.38.66.87 1.26 2.06 2.34 2.4.27.09.63-.03.77-.29.93-1.79 1.36-4.09 1.28-6.39 1.31 1.27 2.74 2.42 4.21 3.58 2.72 2.15 5.42 2.96 8.67 4.03.52.17.93-.32.85-.81-.21-1.27-.99-2.55-1.47-3.76-.29-.73-.6-1.45-.94-2.16.88.62 1.77 1.2 2.61 1.77 3.07 2.1 7.11 3.79 10.81 4.21.48.05.84-.47.73-.9-.51-2.04-1.52-4.13-2.88-5.99 2.66-.33 5.32-.34 8.02-.2 1.97.1 3.83.54 5.7 1.12.96.3 1.71.94 2.71 1.05.57.09.92-.6.67-1.05z" fill="#78B946"/><path d="M414.19 306.19c-.96-.07-2.03.3-3.05.35-1.65.07-3.37.04-5.07-.13 1.36-1.62 2.67-3.42 3.55-5.24.25-.53-.12-1.3-.8-1.1-1.24.37-2.46.76-3.68 1.14l1.68-3.18c.38-.71 2.14-3.16 1.19-4.03-1.01-.92-3.32.33-4.39.7-1.11.38-2.17.9-3.2 1.49.82-1.44 1.75-2.9 2.08-4.53.06-.32-.02-.63-.3-.81-1.23-.77-2.82.9-3.76 1.59-2.16 1.59-4.32 3.3-6.69 4.58.18-.33.36-.67.54-1.02 1.12-2.26 2.39-5.49 1.64-8.03a.62.62 0 00-1.02-.3c-1.81 1.61-3.17 3.52-5.17 4.97-1.48 1.07-3.19 2.71-4.99 3.61.25-.81.43-1.63.48-2.45.14-1.9.13-3.77-.02-5.67-.1-1.22.03-2.54-.77-3.56-.12-.16-.42-.25-.61-.18-1.84.71-3.15 2.9-4.48 4.25-1.21 1.23-2.45 2.45-3.76 3.57-.07-1.24-.18-2.47-.28-3.68-.14-1.75-.53-3.47-.77-5.21-.15-1.12.08-2.49-.44-3.54-.13-.26-.49-.43-.77-.34-4.49 1.55-8.54 4.04-11.84 7.35.14-1 .17-2.04-.19-2.94-.11-.28-.51-.35-.75-.22-1.52.84-2.82 2.06-4.01 3.38.22-1.57.49-3.13.71-4.7.13-.96.41-2.05-.38-2.75-.21-.19-.54-.3-.81-.13-2.38 1.57-4.78 3.12-7.07 4.83-1.46 1.1-3.02 2.21-4.17 3.63.05-.36.09-.71.14-1.06.5-3.55 1.61-7.28 1.68-10.87.01-.51-.52-.8-.96-.59-3.69 1.75-6.7 5.58-9.56 8.41-1.34 1.32-4.05 3.55-5.13 5.75.02-1.15.1-2.31.17-3.42.14-.21.28-.43.42-.64.27-.38.02-.82-.34-.99.13-3.02 1.1-6 1.31-9.02.02-.3-.21-.64-.51-.71-1.57-.35-3.59 1.97-4.8 2.87-2.3 1.7-4.4 3.7-6.18 5.94a47.9 47.9 0 00-2.54 3.57c-.64-1.39-1.14-3-1.34-4.26-.11-.67-.76-2.05-1.49-2.25-.32-.09-.58.04-.77.29-.71.92-.77 2.45-1.03 3.54-.38 1.56-.76 3.12-1.09 4.69-.94-1.81-1.82-3.64-2.88-5.36-.59-.96-2.29-1.43-2.42.13-.17 2.02-1.17 4.21-1.69 6.16-.27 1.03-.5 2.07-.69 3.12-.89-1.05-1.8-2.08-2.76-3.06-2.19-2.24-5.05-6.58-8.51-6.65a.78.78 0 00-.7 1.14c1.9 3.64 3.59 7.49 3.21 11.7-.1-.06-.21-.13-.31-.19-1.87-1.21-3.64-2.57-5.35-4-1.02-.85-1.85-1.98-2.99-2.66-.58-.35-1.18.18-1.09.79.42 2.84 1.16 5.6 1.37 8.48 0 .05.02.08.03.12-.67-.42-1.33-.85-2-1.26-1.4-.88-2.91-1.62-4.27-2.54-.79-.54-1.59-1.05-2.57-1.05-.49 0-.87.45-.75.93.64 2.7 2.38 5.1 3.17 7.79-.16.03-.33.05-.49.08-2.79.54-5.43 1.46-8.05 2.57-1.65.7-4.4 1.6-5.58 3.01-.36.43-.24 1.35.49 1.3 3.73-.3 7.35-.54 11.07-.53-1.68 1.21-3.27 2.54-4.87 3.84-1.5 1.22-3.88 2.94-4.47 4.86-.15.48.22 1.1.77 1.07 1.08-.06 1.97-.77 2.79-1.42 2.19-1.74 5.11-3.04 7.72-4 2.38-.88 4.89-1.42 7.38-1.89-.68.6-1.47 1-1.56 1.96-.04.48.44.76.86.7 3.16-.5 6.51-1.84 9.62-3.1-.58 1.9-1.11 3.87-.91 5.64.25 2.35 2.32 1.6 3.65.6 2.6-1.96 4.83-4.58 6.96-7.11.82 3.77 2.27 8.45 4.03 7.04 1.34-1.07 1.87-2.81 2.61-4.31.85-1.73 1.48-3.55 2.21-5.33.14 1.83.49 3.64 1.26 5.24.62 1.28 1.85 3.53 3.59 3.21.32-.06.55-.38.56-.7.07-3.75.67-7.58 1.68-11.34 1.49 2.67 3.2 5.18 4.88 7.78 1 1.55 2.93 6.15 5.28 5.8.22-.03.43-.25.48-.46.48-1.81-.32-4.16-.46-5.98-.16-2.06-.17-4.14-.13-6.22.16.18.32.36.49.54 1.88 2.02 3.79 4.01 5.58 6.11 2.63 3.1 5.39 6.33 9.4 7.61.43.14.98-.2.95-.68-.09-1.6-.68-3.12-.7-4.8-.02-2.01.43-4.09.95-6.07 1.71 2.1 3.88 3.96 5.76 5.82 2.61 2.58 5.28 5.11 7.84 7.74.48.49 1.36.18 1.38-.53.06-3.08 0-6.09.16-9.13 1.48 1.92 3.5 3.62 5.26 4.78 1.87 1.24 3.95 2.17 5.91 3.26 1.08.6 1.8 1.68 3.07 1.51.35-.05.61-.43.61-.76.02-1.32-.2-2.62-.28-3.95-.15-2.43.14-4.93.45-7.33.01-.05.01-.09.02-.14 1.48 1.38 2.84 3 4.24 4.36 1.93 1.88 4.2 3.37 6.54 4.67.45.25.94.05 1.12-.42.69-1.78 1.2-3.53 1.91-5.24.79 1.63 1.7 3.2 2.68 4.72.69 1.07 1.73 2.63 3 3.03.34.1.65-.05.85-.32.78-1.05.68-2.78.85-4.02.16-1.18.3-2.38.44-3.57.89 1.09 1.85 2.13 2.96 3.08 1.01.87 2.91 2.76 4.4 2.54.27-.04.47-.33.48-.59.03-.8-.46-1.52-.87-2.17-.78-1.23-1.52-2.5-2.26-3.77 3.7-.21 7.04-2.06 10.37-3.76.7-.31.38-1.32-.34-1.37z" fill="#3B9B45"/><path d="M316.571 308.92c.3-.13.57-.3.78-.53.71-.78.8-1.88-.09-2.54-.64-.48-1.76-.22-2.46.05.2-.75.14-1.61-.14-2.32-.6-1.51-2.28-1.9-3.62-1.08-1.44.87-1.06 2.82-.3 4.01l.12.15c-.51-.18-1.07-.24-1.65-.12-1.34.27-3.15 1.33-3.18 2.9-.02 1.34 1.06 2.03 2.26 2.3.6.13 1.17.11 1.71-.03-.26.41-.47.86-.61 1.38-.37 1.34.02 2.67 1.48 3 1.8.41 3.58-1.21 3.99-2.85.29.25.63.45 1.03.61 1 .39 2.48.22 2.85-.97.5-1.73-.64-3.31-2.17-3.96zm51.72-15.49c-.22-.01-.48.01-.75.05.82-1.22 1.1-2.79.66-4.23-.51-1.69-2.79-2.79-4.41-2.1-1.66.72-1.98 2.42-1.87 4.05-2.27-1.47-5.39-1.77-7.28.19-2.04 2.12.71 4.84 3.74 5.96-.95.39-1.83.9-2.54 1.54-1.39 1.24-1.83 3.47-.15 4.77 1.95 1.51 4.48.07 6.16-1.21.39-.3.99-.81 1.52-1.42-.14 1.57.34 3.48 2.17 3.73 1.88.25 3.12-1.2 3.4-2.94.11-.69.04-1.33-.15-1.92.59.12 1.22.18 1.87.2 2.08.06 3.61-1.22 3.18-3.35-.43-2.17-3.67-3.27-5.55-3.32zm27.85 5.72c-1.22-.91-2.99-1.01-4.42-.66.42-.82.44-1.88.04-2.75-.62-1.34-2.43-2.51-3.96-2.11-1.63.42-2.07 2.2-1.99 3.7.02.34.12.78.29 1.21-.54-.14-1.1-.19-1.66-.11-1.3.17-2.6.95-2.68 2.4-.14 2.45 2.24 3.22 4.26 2.71-.75.83-1.32 1.76-1.58 2.94-.23 1.02-.17 2.35 1.14 2.53 1.78.24 2.76-1.01 3.19-2.54.17.34.37.66.61.93.76.86 3.15 1.95 4.17.94 1.2-1.19.45-3.35-.12-4.69-.12-.29-.29-.56-.47-.82 1.04.25 2.18.06 3.13-.5 1.32-.8 1.23-2.3.05-3.18z" fill="#FFD060"/><path d="M354.941 306.15c-1.29-1.61-3.73-1.52-5.41-.74-.32.15-.64.38-.95.64.46-1.13.51-2.39-.08-3.62-.68-1.41-2.28-2.64-3.94-2.3-1.78.36-2.46 2.28-2.2 3.94a9 9 0 00.5 1.8c-.16-.04-.32-.08-.49-.1-1.83-.22-3.84-.14-5.2 1.25-1.2 1.21-.77 3.26.51 4.22.91.68 1.93.88 2.95.79-.94 1.21-1.62 2.79-1.38 4.16.37 2.03 2.74 2.47 4.43 1.79 1.7-.68 2.61-2.11 3.15-3.73.64 1.55 1.9 3.29 3.56 3.34 2.02.07 3.24-1.73 2.94-3.67-.12-.8-.46-1.51-.93-2.11.75-.12 1.5-.43 2.19-.93 1.62-1.16 1.51-3.29.35-4.73zm-18.191-16.07c-1.57-3.34-5.92-2.97-8.56-.93.15-1.28-.33-2.77-.8-3.85-.85-1.94-2.86-3.15-4.95-2.62-2.23.56-2.75 3.28-1.98 5.14.33.81.81 1.7 1.41 2.47-.71-.08-1.46-.07-2.09-.02-2.09.16-3.93 1.62-4.12 3.75-.23 2.56 3.2 2.7 4.91 2.65.4-.01.77-.06 1.14-.13a7.75 7.75 0 00-1.6 2.62c-.76 2.1-.04 3.84 2.31 3.98 2.09.12 3.75-1.48 4.66-3.54.17.28.36.55.59.8 1.25 1.36 3.58 1.43 4.88.15 1.59-1.56.56-3.83-.78-5.12-.11-.11-.25-.19-.38-.29.78-.03 1.6-.23 2.51-.6 1.55-.65 3.77-2.5 2.85-4.46zm-35.12 8.19c2.44-1.22 4.13-3.58 1.47-5.98-1.48-1.34-3.74-1.02-5.22.14-.74.57-1.33 1.22-1.81 1.93-.19-1-.62-1.97-1.18-2.74-1.52-2.11-4.1-2.46-6.26-1.19-2.02 1.2-2.09 4.02-1.05 5.84.3.52.73 1 1.23 1.42-.83-.05-1.65-.05-2.45.05-2.19.27-3.59 3.01-3.09 4.95.58 2.22 3.3 2.73 5.21 2.6.19-.01.38-.05.57-.07-.28.53-.48 1.06-.55 1.56-.46 3.11 2.01 5.4 5.05 4.94 2.75-.42 3.94-3.02 3.8-5.58 2.45 1.29 5.68 1.02 7.72-1.63 2.48-3.26-.26-5.72-3.44-6.24z" fill="#FFE754"/><path d="M244 104.65s-2.75 8.38-.12 9c2.63.62.12-9 .12-9zm0 14s-2.62 7.62-.25 7.75c2.37.13.25-7.75.25-7.75zm40.62-13.38s-3 9.12-.62 9.38c2.38.26.62-9.38.62-9.38zm-.24 14.75s-2.12 7.62-.25 7.75c1.87.13.25-7.75.25-7.75z" fill="#68C7FF"/></svg>