<svg width="663" height="504" viewBox="0 0 663 504" fill="none" xmlns="http://www.w3.org/2000/svg">
<path d="M637.83 229.11C637.83 229.11 650.16 225.78 648.5 212.11C648.5 212.11 653.67 219.94 652.67 226.61C651.67 233.28 659.34 222.28 654 206.28C654 206.28 658.5 216.78 661.5 218.61C661.5 218.61 657.83 204.94 658.17 191.61C658.5 178.28 663.33 133.11 662.67 117.94C662 102.77 658.84 50.6099 616.5 47.9399C616.5 47.9399 612.33 36.7699 576 46.4399C539.67 56.1099 527.25 81.2699 523.75 112.02C520.25 142.77 533.75 210.27 531.25 224.27C528.75 238.27 536.25 218.52 536.5 209.02C536.5 209.02 535.5 225.27 535.75 228.77C536 232.27 545 210.52 545 211.52C545 212.52 550 233.77 552.25 229.02C554.5 224.27 558.5 209.77 560.75 219.02C563 228.27 569.5 236.27 573 226.02C576.5 215.77 581.5 209.77 585 219.02C588.5 228.27 594.25 232.52 599.25 223.02C604.25 213.52 609.5 216.27 614.75 226.02C620 235.77 624.5 210.52 627 220.52C629.5 230.52 637.83 229.11 637.83 229.11Z" fill="#2A3A49"/>
<path d="M65.75 33.2698C65.75 33.2698 64.25 13.2698 74 32.5198C74 32.5198 86.75 6.51985 85.25 27.0198C85.25 27.0198 105.75 16.0198 130.5 29.5198C155.25 43.0198 160.75 67.7698 163.25 83.7698C165.75 99.7698 162.5 134.02 171.5 138.77C171.5 138.77 166.75 144.52 159.5 135.27C159.5 135.27 162 146.27 156 150.02C156 150.02 156.5 142.02 151.75 138.02C151.75 138.02 156 152.27 130.25 162.52C104.5 172.77 50.5 170.77 35.75 163.52C21 156.27 18.75 146.77 18.25 140.27C18.25 140.27 15 147.77 15.25 152.52C15.25 152.52 5.5 152.27 10 132.77C10 132.77 4 139.27 0 133.77C0 133.77 7.25 134.27 8 111.52C8.75 88.7698 2.25 31.2698 65.75 33.2698Z" fill="#6B534A"/>
<path d="M86.9199 365.36C86.9199 365.36 90.7499 411.19 92.9199 428.36C95.0899 445.53 96.4199 452.19 94.7499 456.03C93.0799 459.86 90.7499 471.36 96.9199 472.86C103.09 474.36 137.42 475.03 136.92 471.86C136.42 468.69 111.92 456.36 109.92 453.03C107.92 449.7 104.42 371.7 104.09 369.2C103.75 366.69 86.9199 365.36 86.9199 365.36Z" fill="#EFCAA6"/>
<path d="M125.6 463.49C108.47 462.71 99.3295 459.82 94.4095 456.91C92.8095 461.37 91.1695 471.47 96.9195 472.87C103.09 474.37 137.42 475.04 136.92 471.87C136.69 470.41 131.43 467.04 125.6 463.49Z" fill="#1C1C1C"/>
<path d="M61.6699 370.36C61.6699 370.36 65.4999 416.19 67.6699 433.36C69.8399 450.53 71.1699 457.19 69.4999 461.03C67.8299 464.86 65.4999 476.36 71.6699 477.86C77.8399 479.36 112.17 480.03 111.67 476.86C111.17 473.69 86.6699 461.36 84.6699 458.03C82.6699 454.7 79.1699 376.7 78.8399 374.2C78.4999 371.69 61.6699 370.36 61.6699 370.36Z" fill="#EFCAA6"/>
<path d="M100.35 468.49C83.2195 467.71 74.0795 464.82 69.1595 461.91C67.5595 466.37 65.9195 476.47 71.6695 477.87C77.8395 479.37 112.17 480.04 111.67 476.87C111.44 475.41 106.18 472.04 100.35 468.49Z" fill="#1C1C1C"/>
<path d="M45.6696 303.77C45.6696 303.77 37.4996 316.44 37.6696 365.77C37.6696 365.77 59.3396 379.94 89.1696 380.27C119 380.6 133.5 371.27 134.17 371.1C134.84 370.93 131.17 314.93 127.5 306.77C123.83 298.61 45.1696 304.44 45.6696 303.77Z" fill="#404040"/>
<path d="M40.25 305.77C40.25 305.77 73 321.77 131.25 309.77C131.25 309.77 127.5 260.27 123.75 226.52C120 192.77 114.75 165.77 90.75 161.4H76.12C76.12 161.4 50 166.78 46.5 216.52C43 266.26 40.25 305.77 40.25 305.77Z" fill="#4A4A4A"/>
<path d="M123.4 282.32C123.48 281.53 123.34 280.79 122.63 280.35C121.33 279.54 118.75 279.93 117.27 279.82C115.2 279.67 113.61 280 111.85 281.08C107.95 283.46 103.76 286.75 100.89 290.31C99.8801 291.56 98.3801 293.46 98.8101 295.21C95.6201 297.72 93.2001 301.51 91.8501 305.22C90.9501 307.69 89.9701 310.14 89.5801 312.75C89.3201 314.45 88.6301 317.21 89.6301 318.77C91.3601 321.48 94.3601 313.67 94.5701 313.31C95.7201 311.35 97.0601 309.59 98.5101 307.92C97.3401 309.94 96.3501 312.07 95.5001 314.3C94.7201 316.35 94.1701 318.49 94.1401 320.68C94.1301 321.52 94.3401 323.47 95.2101 324.01C97.4301 325.4 100.32 320 101.11 318.74C102.28 316.88 103.66 315.17 104.85 313.32C105.35 312.55 106 311.9 106.69 311.26C104.96 313.32 103.69 315.8 102.79 318.3C102.47 319.19 101.69 324.25 104.17 323.48C107.05 322.59 108.96 319.98 110.46 317.52C110.57 317.33 110.68 317.14 110.79 316.95C110.88 317.26 110.99 317.57 111.12 317.86C113.31 322.8 117.03 314.59 117.85 312.82C120.43 307.24 122.48 301.35 123.62 295.3C124.35 291.37 126.01 285.93 123.4 282.32Z" fill="#EFCAA6"/>
<path d="M111 278.78C111 278.78 112.83 285.61 125.17 283.61C125.17 283.61 127.34 271.94 129.17 261.28C131 250.61 135 223.45 127.67 198.28C120.34 173.11 106.17 169.11 106.17 169.11C106.17 169.11 117.57 176.93 116.5 227.94C115.5 275.94 111 278.78 111 278.78Z" fill="#666666"/>
<path d="M92.3303 292.94C92.8303 293.38 108.5 290.77 113.16 284.27C113.16 284.27 97.8303 257.27 90.1603 240.27C82.4903 223.27 72.6603 193.77 70.4903 184.94C68.3203 176.11 61.8203 172.27 59.3203 173.44C56.8203 174.61 44.4903 187.27 51.8203 218.27C59.1503 249.27 81.6703 283.61 92.3303 292.94Z" fill="#666666"/>
<path d="M120.76 297.88C124.39 304.6 126.04 303.59 126.42 303.16C128.8 300.44 126.63 295.41 125.28 292.64C123.58 289.16 120.17 286.91 116.59 285.8C115.19 285.37 113.41 285.18 112.05 285.89C111.43 286.21 110.9 286.66 110.38 287.14C107.34 288.7 104.33 290.3 101.05 291.35C98.3003 292.23 95.9903 292.67 95.3703 295.78C94.8303 298.49 96.0303 301.77 97.2503 304.13C99.0803 307.7 102.62 310.48 103.71 314.36C104.25 316.27 103.22 318.81 103.15 320.77C103.09 322.44 103.33 324.15 103.97 325.69C104.88 327.88 106.95 327.39 107.84 325.61C109.19 322.91 109.18 318.78 109.18 315.85C109.18 314.63 108.53 309.67 108.35 308.62C109.52 312.11 109.93 319.95 111.02 323.42C111.82 325.98 114.14 327.53 115.27 324.35C115.94 322.46 115.81 320.26 115.82 318.28C115.84 315.66 114.7 309.66 113.54 306.48C114.76 308.55 115.79 313.84 116.06 315.51C116.41 317.72 115.78 321.61 118.44 322.54C120.22 323.16 120.8 319.39 120.95 318.53C121.9 313.05 118.95 306.44 119.02 305.98C119.67 307.32 122.31 317.69 124.48 317.73C127.06 317.77 126.3 313.05 124.81 307.02C124.16 304.39 121.24 299.24 120.76 297.88Z" fill="#F4D9BF"/>
<path d="M76.25 152.4L76 165.15C76 165.15 83.79 176.68 86.67 177.55C89.55 178.42 92.25 163.4 92.25 163.4C92.25 163.4 89.63 163.4 90.25 155.4C90.25 155.4 89.12 153.15 76.25 152.4Z" fill="#EFCAA6"/>
<path d="M86.6197 177.02L90.7397 161.4C90.7397 161.4 95.6197 162.9 100.36 165.4C100.36 165.4 95.8597 189.28 94.6097 188.78C93.3597 188.28 86.8597 178.03 86.8597 178.03C86.8597 178.03 82.9797 189.65 82.1097 189.53C81.2397 189.41 68.2497 167.4 66.9997 166.02C65.7497 164.64 74.4197 160.54 76.1197 161.4C76.3797 161.52 78.8797 169.65 86.6197 177.02Z" fill="#404040"/>
<path d="M158.79 108.42C156.3 102.11 146.38 98.9799 143.76 106.75C143.74 106.8 143.74 106.86 143.74 106.91C138.27 114.28 138.01 130.88 150.79 127.11C158.89 124.71 161.69 115.76 158.79 108.42Z" fill="#EFCAA6"/>
<path opacity="0.5" d="M153.56 111.48C152.07 107.71 146.14 105.84 144.57 110.48C144.56 110.51 144.56 110.55 144.56 110.58C141.29 114.99 141.13 124.92 148.78 122.66C153.61 121.22 155.29 115.87 153.56 111.48Z" fill="#C69474"/>
<path d="M51.6197 131.47C51.0397 128.98 49.1297 126.13 46.7497 124.22C46.4097 123.62 46.0597 122.95 45.8597 122.72C44.6597 121.28 42.7497 120.49 41.0797 119.79C37.8397 118.43 34.0097 119.81 32.1897 122.7C27.9597 129.42 33.1897 138.86 40.0097 141.57C47.4397 144.53 53.3897 139.04 51.6197 131.47Z" fill="#EFCAA6"/>
<path opacity="0.5" d="M50.4501 129.77C50.0501 128.06 48.7401 126.1 47.1001 124.79C46.8601 124.38 46.6201 123.92 46.4901 123.75C45.6701 122.76 44.3601 122.22 43.2001 121.74C40.9701 120.8 38.3401 121.76 37.0901 123.74C34.1801 128.36 37.7701 134.85 42.4601 136.71C47.5801 138.75 51.6701 134.97 50.4501 129.77Z" fill="#C69474"/>
<path d="M40.6199 120.15C40.6199 120.15 53.6199 112.53 56.2399 93.2699C56.2399 93.2699 61.9899 105.27 73.7399 87.7699C73.7399 87.7699 76.9899 104.77 97.7399 78.3899C97.7399 78.3899 98.9899 102.39 114.62 76.8899C114.62 76.8899 123.5 102.39 133.24 74.6399C133.24 74.6399 148.24 95.5199 149.49 100.89C149.95 102.88 148.14 107.07 147.66 109.09C147.01 111.81 146.32 114.51 145.51 117.18C143.91 122.52 141.89 127.75 139.21 132.64C129.53 150.26 108.93 160.01 89.2399 158.22C83.6599 157.71 77.4299 156.58 72.1999 154.51C60.9599 150.08 53.1799 142.88 47.0199 132.53C46.4099 131.5 40.2699 120.36 40.6199 120.15Z" fill="#F4D9BF"/>
<path d="M96.5004 125.12C96.5004 127.5 94.5704 129.44 92.1804 129.44C89.8004 129.44 87.8604 127.51 87.8604 125.12C87.8604 122.73 89.7904 120.8 92.1804 120.8C94.5704 120.8 96.5004 122.73 96.5004 125.12Z" fill="#461A00"/>
<path d="M90.51 123.45C90.51 123.94 90.12 124.33 89.63 124.33C89.14 124.33 88.75 123.94 88.75 123.45C88.75 122.96 89.15 122.57 89.63 122.57C90.11 122.57 90.51 122.96 90.51 123.45Z" fill="white"/>
<path d="M136.45 119.33C136.45 121.71 134.52 123.65 132.13 123.65C129.75 123.65 127.81 121.72 127.81 119.33C127.81 116.94 129.74 115.01 132.13 115.01C134.52 115.01 136.45 116.94 136.45 119.33Z" fill="#461A00"/>
<path d="M130.459 117.66C130.459 118.15 130.069 118.54 129.579 118.54C129.089 118.54 128.699 118.15 128.699 117.66C128.699 117.17 129.099 116.78 129.579 116.78C130.059 116.77 130.459 117.17 130.459 117.66Z" fill="white"/>
<path d="M95.4399 105.65C93.2499 105.08 90.5899 106.02 88.5599 106.86C86.3299 107.79 83.9799 108.87 82.5299 110.88C82.0199 111.59 82.7999 112.59 83.6099 112.37C85.6099 111.81 87.3499 110.49 89.1999 109.56C91.2499 108.52 93.4699 107.8 95.5599 106.86C96.0799 106.62 95.9699 105.79 95.4399 105.65Z" fill="#51382F"/>
<path d="M137.41 107.29C136.61 106.11 135.52 105.33 134.24 104.72C133.59 104.41 132.93 104.18 132.24 103.99C131.86 103.88 131.45 103.72 131.06 103.69C130.72 103.66 130.06 103.77 129.76 103.71C129.3 103.62 129 104.09 129.29 104.47C130.06 105.45 131.61 105.81 132.68 106.37C133.96 107.04 135.14 107.91 136.53 108.37C137.12 108.56 137.79 107.85 137.41 107.29Z" fill="#51382F"/>
<path d="M105.61 153.06C103.92 150.7 100.67 151.44 98.5198 152.75C97.8298 153.17 98.2198 154.43 99.0598 154.14C99.9898 153.82 100.87 153.68 101.85 153.74C102.8 153.79 103.56 154.25 104.47 154.47C105.2 154.64 106.15 153.81 105.61 153.06Z" fill="#C69474"/>
<path opacity="0.7" d="M82.5801 135.97C82.3201 134.02 78.7601 132.89 74.6401 133.44C70.5101 133.99 67.3801 136.02 67.6401 137.98C67.9001 139.93 71.4601 141.06 75.5901 140.51C79.7101 139.95 82.8401 137.92 82.5801 135.97ZM69.3901 137.02C69.4001 137.06 69.3901 137.1 69.3801 137.14C69.3801 137.17 69.3701 137.19 69.3601 137.21C69.3601 137.36 69.2701 137.51 69.1401 137.54C69.1001 137.58 69.0701 137.61 69.0201 137.65C68.8401 137.77 68.6201 137.64 68.5501 137.46C68.5401 137.43 68.5301 137.4 68.5301 137.36C68.4701 137.27 68.4501 137.16 68.5301 137.05C68.5701 137 68.6101 136.96 68.6401 136.91C68.7301 136.8 68.8401 136.71 68.9601 136.62C69.2301 136.42 69.4801 136.76 69.3901 137.02ZM72.6301 136.84C72.0001 136.98 71.0401 137.11 70.5701 136.54C70.1601 136.04 70.5701 135.37 71.0001 135.03C71.3501 134.75 71.7701 134.54 72.2101 134.47C73.2801 134.2 74.5601 134.35 74.4101 135.5C74.3101 136.31 73.3201 136.68 72.6301 136.84Z" fill="#F9CBC9"/>
<path opacity="0.7" d="M145.85 128.69C145.59 126.74 142.03 125.61 137.91 126.16C133.78 126.71 130.65 128.74 130.91 130.7C131.17 132.65 134.73 133.78 138.86 133.23C142.98 132.67 146.11 130.64 145.85 128.69ZM132.65 129.73C132.66 129.77 132.65 129.81 132.64 129.85C132.64 129.88 132.63 129.9 132.62 129.92C132.62 130.07 132.53 130.22 132.4 130.25C132.36 130.29 132.33 130.32 132.28 130.36C132.1 130.48 131.88 130.35 131.81 130.17C131.8 130.14 131.79 130.11 131.79 130.07C131.73 129.98 131.71 129.87 131.79 129.76C131.83 129.71 131.87 129.67 131.9 129.62C131.99 129.51 132.1 129.42 132.22 129.33C132.49 129.13 132.75 129.47 132.65 129.73ZM135.89 129.55C135.26 129.69 134.3 129.82 133.83 129.25C133.42 128.75 133.83 128.08 134.26 127.74C134.61 127.46 135.03 127.25 135.47 127.18C136.54 126.91 137.82 127.06 137.67 128.21C137.57 129.02 136.58 129.4 135.89 129.55Z" fill="#F9CBC9"/>
<path d="M269.36 191.75C269.36 191.75 232.1 196.21 217.4 190.7C202.7 185.19 191.16 184.4 186.43 174.69C181.71 164.98 194.3 158.42 191.15 152.38C188 146.34 176.72 132.44 186.16 123.25C195.61 114.07 196.66 112.75 192.98 93.0699C189.31 73.3899 190.88 41.1099 227.36 17.4899C263.84 -6.13011 291.92 6.72989 297.95 16.9699C297.95 16.9699 324.19 18.2799 339.41 56.8599C354.63 95.4399 328.91 102.52 336.52 120.89C344.13 139.26 350.43 140.83 341.77 152.91C333.11 164.98 348.59 166.82 342.56 179.68C336.54 192.53 301.64 198.83 269.36 191.75Z" fill="#3E2F28"/>
<path d="M222.25 149.27C222.25 149.27 269.5 86.2699 308.75 146.27C308.75 146.27 319.5 311.77 317.83 332.44L212.83 330.44C212.83 330.44 227 173.11 222.25 149.27Z" fill="#404040"/>
<path d="M253.17 171.11L262.5 197.78C262.5 197.78 251.67 208.61 236.33 217.28C221 225.95 212.66 225.28 211.83 207.95C211 190.62 215.33 152.12 222.25 149.28C229.17 146.44 232 191.78 232 191.78L253.17 171.11Z" fill="#4F4F4F"/>
<path d="M308.75 146.27C308.75 146.27 300.25 188.02 300 190.77C299.75 193.52 307.5 212.02 313.75 256.27C320 300.52 317.25 307.52 317.25 308.52C317.25 309.52 335 308.02 335.75 308.27C336.5 308.52 336.32 243.95 331 214.27C325 180.77 316 156.27 308.75 146.27Z" fill="#4F4F4F"/>
<path d="M252 127.52C252 127.52 251.25 142.77 269.25 143.27C287.25 143.77 286.25 126.02 286.25 126.02L252 127.52Z" fill="#EFCAA6"/>
<path d="M254 172.78C254 172.78 267.5 150.28 275.5 149.95C283.5 149.62 288.5 174.45 262.33 196.12L254 172.78Z" fill="#EFCAA6"/>
<path d="M260.33 222.94C260.33 222.94 260.5 193.61 262.66 174.44C264.83 155.27 277.49 137.61 289.66 163.27C301.83 188.94 304.33 212.77 304.33 212.77C304.33 212.77 296.33 231.44 260.33 222.94Z" fill="#95DCFF"/>
<path d="M214.33 95.45C213.49 90.34 208.54 85.86 203.25 87.54C200.45 88.43 198.36 92.57 197.68 95.16C196.64 99.13 199.06 103.27 200.84 106.58C202.34 109.36 206.45 110.32 209.29 110.35C211.97 110.38 214.67 106.36 215.54 104.24C216.88 100.99 216.25 98.19 214.33 95.45Z" fill="#EFCAA6"/>
<path opacity="0.5" d="M213.49 97.48C212.9 94.41 209.45 91.72 205.77 92.73C202.47 93.63 201.31 97.14 202.12 100.23C203.13 104.09 206.01 106.39 209.98 106.42C211.85 106.44 213.73 104.02 214.34 102.75C215.27 100.81 214.83 99.13 213.49 97.48Z" fill="#C69474"/>
<path d="M334.23 88.1499C331.92 80.9099 322.07 80.6899 317.89 85.8999C317.57 86.2999 317.93 86.8999 318.38 86.9799C317.77 87.5899 317.22 88.3099 316.78 89.1499C313.3 95.7099 315.81 108.07 325.23 106.79C334.27 105.57 336.6 95.5599 334.23 88.1499Z" fill="#EFCAA6"/>
<path opacity="0.5" d="M329.02 91.57C327.47 87.37 320.86 87.25 318.05 90.26C317.84 90.49 318.08 90.84 318.38 90.89C317.97 91.25 317.61 91.66 317.31 92.15C314.97 95.95 316.66 103.12 322.98 102.38C329.05 101.67 330.61 95.87 329.02 91.57Z" fill="#C69474"/>
<path d="M208.17 66.4399C206.79 66.4099 196.84 136.77 261.84 134.44C326.84 132.11 321.84 82.1099 322.17 65.1099C322.17 65.1099 305.17 51.4399 300.17 38.4399C300.17 38.4399 285.17 68.1099 208.17 66.4399Z" fill="#F4D9BF"/>
<path d="M244.84 95.8898C244.84 98.2698 242.91 100.21 240.52 100.21C238.14 100.21 236.2 98.2798 236.2 95.8898C236.2 93.4998 238.13 91.5698 240.52 91.5698C242.9 91.5698 244.84 93.5098 244.84 95.8898Z" fill="#461A00"/>
<path d="M238.84 94.2198C238.84 94.7098 238.45 95.0998 237.96 95.0998C237.47 95.0998 237.08 94.7098 237.08 94.2198C237.08 93.7298 237.48 93.3398 237.96 93.3398C238.45 93.3398 238.84 93.7298 238.84 94.2198Z" fill="white"/>
<path d="M291.44 94.4499C291.44 96.8299 289.51 98.7699 287.12 98.7699C284.74 98.7699 282.8 96.8399 282.8 94.4499C282.8 92.0599 284.73 90.1299 287.12 90.1299C289.51 90.1299 291.44 92.0599 291.44 94.4499Z" fill="#461A00"/>
<path d="M285.449 92.7699C285.449 93.2599 285.059 93.6499 284.569 93.6499C284.079 93.6499 283.689 93.2599 283.689 92.7699C283.689 92.2799 284.089 91.8899 284.569 91.8899C285.049 91.8899 285.449 92.2899 285.449 92.7699Z" fill="white"/>
<path d="M267.58 124.6C264.97 123.07 261.78 124.16 259.37 125.57C258.6 126.02 259.05 127.32 259.95 127.06C262.24 126.39 264.34 126.06 266.69 126.58C267.84 126.83 268.7 125.25 267.58 124.6Z" fill="#C69474"/>
<path d="M302.6 79.9699C300.21 77.3399 296.47 77.0799 293.14 76.4399C288.63 75.5799 284.14 75.2899 279.64 74.4699C279.24 74.3999 278.81 74.8699 279.18 75.2199C281.55 77.4299 284.71 77.3699 287.67 78.1599C292.3 79.3899 296.97 80.3699 301.59 81.6099C302.54 81.8499 303.27 80.7199 302.6 79.9699Z" fill="#3E2F28"/>
<path d="M244.04 75.6299C237.74 78.1799 228.27 77.6099 223.14 82.4999C222.44 83.1599 223.13 84.1199 223.97 84.0099C227.81 83.5099 231.8 82.1099 235.48 80.9399C238.42 80.0099 242.97 79.2599 244.64 76.2599C244.86 75.8399 244.44 75.4699 244.04 75.6299Z" fill="#3E2F28"/>
<path opacity="0.7" d="M237.99 110.37C237.81 108.41 233.97 107.06 229.4 107.36C224.84 107.66 221.28 109.49 221.46 111.46C221.64 113.42 225.48 114.77 230.05 114.47C234.62 114.17 238.17 112.34 237.99 110.37ZM223.44 110.6C223.45 110.64 223.44 110.68 223.42 110.72C223.42 110.75 223.41 110.76 223.4 110.79C223.39 110.94 223.28 111.08 223.13 111.11C223.09 111.15 223.05 111.18 222.99 111.21C222.78 111.33 222.55 111.17 222.49 110.99C222.48 110.96 222.47 110.93 222.47 110.89C222.41 110.8 222.39 110.69 222.49 110.58C222.53 110.53 222.58 110.49 222.62 110.45C222.72 110.35 222.85 110.26 222.99 110.18C223.3 110 223.56 110.35 223.44 110.6ZM227.01 110.62C226.31 110.72 225.25 110.79 224.77 110.19C224.35 109.66 224.83 109.02 225.32 108.71C225.72 108.45 226.19 108.27 226.68 108.23C227.87 108.03 229.27 108.26 229.04 109.39C228.89 110.2 227.78 110.51 227.01 110.62Z" fill="#F9CBC9"/>
<path opacity="0.7" d="M304.83 107.54C304.65 105.58 300.81 104.23 296.24 104.52C291.68 104.82 288.12 106.65 288.3 108.62C288.48 110.58 292.32 111.93 296.89 111.63C301.45 111.34 305 109.5 304.83 107.54ZM290.28 107.77C290.29 107.81 290.28 107.85 290.26 107.89C290.26 107.91 290.25 107.93 290.24 107.96C290.23 108.11 290.12 108.25 289.97 108.28C289.93 108.31 289.89 108.35 289.83 108.38C289.62 108.49 289.39 108.34 289.33 108.16C289.32 108.13 289.31 108.1 289.31 108.06C289.25 107.97 289.23 107.86 289.33 107.75C289.37 107.7 289.42 107.66 289.46 107.62C289.56 107.52 289.69 107.43 289.83 107.35C290.13 107.16 290.4 107.52 290.28 107.77ZM293.85 107.79C293.15 107.89 292.09 107.96 291.61 107.36C291.19 106.83 291.67 106.19 292.16 105.89C292.56 105.63 293.03 105.45 293.52 105.41C294.71 105.21 296.11 105.43 295.88 106.57C295.72 107.36 294.61 107.68 293.85 107.79Z" fill="#F9CBC9"/>
<path d="M494.75 319.55C494.75 319.55 489.37 271.73 486.52 238.8C483.67 205.87 478.29 155.52 481.14 140C481.14 140 462.14 123.53 442.51 121C442.51 121 426.04 111.18 395.01 144.12C395.01 144.12 402.29 163.75 402.61 195.74C402.93 227.72 405.14 306.26 400.39 319.24C400.38 319.23 458.65 328.1 494.75 319.55Z" fill="#4A4A4A"/>
<path d="M444.73 323.09C443.27 310.01 442.6 296.85 441.95 283.68C440.95 263.14 439.7 242.6 439.46 222.04C439.22 201.58 439.93 181.37 443.4 161.18C444.94 152.24 443.86 142.96 443.86 133.92C443.86 129.6 443.4 125.33 442.9 121.06C442.77 121.04 442.63 121.02 442.5 121C442.5 121 426.03 111.18 395 144.12C395 144.12 402.28 163.75 402.6 195.74C402.92 227.72 405.13 306.26 400.38 319.24C400.38 319.23 420.68 322.32 444.73 323.09Z" fill="#666666"/>
<path d="M538.5 182.52C539.2 182.25 541.5 199.02 546.25 206.77C546.25 206.77 523.5 223.77 507.25 226.27C491 228.77 481.5 186.77 479.25 177.52C479.25 177.52 476.26 147.46 481.13 139.99C481.13 139.99 494.5 148.52 511.5 195.52C511.5 195.52 532.75 184.77 538.5 182.52Z" fill="#404040"/>
<path d="M395 144.11C395 144.11 403.75 168.27 404 229.52C404.25 290.77 401.25 314.52 401.25 314.52L378.25 311.52C378.25 311.52 380.5 267.27 382.75 220.02C385 172.77 391.49 137.2 395 144.11Z" fill="#404040"/>
<path d="M464.17 261.11C464.21 260.11 476.34 262.94 488.75 259.78C488.75 259.78 493 280.78 481.5 283.03C470 285.28 463.42 281.11 464.17 261.11Z" fill="#404040"/>
<path d="M403.17 257.61C403.17 257.61 411.5 259.11 422.17 258.11C422.17 258.11 425.22 277.73 416 281.78C409.17 284.78 403.17 282.95 403.17 279.28C403.17 275.61 403.17 257.61 403.17 257.61Z" fill="#404040"/>
<path d="M428.33 119.11C428.33 119.11 407.83 128.28 407 132.78C406.17 137.28 425.67 143.28 425.67 144.95C425.67 146.62 417.34 149.78 417.34 151.62C417.34 153.45 438.34 162.79 440.67 171.29C440.67 171.29 463.84 150.79 465.17 149.46C466.5 148.13 454.84 144.96 456.17 142.79C457.5 140.62 470.67 133.62 471.17 131.46C471.67 129.28 441 113.94 428.33 119.11Z" fill="#404040"/>
<path d="M429.83 120.44C429.83 120.44 439.83 155.77 440.66 171.27C440.66 171.27 449.33 139.94 448.33 122.27C447.33 104.61 430.5 114.94 429.83 120.44Z" fill="#EFCAA6"/>
<path d="M539.23 184.38C539.23 184.38 540.06 178.72 547.13 173.89C554.2 169.06 558.8 171.18 554.79 176.95C550.78 182.73 561.151 175.77 562.331 187.44C563.511 199.11 547.48 208.06 544.42 202.64C541.35 197.22 539.23 184.38 539.23 184.38Z" fill="#EFCAA6"/>
<path d="M456.5 110.27L488.5 107.27C488.5 107.27 493.25 103.02 504 93.52C514.75 84.02 517 81.52 522 81.27C522 81.27 519.75 75.77 516.25 70.02C516.25 70.02 519.25 69.77 524.25 74.77C524.25 74.77 525.5 58.52 512 33.02C498.5 7.51995 486.25 13.77 483.25 16.27C483.25 16.27 483.25 -0.730044 447 0.0199555C410.75 0.769956 376 14.27 360.5 54.02L371.25 49.27C371.25 49.27 363 61.02 361 66.02C361 66.02 366.25 65.52 368.75 65.27C368.75 65.27 363.5 71.77 363.25 73.52C363.25 73.52 369.75 75.77 381.75 90.52C393.75 105.27 412.5 106.02 415.5 105.77C418.5 105.52 456.5 110.27 456.5 110.27Z" fill="#612C1C"/>
<path d="M393.53 82.1699C392.63 77.2499 385.93 75.3999 382.26 79.3399C378.24 83.6699 378.72 92.4799 383.22 96.2199C387.43 99.7299 395.21 100.99 397.2 94.6599C398.33 91.0599 396.77 85.0699 393.53 82.1699Z" fill="#EFCAA6"/>
<path opacity="0.5" d="M394.1 83.7299C393.47 80.2499 388.73 78.9499 386.14 81.7299C383.3 84.7899 383.64 91.0199 386.82 93.6599C389.8 96.1399 395.29 97.0299 396.7 92.5599C397.49 90.0099 396.39 85.7799 394.1 83.7299Z" fill="#C69474"/>
<path d="M508.5 81.0399C506.52 73.9799 497.91 71.4899 494.02 78.3999C493.74 78.8899 494.05 79.3399 494.48 79.4399C491.96 82.0899 491.18 86.9999 491.54 90.4099C491.97 94.4599 494.48 96.3699 498.38 96.4799C502.37 96.5899 505.15 94.9299 507.5 91.7899C509.87 88.6199 509.49 84.5499 508.5 81.0399Z" fill="#EFCAA6"/>
<path opacity="0.5" d="M504.29 82.3299C502.99 77.6899 497.33 76.0499 494.77 80.5899C494.59 80.9099 494.79 81.2099 495.07 81.2699C493.41 83.0099 492.9 86.2399 493.14 88.4799C493.42 91.1399 495.07 92.3999 497.64 92.4699C500.26 92.5399 502.09 91.4499 503.64 89.3899C505.19 87.3099 504.94 84.6299 504.29 82.3299Z" fill="#C69474"/>
<path d="M388.17 69.11C388.17 69.11 386.5 127.11 439.5 127.11C492.5 127.11 496.5 96.11 500.17 61.78L496.17 71.78C496.17 71.78 486.5 51.45 482.84 45.78L480.17 61.11C480.17 61.11 469.84 52.11 467.5 47.44C467.5 47.44 458.75 59.52 453.25 60.27L456.25 49.02C456.25 49.02 437.25 65.27 414.75 63.52C414.75 63.52 416.5 52.02 419.25 48.27C419.25 48.27 405 58.27 397.5 69.27C397.5 69.27 393.5 62.27 394.25 52.52C394.25 52.52 389.08 62.94 388.17 69.11Z" fill="#F4D9BF"/>
<path d="M421.13 98.1501C421.13 100.53 419.2 102.47 416.81 102.47C414.43 102.47 412.49 100.54 412.49 98.1501C412.49 95.7601 414.42 93.8301 416.81 93.8301C419.2 93.8301 421.13 95.7701 421.13 98.1501Z" fill="#461A00"/>
<path d="M415.13 96.4801C415.13 96.9701 414.74 97.3601 414.25 97.3601C413.76 97.3601 413.37 96.9701 413.37 96.4801C413.37 95.9901 413.77 95.6001 414.25 95.6001C414.74 95.6001 415.13 95.9901 415.13 96.4801Z" fill="white"/>
<path d="M466.87 98.1501C466.87 100.53 464.94 102.47 462.55 102.47C460.17 102.47 458.23 100.54 458.23 98.1501C458.23 95.7601 460.16 93.8301 462.55 93.8301C464.93 93.8301 466.87 95.7701 466.87 98.1501Z" fill="#461A00"/>
<path d="M460.87 96.4801C460.87 96.9701 460.48 97.3601 459.99 97.3601C459.5 97.3601 459.11 96.9701 459.11 96.4801C459.11 95.9901 459.51 95.6001 459.99 95.6001C460.48 95.6001 460.87 95.9901 460.87 96.4801Z" fill="white"/>
<path d="M466.68 80.7898C463.26 78.3298 458.65 80.7898 455.04 78.7798C454.73 78.6098 454.27 78.9498 454.5 79.2898C455.58 80.8598 457.14 81.8898 459.08 82.0898C461.4 82.3298 463.81 82.5198 466.14 82.5698C467.14 82.5898 467.43 81.3398 466.68 80.7898Z" fill="#4C2C1C"/>
<path d="M419.96 79.7199C418.65 80.7699 414.86 80.6199 413.37 80.5999C411.1 80.5599 408.28 80.4399 406.41 81.8299C405.99 82.1399 406.08 82.9499 406.54 83.1699C409.2 84.4699 413.46 83.6499 416.3 83.0299C417.73 82.7199 420.93 82.0999 420.86 80.1299C420.86 79.6299 420.34 79.4199 419.96 79.7199Z" fill="#4C2C1C"/>
<path d="M446.92 121.46C444.97 121.12 443 121.34 441.03 121.29C439.09 121.25 437.32 121.19 435.41 121.55C435.04 121.62 435 122.25 435.39 122.32C439.13 123.03 443.08 123.82 446.88 123.1C447.66 122.95 447.76 121.61 446.92 121.46Z" fill="#C69474"/>
<path opacity="0.7" d="M414.3 106.97C414.15 105.25 410.79 104.08 406.81 104.34C402.83 104.6 399.72 106.2 399.88 107.92C400.04 109.63 403.39 110.81 407.37 110.55C411.35 110.29 414.45 108.69 414.3 106.97ZM401.6 107.17C401.61 107.21 401.6 107.24 401.58 107.28C401.58 107.3 401.57 107.32 401.56 107.34C401.55 107.47 401.46 107.6 401.33 107.62C401.29 107.65 401.26 107.68 401.21 107.71C401.03 107.81 400.83 107.68 400.77 107.52C400.76 107.49 400.76 107.46 400.75 107.44C400.69 107.36 400.68 107.26 400.77 107.17C400.81 107.13 400.85 107.09 400.88 107.05C400.97 106.96 401.08 106.88 401.2 106.81C401.47 106.65 401.7 106.95 401.6 107.17ZM404.71 107.19C404.1 107.28 403.17 107.34 402.75 106.82C402.38 106.36 402.8 105.8 403.23 105.53C403.58 105.31 403.99 105.15 404.42 105.11C405.46 104.93 406.68 105.13 406.48 106.12C406.35 106.82 405.38 107.1 404.71 107.19Z" fill="#F9CBC9"/>
<path opacity="0.7" d="M485.62 106.97C485.47 105.25 482.11 104.08 478.13 104.34C474.15 104.6 471.04 106.2 471.2 107.92C471.36 109.63 474.71 110.81 478.69 110.55C482.68 110.29 485.78 108.69 485.62 106.97ZM472.92 107.17C472.93 107.21 472.92 107.24 472.9 107.28C472.9 107.3 472.89 107.32 472.88 107.34C472.87 107.47 472.78 107.6 472.65 107.62C472.61 107.65 472.58 107.68 472.53 107.71C472.35 107.81 472.15 107.68 472.09 107.52C472.08 107.49 472.08 107.46 472.07 107.44C472.01 107.36 472 107.26 472.09 107.17C472.13 107.13 472.17 107.09 472.2 107.05C472.29 106.96 472.4 106.88 472.52 106.81C472.8 106.65 473.03 106.95 472.92 107.17ZM476.04 107.19C475.43 107.28 474.5 107.34 474.08 106.82C473.71 106.36 474.13 105.8 474.56 105.53C474.91 105.31 475.32 105.15 475.75 105.11C476.79 104.93 478.01 105.13 477.81 106.12C477.67 106.82 476.71 107.1 476.04 107.19Z" fill="#F9CBC9"/>
<path d="M573.2 355.03C573.2 355.03 573.45 401.03 574.7 427.78C575.95 454.53 577.2 460.28 569.95 463.53C562.7 466.78 544.95 470.03 545.45 475.53C545.95 481.03 563.95 481.03 574.7 479.78C585.45 478.53 590.2 478.28 589.7 465.03C589.2 451.78 593.95 363.03 591.95 355.03C589.95 347.03 573.2 355.03 573.2 355.03Z" fill="#EFCAA6"/>
<path d="M589.67 462.77C582.36 466.66 574.56 469.76 566.53 471.26C561.31 472.24 556.04 472.27 551.47 470C547.83 471.59 545.26 473.39 545.46 475.53C545.96 481.03 563.96 481.03 574.71 479.78C585.46 478.53 590.21 478.28 589.71 465.03C589.68 464.43 589.67 463.67 589.67 462.77Z" fill="#1C1C1C"/>
<path d="M602.2 356.53C602.2 356.53 602.45 402.53 603.7 429.28C604.95 456.03 606.2 461.78 598.95 465.03C591.7 468.28 573.95 471.53 574.45 477.03C574.95 482.53 592.95 482.53 603.7 481.28C614.45 480.03 619.2 479.78 618.7 466.53C618.2 453.28 622.95 364.53 620.95 356.53C618.95 348.53 602.2 356.53 602.2 356.53Z" fill="#EFCAA6"/>
<path d="M618.67 464.27C611.36 468.16 603.56 471.26 595.53 472.76C590.31 473.74 585.04 473.77 580.47 471.5C576.83 473.09 574.26 474.89 574.46 477.03C574.96 482.53 592.96 482.53 603.71 481.28C614.46 480.03 619.21 479.78 618.71 466.53C618.68 465.93 618.67 465.17 618.67 464.27Z" fill="#1C1C1C"/>
<path d="M543.5 296.11C543.17 297.11 543.83 316.28 546 339.61C548.17 362.94 547.5 366.11 549.5 367.78C551.5 369.45 584.5 368.61 597.83 367.78C611.16 366.95 630 364.95 632.16 361.61C634.33 358.28 630.16 298.28 630.16 296.78C630.16 295.28 600.66 273.11 583.16 275.11C565.66 277.11 543.5 296.11 543.5 296.11Z" fill="#404040"/>
<path d="M538.66 302.93C538.66 302.93 539.49 216.18 545.57 192.15C551.65 168.11 571.26 162.04 584.25 162.04C597.23 162.04 624.03 170.05 629.56 196.3C635.09 222.55 635.91 298.52 635.91 298.52C635.91 298.52 620.51 312.79 584.76 307.54L583 288.77L580.75 308.02C580.75 308.02 549.82 310.83 538.66 302.93Z" fill="#4A4A4A"/>
<path d="M583.27 283.59C583.33 267.73 583.17 251.87 583.18 236C583.18 228.1 583.03 220.16 583.36 212.27C583.66 204.92 585.08 197.74 586.38 190.53C588.06 181.27 588.43 171.64 591.05 162.63C588.54 162.22 586.23 162.03 584.24 162.03C571.26 162.03 551.64 168.11 545.56 192.14C539.48 216.18 538.65 302.92 538.65 302.92C549.81 310.82 580.74 308.01 580.74 308.01L582.99 288.76C583 288.77 583.26 286.15 583.27 283.59Z" fill="#666666"/>
<path d="M580.83 161.77C580.83 161.77 563.16 168.6 562.33 171.77C561.64 174.37 574.16 179.1 574 181.1C573.84 183.1 567 189.43 567 191.1C567 192.77 582.88 198.61 583.17 202.6C583.34 204.93 605.17 190.43 607.34 188.6C609.51 186.77 598.67 184.1 601.34 181.93C604.01 179.76 613.34 173.26 612.67 171.26C612 169.26 593 160.11 580.83 161.77Z" fill="#404040"/>
<path d="M578.21 164.37C578.21 164.37 583.04 190.95 583.16 203.16C583.16 203.16 593.67 174.52 594.28 164.61C594.89 154.7 577.12 158.33 578.21 164.37Z" fill="#EFCAA6"/>
<path d="M602.62 269.9C602.62 270.52 602.74 276.78 603.74 277.02C604.74 277.26 624.24 276.14 626.12 276.27C628 276.4 626.74 268.27 626.74 268.27C626.74 268.27 602.62 269.65 602.62 269.9Z" fill="#404040"/>
<path d="M562.62 270.02C562.99 269.98 562.62 276.64 561.87 276.77C561.12 276.9 546.37 278.65 539.49 277.52L539.56 270.09C539.57 270.1 547.5 271.9 562.62 270.02Z" fill="#404040"/>
<path d="M625.38 184.9C623.04 184.41 621.13 192.78 622.13 218.02C623.13 243.26 628.84 311.94 630.51 314.27C632.18 316.6 650.34 315.1 651.34 313.94C652.34 312.77 648.84 272.94 646.17 249.77C643.5 226.61 633.08 186.52 625.38 184.9Z" fill="#404040"/>
<path d="M551.5 184.11C551.22 186.84 545.33 212.44 545.17 239.94C545 267.44 545.34 303.11 545.84 308.61C545.84 308.61 534.67 311.78 531.34 307.78C528.01 303.78 530.84 266.18 533.84 234.28C537.17 198.77 553.5 164.61 551.5 184.11Z" fill="#404040"/>
<path d="M655.68 332.82C654.99 329.46 653.75 326.01 652.62 322.77C652.17 321.48 651.5 320.28 651.07 318.99C650.64 317.69 650.37 316.48 649.55 315.37C648 313.28 643.6 315.19 641.64 315.39C640.13 315.54 638.52 315.42 637.03 315.27C636.07 315.17 635.15 314.6 634.2 315.12C633.88 315.3 633.71 315.7 633.6 316.15C633.38 316.71 633.23 317.31 633.03 317.83C632.25 319.86 631.67 321.92 631.12 324.02C630.71 325.6 629.04 330.25 630.44 331.73C631.86 333.23 634.22 328.89 636.02 324.81C635.95 325.69 635.92 326.57 635.86 327.43C635.68 329.97 635.5 332.59 635.73 335.14C635.92 337.28 636.16 339.44 636.65 341.53C636.9 342.61 637.1 343.7 638.19 344.13C638.33 344.19 638.55 344.14 638.65 344.02C639.65 342.89 639.61 341.13 639.76 339.69C640.03 337.09 640.12 334.51 640.27 331.91C640.33 330.9 640.41 329.88 640.49 328.86C640.78 331.2 641.25 333.54 641.56 335.79C641.67 336.57 642.17 344.08 644.27 343.31C646.4 342.54 646.01 336.56 646.03 334.94C646.05 333.9 646.05 332.85 646.05 331.8C646.25 332.74 646.46 333.66 646.72 334.56C647.25 336.43 647.47 340.55 649.35 341.67C649.56 341.8 649.88 341.79 650.06 341.6C651.83 339.64 651.44 335.43 651.15 333.06C651.08 332.46 651.01 331.86 650.94 331.26C651.9 335.1 653.52 339.77 655.73 338.56C657.36 337.68 655.93 334.01 655.68 332.82Z" fill="#EFCAA6"/>
<path d="M546.39 321.32C545.98 317.38 545.09 312.71 542.81 309.41C542.8 309.4 542.79 309.4 542.78 309.39C542.7 309.21 542.52 309.07 542.32 309.14C540.18 309.93 537.36 309.12 535.19 308.89C534.2 308.79 532.91 308.84 532.52 310.01C530.61 315.72 532.03 321.81 532.02 327.65C532.02 330.11 532.49 332.58 533.55 334.8C533.9 335.53 535.15 336.41 535.8 335.49C536.97 333.83 537.02 331.14 537.29 329.18C537.37 328.59 537.46 327.99 537.55 327.39C537.58 328.12 537.64 328.85 537.72 329.59C537.95 331.68 538.22 335.6 540.32 336.78C540.51 336.89 540.78 336.93 540.96 336.8C542.73 335.6 542.23 331.82 542.32 329.97C542.42 327.95 542.37 325.99 542.24 323.98C542.23 323.83 542.24 323.68 542.23 323.52C542.41 323.91 542.6 324.31 542.79 324.7C543.16 325.46 545.41 329.33 546.55 326.95C547.38 325.21 546.58 323.13 546.39 321.32Z" fill="#EFCAA6"/>
<path d="M539.43 122.61C538.56 117.38 534.17 111.65 528.74 115.69C521.8 120.85 522 130.9 528.58 136.32C534.67 141.34 541.42 138.1 542.01 130.53C542.15 128.74 541.1 125.37 539.43 122.61Z" fill="#EFCAA6"/>
<path opacity="0.5" d="M538.64 124.15C538.06 120.66 535.13 116.84 531.51 119.53C526.88 122.97 527.01 129.67 531.4 133.29C535.46 136.64 539.96 134.47 540.36 129.42C540.46 128.24 539.76 125.99 538.64 124.15Z" fill="#C69474"/>
<path d="M648.99 119.35C645.41 116.68 639.16 117.82 636.45 121.32C635.13 121.91 633.96 122.81 633.15 123.94C630.29 127.97 630.2 132.41 631.35 137.06C633.7 146.5 643.77 146.19 649.98 140.8C657 134.73 656.07 124.63 648.99 119.35Z" fill="#EFCAA6"/>
<path opacity="0.5" d="M644.32 123.3C641.93 121.52 637.76 122.28 635.95 124.62C635.07 125.01 634.29 125.61 633.75 126.37C631.84 129.06 631.78 132.02 632.55 135.13C634.12 141.43 640.84 141.23 644.99 137.62C649.66 133.57 649.04 126.82 644.32 123.3Z" fill="#C69474"/>
<path d="M537.56 96.4599C537.56 96.4599 528.73 129.14 544.51 146.23C560.29 163.32 596.34 174.02 624.7 152.24C653.06 130.45 633.53 94.7699 633.53 94.7699C633.53 94.7699 634.47 105.85 629.21 106.04C623.95 106.23 622.64 90.0799 622.64 90.0799C622.64 90.0799 622.08 103.98 615.32 105.1C608.56 106.23 604.43 88.1999 604.43 88.1999C604.43 88.1999 599.17 107.55 595.04 106.42C590.91 105.29 584.52 86.8899 584.52 86.8899C584.52 86.8899 577.19 105.86 572.12 105.48C567.05 105.1 567.8 88.5799 567.8 88.5799C567.8 88.5799 558.97 107.36 553.53 107.73C548.08 108.11 549.4 91.9499 549.4 91.9499C549.4 91.9499 538.69 130.08 537.56 96.4599Z" fill="#F4D9BF"/>
<path d="M612.64 119.87C611.8 117.14 608.83 116.12 606.3 115.38C603.13 114.45 600.21 114.94 597.06 115.51C596.55 115.6 596.67 116.36 597.15 116.39C599.78 116.54 602.31 116.46 604.82 117.38C607.28 118.28 608.93 119.68 611.13 120.95C611.86 121.37 612.91 120.75 612.64 119.87Z" fill="#2A3A49"/>
<path d="M567.47 115.67C563.53 114.97 555.66 115.57 553.36 119.49C552.89 120.28 553.61 121.6 554.62 121.22C556.59 120.5 558.28 119.29 560.31 118.61C562.66 117.83 565.05 117.16 567.45 116.54C567.84 116.44 567.93 115.76 567.47 115.67Z" fill="#2A3A49"/>
<path d="M587.53 157.92C584.87 157.63 582.16 157.35 579.52 157.21C579.03 157.18 578.73 157.83 579.09 158.17C580 159.05 581.42 159.46 582.62 159.75C584.45 160.21 586.2 160.56 588 159.84C589.03 159.42 588.43 158.02 587.53 157.92Z" fill="#C69474"/>
<path d="M608.12 129.61C605.87 129.95 604.05 130.91 601.71 130.26C600.33 129.88 599.34 128.59 598 128.03C597.52 127.83 597.22 128.41 597.38 128.79C598.25 130.86 599.51 132.28 601.64 133.07C604.03 133.95 607.43 133.38 609.16 131.51C609.94 130.65 609.24 129.44 608.12 129.61Z" fill="#C69474"/>
<path d="M570.97 126.96C569.49 127.95 567.78 128.64 566.06 129.06C565 129.32 563.88 129.63 562.78 129.66C561.93 129.69 561.04 129.02 560.24 128.77C558.97 128.36 558.18 129.91 558.95 130.85C562.2 134.8 569.8 131.67 571.74 127.77C571.96 127.31 571.5 126.61 570.97 126.96Z" fill="#C69474"/>
<path opacity="0.7" d="M628.95 140.97C628.8 139.25 625.44 138.08 621.46 138.34C617.48 138.6 614.37 140.2 614.53 141.92C614.69 143.63 618.04 144.81 622.02 144.55C626.01 144.29 629.11 142.69 628.95 140.97ZM616.25 141.17C616.26 141.21 616.25 141.24 616.23 141.28C616.23 141.3 616.22 141.32 616.21 141.34C616.2 141.47 616.11 141.6 615.98 141.62C615.94 141.65 615.91 141.68 615.86 141.71C615.68 141.81 615.48 141.68 615.42 141.52C615.41 141.49 615.41 141.46 615.4 141.44C615.34 141.36 615.33 141.26 615.42 141.17C615.46 141.13 615.5 141.09 615.53 141.05C615.62 140.96 615.73 140.88 615.85 140.81C616.13 140.65 616.36 140.95 616.25 141.17ZM619.37 141.19C618.76 141.28 617.83 141.34 617.41 140.82C617.04 140.36 617.46 139.8 617.89 139.53C618.24 139.31 618.65 139.15 619.08 139.11C620.12 138.93 621.34 139.13 621.14 140.12C621 140.82 620.04 141.1 619.37 141.19Z" fill="#F9CBC9"/>
<path opacity="0.7" d="M559.62 142.31C559.47 140.6 556.11 139.42 552.13 139.68C548.15 139.94 545.04 141.54 545.2 143.26C545.36 144.97 548.71 146.15 552.69 145.89C556.68 145.62 559.78 144.02 559.62 142.31ZM546.92 142.51C546.93 142.54 546.92 142.58 546.9 142.62C546.9 142.64 546.89 142.66 546.88 142.68C546.87 142.81 546.78 142.94 546.65 142.96C546.61 142.99 546.58 143.02 546.53 143.05C546.35 143.15 546.15 143.02 546.09 142.86C546.08 142.83 546.08 142.81 546.07 142.78C546.01 142.7 546 142.6 546.09 142.51C546.13 142.47 546.17 142.43 546.2 142.39C546.29 142.3 546.4 142.22 546.52 142.15C546.8 141.98 547.02 142.28 546.92 142.51ZM550.04 142.52C549.43 142.61 548.5 142.67 548.08 142.14C547.71 141.68 548.13 141.12 548.56 140.85C548.91 140.63 549.32 140.47 549.75 140.43C550.79 140.25 552.01 140.45 551.81 141.44C551.67 142.15 550.7 142.43 550.04 142.52Z" fill="#F9CBC9"/>
<path d="M547.83 336.01H125.94V342.88H547.83V336.01Z" fill="#2A3A49"/>
<path d="M546.11 346.34H127.66V489.63H546.11V346.34Z" fill="#394C5F"/>
<path d="M548.17 336.51H125.61L152.73 313.04H528.05L548.17 336.51Z" fill="#394C5F"/>
<path d="M524.441 368.78H149.331V466.01H524.441V368.78Z" fill="#2A3A49"/>
<path d="M517.8 378.06H155.98V456.74H517.8V378.06Z" fill="#48586E"/>
<path d="M555.651 483.24H117.641V498.73H555.651V483.24Z" fill="#272726"/>
<path d="M550.771 342.27H123.011V357.77H550.771V342.27Z" fill="#48586E"/>
<path d="M84.6104 465.12V503.05H122.13V465.12C101.81 451.26 84.6104 465.12 84.6104 465.12Z" fill="#2A3A49"/>
<path d="M550.92 465.12V503.05H588.44V465.12C568.12 451.26 550.92 465.12 550.92 465.12Z" fill="#2A3A49"/>
<path d="M432.35 320.88C430.48 317.46 426.16 314.55 422.65 313.12C421.04 312.46 419.39 312.16 417.73 312.13C419.6 311.11 421.53 310.19 423.62 309.46C425.25 308.89 426.91 308.48 428.61 308.2C429.48 308.05 430.77 308.31 431.57 307.81C431.9 307.6 432.07 307.08 431.73 306.78C429.03 304.39 425.56 303.49 422.01 303.63C424.96 301.56 427.91 299.27 429.96 296.27C430.3 295.78 429.78 295.15 429.24 295.28C424.55 296.35 420.31 298.22 416.24 300.63C417.51 299.09 418.47 297.41 418.85 295.66C418.94 295.27 418.69 294.7 418.2 294.75C416.34 294.94 414.59 295.39 412.88 295.98C413.01 295.85 413.14 295.72 413.26 295.59C415.51 293.23 418.46 290.38 418.7 286.95C418.73 286.46 418.26 286.17 417.82 286.24C414.7 286.77 411.46 287.8 408.61 289.39C409.45 288.37 410.27 287.34 411.04 286.27C411.71 285.34 413.54 283.04 413.22 281.74C412.63 279.34 407.17 282.2 405.94 282.78C403.44 283.96 400.71 285.67 398.48 287.71C398.65 287.11 398.81 286.5 398.93 285.88C399.6 282.33 398.37 279.05 396.89 275.91C396.61 275.32 395.85 275.54 395.63 276.04C394.53 278.58 392.46 280.91 390.65 282.96C390.01 283.69 389.25 284.44 388.54 285.23C388.48 280.48 387.07 275.8 383.96 272C383.62 271.58 383.05 271.85 382.87 272.26C381.98 274.33 381.38 276.5 380.5 278.56C379.92 279.91 379.28 281.23 378.67 282.57C378.81 279.38 378.6 276.17 378.07 273.13C378.01 272.78 377.68 272.59 377.36 272.55C374.47 272.22 370.97 273.65 368.35 274.72C364.76 276.19 362.06 278.3 359.08 280.6C359.51 279.55 359.86 278.47 360.14 277.36C360.38 276.4 361.45 270.2 359.06 270.65C355.27 271.35 351.64 274.3 348.76 276.72C348.28 277.12 347.78 277.57 347.28 278.04C348.72 274.33 349.24 270.37 348.15 266.44C348.05 266.09 347.71 265.88 347.36 265.96C345.3 266.42 343.41 267.95 341.8 269.25C339.46 271.13 337.23 273.1 335.3 275.41C334.63 276.22 333.97 277.09 333.34 277.99C333.8 275.85 334.08 273.68 334.15 271.48C334.21 269.79 334.44 267.02 333.65 265.44C333.03 264.2 332.03 264.75 331.03 265.27C326.96 267.41 323.57 270.96 320.79 274.55C319.31 276.45 317.97 278.46 316.97 280.59C316.68 279.92 316.39 279.25 316.1 278.6C314.63 275.36 312.31 271.4 309.44 269.21C309.06 268.92 308.43 269.18 308.32 269.63C307.33 273.71 307.52 277.57 308.36 281.43C308.28 281.31 308.22 281.19 308.14 281.07C307.22 279.69 305.98 278.5 304.81 277.34C304.03 276.57 303.26 275.39 302.12 275.17C301.61 275.07 301.25 275.35 301.17 275.85C300.77 278.47 300.61 282.11 301.29 285.31C300.44 284.48 299.55 283.71 298.68 283.01C294.88 279.95 290.23 277.73 285.33 277.76C284.77 277.76 284.27 278.4 284.61 278.94C285.7 280.65 287.05 282.22 288.15 283.96C288.89 285.13 289.5 286.38 290.07 287.65C289.73 287.33 289.38 287.02 289.02 286.71C286.84 284.83 284.23 282.49 281.54 281.43C281.05 281.24 280.57 281.68 280.54 282.15C280.36 285.19 280.82 288.94 282.15 292.13C281.69 291.71 281.25 291.3 280.83 290.91C278.61 288.82 275.93 286.19 273.09 284.99C272.74 284.84 272.24 285.11 272.16 285.48C271.13 290.2 271.31 296.04 272.93 301.01C270.49 298.14 267.38 295.86 264.65 293.2C264.27 292.83 263.4 293.01 263.46 293.65C263.75 296.47 264.52 299.25 265.81 301.76C264.71 300.74 263.39 300.32 262 299.67C259.33 298.43 255.78 297.83 252.86 297.97C252.25 298 251.85 298.59 252.14 299.16C253.77 302.42 255.82 305.57 258.45 307.96C257.18 308.04 255.92 308.23 254.65 308.65C251.14 309.79 248.22 312.69 246.15 315.61C245.72 316.22 246.38 316.87 247 316.78C250.78 316.25 254.57 316.13 258.4 316.32C258.79 316.34 259.17 316.39 259.54 316.45C256.15 317.95 253.42 320.15 250.76 322.81C250.35 323.22 250.53 323.85 251.05 324.05C258.58 326.91 267.52 326.27 275.21 324.35C280.59 323.01 286.03 321.77 290.3 318.67C289.04 320.61 286.72 323.56 284.49 324.28C283.91 324.47 283.81 325.34 284.45 325.53C288.71 326.78 293.66 325.47 297.51 323.58C299.18 322.76 300.81 321.88 302.32 320.86C302.59 321.95 303 323.02 303.56 324.08C304.2 325.29 305.1 326.38 306 327.41C306.49 327.97 307.57 329.51 308.46 329.53C308.82 329.54 309.22 329.29 309.35 328.96C310.06 327.06 310.78 325.33 311.83 323.58C312.75 322.05 313.59 320.5 314.36 318.93C314.76 320.08 315.36 321.19 316.05 322.32C317.62 324.88 319.53 326.34 321.97 327.94C322.36 328.2 322.88 327.89 322.9 327.44C322.98 325.53 323.64 323.65 323.93 321.76C324.14 320.4 324.17 318.99 324.05 317.6C325.35 319.47 327.2 321.12 328.73 322.37C331.75 324.83 335.21 327.04 339.15 327.59C339.55 327.65 339.9 327.17 339.79 326.8C339.24 325.09 339.11 323.31 338.77 321.56C340.64 323.43 343.16 324.9 345 326.06C348.62 328.34 353.71 330.33 358.08 329.83C358.46 329.79 358.77 329.27 358.64 328.91C357.97 327.18 356.95 325.39 355.83 323.71C355.85 323.72 355.87 323.74 355.89 323.75C357.94 324.94 360.22 325.82 362.43 326.65C364.88 327.56 367.32 328.25 369.88 328.75C371.5 329.07 373.62 329.6 375.23 329.26C375.79 329.14 375.97 328.42 375.59 328.02C374.29 326.63 373.01 325.15 371.69 323.7C375.83 326.15 380.71 327.58 385.41 327.79C385.74 327.81 386.04 327.58 386.14 327.27C386.5 326.1 386.03 324.4 385.85 323.18C385.68 321.99 385.35 320.81 384.93 319.67C385.2 320.08 385.47 320.49 385.75 320.89C386.56 322.04 387.42 323.15 388.27 324.27C388.93 325.14 389.53 326.33 390.61 326.67C390.88 326.76 391.24 326.64 391.38 326.38C392.31 324.59 392.74 322.29 392.66 319.99C393.97 321.26 395.4 322.41 396.87 323.57C399.59 325.72 402.29 326.53 405.54 327.6C406.06 327.77 406.47 327.28 406.39 326.79C406.18 325.52 405.4 324.24 404.92 323.03C404.63 322.3 404.32 321.58 403.98 320.87C404.86 321.49 405.75 322.07 406.59 322.64C409.66 324.74 413.7 326.43 417.4 326.85C417.88 326.9 418.24 326.38 418.13 325.95C417.62 323.91 416.61 321.82 415.25 319.96C417.91 319.63 420.57 319.62 423.27 319.76C425.24 319.86 427.1 320.3 428.97 320.88C429.93 321.18 430.68 321.82 431.68 321.93C432.25 322.02 432.6 321.33 432.35 320.88Z" fill="#78B946"/>
<path d="M414.19 306.19C413.23 306.12 412.16 306.49 411.14 306.54C409.49 306.61 407.77 306.58 406.07 306.41C407.43 304.79 408.74 302.99 409.62 301.17C409.87 300.64 409.5 299.87 408.82 300.07C407.58 300.44 406.36 300.83 405.14 301.21C405.7 300.15 406.26 299.09 406.82 298.03C407.2 297.32 408.96 294.87 408.01 294C407 293.08 404.69 294.33 403.62 294.7C402.51 295.08 401.45 295.6 400.42 296.19C401.24 294.75 402.17 293.29 402.5 291.66C402.56 291.34 402.48 291.03 402.2 290.85C400.97 290.08 399.38 291.75 398.44 292.44C396.28 294.03 394.12 295.74 391.75 297.02C391.93 296.69 392.11 296.35 392.29 296C393.41 293.74 394.68 290.51 393.93 287.97C393.8 287.52 393.26 287.35 392.91 287.67C391.1 289.28 389.74 291.19 387.74 292.64C386.26 293.71 384.55 295.35 382.75 296.25C383 295.44 383.18 294.62 383.23 293.8C383.37 291.9 383.36 290.03 383.21 288.13C383.11 286.91 383.24 285.59 382.44 284.57C382.32 284.41 382.02 284.32 381.83 284.39C379.99 285.1 378.68 287.29 377.35 288.64C376.14 289.87 374.9 291.09 373.59 292.21C373.52 290.97 373.41 289.74 373.31 288.53C373.17 286.78 372.78 285.06 372.54 283.32C372.39 282.2 372.62 280.83 372.1 279.78C371.97 279.52 371.61 279.35 371.33 279.44C366.84 280.99 362.79 283.48 359.49 286.79C359.63 285.79 359.66 284.75 359.3 283.85C359.19 283.57 358.79 283.5 358.55 283.63C357.03 284.47 355.73 285.69 354.54 287.01C354.76 285.44 355.03 283.88 355.25 282.31C355.38 281.35 355.66 280.26 354.87 279.56C354.66 279.37 354.33 279.26 354.06 279.43C351.68 281 349.28 282.55 346.99 284.26C345.53 285.36 343.97 286.47 342.82 287.89C342.87 287.53 342.91 287.18 342.96 286.83C343.46 283.28 344.57 279.55 344.64 275.96C344.65 275.45 344.12 275.16 343.68 275.37C339.99 277.12 336.98 280.95 334.12 283.78C332.78 285.1 330.07 287.33 328.99 289.53C329.01 288.38 329.09 287.22 329.16 286.11C329.3 285.9 329.44 285.68 329.58 285.47C329.85 285.09 329.6 284.65 329.24 284.48C329.37 281.46 330.34 278.48 330.55 275.46C330.57 275.16 330.34 274.82 330.04 274.75C328.47 274.4 326.45 276.72 325.24 277.62C322.94 279.32 320.84 281.32 319.06 283.56C318.16 284.7 317.32 285.9 316.52 287.13C315.88 285.74 315.38 284.13 315.18 282.87C315.07 282.2 314.42 280.82 313.69 280.62C313.37 280.53 313.11 280.66 312.92 280.91C312.21 281.83 312.15 283.36 311.89 284.45C311.51 286.01 311.13 287.57 310.8 289.14C309.86 287.33 308.98 285.5 307.92 283.78C307.33 282.82 305.63 282.35 305.5 283.91C305.33 285.93 304.33 288.12 303.81 290.07C303.54 291.1 303.31 292.14 303.12 293.19C302.23 292.14 301.32 291.11 300.36 290.13C298.17 287.89 295.31 283.55 291.85 283.48C291.26 283.47 290.88 284.1 291.15 284.62C293.05 288.26 294.74 292.11 294.36 296.32C294.26 296.26 294.15 296.19 294.05 296.13C292.18 294.92 290.41 293.56 288.7 292.13C287.68 291.28 286.85 290.15 285.71 289.47C285.13 289.12 284.53 289.65 284.62 290.26C285.04 293.1 285.78 295.86 285.99 298.74C285.99 298.79 286.01 298.82 286.02 298.86C285.35 298.44 284.69 298.01 284.02 297.6C282.62 296.72 281.11 295.98 279.75 295.06C278.96 294.52 278.16 294.01 277.18 294.01C276.69 294.01 276.31 294.46 276.43 294.94C277.07 297.64 278.81 300.04 279.6 302.73C279.44 302.76 279.27 302.78 279.11 302.81C276.32 303.35 273.68 304.27 271.06 305.38C269.41 306.08 266.66 306.98 265.48 308.39C265.12 308.82 265.24 309.74 265.97 309.69C269.7 309.39 273.32 309.15 277.04 309.16C275.36 310.37 273.77 311.7 272.17 313C270.67 314.22 268.29 315.94 267.7 317.86C267.55 318.34 267.92 318.96 268.47 318.93C269.55 318.87 270.44 318.16 271.26 317.51C273.45 315.77 276.37 314.47 278.98 313.51C281.36 312.63 283.87 312.09 286.36 311.62C285.68 312.22 284.89 312.62 284.8 313.58C284.76 314.06 285.24 314.34 285.66 314.28C288.82 313.78 292.17 312.44 295.28 311.18C294.7 313.08 294.17 315.05 294.37 316.82C294.62 319.17 296.69 318.42 298.02 317.42C300.62 315.46 302.85 312.84 304.98 310.31C305.8 314.08 307.25 318.76 309.01 317.35C310.35 316.28 310.88 314.54 311.62 313.04C312.47 311.31 313.1 309.49 313.83 307.71C313.97 309.54 314.32 311.35 315.09 312.95C315.71 314.23 316.94 316.48 318.68 316.16C319 316.1 319.23 315.78 319.24 315.46C319.31 311.71 319.91 307.88 320.92 304.12C322.41 306.79 324.12 309.3 325.8 311.9C326.8 313.45 328.73 318.05 331.08 317.7C331.3 317.67 331.51 317.45 331.56 317.24C332.04 315.43 331.24 313.08 331.1 311.26C330.94 309.2 330.93 307.12 330.97 305.04C331.13 305.22 331.29 305.4 331.46 305.58C333.34 307.6 335.25 309.59 337.04 311.69C339.67 314.79 342.43 318.02 346.44 319.3C346.87 319.44 347.42 319.1 347.39 318.62C347.3 317.02 346.71 315.5 346.69 313.82C346.67 311.81 347.12 309.73 347.64 307.75C349.35 309.85 351.52 311.71 353.4 313.57C356.01 316.15 358.68 318.68 361.24 321.31C361.72 321.8 362.6 321.49 362.62 320.78C362.68 317.7 362.62 314.69 362.78 311.65C364.26 313.57 366.28 315.27 368.04 316.43C369.91 317.67 371.99 318.6 373.95 319.69C375.03 320.29 375.75 321.37 377.02 321.2C377.37 321.15 377.63 320.77 377.63 320.44C377.65 319.12 377.43 317.82 377.35 316.49C377.2 314.06 377.49 311.56 377.8 309.16C377.81 309.11 377.81 309.07 377.82 309.02C379.3 310.4 380.66 312.02 382.06 313.38C383.99 315.26 386.26 316.75 388.6 318.05C389.05 318.3 389.54 318.1 389.72 317.63C390.41 315.85 390.92 314.1 391.63 312.39C392.42 314.02 393.33 315.59 394.31 317.11C395 318.18 396.04 319.74 397.31 320.14C397.65 320.24 397.96 320.09 398.16 319.82C398.94 318.77 398.84 317.04 399.01 315.8C399.17 314.62 399.31 313.42 399.45 312.23C400.34 313.32 401.3 314.36 402.41 315.31C403.42 316.18 405.32 318.07 406.81 317.85C407.08 317.81 407.28 317.52 407.29 317.26C407.32 316.46 406.83 315.74 406.42 315.09C405.64 313.86 404.9 312.59 404.16 311.32C407.86 311.11 411.2 309.26 414.53 307.56C415.23 307.25 414.91 306.24 414.19 306.19Z" fill="#3B9B45"/>
<path d="M316.571 308.92C316.871 308.79 317.141 308.62 317.351 308.39C318.061 307.61 318.151 306.51 317.261 305.85C316.621 305.37 315.501 305.63 314.801 305.9C315.001 305.15 314.941 304.29 314.661 303.58C314.061 302.07 312.381 301.68 311.041 302.5C309.601 303.37 309.981 305.32 310.741 306.51C310.781 306.56 310.821 306.61 310.861 306.66C310.351 306.48 309.791 306.42 309.211 306.54C307.871 306.81 306.061 307.87 306.031 309.44C306.011 310.78 307.091 311.47 308.291 311.74C308.891 311.87 309.461 311.85 310.001 311.71C309.741 312.12 309.531 312.57 309.391 313.09C309.021 314.43 309.411 315.76 310.871 316.09C312.671 316.5 314.451 314.88 314.861 313.24C315.151 313.49 315.491 313.69 315.891 313.85C316.891 314.24 318.371 314.07 318.741 312.88C319.241 311.15 318.101 309.57 316.571 308.92Z" fill="#FFD060"/>
<path d="M368.291 293.43C368.071 293.42 367.811 293.44 367.541 293.48C368.361 292.26 368.641 290.69 368.201 289.25C367.691 287.56 365.411 286.46 363.791 287.15C362.131 287.87 361.811 289.57 361.921 291.2C359.651 289.73 356.531 289.43 354.641 291.39C352.601 293.51 355.351 296.23 358.381 297.35C357.431 297.74 356.551 298.25 355.841 298.89C354.451 300.13 354.011 302.36 355.691 303.66C357.641 305.17 360.171 303.73 361.851 302.45C362.241 302.15 362.841 301.64 363.371 301.03C363.231 302.6 363.711 304.51 365.541 304.76C367.421 305.01 368.661 303.56 368.941 301.82C369.051 301.13 368.981 300.49 368.791 299.9C369.381 300.02 370.011 300.08 370.661 300.1C372.741 300.16 374.271 298.88 373.841 296.75C373.411 294.58 370.171 293.48 368.291 293.43Z" fill="#FFD060"/>
<path d="M396.141 299.15C394.921 298.24 393.151 298.14 391.721 298.49C392.141 297.67 392.161 296.61 391.761 295.74C391.141 294.4 389.331 293.23 387.801 293.63C386.171 294.05 385.731 295.83 385.811 297.33C385.831 297.67 385.931 298.11 386.101 298.54C385.561 298.4 385.001 298.35 384.441 298.43C383.141 298.6 381.841 299.38 381.761 300.83C381.621 303.28 384.001 304.05 386.021 303.54C385.271 304.37 384.701 305.3 384.441 306.48C384.211 307.5 384.271 308.83 385.581 309.01C387.361 309.25 388.341 308 388.771 306.47C388.941 306.81 389.141 307.13 389.381 307.4C390.141 308.26 392.531 309.35 393.551 308.34C394.751 307.15 394.001 304.99 393.431 303.65C393.311 303.36 393.141 303.09 392.961 302.83C394.001 303.08 395.141 302.89 396.091 302.33C397.411 301.53 397.321 300.03 396.141 299.15Z" fill="#FFD060"/>
<path d="M354.941 306.15C353.651 304.54 351.211 304.63 349.531 305.41C349.211 305.56 348.891 305.79 348.581 306.05C349.041 304.92 349.091 303.66 348.501 302.43C347.821 301.02 346.221 299.79 344.561 300.13C342.781 300.49 342.101 302.41 342.361 304.07C342.441 304.58 342.611 305.23 342.861 305.87C342.701 305.83 342.541 305.79 342.371 305.77C340.541 305.55 338.531 305.63 337.171 307.02C335.971 308.23 336.401 310.28 337.681 311.24C338.591 311.92 339.611 312.12 340.631 312.03C339.691 313.24 339.011 314.82 339.251 316.19C339.621 318.22 341.991 318.66 343.681 317.98C345.381 317.3 346.291 315.87 346.831 314.25C347.471 315.8 348.731 317.54 350.391 317.59C352.411 317.66 353.631 315.86 353.331 313.92C353.211 313.12 352.871 312.41 352.401 311.81C353.151 311.69 353.901 311.38 354.591 310.88C356.211 309.72 356.101 307.59 354.941 306.15Z" fill="#FFE754"/>
<path d="M336.75 290.08C335.18 286.74 330.83 287.11 328.19 289.15C328.34 287.87 327.86 286.38 327.39 285.3C326.54 283.36 324.53 282.15 322.44 282.68C320.21 283.24 319.69 285.96 320.46 287.82C320.79 288.63 321.27 289.52 321.87 290.29C321.16 290.21 320.41 290.22 319.78 290.27C317.69 290.43 315.85 291.89 315.66 294.02C315.43 296.58 318.86 296.72 320.57 296.67C320.97 296.66 321.34 296.61 321.71 296.54C321.04 297.27 320.49 298.12 320.11 299.16C319.35 301.26 320.07 303 322.42 303.14C324.51 303.26 326.17 301.66 327.08 299.6C327.25 299.88 327.44 300.15 327.67 300.4C328.92 301.76 331.25 301.83 332.55 300.55C334.14 298.99 333.11 296.72 331.77 295.43C331.66 295.32 331.52 295.24 331.39 295.14C332.17 295.11 332.99 294.91 333.9 294.54C335.45 293.89 337.67 292.04 336.75 290.08Z" fill="#FFE754"/>
<path d="M301.63 298.27C304.07 297.05 305.76 294.69 303.1 292.29C301.62 290.95 299.36 291.27 297.88 292.43C297.14 293 296.55 293.65 296.07 294.36C295.88 293.36 295.45 292.39 294.89 291.62C293.37 289.51 290.79 289.16 288.63 290.43C286.61 291.63 286.54 294.45 287.58 296.27C287.88 296.79 288.31 297.27 288.81 297.69C287.98 297.64 287.16 297.64 286.36 297.74C284.17 298.01 282.77 300.75 283.27 302.69C283.85 304.91 286.57 305.42 288.48 305.29C288.67 305.28 288.86 305.24 289.05 305.22C288.77 305.75 288.57 306.28 288.5 306.78C288.04 309.89 290.51 312.18 293.55 311.72C296.3 311.3 297.49 308.7 297.35 306.14C299.8 307.43 303.03 307.16 305.07 304.51C307.55 301.25 304.81 298.79 301.63 298.27Z" fill="#FFE754"/>
<path d="M244 104.65C244 104.65 241.25 113.03 243.88 113.65C246.51 114.27 244 104.65 244 104.65Z" fill="#68C7FF"/>
<path d="M244 118.65C244 118.65 241.38 126.27 243.75 126.4C246.12 126.53 244 118.65 244 118.65Z" fill="#68C7FF"/>
<path d="M284.62 105.27C284.62 105.27 281.62 114.39 284 114.65C286.38 114.91 284.62 105.27 284.62 105.27Z" fill="#68C7FF"/>
<path d="M284.38 120.02C284.38 120.02 282.26 127.64 284.13 127.77C286 127.9 284.38 120.02 284.38 120.02Z" fill="#68C7FF"/>
</svg>
