<svg width="10" height="21" fill="none" xmlns="http://www.w3.org/2000/svg"><path d="M1.5 20.772c-.292 0-.575-.119-.8-.338a1.447 1.447 0 01-.308-.445 1.71 1.71 0 01-.088-1.12 1.56 1.56 0 01.234-.504l5.6-7.865-5.4-7.88a1.568 1.568 0 01-.228-.508 1.712 1.712 0 01.1-1.12c.08-.17.186-.32.314-.44.13-.134.281-.235.445-.297a1.092 1.092 0 01.996.12c.15.1.28.235.384.396l6.038 8.805c.184.262.284.592.284.931 0 .34-.1.67-.284.932l-6.25 8.805a1.291 1.291 0 01-.465.41c-.18.091-.377.132-.573.118z" fill="#343434"/></svg>