<svg width="89" height="88" fill="none" xmlns="http://www.w3.org/2000/svg"><path d="M87.4 53.125l-7.4-5v-15l7.4-4.9c.4-.3.7-.7.7-1.2s-.3-1-.7-1.2L49.3.225c-.5-.3-1.2-.3-1.7 0l-47 31.4c-.2.1-.3.2-.4.4v.1c-.2.3-.2.5-.2.8v27.5c0 .5.3 1 .7 1.2l38.1 25.4c.3.2.5.3.8.3.3 0 .6-.1.8-.3l47.1-31.4c.4-.3.7-.7.7-1.2-.1-.6-.4-1.1-.8-1.3zm-38.9-49.8l35.4 23.6-5.8 3.8c-.3.1-.6.3-.8.5l-37.8 25.2-28.4-18.9c-.1-.1-.2-.1-.2-.2l-6.8-4.5 44.4-29.5zm-36.9 38.2l27 18c.5.3 1.2.3 1.7 0l36.7-24.5v12.3l-37.3 24.6-28.1-18v-12.4zm27.9 42.4l-36.6-24.4v-23.8l5.8 3.8v15.2c0 .5.3 1 .7 1.3l29.6 19c.2.2.5.2.8.2.3 0 .6-.1.8-.2l37.4-24.6 5.9 4-44.4 29.5z" fill="#fff"/><path d="M42 17.025l17.8 12.2c.3.2.6.3.8.3.5 0 .9-.2 1.2-.7.5-.7.3-1.6-.4-2.1l-17.7-12.2c-.7-.5-1.6-.3-2.1.4s-.3 1.6.4 2.1z" fill="#fff"/></svg>