<svg width="89" height="88" fill="none" xmlns="http://www.w3.org/2000/svg"><path d="M88.235 38.547c0-3.676-1.66-7.121-4.486-9.414a8.276 8.276 0 00.184-1.706c0-4.579-3.386-8.382-7.785-9.037a8.212 8.212 0 00.149-1.556c0-4.875-3.842-8.858-8.655-9.111a1.481 1.481 0 00-.242-.024c-.04 0-.08.005-.12.006-.04-.001-.08-.006-.12-.006-.458 0-.92.041-1.406.126A9.594 9.594 0 0056.317 0c-5.311 0-9.632 4.321-9.632 9.633v65.918c0 6.723 5.469 12.191 12.19 12.191 4.46 0 8.509-2.413 10.647-6.246a9.43 9.43 0 001.4.198c2.904.185 5.73-.766 7.927-2.693a10.866 10.866 0 003.7-7.51 10.62 10.62 0 00-.403-3.638c3.796-2.691 6.027-6.952 6.027-11.621 0-3.385-1.22-6.635-3.445-9.224 2.24-2.268 3.507-5.302 3.507-8.461zm-3.06 17.687c0 3.484-1.582 6.68-4.295 8.819-2.008-3.196-5.57-5.237-9.427-5.237a1.5 1.5 0 000 3 8.168 8.168 0 017.582 5.208c.41 1.088.592 2.189.52 3.274a7.881 7.881 0 01-2.684 5.449 7.881 7.881 0 01-5.752 1.954c-.594-.039-1.208-.167-1.933-.402a1.5 1.5 0 00-1.846.84 9.182 9.182 0 01-8.465 5.604c-5.068 0-9.191-4.123-9.191-9.191V9.634a6.64 6.64 0 016.632-6.633c3.398 0 6.194 2.562 6.558 5.908-2.751 1.576-4.612 4.535-4.612 7.926a1.5 1.5 0 103 0c0-3.343 2.689-6.065 6.016-6.13 3.327.065 6.016 2.787 6.016 6.129 0 .622-.117 1.266-.36 1.971a1.505 1.505 0 00-.073.63l-.01.035a1.5 1.5 0 001.552 1.866 5.31 5.31 0 00.392-.046 6.143 6.143 0 016.136 6.136c0 .572-.103 1.159-.322 1.849a1.499 1.499 0 00.59 1.7 9.106 9.106 0 014.015 7.242l-.001.012c0 5.03-4.092 9.123-9.122 9.123s-9.123-4.093-9.123-9.123a1.5 1.5 0 10-3 0c0 6.685 5.438 12.123 12.123 12.123 2.228 0 4.31-.615 6.106-1.668 1.92 2.09 2.978 4.763 2.978 7.55zM32.416.001a9.591 9.591 0 00-9.435 7.825 8.126 8.126 0 00-1.407-.126c-.04 0-.079.005-.12.006-.04-.001-.079-.006-.12-.006-.083 0-.163.011-.242.024-4.813.253-8.654 4.236-8.654 9.111 0 .514.049 1.03.149 1.556-4.399.655-7.785 4.458-7.785 9.037 0 .554.061 1.118.184 1.706A12.109 12.109 0 00.5 38.548c0 3.159 1.266 6.193 3.505 8.463C1.778 49.6.559 52.85.559 56.235c0 4.669 2.231 8.929 6.027 11.621a10.574 10.574 0 00-.402 3.639 10.864 10.864 0 003.699 7.509 10.885 10.885 0 007.926 2.693c.455-.03.919-.096 1.4-.199a12.172 12.172 0 0010.646 6.247c6.722 0 12.191-5.469 12.191-12.191V9.634c.002-5.312-4.319-9.633-9.63-9.633zm6.632 75.551c0 5.068-4.123 9.191-9.191 9.191a9.18 9.18 0 01-8.464-5.604 1.5 1.5 0 00-1.846-.84c-.724.235-1.338.363-1.933.402a7.874 7.874 0 01-5.751-1.954 7.881 7.881 0 01-2.685-5.449c-.076-1.16.125-2.336.598-3.495.007-.017.005-.036.011-.053 1.342-3.056 4.225-4.953 7.597-4.953a1.5 1.5 0 100-3 11.264 11.264 0 00-9.548 5.239c-2.701-2.139-4.277-5.327-4.277-8.802 0-2.787 1.06-5.46 2.978-7.549a12.035 12.035 0 006.107 1.668c6.685 0 12.123-5.438 12.123-12.123a1.5 1.5 0 10-3 0c0 5.03-4.092 9.123-9.123 9.123S3.521 43.26 3.521 38.23l-.001-.006a9.108 9.108 0 014.013-7.248 1.499 1.499 0 00.591-1.699c-.22-.691-.322-1.278-.322-1.85 0-3.376 2.741-6.125 6.195-6.125h.022c.103.014.206.027.311.034a1.499 1.499 0 001.54-1.907c.003-.035.006-.067.007-.095a1.486 1.486 0 00-.081-.529c-.242-.707-.359-1.352-.359-1.972 0-3.342 2.688-6.065 6.016-6.129 3.328.065 6.016 2.787 6.016 6.13a1.5 1.5 0 103 0c0-3.391-1.861-6.35-4.612-7.926C26.221 5.562 29.017 3 32.415 3a6.64 6.64 0 016.632 6.633v65.919h.001z" fill="#fff"/></svg>