<svg width="27" height="45" viewBox="0 0 27 45" fill="none" xmlns="http://www.w3.org/2000/svg">
<path d="M8.74038 8.08848C8.74038 8.08848 10.2027 5.79648 13.3809 5.861C16.5591 5.92551 18.3073 8.47575 18.3073 8.47575L18.4853 4.44636C18.4853 4.44636 17.5636 0.0824384 13.6129 0.0501797C9.66226 0.0179211 8.37988 4.06303 8.37988 4.06303L8.74038 8.08848Z" fill="url(#paint0_linear_202:9286)"/>
<path d="M18.1804 3.76263C18.1804 3.76263 20.1297 6.47433 13.3812 16.9335C5.34944 29.3814 0 37.5938 0 37.5938L5.84827 44.0501C5.84827 44.0501 12.142 32.4288 15.4155 26.8764C18.689 21.324 22.3759 16.5462 21.8674 12.0269L18.1804 3.76263Z" fill="url(#paint1_linear_202:9286)"/>
<path d="M8.64513 3.47229C8.64513 3.47229 6.96065 6.73271 13.6188 16.9337C21.7153 29.3382 26.9999 37.5938 26.9999 37.5938L21.1517 44.0501C21.1517 44.0501 14.8579 32.4288 11.5844 26.8764C8.31091 21.3239 4.35429 16.4172 4.86279 11.8977L8.64513 3.47229Z" fill="url(#paint2_linear_202:9286)"/>
<defs>
<linearGradient id="paint0_linear_202:9286" x1="7.57036" y1="4.26302" x2="19.0286" y2="4.26302" gradientUnits="userSpaceOnUse">
<stop stop-color="#0B0B0B"/>
<stop offset="0.2847" stop-color="#343335"/>
<stop offset="0.2976" stop-color="#363537"/>
<stop offset="0.4446" stop-color="#4D4E50"/>
<stop offset="0.5347" stop-color="#565759"/>
<stop offset="0.6076" stop-color="#4E4F51"/>
<stop offset="0.7223" stop-color="#39383A"/>
<stop offset="0.7649" stop-color="#2F2E30"/>
<stop offset="1" stop-color="#020202"/>
</linearGradient>
<linearGradient id="paint1_linear_202:9286" x1="18.0458" y1="21.0005" x2="37.0965" y2="12.1029" gradientUnits="userSpaceOnUse">
<stop stop-color="#2F2D30"/>
<stop offset="0.1832" stop-color="#565759"/>
<stop offset="0.2311" stop-color="#4E4F51"/>
<stop offset="0.3066" stop-color="#3A383B"/>
<stop offset="0.3292" stop-color="#323033"/>
<stop offset="0.5421"/>
</linearGradient>
<linearGradient id="paint2_linear_202:9286" x1="1.52536" y1="17.4528" x2="18.7002" y2="25.3068" gradientUnits="userSpaceOnUse">
<stop stop-color="#2F2D30"/>
<stop offset="0.1832" stop-color="#565759"/>
<stop offset="0.2311" stop-color="#4E4F51"/>
<stop offset="0.3066" stop-color="#3A383B"/>
<stop offset="0.3292" stop-color="#323033"/>
</linearGradient>
</defs>
</svg>
