<svg width="155" height="250" fill="none" xmlns="http://www.w3.org/2000/svg"><path d="M77.4 33.8s17.5-1 26.3 10.9c3.3-13.7.8-25.8.8-26l-.8-4C99.8 9.3 91.2 0 77.5 0S55.1 9.4 51.3 14.7l-.8 4c0 .2-2.5 12.3.8 26 8.6-11.9 26.1-10.9 26.1-10.9zM0 216.4l30.2-3.9 3 36.6 42.6-72.2-23.6-40C29.5 171.7 6.5 206.5 0 216.4z" fill="#222"/><path d="M79.1 95c7.2 11.2 15.3 23.8 23.5 36.5l11-18.7c.2-.3 16.3-26.5 12.9-44.1l-18.3-41.3c.1 1.7.1 3.5 0 5.5-.2 4.6-.9 9.8-2.5 15.3-.8 2.7-1.8 5.4-3.1 8-2.4 5.1-11.5 19.9-23.5 38.8z" fill="#222"/><path d="M102.7 136.8c-.3-.4-.6-.9-.9-1.3-.3-.4-.6-.9-.9-1.3-8.2-12.7-16.3-25.2-23.6-36.6-.3-.4-.6-.9-.8-1.3-.3-.4-.6-.9-.8-1.3-12-18.8-21.2-33.7-23.6-38.8-1.3-2.7-2.3-5.4-3.1-8-1.6-5.4-2.3-10.7-2.5-15.3-.1-2-.1-3.9 0-5.6L28.2 68.6c-3.4 17.6 12.7 43.8 12.9 44.1l11.1 18.7.8 1.4.8 1.4 23.6 39.9.8 1.4.8 1.4 42.6 72.2 3-36.6 30.2 3.9c-6.5-9.9-29.5-44.7-52.1-79.6z" fill="#222"/></svg>