<svg width="59" height="88" fill="none" xmlns="http://www.w3.org/2000/svg"><path d="M47.941 6.673C41.153 1.079 32.218-1.147 23.43.563 11.6 2.868 2.098 12.854.323 24.852c-1.447 9.79 2.03 19.567 9.304 26.155 3.276 2.968 5.253 7.243 5.567 12.039.006.087.023.17.042.254v15.039a1.5 1.5 0 001.5 1.5h1.495c.61 4.359 3.813 7.697 7.672 7.697h6.81c3.86 0 7.063-3.338 7.672-7.697h1.495a1.5 1.5 0 001.5-1.5v-15.29c0-4.461 2.026-8.77 5.706-12.132a29.341 29.341 0 009.538-21.61A29.23 29.23 0 0047.941 6.673zM24.004 35.14H21.7a2.308 2.308 0 01-2.305-2.305A2.308 2.308 0 0121.7 30.53a2.308 2.308 0 012.305 2.305v2.305zm10.61-2.305a2.308 2.308 0 012.306-2.305 2.308 2.308 0 012.304 2.305 2.308 2.308 0 01-2.304 2.305h-2.303l-.003-2.305zm-.903 31.606h6.67v12.396h-1.373l-.01-.001H18.237V64.443H33.71zm-6.706-3V38.14h4.617l.034 23.3h-4.651zm5.709 23.093h-6.81c-2.238 0-4.117-2.004-4.637-4.697h16.082c-.518 2.693-2.397 4.697-4.635 4.697zm14.35-35.833c-3.873 3.537-6.164 8.013-6.593 12.74h-5.816L34.62 38.14h2.298a5.311 5.311 0 005.306-5.305 5.311 5.311 0 00-5.306-5.305 5.312 5.312 0 00-5.305 5.307l.002 2.303h-4.611v-2.305A5.311 5.311 0 0021.7 27.53a5.311 5.311 0 00-5.305 5.305A5.311 5.311 0 0021.7 38.14h2.305v23.3h-5.973c-.636-5.004-2.864-9.464-6.393-12.66-6.527-5.913-9.65-14.695-8.35-23.492 1.593-10.759 10.11-19.715 20.714-21.78 7.908-1.538 15.938.458 22.03 5.48a26.245 26.245 0 019.592 20.319 26.328 26.328 0 01-8.56 19.395z" fill="#fff"/></svg>