<svg width="56" height="73" fill="none" xmlns="http://www.w3.org/2000/svg"><path d="M50.304 6.292H38.25V1.137C38.25.531 37.72 0 37.114 0H19.148c-.607 0-1.137.53-1.137 1.137v5.155H5.276A4.756 4.756 0 00.5 11.068v57.156A4.756 4.756 0 005.276 73h45.103a4.756 4.756 0 004.776-4.776V11.067c-.076-2.653-2.198-4.775-4.851-4.775zM19.148 20.998h17.966c.606 0 1.137-.53 1.137-1.137v-4.928h7.96V63.98H9.368V15.01h8.642v4.852c0 .682.53 1.137 1.137 1.137zM35.977 2.274v16.45H20.285V2.274h15.692zm16.828 65.874a2.524 2.524 0 01-2.501 2.502H5.276a2.524 2.524 0 01-2.502-2.502v-57.08a2.524 2.524 0 012.502-2.502H18.01v4.17H8.232c-.606 0-1.137.53-1.137 1.136v51.32c0 .607.53 1.137 1.137 1.137h39.115c.607 0 1.137-.53 1.137-1.137v-51.32c0-.606-.53-1.137-1.137-1.137h-9.096v-4.17h12.053a2.524 2.524 0 012.501 2.503v57.08z" fill="#fff"/><path d="M12.174 33.809c0 .606.53 1.137 1.137 1.137h29.185c.606 0 1.137-.53 1.137-1.137 0-.606-.53-1.137-1.137-1.137H13.31c-.607 0-1.137.53-1.137 1.137zm30.322 6.822H13.31c-.607 0-1.137.531-1.137 1.137 0 .607.53 1.138 1.137 1.138h29.185c.606 0 1.137-.531 1.137-1.138 0-.606-.53-1.137-1.137-1.137zm0 8.339H13.31c-.607 0-1.137.53-1.137 1.137s.53 1.137 1.137 1.137h29.185c.606 0 1.137-.53 1.137-1.137 0-.606-.53-1.137-1.137-1.137z" fill="#fff"/></svg>