<svg width="91" height="109" fill="none" xmlns="http://www.w3.org/2000/svg"><path fill-rule="evenodd" clip-rule="evenodd" d="M0 0h91v85.989c0 8.956-3.363 15.744-14.368 15.744H62.263c-7.902 0-13.04 3.542-16.763 7.267-3.724-3.725-8.956-7.267-16.817-7.267H14.368C3.363 101.733 0 94.945 0 85.989V0z" fill="#A8002C"/><path fill-rule="evenodd" clip-rule="evenodd" d="M22.006 74.236c.63-2.354 2.084-3.57 4.481-3.962 2.32-.393 4.874-1.687 7.665-2.982 1.18-.863 1.336-.471.472 1.216l-1.337 1.53c-.707.785-.864 1.609.118 2.393 1.337.668 1.887 1.295 1.69 1.844-1.454-.392-2.79-.196-3.93.864-.826-.236-1.808-.118-3.184.549-.708-.392-1.494-.432-2.437-.157-.236-.589-.904-.745-2.044-.55-.314-.352-.826-.588-1.494-.745zm16.077 0c-1.415-1.451-1.573-2.746.04-3.845.903-.627 2.24-2.079 3.89-4.276 1.1-.079 2.083-.314 3.184-.471 4.402-.55 8.569-1.491 11.91-3.335.629-.196 1.1-.078 1.376.392l2.594 3.414-.747.275 1.965 1.49c-.353.275-.118.471.315.628-.236.353-.079.706.275.667.157.47.511 1.177-.511.196-.63-.314-.707 0-.197.981l1.062 1.53a2.76 2.76 0 00.904 1.805l.865 1.766c0 .274.157.549.236.784.117.667.275 1.02.825 1.099-.55 1.06-1.258 2.04-2.437 2.668-2.32 1.255-4.166.745-3.97-2.315.118-1.648.432-3.021.472-4.708.668-2.629.039-3.963-2.24-4.12-1.18.04-2.084.04-2.752.51-.63.432-1.533.275-2.752-.431-2.358-1.766-4.127-2.708-5.306-2.708 1.14 1.295 1.454 2.59.55 3.885.944.431.904.863-.04 1.294-2.279.079-4.834-.392-7.507-1.137-.865-.157-1.022 0-.432.47 1.965.785 3.026 1.962 3.026 3.61-1.257.04-2.319.118-2.908.236-.55.352-1.14.313-1.69-.354zM60.369 86.91c-.668.353-.825.745-.196 1.138.432.275.668.314.747.118.786-.157-.315-.589-.55-1.256zm-20.557-1.726c-.432.313-.629.667-.393 1.138l.865.745c.354-.314.275-.785-.118-1.099-.197-.157-.314-.431-.354-.784zm-10.062-4.12c.629.275.629.863-.158 1.216-.59-.235-.55-.745.158-1.216zM18.272 57.758c2.83 3.256 3.341 6.944 1.022 11.22-.865 2.08-.747 3.414.393 4.042.315-.706.59-1.805.747-2.942.236-1.766 1.376-1.57 2.87-3.1 1.61-1.648 1.14-3.374.982-6.12-.275-5.886.943-9.3 2.673-11.222-4.403-1.216-7.075 2.04-8.687 8.122zm2.791-48.69c-.51.078-.708.431-.629 1.02l3.498 4.943c.118.236.354.471.315.667-.275.668-.393 1.099.196 1.688l1.18 1.137c.117.824.275 1.491.55 1.727-.275.549.078 1.059.55 1.569.118.157.157.353.354.51l.196 1.687c-1.65 1.373-2.476 2.393-2.633 3.021-.079.353-.157.628.078.824l2.32-.235c.196.117.432.156.51.313.354.824-.117 2.119-1.375 2.276-2.87.706-4.953 1.687-4.127 3.61 1.06 1.373.51 2.59-1.298 3.688-.432.392-.629.902-.55 1.569-.511.432-.904 1.099-1.258 1.844-.275.785-.275 1.138.275 1.06 4.01-1.335 7.94-1.884 10.731.43 1.376 1.139 1.14 1.727 3.302 1.845-.236.902 0 1.412.786 1.57l.118 1.02c-.865.196-1.848.196-2.712.431-.983.235-1.926.628-2.79.628-.748-.589-1.612-.942-2.32-1.373-3.616-2.237-6.643-2.355-9.276.706-1.376 1.608-2.634 3.805-3.656 7.18-.196.588-.668.824-1.611.274-1.887-1.53-2.24-2.903-1.297-3.805 1.336-1.256 1.847-.51 1.14.156l.039.157c1.022 0 1.415.707 1.808 1.452.865-2.236.393-3.766-.826-4.983l-.275-.039.118 1.922c-2.083-.431-3.223 1.178-3.38 2.669-.118 1.451.55 2.746 2.437 3.845 1.06.352 1.376 1.569.55 2.785-2.044 2.982-1.73 6.16.118 10.24l.236-.117c.393-4.473 1.336-6.749 2.83-7.18.472-.157.904-.471 1.297-.981.432-.667.668-.589.983.118.825 1.883.746 3.688-.394 5.492-2.594 4.198-2.712 7.416.983 9.966l.118.314-.983 1.255c-.314.51-.078 1.138.787 1.844.628.746.943 1.962 1.14 3.492-.315.471-.355 1.06-.158 1.726.55.785 1.887 1.217 3.774 1.02.196-.038.157-.195.157-.392.157-.863-.433-1.49-1.062-2.55-1.847-1.648-2.24-3.217-1.65-4.747l.275-.432c1.454.51 3.302 1.099 4.992 1.334-.708 1.452-.63 3.257 0 4.316 1.18 2.04 2.437 2.982 4.835 2.786 3.183-.275 4.756-2.904 3.576-6.474 1.14-.628 1.887-.589 2.28.118-.04 1.608.668 1.098.708 2.668-1.887 1.647-2.594 3.06-.55 3.962 1.06 1.06.471 1.452-.905 1.53-1.454-.353-2.515-.274-2.712.903-1.336.078-1.73.863-1.69 2.119.393-.942 1.14-1.02 1.533-.785.707-.04 1.454.157 2.083-.118.59-.275 1.258-.275 2.005.04.393 0 .668.156.865.47.943.981.825-.118 2.908 1.138.511.039 1.376 0 1.533.824l.197-.746c.157-.274.078-.588-.236-.863-.668-.785.393-.824 2.24-.47.983.43 1.887.627 2.595.51.825-.825 1.022-.314 1.179.784.59-1.609.197-2.472-1.415-2.55.275-.863.393.432.982-.628.511-.235 1.023 0 1.534.51.117-.785-.354-1.255-1.376-1.49-.236-.668-.747-.707-1.455-.04-2.987-.785-3.301-2.59-1.611-2.943.904-.235 1.258.707 1.965.981.55.197.825.118 1.572.197.826.039 1.573.196 2.084.549l.59.196c.314-.235.628-.196 1.021.157.433.628.865.706 1.258.196 1.18-.942 2.948-.942 2.83-.353-.04.863.118 1.177.432 1.099.276.039.393.392.393 1.02-1.14-.04-1.925.157-1.925.98-1.062.314-1.022 1.06-.55 2.04-.119-1.883 1.493-.353 3.065-1.373l1.1-.117c.119.549.63.785 1.612.745.354-.157.904-.157 1.258-.235 1.926-.51 3.46-.393 4.599 1.177.236-.47.197-.981-.118-1.452 1.336-.902 2.79-.55 1.926.903.786-.393 1.572-2.394.55-2.355.433-1.177 2.201-.196 1.69.668.747-.393.865-.981-.039-1.727-.118-.667-.668-.863-1.65-.588-.551-.942-1.258-.981-2.202-.157-.943.431-1.69.47-2.162-.157-.51-.824-.393-1.216.315-.942.354.118.51-.314.943-1.138.157-.353.472-.627.708-1.098 1.022-.157 1.847-1.06 2.908-2.864.747-.353 1.1-1.805 1.14-4.08.315.156.708.038 1.219-.275-.354-.04-.511-.157-.511-1.06h.982c.393-.157.55-.314.511-.51 0-.157-.393-.117-.668-.55-.118-.548-.432-1.097-1.022-1.647l-.943-1.53c-.669-2.119-1.454-3.335-2.437-2.55l-.275-.157c-.747-.824-1.297-1.923-1.73-3.139.04-1.491-1.533-1.57-2.358-.157l-.236-1.177-.393.628-2.476-3.57 1.022-.354c3.026-.235 6.053-1.137 9.158-2.864l2.201-.667c.983-.392 1.297-.078 1.808.432l2.24 2.315c.433.47.433.902.197 1.373-.236.47.315 1.098 1.1 1.765.708.785.787 1.844.158 3.178-.354.864-.275 1.413.236 1.688l1.533 1.098c1.022.824 1.533.55 1.494-.902-.08-.746-.315-1.452-.747-2.197-.511-.903-.865-1.766-.904-2.669-.04-1.804-.275-2.746-1.022-3.374a12.507 12.507 0 01-2.201-2.785c-.197-.589-.354-.942-.669-1.099-.078-1.883-1.454-2.825-2.319-2.314-.746.156-1.454.235-2.24.117v-.432c.982-.549 2.673-2.275 4.363-4.159.629-.784.943-.47 1.572.158l2.437 2.55c-.079 1.255.118 2.08.983 2 .59 1.02.864 2.002.314 2.433-.55.471-.982.785-.982 1.452.117.98 1.257 2 2.515 2.472.118.039.314-.04.393-.197.354-.862.393-1.883.04-2.903l-.433-1.451c-.079-.589 0-1.06.04-1.491.117-1.138.157-1.766-1.062-2.63-1.533-1.569-2.83-3.177-3.891-4.864.039-2.236-1.887-2.825-3.105-.393l-2.359 1.648c-.59.393-.983-.235-.983-.863-.235-2.942-2.24-5.297-4.441-7.572-1.18-3.57-2.79-6.552-3.38-9.299 2.24.236 3.93.667 4.598 1.334.983 1.06 2.24 1.609 2.555.863.118-.235-.59-.667-.943-1.02.393 0 .904.353 1.454.903.983 0 1.297-.746 1.022-1.766.118-.824.079-1.451-.275-1.726l-.825-.47c-1.376-1.492-2.516-2.983-3.46-4.63a.948.948 0 01-.156-.51c0-.668-.197-1.256-.865-1.845l.314-.157-.04-.235.709.157-.708-1.177c-.393-1.452-1.73-1.687-3.734-1.098-.275.078-.63-.236-.983-.628-1.258-1.216-2.594-1.884-2.122-.981.078.157.471.588.039.55l-2.162-.354c-.472-.079-.55.078-.432.314.393.432.786.824.943 1.295l-2.752.157c-.55.039-1.021.274-1.532.235-1.494-1.255-3.342-.314-5.268 1.138l-.275-.118-.039-2.236h.236l-.197-1.452h.158c.157-2.197-.276-3.61-1.101-4.59-.157-.668.511-.589.668-.785.629-.785.59-1.687.59-2.158-.118-.941-.433-1.255-.904-.941h-.55c-.59-.079-1.062-.275-1.298-.55-.629-.431-1.218-.431-1.808-.039-2.83.706-3.34 2.903-6.8 1.412-.393-.039-.471.118-.314.432.59.785 1.415 1.295 2.319 1.687-.314.236-.944.275-1.966.196.59.785 1.73 1.177 3.499 1.138.668.392 1.454.236 2.319-.118.472-.274.51-.117.196.51-.904.746-1.533 2.198-1.65 4.826-.354.55-.55 1.138-.669 1.805-1.297-.353-2.437-.588-2.908-.196l-.511-.04c-1.14-.863-2.24-.823-3.145-.235l-2.004 1.53c-.747.51-1.376.55-1.494-.078l-.826-1.766c.04-1.255-.432-1.844-1.297-1.922-.393-.354-.668-.785-.747-1.256l-.59-.745c.198-.667-.078-.903-.55-.903-.51 0-.982-.078-1.257-.274l-4.088-5.022z" fill="#161413"/><path fill-rule="evenodd" clip-rule="evenodd" d="M77.782 67.174l.393-.824c.197-.274.354-.274.472-.039l.943.863c-.196.196-.629.196-.943.275l.314.51-.314.157-.118.432c-.59-.471-.943-.903-.747-1.374zm.826-2.825c.118 0 .235.354.235.746s-.117.745-.235.745c-.158 0-.236-.353-.236-.745s.078-.746.236-.746zm-.55-3.178c.078-.078.274.079.392.275.158.236.197.47.118.51-.078.04-.275-.078-.393-.314-.157-.235-.197-.431-.118-.47zm2.515-3.845c-.118-.117-.236-.078-.354.04-.432.51-.51.902-.275 1.255l.865.667c.275.236.59.118.432-.118l-.314-.431c.197.078.354.274.55.274.157 0 .197-.235 0-.392-.314-.314-.393-.432-.196-.628.078-.078.078-.157-.04-.235l-.668-.432zm0-3.649c-.393-.47-.314-.745.197-.706-.472-.745.039-.902.51-.118.236.354.276 1.06.197 1.884-.04.235-.314.314-.393 0-.157-.471-.314-.785-.51-1.06zm.315 3.1l.196-.902c.04-.236.118-.197.236 0 .314.392.59.784.668 1.451.079.275.04.432-.157.471-.236.04-.433-.078-.629-.274-.275-.314-.354-.51-.314-.746zM66.973 46.733c.04-1.648.236-2.982.236-4.198 0-.51.353-.51.353.078.079 1.295-.078 2.63-.236 4.002 0 .197-.353.55-.353.118zm2.28 6.552c.078 0 .117.079.117.157 0 .079-.039.157-.118.157-.078 0-.117-.078-.117-.157 0-.078.039-.157.117-.157zm-3.892-5.807l.157-.117c.04-.04.118-.04.158.039l.59.745c.038.04.038.118 0 .157l-.158.118c-.04.04-.118.04-.157-.04l-.63-.745c-.039-.039-.039-.117.04-.157zm5.66 4.199l.236-1.53-.275.549c-.236 0-.275-.236-.314-.707-.04-.549 0-.745.314-.627l.196.51.158-.353c.275-.157.314 0 .196.47l-.078 1.688c-.158.235-.276.667-.433 0zm4.167-4.826c-.236-.314-.275-.706 0-.981.236-.275.59-.314.864-.118.236.118.315.275.315.392l-.472.157.59.157c.314.275.04.785-.236.354-.236-.236-.51-.275-.786-.118 0 .353-.079.431-.275.157zm-5.7 2.746c.079-.04.236.118.354.314.079.196.118.392 0 .432-.079.078-.236-.079-.314-.275-.118-.196-.118-.432-.04-.47zm-3.616-.314c.079-.04.236.079.354.275.118.235.118.431.04.47-.08.04-.237-.078-.355-.313-.118-.196-.118-.393-.039-.432zm1.062-1.922c.275-.04.628.274.707.706.118.47-.079.863-.354.942-.314.039-.629-.236-.747-.706-.078-.471.079-.864.394-.942zm.51 2.59c-.157-.746.079-.864.354-.158.433 1.02.668 2.315.63 3.885 0 .588-.473.627-.512.078-.157-1.373-.197-2.668-.472-3.806zm4.56 1.216a7.84 7.84 0 01.471-2.276c.119-.353.276-.392.472-.196.708-1.138.55-.51.236.353l.197.117c.864-1.608.51-.313.432.393-.629.785-1.061.942-1.258.392l-.196 1.02c-.157.471-.276.55-.354.197zM18.547 78.474c-.275 1.06-1.454.51-.865-.432 1.455-2.354 2.87-4.708 3.145-7.886.078-1.138.786-1.648 1.69-2.158 1.926-1.06 2.594-2.864 2.555-4.904-.432-8.867 2.044-12.751 5.857-14.282l-.118.354c-3.42 2.079-4.835 6.08-4.874 11.535-.04 1.216-.157 2.471 0 3.805l.118-.274c.118-3.218.118-5.964.51-7.847.433-2.08 1.101-3.335 1.77-4.238.235-.313.432-.706.668-.941.314-.314.668-.393.943-.667l-.04.274c-1.296 1.295-2.397 2.943-2.908 5.101-.55 2.472-.59 5.336-.393 8.318-.04.431-.118.784-.275 1.098l.157-.078c.236-.471.354-1.02.354-1.687-.275-3.61 0-7.259 1.297-9.809.904-1.766 1.454-2.432 3.97-3.845l-.079.275c-2.122 1.451-4.127 3.139-4.52 8.867l.118-.118c.393-4.355 1.965-7.572 4.874-8.75 1.022-.43 2.24-.352 3.577-.352l-.236.196c-2.044-.197-3.813.51-5.346 2.118l.236.079c1.454-1.49 3.145-2.315 5.267-1.844l-.157.314c-1.493-.236-2.751.313-3.93 1.216v.157c1.336-.902 2.554-1.334 3.733-1.099.393.04.511.354.393.824l-.235 2.158c-.04 2.08-.158 4.12-.669 5.964l-.196.157.196-3.61-.825 4.473c-.078.51-.432.432-.354-.04.197-.94.511-2.236.708-3.609-.197.04-.354.157-.393.432-.236 1.922-.55 3.492-.983 4.04.275-1.215.432-2.432.472-3.648l-.236.196-.59 3.414c.433.235-.117.588-.275.157l.197-1.884-.157-.039-.826 3.021.275-2.08-.707 2.08h-.276l.354-1.765-1.179 3.217c-.354.078-.393-.04-.118-.589l.747-2.197-.236.04c-.471 1.608-.825 2.746-1.415 3.099l-.196.04c.825-1.453.943-2.159.982-2.865-.432 1.373-.864 2.354-1.65 3.178-.119-.118.039-.47.51-1.334l.433-1.138c-.197-.235-.315-.157-.433.197-.275.98-.55 1.647-1.06 2.275l.51-1.922-.079-.236c-.353 1.138-.825 2.119-1.493 2.707l.314.157c1.061-.706 2.516-.47 4.01-1.137.314-.157.629-.236.825-.079l-.275.745-.275-.431c-.158.588-.393 1.138-.708 1.373l-.118-.863c-.629 1.373-1.061 2.119-1.1 1.452l.118-.824c-.472.47-.787 1.02-.905 1.687-.235-.04-.275-.51-.196-1.177l-.393 1.451c-.354.079-.432-.313-.236-1.177-.314.785-.59 1.334-.707 1.413-.158-.236-.197-.628-.079-1.138l-.393.745c0 .55-.157.746-.393.707.118-.824.118-1.138-.04-.942l-.47 1.255c-.275.157-.354-.156-.315-.863-.432.236-.314 1.099-.629 1.452-.235-.157-.275-.55-.235-.98-.197.666-.394 1.058-.669 1.098l-.078-1.295c-.118.588-.275 1.06-.511 1.452l-.354-.942-.157.903c-.275.157-.511-.079-.668-.668-.04 1.217-.157 2.237-.944 2.747.079.314-.275 1.138-.747 2.08l1.258-1.845c.276-.078.393.079.276.667l-1.298 2.119c-.196.235-.432.157-.668 0-.275 1.06-.747 1.805-1.218 2.511.55-.353.904-1.099 1.336-2.119.079-.314.432.079.314.707l-.314.274.04.471-.394.04v.627l-.354.157c.354.863-.078 1.413-.943.98zm7.391-29.544l1.533-.275-.08.314-1.453-.039zM11.63 60.897c.196-.746.707-1.177 1.218-2.08.315-.51.433-.157.393.314-.668.98-1.179 1.49-1.611 1.766z" fill="#fff"/><path fill-rule="evenodd" clip-rule="evenodd" d="M27.706 48.224c-2.515-2.236-4.992-3.413-6.84-3.021-3.498.785-5.188 4.002-6.21 7.062.59-1.02 1.1-1.687 1.73-1.883-1.73 2.746-2.712 5.532-2.87 8.75-.118.392-.314.745-.629 1.02-1.1.823-1.022 1.49-1.218 2.157.236-.157.51-.667.865-1.098.471-.589 1.022-1.217 1.258-2.237.353-1.373.51-2.746.786-3.766.393-1.334.786-2.237 1.493-3.414 1.258-2.079 2.87-3.962 4.717-4.747v.157c-1.808.98-3.105 2.472-4.56 4.786-.353.59-.589 1.138-.903 1.962-.315.746-.63 1.609-.708 2.59-.236 2.118-.747 3.492-1.336 4.316-.63.824-1.022 1.177-1.14 1.569-.079.196-.236.55-.197.942 1.376-2.59 2.005-2.354 2.595-4.199.825-2.824.275-5.728 4.048-9.847h.275c-1.808 2.079-3.026 4.04-3.655 8.239-.118.706-.236 1.687-.55 2.275-.472.903-1.455 1.61-1.73 2.511l.196-.039c.472-.47 1.416-1.57 1.77-2.315 1.139-2.197.746-5.14 2.2-7.493 1.887-3.1 3.341-4.709 5.66-5.61l.276-.04c-3.184 1.687-3.735 2.903-5.11 4.787-.472.627-.826 1.255-1.219 2.432-.354 1.02-.59 2.59-.786 3.806-.236 1.57-.825 2.51-1.454 3.296-.354.431-.63.627-.904 1.02-.236.353-.472 1.02-.59 1.49l.197-.078c.864-2.315 1.375-1.805 2.004-2.59.354-.47.904-1.412 1.062-2.51.235-2.276.707-4.002 1.493-5.493.826-1.648 2.123-3.453 3.577-4.67.668-.549 1.18-.863 2.083-1.137h.197c-1.062.706-1.77.902-2.595 1.687-1.336 1.256-2.633 3.139-3.262 4.748-.668 1.53-1.022 3.217-1.219 4.943.04-.235.158.118.236-.078.708-4.08 2.162-6.945 4.01-8.789 1.022-1.06 2.24-1.844 3.38-2.119l.747-.039c-1.73.47-3.38 1.295-4.638 3.217l.236-.039c1.533-1.648 3.066-2.393 4.56-2.746l.235.039c-1.022.353-1.965.745-2.555 1.295l.079.235c1.14-.745 2.87-1.138 4.913-1.334zM11.983 65.37a1.86 1.86 0 01-.275-.981c.04-.471.393-.432.472-.118.078.588-.197.628-.197 1.098zm4.56 4.197l.393-.431c.197-.118.432-.157.59-.079-.04.197-.472.393-.983.51zm-.354 1.217l.51-.55c.276-.195.59-.235.826-.117-.079.235-.63.51-1.336.667zm.04.627l.59-.51c.274-.157.628-.196.864-.039-.079.196-.747.432-1.454.55zm.157.549l.55-.47a.885.885 0 01.825-.04c-.117.236-.707.432-1.375.51zm.275.59l.354-.393c.196-.118.432-.157.59-.078-.04.156-.472.352-.944.47zm2.004-6.278l.315-.197c.157-.078.353-.039.432.04-.04.117-.393.157-.747.157zm-.511.667l.669-.314c.314-.04.628 0 .786.196-.158.196-.747.235-1.455.118zm.393-1.609l.51-.392c.237-.118.512-.118.708 0-.117.196-.628.314-1.218.392zm.393-.941l.512-.118c.235 0 .471.118.55.275-.118.117-.59.039-1.061-.157zm-1.1 10.553l.354-.196c.157-.04.354 0 .432.04-.04.117-.393.196-.786.156zm1.1-1.215l-.864.117c-.354.157-.63.47-.669.746.275.078.904-.314 1.533-.863zm-.393-.393h-.668c-.315.078-.55.275-.59.51.196.079.747-.157 1.258-.51zm3.066 3.216l.393-.823a1.1 1.1 0 01.865-.432c0 .275-.55.824-1.258 1.256zm1.769-.823l.708-.274c.353 0 .668.117.825.313h-.04c-.039.236-.51.667-1.1.981l.354-.667c.078-.078.157-.157.275-.235h-.236c-.157.196-.471.431-.825.667l.275-.55c.04-.078.118-.117.157-.156-.118-.04-.236-.04-.393-.079zm3.419.118c.236-.118 1.062.078.944.353-.04.235-.55.667-1.1 1.06l.314-.707c.078-.118.157-.157.236-.235h-.276c-.157.196-.432.431-.786.667l.236-.589.157-.118c-.078 0-.157-.039-.196-.039-.118.157-.354.314-.59.471l.158-.392c.274-.353.47-.314.903-.471zm5.071-.118c0-.667.511-1.06 1.494-1.177 1.14-.157 2.515.079 2.122.589h-.117l-.197.47-.432.785.275-.863.117-.432c-.117-.039-.314-.117-.51-.157l-.354.354-.59.666.472-.784.197-.314-.236-.04-.354.354-.59.667.472-.746.197-.314h-.315l-.236.354-.55.706.393-.824.118-.196c-.157.039-.314.078-.432.117l-.276.668.118-.628c-.354.157-.668.353-.786.745zm-3.694.549v-.078h.078l.983-.628c.668-.313 1.494-.431 1.376.118 0 .04-.079.118-.236.157 0 .196.04.431.04.667l-.276-.588h-.157c0 .313 0 .627.039.941l-.393-.863c-.079.04-.118.04-.197.04.04.43.04.902.04 1.373l-.55-1.139v-.078l-.197.746-.118-.785c-.118.314-.275.706-.393 1.098l-.04-.824v-.157z" fill="#fff"/><path fill-rule="evenodd" clip-rule="evenodd" d="M16.936 49.754l1.69-1.687c-.668.275-1.258.824-1.69 1.687zm9.276 30.681c-.157-.392-.354-.745 0-1.648.314-.824.707-1.06.944-1.02.274.314-.08.942.078 1.727l-.629-.55.197 1.06-.472-.51-.118.941zm5.582 1.021c-.079-.157-.197-.236-.236-.236-.079.04 0 .196.078.353.118.157.236.236.276.236.04-.04 0-.197-.118-.353zm-.001.706c-.157-.236-.314-.353-.393-.314-.079.039 0 .235.157.47.157.236.315.354.393.315.04-.04 0-.236-.157-.471zm-.353.667c-.118-.196-.236-.314-.275-.314-.079.04-.04.236.04.432.117.156.235.313.274.274.079 0 .04-.196-.04-.392zm-.354.667c-.078-.314-.275-.55-.353-.51-.08.039-.08.313.039.627.078.275.236.51.314.51.118-.039.118-.313 0-.627zm-4.599-.275c.236.04.393.118.393.196-.04.04-.236.079-.432.04-.197-.04-.393-.118-.354-.158 0-.078.196-.117.393-.078zm-.196-.51c.275.04.472.157.472.236 0 .078-.236.117-.511.078-.275-.078-.472-.157-.472-.235 0-.079.236-.118.511-.079zm-.118-.628c.314.079.55.196.55.275-.04.117-.315.157-.629.078-.314-.039-.59-.157-.55-.274 0-.079.275-.118.629-.079zm10.22-6.67c-.236-.784.629-1.06 1.533-.667.707.275 1.572.393 2.712.157.55-.118 1.14-.118 1.73-.04.589.315.55.59-.119.707-1.257 1.177-2.2 2.393-2.358 3.57-.432-.588.472-2.079 1.887-3.923-.865.667-1.65 1.53-2.398 2.51.157-.627.668-1.49 1.376-2.432-1.533 1.138-2.594 2.825-2.437 5.964-.59-1.883-.197-3.688 1.022-5.453l-1.69 1.765 1.533-2.354-.944.314.079-.353-.59.275v-.393l-.786.628.157-.667c-.275-.157-.471.078-.707.392zm.707 4.434c-.079.47-.04 1.02.353 1.569.118.118.276-.04.197-.314-.275-.235-.432-.706-.55-1.255z" fill="#fff"/><path fill-rule="evenodd" clip-rule="evenodd" d="M39.065 80.082c.08 0 .158.197.158.471 0 .275-.079.51-.158.51-.078 0-.157-.235-.157-.51 0-.274.079-.47.157-.47zm1.808-2.001c.04.04.04.236-.04.432-.117.235-.235.392-.314.353-.078 0-.039-.236.04-.432.118-.235.236-.392.314-.353zm.433-.941c.078.078 0 .235-.118.392-.118.196-.276.314-.315.275-.04-.04 0-.236.118-.393.118-.196.275-.274.315-.274zm14.74 1.53c.668.235.746 1.177.393 2.315.04-.942-.118-1.687-.393-2.315zm-3.42 4.826a1.845 1.845 0 00-.235-.589l.118.706.117-.117zm-7.704-11.849a.98.98 0 01.314.04l.315.51c-.118 0-.236-.04-.354-.08l-.275-.47zm-.629 3.413c.079.04.197.235.236.432.04.196 0 .313-.078.274-.08-.039-.197-.196-.236-.392-.04-.196 0-.314.078-.314zm.59-.039c.039-.04.157.118.196.314.079.196.118.353.079.392-.079 0-.157-.117-.236-.314-.079-.235-.118-.392-.04-.392zm.707-.118c.078 0 .236.236.275.51.04.236.079.354-.118.354-.157.039-.118-.079-.157-.354-.04-.235-.04-.51 0-.51zm.669-.235c.039 0 .196.196.314.51.079.275.118.55.04.55-.08.039-.197-.158-.315-.471-.079-.314-.118-.55-.04-.589zm.707 0c.118-.04.236.235.315.55.078.352.039.627-.04.666-.078 0-.236-.274-.275-.588-.078-.354-.078-.628 0-.628zm.786.117c.078-.039.314.354.353.668.08.313.118.47-.117.51-.276.039-.197-.118-.276-.471-.039-.314-.039-.707.04-.707zm.511-.156c.117-.04.236.235.353.588.079.353.079.667 0 .667-.078.04-.236-.235-.314-.588-.079-.353-.118-.667-.04-.667zm.825-.196c.079 0 .197.353.197.784 0 .432-.079.785-.197.785-.078 0-.196-.353-.196-.784 0-.432.078-.785.196-.785zm.669.235c.079 0 .157.314.157.667 0 .392-.078.667-.157.667-.118 0-.157-.275-.157-.667 0-.353.04-.667.157-.667zm.668-.196c.079 0 .157.353.157.784 0 .432-.078.785-.157.785s-.157-.353-.157-.785c0-.431.078-.784.157-.784zm.707-.197c.118.04.157.393.118.903-.079.432-.157.824-.275.824-.079 0-.118-.392-.079-.863.04-.471.118-.864.236-.864zm.943-.039c.118 0 .118.393.04.864-.08.47-.197.824-.315.824-.079 0-.118-.393-.04-.864.08-.47.236-.824.315-.824zm.748-.431c.118 0 .314.588.235 1.137-.117.589-.275 1.06-.392 1.02-.118-.039-.04-.51.039-1.059.078-.588.04-1.138.118-1.098zm-4.01 4.434c.04-.04.118.117.197.274.079.196.079.393.079.393-.04.039-.158-.118-.197-.275-.079-.196-.118-.392-.079-.392zm.551-.197c.078 0 .196.196.275.432.078.235.078.353-.04.392-.157.079-.117-.079-.196-.314-.079-.196-.079-.47-.04-.51zm5.306-1.648v.275l.354-.235c.078-.706.078-1.373.04-1.923-.119.707-.237 1.334-.394 1.883z" fill="#fff"/><path fill-rule="evenodd" clip-rule="evenodd" d="M54.277 77.258c-.197 1.02-.236 1.334-.629 1.687.157-.628.079-1.099.079-1.217-.118.04-.197.079-.275.079v.117c.039.393.039.903-.433 1.53-.04-.548.197-1.059.197-1.608l-.315.118v.55c-.04.234-.275.823-.314.862.04 0 .196-1.138.078-1.373l-.275.079v.156c-.039.118-.039.236-.118.236-.039 0-.078-.079-.078-.196l-.079-.157c-.04 0-.118 0-.197.039v.04c.04.117.04.195 0 .234-.039 0-.117-.117-.196-.235-.079 0-.157.04-.196.04.039.195.039.274-.118.352-.197.079-.197-.117-.236-.313l-.354.078c.04.157 0 .275-.04.275-.039.039-.117-.079-.196-.236h-.314c.039.157.039.236 0 .275-.04 0-.118-.079-.197-.236l-.04.04c0-.04 0-.04.04-.04-.04-.039-.04-.117-.078-.196-.118-.235-.158-.47-.118-.51.078-.039.196.118.314.393.04.078.079.196.079.274a.731.731 0 01.275-.078c0-.079 0-.118-.04-.157-.078-.314-.078-.588 0-.628.08-.039.197.196.276.51 0 .04.04.118.04.196l.313-.117c-.039-.197-.039-.275-.039-.393 0-.156 0-.235.04-.235.039-.04.235.235.314.55l.196-.08c-.039-.038-.039-.038-.039-.078-.078-.235-.078-.314-.078-.47-.04-.118-.04-.157 0-.197.039-.039.235.275.314.55 0 .039 0 .078.04.117l.196-.078v-.628c0-.157.04-.235.078-.235.04 0 .079.078.118.196.04.157.079.353.118.549.079 0 .158-.04.236-.078v-.314c.04-.118.04-.196.079-.196.04-.04.118.196.157.392l.314-.118v-.431c0-.118.04-.236.08-.236.038-.039.078.04.078.157.039.118.078.236.078.393.079-.04.157-.04.236-.118 0-.236.04-.471.04-.628.039-.157.078-.275.117-.275.04-.039.079.04.079.197.04.157.04.353.04.588a.558.558 0 01.235-.078c.275-1.099.629-2.59.629-3.924l-.236-.431c-.078 1.49-.196 2.746-.668 3.57a9.823 9.823 0 00-.04-4.002h-.117c.039 1.609.039 2.943-.393 3.845.157-1.295.117-2.668-.393-4.198a.561.561 0 00-.236-.078c.353.314.275 1.569.118 1.765-.236-.745-.04-.98-.708-1.49h-.197c.354.391.394.98.315 1.45-.197-.43-.51-.94-.825-1.255h-.354c.51.589.51.707.432 1.177-.196-.51-.982-.863-1.297-1.098l-.354.039c.393.196.944.902.747 1.138-.275-.314-.865-.628-1.1-1.06l-.236.079c.078.235 0 .392.039.667-.354-.079-.55-.118-.983-.589-.078 0-.235-.039-.235 0l.235.51-.982-.667c-.04-.039.157-.039-.315-.078l.354.863c-.078-.118-.668-.746-.747-.824l-.55-.078-.354-.589c1.769.118 3.734.04 6.093-.392l2.2-.432c.748-.235 1.259.157 1.416 1.295l.118 1.255c.472.667.668 1.491.196 2.63.197.823.668 1.53 1.376 2.118.63.588.708 1.412-.04 2.59-.668 1.726-1.61 2.785-2.436 3.923l-.079.117a.56.56 0 00-.118.157l.118-.196-.118-.588c.118.157.157.275.197.431l.353-.588a18.22 18.22 0 01-.117-.628l.235.432.276-.471c-.079-.196-.118-.432-.197-.667.118.157.197.314.275.47a4.26 4.26 0 00.315-.588l-.158-.588c.08.118.158.235.236.392a5.89 5.89 0 00.236-.863l-4.049 2.51 1.101-.901-.04.039-.117-.746c.118.197.196.432.275.628l.275-.235-.118-.942c.157.275.236.55.315.785l.353-.275c-.039-.392-.078-.824-.157-1.255.197.353.315.706.393 1.059.118-.118.197-.196.315-.275a30.53 30.53 0 00-.197-1.765c.275.549.472 1.059.472 1.49l.236-.196a17.11 17.11 0 00-.236-1.922c.314.588.511 1.177.55 1.648 0-.04.079-.079.118-.118 0-.628-.118-1.49-.236-2.276.393.746.59 1.452.511 1.962l.236-.235c-.04-1.138-.432-2.158-.786-3.217-.157.549-.157.745-.315.706.08-.628.04-.903-.078-.981-.079.863-.275 1.412-.55 1.687l.157-1.412h-.236z" fill="#fff"/><path fill-rule="evenodd" clip-rule="evenodd" d="M50.74 79.729c0 .236 0 .432-.157.432-.158-.04-.118-.236-.079-.432h.236zm.431-.431c.079.04.118.118.118.392 0 .275 0 .47-.196.47-.236-.038-.197-.274-.118-.51.078-.274.118-.352.196-.352zm.551.078c0 .432 0 .746-.157.707-.157-.04-.157-.354-.079-.707h.236zm-.079-.549c.04 0 .04.078.079.196h-.197c.04-.118.079-.196.118-.196zm.551-.079c.079 0 .118.157.118.51s0 .667-.275.628c-.275-.04-.197-.353-.118-.706.118-.314.157-.432.275-.432zm-2.713-11.26c.983.235 2.005 1.06 3.027 1.922.157.275.079.353-.157.236-.708-.236-1.73-1.413-2.87-2.158zm3.774 2.55c.197.118.276.236.236.275-.04.078-.197.039-.393-.079-.157-.117-.275-.274-.236-.313.04-.04.197 0 .393.117zM43.35 71.49l1.06.118.237.392-.04-.04c-.117 0 .354 1.256-.275-.078-.078-.157-.314-.118-.51-.196-.197-.079-.119-.118-.472-.196zm-4.913 16.95c.196 0 .393.078.393.156 0 .04-.118.118-.315.118-.236 0-.393-.04-.393-.118-.04-.078.118-.157.315-.157zm.51.98c.315-.078.668-.117.708-.039.078.079-.157.196-.472.314-.314.078-.629.078-.707 0-.04-.078.157-.196.471-.275zm.315.314c.353-.078.707-.117.786-.039.04.079-.197.236-.55.314-.393.118-.708.118-.787.04-.078-.08.158-.236.55-.315zm.471.353c.236-.078.472-.078.511 0 .04.04-.118.157-.354.235-.275.04-.51.04-.55-.039-.04-.04.157-.157.393-.196zm.315.314c.236 0 .393.079.393.157.04.079-.118.118-.314.118-.197 0-.394-.04-.394-.118 0-.078.118-.157.315-.157zm4.206-1.569c.314-.118.629-.118.668.039.079.117-.157.353-.471.47-.315.118-.63.118-.669-.039-.039-.117.157-.314.472-.47zm-.551-.354c.236-.117.472-.117.511 0 .04.118-.118.275-.353.354-.236.117-.472.078-.511 0-.079-.118.118-.275.353-.354zm-.51-.706c.196-.078.354-.039.393 0 .04.118-.079.236-.275.275-.197.079-.354.079-.393 0-.04-.078.078-.196.275-.275zm-5.7-3.256c-.04-.197-.236-.197-.315-.04-.039.275.04.628.315.785.314.157.393-.157.236-.274-.157-.157-.197-.275-.236-.471zm-.551-.275c.04-.235-.157-.353-.314-.156-.196.274-.275.705-.04.98.276.353.512.04.433-.157-.118-.274-.157-.431-.079-.667zm27.436-17.616c-.236.353-.314 1.687.865 3.296.432.55-.079.941.55 1.02.236-.04.393-.236.433-.589l-.394-.196h.55l-.589-.392c.197-.04.668.078.63-.118-.04-.235-.59-.275-.866-.392l.669-.157c.039-.196-.354-.353-.983-.55l.629-.156-.708-.432.55-.157-.864-.432.471-.235-.51-.157.471-.235c-.393-.157-.55-.51-.904-.118zm-.943 1.02c-.235-.51-.275-.941-.157-1.334.275-.706.55-.902.786-.902.472.51-.314.824-.471 1.216-.118.079-.158.353-.158 1.02zm-.196-2.433c.197-.196.432-.313.51-.235.08.079-.038.275-.235.51-.196.196-.432.353-.51.275-.08-.079.038-.314.235-.55zm-.196 2.512c.118 0 .236.117.236.274a.254.254 0 01-.236.236c-.157 0-.275-.118-.275-.236 0-.157.117-.274.275-.274zm.51.784c.157.04.197.236.079.432-.079.196-.236.314-.354.235-.157-.039-.197-.235-.078-.431.078-.196.235-.314.353-.236zm.55.824c.197.079.236.275.079.51-.118.197-.393.314-.59.275-.196-.079-.235-.314-.117-.51.117-.196.392-.353.628-.275zm.591.902c.117.157.039.314-.158.393a.43.43 0 01-.51-.118c-.08-.118-.04-.275.156-.353.197-.078.394-.04.511.078zm2.829.471c.079-.117.079-.314-.117-.353-.197-.039-.315-.039-.433-.235-.157-.471.079-.706.472-.824.314 0 .432.118.354.314l-.197.157c.354.118.59.235.708.431-.197 0-.315.04-.354.197.668-.118.629.941.04.745-.394-.118-.59.04-.394.706.157.785.707.981.668.157-.078-.392 1.258-.47 1.415.392l-.51-.196c.117.628.628.353.707.903l-.433.039c.511.353.904.785 1.101 1.294-.55-.078-.59-.666-1.1-.666.668.902 1.454.706 1.847 1.608-.55-.039-1.218-.47-1.966-1.177.669.942 1.101 1.727.944 2.119-.983-.432-1.18-1.883-1.572-2.315 0 .746.55 1.177.353 2-.392-.47-.59-1.215-.59-2.392.394.078.551-.197.551-.863-.079-.706-.432-.667-.353 0 0 .51-.354.666-1.416.039-.157.157.079.353.668.706l-.039.588.315-.51.118 1.648c-.04.432-.158.353-.276-.078l-.118-.824c0 .588-.078.863-.275.824l-.157-1.53-.432.549-.118-.863-.393.314v-1.06c-.275.157-.59.04-.904-.431.432.118.707.04 1.061-.157-.197-.785.157-1.177.825-1.256zm-9.354 4.787c.039-.353.118-.47-.236-.942-.157-.157-.275-.196-.236 0l.472.942zm-.629-2.393c.51.274.746.313 1.02 1.059.08.275.04.47-.156.235-.315-.353-.472-.941-.865-1.294zm.078-1.531c.668.471.943.55 1.258 1.648.079.432-.04.668-.275.314-.393-.55-.511-1.373-.983-1.962zm.315-1.098c.746.236 1.297 1.138 1.297 1.922 0 .432-.197.707-.315.315-.157-.55-.432-1.688-.982-2.237zm.314-.589c.668.275 1.1.746 1.337 1.452.039.392 0 .588-.275.275-.158-.589-.55-1.177-1.062-1.727zm4.638 19.422c.157-.393.746-.785 1.454-.471.314.078.275.47.275.745-.196-.196-.393-.431-.59-.196-.55-.431-.746-.196-1.14-.078zm-2.123.157c.157 0 .276.078.276.235 0 .118-.118.196-.276.196-.118 0-.236-.079-.236-.196 0-.157.118-.235.236-.235zm-1.376 0c.079-.04.197.117.275.314.04.196.04.392-.039.392-.078.039-.196-.079-.275-.314-.04-.196-.04-.392.04-.392zm.472-.08c.04 0 .118.08.157.236.04.118.04.236-.04.275-.038 0-.117-.079-.156-.236-.04-.117-.04-.235.039-.274zm.118-5.06c-.039.039-.078.078-.078.118-.157.156-.315.274-.354.196-.078-.04-.04-.236.079-.393l.157-.156-.079-.118-.078.118c-.157.196-.354.313-.433.235-.078-.04-.039-.275.118-.471.04-.079.118-.118.157-.157-.039-.04-.039-.078-.078-.078-.157.196-.354.274-.433.235-.078-.079-.039-.275.118-.47 0-.04.04-.08.079-.08-.079-.078-.079-.117-.118-.156-.118.078-.197.117-.275.078-.04-.04 0-.196.118-.353-.079-.157-.118-.314 0-.392.236-.196.354.078.59.588.078.196 0 .314.117.432.079.157.315.235.393.353.276.432.236.785.197.824-.079.04-.04-.04-.197-.353z" fill="#fff"/><path fill-rule="evenodd" clip-rule="evenodd" d="M59.977 84.712c.117.078.039.314-.157.55-.197.235-.394.353-.472.274-.118-.079-.04-.314.118-.55.196-.235.432-.352.51-.274zm4.833-2.315c.04 0 0 .236-.078.47-.078.236-.236.393-.314.354-.04 0 0-.236.078-.47.118-.236.236-.393.315-.354zm-.588-.235c.078.039.039.353-.118.706-.197.314-.393.588-.511.549-.118-.04-.079-.353.118-.706.157-.353.393-.589.51-.55zm-1.376-.55c.079.04.04.275-.078.59-.118.274-.275.47-.354.43-.079-.039-.04-.274.079-.549.118-.314.275-.51.353-.47zM24.718 15.306c.118-.55.472-.824.865-.863l.865.157c.314.235.275.314-.079.353-.707-.118-1.1.04-1.297.51-.275.393-.393.432-.354-.157zm2.752 1.648c.079 0 .197.078.197.235 0 .118-.118.236-.197.236-.118 0-.197-.118-.197-.236 0-.157.08-.235.197-.235z" fill="#fff"/><path fill-rule="evenodd" clip-rule="evenodd" d="M24.6 16.17c-.274.352-.196.745.276 1.216l.629.784c.55.393.825.314.747-.274-.08-.393.039-.55.393-.55a.692.692 0 00.51-.353c.08-.314.04-.47-.235-.55-.511.354-.944.51-1.297.59.471-.315.825-.55.943-.746.118-.118.275-.157.511-.079 0-.196-.079-.392-.354-.47-.55 0-1.1.392-1.611.941.314-.667.786-1.06 1.493-1.06.04-.195 0-.352-.196-.51a1.72 1.72 0 00-1.219.354l-.59.706zm3.184 4.864a16.839 16.839 0 013.263 4.434v1.451l-.472-1.648c.04 1.138 0 1.884-.118 1.648l-.393-2.354-.275 1.02-.236-1.451c-.196-.157-.236.745-.196 2-.354-.352-.315-1.372-.276-2.51l-.393 1.098c-.236-.588-.118-1.373 0-2.118-.236-.197-.393.196-.471 1.373-.276-.785-.197-1.413-.08-2.158l-.274.588-.079-1.373zm9.63-11.064c.433.314 1.023.393 1.612.393l.04.314c.943 0 1.925-.432 2.908-1.099-.04-.039-.236-.078-.432 0-.708.354-.63.118.707-.55.197-.117.354.04.668-.077l.865-.197c-.707.628-1.415 1.256-2.2 1.844-1.102.628-2.084.785-2.988.471a8.405 8.405 0 01-1.494-.902c-.118-.196-.236-.314.314-.196zm5.425.196c.118 0 .197.079.197.157 0 .079-.08.157-.197.157-.079 0-.157-.079-.157-.157s.078-.157.157-.157zm1.179 2.354c.079-.117.157-.156.236-.078.079.04.079.157 0 .236-.079.117-.197.157-.236.117-.079-.039-.079-.157 0-.274zm2.79-1.059c.118-.039.236-.039.275.04.04.078 0 .235-.157.274-.118.079-.236.079-.275-.039-.079-.078 0-.196.157-.275zm-.628-.431c.117-.079.235-.118.274-.04.08.04.04.197-.039.275-.118.079-.236.118-.275.04-.04-.04-.04-.158.04-.275zm-4.284.823c.118-.039.235 0 .275.079 0 .078-.079.196-.197.196-.117.04-.235 0-.275-.078 0-.079.079-.158.197-.197zm1.532 2.904c.157-.078.354-.078.393 0 .04.079-.039.196-.236.275-.157.04-.353.04-.392-.04-.04-.078.039-.196.235-.235zm-5.031-2.668c.433-.04 1.022-.197 1.809-.55l.903-.431c.433-.197.512-.157.158.196-.393.392-.904.588-1.258.863-.354.236-.865.55-1.73.314-.432-.118-.275-.353.118-.392z" fill="#fff"/><path fill-rule="evenodd" clip-rule="evenodd" d="M41.149 11.696c.51-.47.825-.588 1.533-.902.668-.275 1.336-.353 2.004-.353.472-.432.904.157.394.628-.158.157-.354.235-.55.353-.512.392-1.062.55-1.612.706-.708.196-.787.118-.197-.275a5.01 5.01 0 01.55-.392c.433-.274.904-.353 1.337-.392-.669-.432-1.966.235-3.263.863-.393.196-.51.078-.196-.236z" fill="#fff"/><path fill-rule="evenodd" clip-rule="evenodd" d="M44.687 9.656c.275-.078.51-.039.825-.039.51.157.747.432.786.785-.118.353-.275.55-.51.628-.119-.628-.355-.981-.708-1.099-.157-.039-.236-.039-.393-.039v-.236zm-.59.157c.157-.078.196-.118.353-.157v.236l-.314.078c-.157.04-.314-.078-.04-.157zm-.708-.392c.354-.314.746-.588 1.218-.628a6.387 6.387 0 011.494.04c.983.353.59.667-.04.431-.392-.235-.864-.196-1.414 0-.04.393-.708.079-1.1.353-.276.118-.315.04-.158-.196zm2.869.118c.314 0 .55.039.59.313.039.354-.04.628-.276.785.118-.745-.236-.667-.314-1.098zm.865-.196c.079.117.118.431 0 .941l-.314.589c-.08.274 0 .353.196.274.314-.196.471-.47.471-.863 0-.588.04-.863.236-1.059-.353-.589-.707-.51-.59.118zm-2.516 3.452c0 .393.904.47 1.022.04.197-.472-.157-.825-.039-1.295-.59.157-.983.588-.983 1.255zm-.235 1.02c.196-.353.511-.47.983-.431.353 0 .55.078.55.431s.04.746-.04 1.06c-.117.313-.157.274-.55.313-.432 0-.59-.196-1.061.079.275-.667-.04-.942.118-1.452zm1.689-1.53c-.196-.314.04-.432.236-.196.236.196.393.47.393.745.04.275-.275.51-.471.275-.197-.236.039-.47-.158-.824zm.197 1.491c-.118-.392.04-.432.511-.236.315.275.354.471.197.628.314.314.314.746.04 1.256-.197-.157-.433-.079-.59-.314-.04-.157-.158-.079-.079-.667.04-.236.04-.432-.079-.667zm.551 3.217c.196 0 .314.118.314.236 0 .117-.157.196-.314.157-.197 0-.315-.118-.315-.236 0-.078.157-.157.315-.157zm-2.437-.353c.196 0 .353.118.314.235 0 .118-.157.236-.354.197-.196 0-.354-.118-.314-.236 0-.117.157-.235.354-.196z" fill="#fff"/><path fill-rule="evenodd" clip-rule="evenodd" d="M47.359 16.208c-.236-.392-.826-.667-1.69-.784-.55-.08-1.298.078-2.084.274-.432.471-.59 1.177-.51 2.119l.353.078-.314.236h.432l-.275.392.236.079-.197.51.236.157-.118.314.315.039-.08.314.237.04-.079.313.236.078c.157.236.432.432.747.628.236.118.471.118.747.079.471-.353.589-.667.982-1.099.118-.04.157-.274.157-.628.236-.117.315-.314.315-.588l.197-.275v-.942c-.236.079-.394.118-.59.079l-.55-.235-.158 1.216c0 .235-.118.588-.393.47l-.668-.313c-.157-.079-.118-.314.079-.393l.235-.04v-1.058c-.393.117-.825.157-1.218-.118-.157-.078-.314-.078-.472-.078a1.58 1.58 0 01.433-.55l-.236-.353c.079 0 .236.04.353.04.55-.04.826-.118.983.039.157.156.275.274.433.353l.039-.275c.118-.314.354-.392.707-.275l-.078.785 1.258-.392v-.236zm-2.909 3.218a2.598 2.598 0 011.1 0c.63.156.669.392.08.745-.355 0-.748 0-1.14-.118.117-.196.235-.274-.04-.628zm.472.274c.157-.118.393-.118.629 0 .117.079.078.196-.04.275a.81.81 0 01-.432 0c-.118-.118-.04-.196-.157-.275z" fill="#fff"/><path fill-rule="evenodd" clip-rule="evenodd" d="M45.04 18.484c.078 0 .118.04.118.118 0 .039-.04.078-.118.078-.04 0-.118-.04-.118-.078 0-.079.078-.118.118-.118zm.629-1.804c0-.08.04-.158.04-.275.196-.197.274-.314.274-.118 0 .157 0 .274-.039.392h-.275zm-.235 1.922c.039-.51.118-.942.196-1.57h.275c-.04.432-.078.903-.236 1.648-.078.157-.157.079-.235-.078zm-3.027-2.707c-.04-.314.275-.275.314 0 .079.55 0 .98-.275 1.255-.197.118-.472 0-.314-.235.275-.392.353-.667.275-1.02zm-.237 2.236c-.079-.353.157-.47.236-.078.275 1.059.747 2.08 1.808 3.06.433.353-.04.667-.432.314-1.062-.902-1.376-2.158-1.612-3.296zm3.931 3.217c-.04-.314.079-.628.432-.902.236-.157.315.117.197.274-.236.275-.433.275-.629.628zm-10.259 4.355c.039-.274.078-.47.236-.666a1.193 1.193 0 01-.276-.197c-.196.432-.471.785-.864 1.295.275-.824.55-1.452 1.14-2.08-.079.275-.158.51-.236.707l.275.235a1.05 1.05 0 00.197-.235c0 .117 0 .235-.04.353h.04l-.04.118-.04-.04c-.078.197-.196.314-.392.51zm-.472.707a.92.92 0 01.275-.55c-.04.275-.078.353-.275.55zm2.084.313c.04-.157.079-.313.118-.431l.079-.079c0-.039.039-.118.078-.157l.236-.274c-.04.47-.157.628-.51.941zm-.078 1.138c-.118-.392 0-.666.471-.902 0 .588-.04.745-.471.902zm.942-.353c.393-.941.433-1.373.315-2.55.432 1.099.353 1.413-.315 2.55zm6.407 3.57a8.524 8.524 0 00.236-2.432l-.196.078c-.04.432-.158.942-.394 1.57.118-.51.197-1.02.158-1.53a.559.559 0 01-.236.078c-.04.353-.157.745-.315 1.255.079-.431.118-.824.118-1.216l-.353.04c-.04.51-.118 1.059-.236 1.765 0-.589-.04-1.177-.04-1.726h-.393c0 .588-.078 1.177-.196 2-.04-.706-.04-1.373-.079-2.04-.118-.039-.236-.039-.393-.078 0 .628-.078 1.255-.196 2.119-.04-.746-.08-1.452-.08-2.158l-.353-.118c-.039.588-.157 1.177-.314 1.962 0-.707 0-1.334.04-2.04l-.355-.118c-.039.784-.117 1.49-.157 2.315-.118-1.02-.197-1.727-.118-2.433-.118-.04-.236-.078-.314-.157-.197.942-.275 1.766-.197 2.707-.275-1.216-.314-1.922-.04-2.785a.791.791 0 00-.235-.157c-.118.314-.314.667-.55 1.06.196-.393.275-.786.393-1.139l-.393-.235c-.079.51-.315 1.02-.708 1.726.511-1.255.55-2.432.59-3.923.118.588.196 1.059.196 1.49l.433.197a16.9 16.9 0 00.118-2.04c.196.863.275 1.49.157 2.08.118.038.236.117.354.117a3.54 3.54 0 01.196-.314l-.118.353.276.04c.078-.236.117-.51.235-.825l-.04.903.315.039c0-.196.04-.432.04-.667.078.275.078.47.118.706l.393.04v-.903c.078.353.157.628.196.903.158.039.315.039.472.039 0-.314 0-.589.04-.942.078.353.117.667.196.942h.393v-1.413c.157.55.236.981.275 1.374l.354-.04c0-.314-.079-.667-.118-1.02.157.353.275.667.314.981l.236-.04c-.04-.352-.118-.706-.157-1.098.157.392.275.706.354 1.02.078 0 .157 0 .236-.039-.08-.55-.118-1.138-.236-1.805.904 2.236.904 3.257.078 5.532zm1.101-2.589l.157.353.55-.51c.157-.196.315-.157.433.118l.039-.628c.197-.118.354-.04.51.157.119-.157.119-.353.04-.589l.079-.784c-.315-.51-.55-.824-.904-.942.196.431.196.785.078 1.099-.039-.51-.275-.863-.668-1.06.157.314.236.628.157.942a1.178 1.178 0 00-.393-.353l.079.47-.236.158.079 1.569zm3.616-2.786c0 .118 0 .196-.078.196-.079 0-.157-.078-.275-.196h.353zm-.236-.667c.079.196.158.353.158.47h-.433a3.438 3.438 0 01-.235-.391c-.04 0-.04-.04-.04-.079h.55zm-.708-.745c.118 0 .393.235.59.589h-.511c-.157-.314-.197-.589-.079-.589zm-.235 1.373c.04-.039.197.118.354.353.118.236.157.432.118.471-.04.04-.197-.118-.315-.353-.157-.235-.196-.47-.157-.47zm-.747-.157c.04-.039.236.157.433.432.157.314.236.55.157.588-.04.04-.236-.157-.433-.431-.157-.314-.236-.55-.157-.589zm-12.696-1.53c.118.078.197.157.275.196l.197-.196c-.04.274-.118.353-.315.55.04-.119.079-.236.118-.315-.078-.078-.157-.157-.275-.235zM31.322 63.33l-.157.51-.157-.08.079-.43h.235zM19.137 80.632c.51-.197.629.039.786.627.432.393.708.707.708 1.02.904.746.746 1.06-.472.942-.393-.118-.63-.392-.63-.941l-.392-1.648zm.197 3.021c-.315.47-.236 1.06.157 1.53a.975.975 0 00.786.353l-.157-.431.472.313c0-.235-.197-.51-.63-.824l.59.157c0-.313-.275-.588-.747-.824h.394c-.197-.549-.55-.706-.865-.274zm1.533.274c.157-.039.275.157.314.393.04.235-.04.431-.196.47-.118.04-.276-.156-.315-.392 0-.235.079-.47.197-.47zm7.979-26.875c0-1.256.55-2.472 1.258-3.688-.511 1.255-.944 2.472-1.258 3.688zm2.83-7.298c-.472.196-.511-.197-.157-.471.746-.628 1.572-.863 2.515-.863h1.651c.629 0 .55.628-.04.588h-1.178c-1.062-.039-1.926.275-2.791.746z" fill="#fff"/><path fill-rule="evenodd" clip-rule="evenodd" d="M35.253 49.166c.432 0 .786.078.786.157 0 .117-.354.156-.786.156-.432 0-.786-.039-.786-.157 0-.078.354-.157.786-.157zm3.223-8.319c-.08-.078-.276.197-.55.55-.236.314-.394.627-.355.627.04.04.276-.196.511-.549.276-.314.433-.628.394-.628zm-2.752 2.708c-.197.353-.118.549.275.706 1.572.47 3.105-.04 4.638-.903l1.926-.902c.354-.431.275-.55-.197-.392l-.943.47.236-.784a3.75 3.75 0 00-1.061 1.216l-.157-.392a1.48 1.48 0 00-.511.824l-.197-.432a1.193 1.193 0 00-.472.51l.079-.55c-.157-.117-.393.158-.708.786l.158-.589c-.118-.117-.315.118-.59.706l.629-1.883c-.315.04-.747.746-1.218 2-.197.04-.276-.038-.236-.195l.707-1.373c-.354-.04-.747.47-1.218 1.373l.55-1.57-1.022 1.335v-.51c-.236.078-.472.274-.668.549zm.196 25.542c-.157-.157.119-.314.197-.236l.472.432c.118.118-.157.314-.275.235l-.393-.431zm.355-.315c-.079-.117.118-.274.197-.195l.392.392c.119.117-.117.274-.196.196l-.393-.392zm.235-.352c-.157-.157.118-.354.236-.236l.472.47c.118.118-.197.315-.276.197l-.432-.431zm.197-.589c-.157-.196.197-.47.393-.353l.708.706c.196.196-.276.51-.393.353l-.708-.706zm.746-.628c-.236-.235.079-.549.275-.352l.865.745c.236.196-.118.55-.314.392l-.826-.785zm.512-.393c-.197-.195.039-.47.235-.313l.747.628c.197.196-.118.47-.275.353l-.707-.667zm.668-.234c-.157-.157.04-.393.196-.275l.63.55c.157.156-.119.43-.237.313l-.59-.588zm-3.145-4.434c0-.196-.314-.118-.354.04l-.078.706c0 .156.354.078.354-.04l.078-.706zm-1.021.981c-.04-.314-.354-.157-.354.04l.079.548c0 .275.393.118.354-.039l-.079-.549zm-1.18.746c-.04-.275-.236-.197-.236 0l-.039.51c-.04.274.275.157.275 0v-.51zm1.493-.981c.08 0 .158.078.158.196 0 .117-.078.196-.157.196-.04 0-.118-.078-.118-.196 0-.118.079-.197.118-.197zm-1.1.706c.118 0 .197.118.197.236 0 .156-.079.235-.197.235-.118 0-.197-.079-.197-.236 0-.117.08-.235.197-.235zm-.983.706c0-.235-.314-.235-.314-.039v.47c0 .236.353.197.353.04l-.039-.47zm8.53-29.661c.117 0 .196.117.196.274 0 .157-.079.314-.196.314-.079 0-.158-.157-.158-.314s.079-.274.158-.274zm.472.745c-.079 0-.118-.196-.118-.432 0-.274.04-.47.118-.47.079 0 .157.196.157.47 0 .236-.078.432-.157.432zm.747-.196c.196 0 .353.079.353.157 0 .04-.157.118-.353.118-.158 0-.315-.079-.315-.118 0-.078.157-.157.315-.157zm.393.667c.078 0 .157.078.157.157 0 .117-.079.196-.157.196-.04 0-.118-.079-.118-.196 0-.079.078-.157.118-.157zm.629-.039h1.454c.472 0 .55.235.236.667.157.784-.825 1.294-.786.039-.079-.235-.354-.353-.904-.353-.236-.079-.236-.314 0-.353zm-2.28 9.22c.117 0 .196.078.196.196 0 .118-.078.236-.197.236-.078 0-.157-.118-.157-.236 0-.117.079-.196.157-.196zm-.628.196c.117 0 .235.118.235.275 0 .117-.118.235-.236.235-.157 0-.236-.118-.236-.235 0-.157.079-.275.236-.275zm.785.432c.511-.353 1.022-.589 1.1-.471.08.118-.274.51-.825.902-.55.354-1.021.55-1.14.432-.039-.118.315-.51.865-.863zm1.886-1.216c.314-.275.629-.432.668-.393.079.079-.157.353-.471.628-.315.235-.63.432-.669.353-.078-.078.158-.353.472-.588zm-1.217 2.982c.117-.275.235-.55.392-.785l-.078-.04c.078-.47.432-.824.904-1.059l.079.04c.157-.157.353-.275.59-.393-.119.196-.197.392-.315.55l.118.078a2.49 2.49 0 011.022-.628 4.75 4.75 0 01-.747.785l.236.157a4.46 4.46 0 011.14-.706c-.275.274-.55.588-.865.863l.275.157a2.938 2.938 0 011.18-.55 6.836 6.836 0 00-.551.471c.275-.078.59-.078.983-.118-.512.236-.826.314-1.219.471l.314.196c.393-.235.826-.353 1.18-.353-.276.157-.59.353-.904.51l.275.157a2.002 2.002 0 011.14-.235c-.315.118-.59.235-.865.392l.157.118a2.6 2.6 0 011.061-.235c-.314.117-.55.274-.825.392l.236.117a1.83 1.83 0 01.904-.078c-.236.078-.472.118-.708.235l.826.51-.157.079-1.258-.432c-.079 0-.118.04-.157.079 0-.04.039-.079.078-.118l-.314-.078c-.158.078-.354.196-.55.274.117-.157.196-.274.314-.353l-.315-.117c-.157.078-.353.196-.55.274a2.72 2.72 0 01.315-.392l-.315-.118c-.236.157-.432.314-.668.432.118-.197.236-.353.393-.51l-.432-.157c-.197.196-.394.353-.59.51.04-.196.157-.432.314-.589l-.393-.157a9.717 9.717 0 01-.668.589c.118-.236.236-.47.393-.667l-.629-.236a4.06 4.06 0 01-.746.667zm-4.404 1.215c-.51 1.02-1.021 2.59-1.375 5.768-.197 1.412-.315 2.825-.04 4.276.158.785.512 1.06.865 1.02l5.857-.941c.432-.079.865-.432.668-.824l-.236-.47-.196.666-.315-.55-.235.628-.354-.784-.275.941-.354-.745-.197.785-.196-.667-.236.823-.275-.745-.236.903-.314-.864-.236.628-.275-.51-.197.471-.275-.392a1.01 1.01 0 00-.825 0l-.118.196-.158-.197c-.432-.117-.904-.196-1.336-.274l.55-.275c0-.196-.196-.274-.55-.235l.59-.432-.63-.117.59-.354c0-.156-.157-.313-.629-.51l.63-.196v-.157l-.63-.078.669-.314c.078-.157-.118-.275-.55-.432l.55-.157c-.04-.156-.079-.352-.472-.51l.472-.157-.472-.353.59-.235c0-.196-.08-.275-.433-.432l.629-.274c-.04-.118-.197-.314-.59-.432l.59-.196-.472-.314.55-.235-.432-.157.511-.314c.118-.118-.078-.235-.51-.275l.589-.235.04-.236-.551.079.275-.236-.354-.274.826-.197.078-.156-.59-.157.472-.275c-.078-.235-.235-.314-.471-.314zm.905.824l.117-.039c-.51 2.786-.746 5.454-.353 7.847-.197-3.727.275-7.69.982-8.357l.118.275c-.825 2.982-.904 5.65-.353 8.043-.354-4.08-.04-6.435.668-7.69v.392c-.55 2.864-.59 5.179-.079 7.062l.158-.118c-.354-2.981-.158-5.296.314-7.611l.275.04c-.55 3.02-.55 5.374-.157 7.532l.157-.157c-.314-3.1-.275-5.257.197-7.219l.236.04c-.433 2.981-.472 5.335-.08 7.258l.158-.04c-.314-3.256-.157-5.57.275-7.297l.158.157c-.315 2.59-.276 4.865 0 7.023l.157-.079c-.079-2.824-.236-5.06.118-6.709l.196-.235c-.275 2.08-.275 4.394.079 6.983h.157c-.275-3.06-.197-5.374.118-7.258l.157.118c-.157 2.472-.157 4.708.04 7.18l.157-.04c-.158-3.373-.04-5.688.314-7.062.315-.117.315.275.04.707-.197 2.04-.276 4.08 0 6.316l.235.04c-.236-3.257-.039-5.14.315-6.984.196-.196.393.04.157.51-.275 2.276-.432 3.884-.197 6.474h.276c.314.117.353.235.039.353-1.926.392-3.773.745-5.542.863-.354.04-.472-.157-.472-.667-.118-2.786.197-5.336.865-7.65zM45 51.088l.236-1.177c.275-.157.393-.079.354.235l-.511.98-.079-.038zm-.432-1.256c-.275 1.962-.275 3.139-.472 5.18l.157.352c.04-2.275.354-3.727.669-5.453.118-.314-.197-.393-.354-.079zm-.59-.078c.118-.157.315-.118.275.078-.314 1.687-.51 3.688-.55 5.964h-.118c-.117-2.197-.039-4.159.393-6.042zm-8.175 12.83a4.93 4.93 0 01.275-1.962c.078-.275.354-.432.825-.471l5.267-.785c.275-.039.315.118.275.471-.078.51-.157.981-.393 1.373-.196.157-.236-.51-.196-1.53-.393.942-.236 1.923-.865 2.08-.275-.432.157-1.256.236-1.884-.59.55-.393 1.217-.904 1.923-.197.039-.157-.628-.04-1.687-.275.784-.51 1.412-.786 1.687-.157-.236-.157-.824-.118-1.452-.235 1.02-.51 1.726-.746 1.844-.079-.588-.04-1.138.039-1.687l-.118-.118c-.157.981-.314 1.57-.55 1.844-.197-.549-.236-1.177.078-1.804h-.235c-.158.51-.236.941-.472 1.098-.315-.039-.472-.392-.472-.98-.275 1.098-.668 1.687-1.1 2.04z" fill="#fff"/><path fill-rule="evenodd" clip-rule="evenodd" d="M45.747 51.48c-.314.236-.432.51.197.471-.433.393-.472.667-.118.785-.786.98-.786 1.255-.04.824-.864 1.098-.746 1.255-.157 1.06-.746.902-.629 1.02-.393 1.059-.51.706-.51 1.059-.039 1.02-.393.156-.668.47-.747 1.098-.157.628-1.847 1.334-.433 1.923.433.235.787.824 1.062 1.844.118.549.354.588.825.392.393-.118.787-.157 1.18-.196.746.078.786-.746-.04-.863.079-.314-.196-.471-.629-.275.354-.589-.078-.432-.235-.51.235-.118.196-.392-.433-.04l-.078-.196c.353-.117.471-.313.51-.549l-1.06.354c.314-.275.471-.471.432-.668l-.747.157c.786-.55 1.1-.941 1.061-1.138l-.825.236c.59-.47.982-.863.943-1.099l-.707.275c0-.235.314-.47.904-.628.471-.235.707-.55.629-.98l-1.062.51c.865-.785 1.572-1.492 1.769-1.962-.079-.275-.943.313-2.083 1.255v-.196c1.1-.745 1.926-1.609 2.555-2.59l-2.084 1.61 1.887-2.237c-.118-.275-.668.039-1.73 1.138l.08-.236.982-1.06c.747-.43 1.218-.98 1.533-1.647.197-.51-.472.157-1.494 1.06-.236.235-.51.352-.786.627l2.398-2.51.04-.315c-.237-.235-1.77 1.57-3.067 2.197zm-2.83 9.691c-.432-.274.04-.902.354-.627l1.18.863c.353.274 0 .745-.276.549l-1.258-.785zm.472-.745c-.433-.275.078-.824.354-.589l.628.628c.354.314.118.588-.196.432l-.786-.471zm2.515 2.354c-.314-.157-.471.078-.275.235a7.396 7.396 0 001.651 1.06c.59.314 1.219.353 1.808.353.433 0 .63-.275.079-.393-1.022-.274-2.044-.588-3.263-1.255zm.315-.04c-.197-.235-.157-.431.118-.588l1.415-.118c.275 0 .51.157.747.471l.668.746c.275.353.04.627-.236.549a16.173 16.173 0 01-2.712-1.06z" fill="#fff"/><path fill-rule="evenodd" clip-rule="evenodd" d="M47.634 59.013c.236-.431.59-.745 1.1-.941 1.337-.196 2.673-.471 3.931-.942.393-.275.55-.196.51.236-.117 1.216-.274 2.236-.628 2.55v-2.119l-.157.04c-.118 1.059-.275 1.844-.55 2.157l.078-1.961h-.196l-.433 1.922.118-1.687c0-.235-.078-.275-.196-.157-.275 1.962-.63 2.786-1.022 3.06.393-1.255.393-2.118.314-2.864l-.118-.078c-.118 1.02-.275 2-.629 2.746-.393-.588.354-1.608.197-2.59h-.079l-.707 2.433c-.236 0-.157-.314.078-.941l.079-1.373-.118.078c-.196.745-.393 1.294-.668 1.765l.118-1.804-.511 1.294.04-1.059-.551.235zm5.817-1.49c.04-.432.511-.314.315.117l-.236.55h-.118l.04-.667zm-.118 1.608c.04 0 .079.118.079.275 0 .157-.04.275-.079.275-.04 0-.078-.118-.078-.275 0-.157.039-.275.078-.275zm.197-.588c.078 0 .118.039.118.157 0 .078-.04.156-.118.156a.169.169 0 01-.157-.156c0-.118.078-.157.157-.157zm-.04-2.394c.118 0 .197.157.236.353.04.197.04.393-.078.393-.04.04-.158-.118-.197-.314-.04-.196 0-.392.04-.432zm-.59-1.138c.355.354.394.668.355.942-.04.392-.354.667-.354.392-.04-.352 0-.745-.275-1.216-.157-.196.118-.274.275-.117zm-2.869-.706c.04-.392.354-.078.354.157l-.118.628c-.118.118-.157.04-.275-.196l.04-.589zm-1.375 2.04c-.315.197-.315.354.04.471l.156-.039v.04c0 .156.079.274.158.274.078 0 .157-.118.157-.275V56.7l.353-.079v.785c-.117.04-.235.04-.393.078 0-.078-.078-.117-.117-.117-.079 0-.158.078-.158.157 0 0 .04.039.04.078-.079.04 0 .04.157.157l2.633-.589c.786 0 .983-.588.786-1.53.118-.314.04-.431-.235-.392l-.59-.078.354-.236c.471-.235.471-.353.078-.353l-.825-.118.668-.117c.197-.04.275-.275-.04-.393l-.707-.078.55-.118c.354-.275.158-.47-.51-.55.235-.274.196-.47-.079-.47-.118-.274-.471-.47-.354.04l.158 2.589c.078.274-.04.47-.354.588l-1.926.392zm1.493-1.02c.118 0 .197.079.197.197 0 .117-.079.196-.197.196-.078 0-.157-.079-.157-.196 0-.118.079-.197.157-.197zm1.573.824c.039 0 .078.04.078.079 0 .078-.04.117-.078.117-.04 0-.08-.039-.08-.117 0-.04.04-.079.08-.079zm-.158-.51c.158-.039.276 0 .315.079.04.117-.079.196-.236.235-.157.04-.275 0-.315-.117-.039-.04.08-.157.236-.197zm-1.808 1.687h.079v-.784l-.197.078.118.706zm.433-.117l.196-.04v-.745l-.354.078.158.707zm.471-.157l.118-.079v-.627l-.157.039.04.667zm.354-.157s.079 0 .118-.04c.275-.313.275-.47-.04-.549h-.078v.589zm6.092-37.077c-3.262-.274-4.834.785-5.699 1.884a5.586 5.586 0 00-1.218 3.178c.078.196.432-.236.943-.903l-.314-.117c.078-.236.196-.432.353-.668.079-.117.079-.313.275-.431.236-.118.393-.353.393-.432h-.275c.904-1.098 2.162-1.373 3.577-1.334.393.04.747.079 1.1.118.197.04.394-.04.512-.118.118-.078.157-.196-.04-.196-1.257-.196-2.515-.118-3.734.157.904-.588 2.202-.628 4.049-.55.747.04.786-.51.078-.588zM51.407 40.77c.118.079.157.314.079.589-.079.236-.276.432-.393.392-.158-.039-.197-.313-.118-.549.118-.275.275-.47.432-.432zm-2.83 1.138c.04 0 .118.197.118.393 0 .235-.079.392-.118.392-.079 0-.118-.157-.118-.392 0-.197.04-.393.118-.393zm.236 1.374c.118-.746.471-1.413 1.1-1.844.55-.393.669-.275.236.274-.393.51-.629 1.138-.943 1.687-.118.236-.472.51-.393-.117zm1.65-2.982c-.55.196-.982.549-1.257 1.059-.197.471-.118.51.236.157.353-.392.786-.628 1.179-.942.157-.117.314-.392-.157-.274zm-3.38 2.628c-.275.354-.236.471.236.275.747-1.138 1.258-1.883 1.69-2.119l1.337-1.177c1.022-.235 1.611-1.334 1.808-3.178l-.079-.235c-.51 1.295-1.1 2.236-1.887 2.746-.707.51-1.297 1.138-1.847 1.884-.236.235-.236.51-.432.824-.236.313-.63.627-.826.98zm-.314-.824c-.236.432-.04.59.196.236.904-1.256 1.533-2.119 2.477-2.903.864-.668 2.122-1.884 2.633-3.492.315-.942-.04-1.217-.275-.628-.51 1.412-1.1 2.668-2.044 3.413-1.061.864-2.201 1.844-2.987 3.374zm-.118-1.294c-.197.353-.236.628-.079.824.747-.275.511-1.452 2.359-2.394.236-.313.157-.431-.236-.313l-1.73 1.255c.59-.942 1.18-1.687 2.044-1.883.55-.079 1.062-.314 1.533-.824.197-.432.118-.55-.196-.353-1.062.706-1.965.98-2.791 1.608-.747.628-1.258 1.413-1.454 2.315l.55-.235zm-.118-2.276c.314-.667 1.18-1.098 2.398-1.49.825-.276 1.493-.864 2.083-1.57.629-.392.511-.04.314.392-.235.393-.393.51-.786.746-.471.392-1.179.745-1.73.98-.667.236-1.296.628-1.886 1.335-.354.274-.511.156-.393-.393zm1.847-2.236c.59-.353 1.1-.706 1.494-1.295.55-.785.786-.824.63 0-.158.667-.63 1.373-1.613 1.726-.825.314-1.06-.078-.51-.431zm2.477-1.805l.275-1.412c.04-.55.236-1.06.59-1.491l.432-1.177c.118-.471.314-.432.314.157l-.275.745c.236.118.118.353-.04.589-.038.274-.038.588-.314.666-.078 1.06-.196 1.923-.51 2.198-.472.588-.63.51-.472-.275zm-1.887-.196l.629-1.53c.157-.55.432-.863.786-.903l.865-.823c.196-.236.314.078.196.274l-.628 1.02c-.118.824-.433 1.57-1.18 2.433-.157.157-.432.157-.275-.079l.747-1.49-.943 1.294c-.276.353-.315.079-.197-.196zm-1.1.628c.353-.942.471-1.452.825-1.766.432-.431.55-.392.275.118-.197.392-.472.941-.472 1.922 0 .785-.982.628-.629-.274zm-.08-1.256c.04.314.08.235.237 0l.353-.98c.393-.354.944-.746 1.455-1.374.236.353.668.04 1.336-.863.826-.393 1.219-1.02 1.455-1.805.196-.667.078-.785-.354-.353-.63.824-1.1 1.138-1.337 1.726-.747.236-1.336 1.06-2.2 1.452-.237.157-.315.392-.315.706-.354.236-.59.628-.63 1.491zm.08-1.922c.078-.118.235-.157.314-.118.079.078.079.235-.04.353-.078.157-.235.196-.353.118-.04-.079-.04-.236.078-.353zm4.362-6.71a5.065 5.065 0 011.848-1.412c.747-.314.707.275.197.275-.394 0-.944.353-1.848 1.49-.236.314-.511.04-.197-.352zm-5.188 8.005c-.118-1.413.197-2.237.865-2.708 1.808-1.098 2.437-2.707 3.026-2.668.59-1.02 1.494-2.08 2.555-3.06.786-.55.944-.432.511.431-1.14 1.61-2.28 3.531-3.301 4.08-.472.04-.826.315-1.101.746l.707-.353c.354-.039.394.078.158.314-.59.314-1.573 1.844-1.808.863-.393.746-1.062.628-1.101 1.373l-.079.982c-.157.274-.275.274-.432 0zm6.997-10.28c.354.039.51.157.236.47-.865.354-1.69 1.02-2.477 1.962.079.354-.078.668-.472.903 0 .588-.353.863-.943.942l-.865 1.098c.197.275-.118.706-.747 1.334-.393.432-.55.314-.471-.392.471-1.295 1.376-3.178 1.808-3.178.236 0 .236-.079.314-.51.04-.314.354-.236.276 0-.04.313.039.353.235.117.983-1.608 2.044-2.432 3.106-2.746zm-2.634.392c.708-.824 1.926-1.373 4.206-1.334.471.04.393.51-.04.471-.353-.039-.746.118-1.1.196-.432.118-.904.157-1.297.393-.786.431-1.494 1.137-2.123 2.118-.235.118-.275.04-.157-.235.786-1.413 1.73-2.158 2.712-2.237l.04-.078c-.55-.118-1.219.118-2.202 1.02-.118.118-.157 0-.039-.314zm.865-1.216c.864-.55 1.847-.863 2.987-.706.708.078.708.51.315.47-1.101-.156-2.162-.117-3.224.393-.393.196-.314 0-.078-.157zm5.464-3.218c-.275-.353-.079-.55.393-.51 1.219.235 2.28.392 2.948.941.393.275.079.55-.196.353l-.826-.431c.04.353-.275.196-.747-.197-.314.314-.707.157-1.14-.313l.276.784c.039.157-.118.157-.197.04l-.51-.668zm1.69.628c-.157.117.04.392.158.51.157.157.353.078.275-.157-.04-.236-.275-.471-.433-.354zm2.515.98c-.118-.078-.393-.196-.039-.274-.393-.236-.236-.55.04-.589 1.06-.039 1.886-.628 3.105.04l.55.627c.354.824.04 1.216-.432.628-.236-.353-.04-.667-.63-.942.315.589.551 1.177.551 1.845.904.862.079 1.059-.157.51l-.354-1.61c.079.785.118 1.374 0 1.374-.275 0-.118-.55-.236-1.216-.079-.275-.157-.785-.314-.824-.668-.236-1.298-.04-1.808 0 .864-.04 1.454 0 1.65.235.276.392.315.824.197 1.216-.197.314-.315.236-.315-.157l-.117-.51c-.04-.274-.354-.314-.786-.274-.276.039-.59.117-.905-.079zM51.014 49.636a42.118 42.118 0 004.363 5.964c.197.235.04-.471.197-.196.354.745.904 1.451 1.14 1.687.236-.197-.511-.863-.629-1.648l2.24 2.59c.197-.354-1.1-1.884-2.161-3.218l.157-.157 2.555 3.335.118-.039c-.393-1.099-1.573-2.432-2.359-3.649l.079-.274c.472.588 1.1 1.49 1.611 2.236.747 1.06 1.416 2 1.612 2.08.944.235-2.24-3.1-3.695-5.886l.04-.157c1.73 2.629 3.262 5.022 4.952 6.12.197.118.354-.117.157-.352-1.533-1.805-3.34-3.767-4.441-5.532l.078-.157c1.651 1.961 2.516 4.198 5.66 6.081.197.118.315.314.512.157.707-.55-2.713-1.373-5.346-5.807l.04-.313c.982 1.333 1.139 1.726 2.043 2.667 1.258 1.373 3.223 2.982 3.538 2.747.314-.275-2.83-2.433-4.52-5.062l.078-.078c1.336 1.844 3.223 4.08 5.975 5.493.393.196.236.157.707.157 1.219.078-2.712-1.923-4.756-4.159l.04-.196c.59.51 1.336 1.177 2.161 1.844a32.89 32.89 0 002.83 1.805c.747.392 1.337.627 1.612.51.707-.353-2.712-1.57-3.577-2.472.51.275 1.022.47 1.454.667 1.494.745 2.555 1.255 2.791.98.157-.195-.629-.627-2.005-1.137-.157-.157-.039-.196.354-.118 1.572.628 2.477 1.06 2.673.942.51-.157-.314-.51-1.258-1.099 1.18.51 2.201.981 2.751.824.197-.039-.667-.51-1.414-1.177 1.061.667 3.576 1.57 1.179-.117l.157-.08c.904.668 2.044.943.668-.156h.197c.786.628 1.218 1.099.629-.196.786 1.138 1.572 1.57.51-.079l1.22.942c-.433.196-.394.314 0 .55 1.021.666 1.1.549.903 0 .118-1.06-.275-1.766-.982-2.198-.787-.51-.747.079.157 1.491a3.516 3.516 0 01-.826-.902c-.157-.314-.51-.51-.904-.51-1.847.039-3.655.392-5.385.627-1.336.197-2.358 0-2.83-.314-.472-.392-.629-.549-.393-.98.157-.353 0-.628-.236-.746l-1.258-2.51c.158.274.354.392.511.627.512.824.865 1.49.983 1.452-.196-.55-.865-1.766-1.376-3.14.983 1.727 1.848 3.218 2.084 3.022-.118-.667-.904-1.962-1.69-3.296.235.236.314.314.471.51.315.393.59.746.747.667-.629-1.294-1.297-2.118-2.005-2.354-1.1-.392-1.768-.55-1.611.157l-.55-.628-.59-.078c-.197.078.078.392.472 1.06l-.118.078-.669-1.06c-.196-.117-.471-.235-.51 0l.353.707-.747-.825c-.353-.195-.746-.274-.746-.117l1.1 1.805c-.196-.275-.51-.55-.786-.942-.432-.589-.786-1.02-1.297-1.098-.511-.04.51.784 1.218 2.471l-1.69-2.432c-.157-.118-.825-.236-.864 0l1.965 2.825c-.904-1.02-1.808-1.883-2.32-2.864-.117-.118-.235-.118-.353-.118-.079-.04-.157 0-.236.078l2.398 3.1a13.688 13.688 0 01-1.297-1.334c-.511-.706-.983-1.177-1.376-1.805-.157-.196-.472-.118-.511-.04-.197.276 1.808 2.316 2.673 3.532-1.219-1.138-2.162-2.236-3.027-3.531-.393-.196-.668-.196-.786 0-.118.235 2.437 2.668 3.42 4.198-1.337-1.413-2.634-2.746-3.695-4.198-.157-.196-.629-.196-.629 0 0 .392 2.201 2.393 3.97 4.826-1.297-1.413-2.87-3.296-3.538-3.688-.314-.04.787 1.334 3.302 4.198a33.685 33.685 0 01-3.459-3.649c-.314.275 1.062 2 3.066 4.198l-3.145-3.296c-.432-.274-.51-.235-.275.157zm13.365-.745c-.276-.392.118-.589.432-.118.629 1.06 1.218 1.962 1.65 2.982.198.47-.078.588-.274.157-.511-1.138-1.14-2.04-1.808-3.021zm-1.219-.392c-.196-.314.315-.51.708.039.904 1.255 1.69 2.51 2.319 3.806.354.784 0 .98-.354.274-.747-1.53-1.73-2.864-2.673-4.12z" fill="#fff"/><path fill-rule="evenodd" clip-rule="evenodd" d="M57.539 21.976c-.04.706.354 1.609 1.1 2.197 0-.117-.353-.667-.59-1.138-.235-.55-.353-.98-.51-1.059zm2.437 24.482c-.079-1.137-.708-1.962-1.965-2.903.039.274.825.941 1.297 1.766.471.784.471.98.668 1.137zm-.04-1.177c-.157-.117-.275-.549-.668-1.177-.393-.667-1.061-1.334-1.1-1.53 1.022.746 1.69 1.805 1.769 2.707zm-.157-1.49c-.118-.118-.236-.432-.51-.903-.315-.51-.826-1.02-.865-1.177.825.55 1.336 1.334 1.375 2.08zm-.157-1.53c0-.51-.393-1.06-.943-1.374.04.118.354.432.59.785.196.314.275.51.353.588zm-.59-21.501c-.196.667 0 1.609.63 2.393.039-.157-.197-.745-.354-1.294-.118-.51-.157-1.02-.275-1.1zm-6.957 25.267c-.59.039-.707-.079-.747-.667.275.274.511.392.747.667zm-.786-1.02c.393.392.786.627 1.18 1.059.196.078.392.078.589-.079-.629-.666-1.219-1.059-1.887-1.726l.118.746zm-.157-1.099c.825.824 1.454 1.334 2.201 2.119.236.117.393.117.511 0-.904-1.138-1.73-2.001-2.634-3.139-.078.353-.078.706-.078 1.02zm.157-1.255c1.022 1.176 2.005 2.197 3.066 3.492.314.156.55.156.668.039-1.022-1.334-2.319-2.786-3.498-4.238-.079.197-.118.353-.197.51-.039.079-.039.118-.039.197zm.275-.981c1.337 1.53 2.555 2.903 3.97 4.59a.56.56 0 00.55.04c-.157-.157-1.1-1.295-1.257-1.492-1.14-1.412-1.808-2.157-3.105-3.727-.04.196-.08.393-.158.589zm.236-.824c1.415 1.57 1.926 2.276 3.46 4.08.156.236.982 1.06 1.139 1.256.197.392.865.392.55.117-.275-.313 0-.078-.393-.588-1.258-1.53-3.341-4.041-4.599-5.61-.039.274-.118.51-.157.745zm.197-.942c.039-.235.078-.431.118-.628 1.179 1.491 3.498 4.277 4.834 5.925.708.863.669.824 1.062 1.255 0 .197-.158.118-.433.04-.354-.393-.314-.353-.668-.825-1.65-1.922-3.459-4.158-4.913-5.767zm.118-.824c.078-.274.078-.588.117-.863 1.258 1.962 3.066 4.041 5.071 5.885-.157-.784-2.673-2.942-4.206-4.983a19.096 19.096 0 01-.786-1.49c.04-.236.04-.432.079-.707 1.061 2.158 2.751 4.16 5.11 6.2-.276-.707-2.713-2.669-4.01-4.748-.471-.824-.825-1.491-1.022-2.04v-.353c1.062 2.119 2.909 4.315 5.11 6.199-.236-.707-2.751-2.747-3.97-4.748a17.391 17.391 0 01-1.06-2.079v-.392c1.02 2.04 3.3 4.786 5.384 6.591-.236-.667-3.066-3.139-4.245-5.061-.511-.903-.865-1.609-1.061-2.158v-.55c.864 2.04 3.066 4.748 5.227 6.513-.236-.666-2.948-2.903-4.048-4.747-.59-.98-.904-1.726-1.1-2.276 0-.195 0-.431.038-.588.747 2.08 2.83 4.59 5.032 6.278-.236-.589-2.752-2.63-3.774-4.355-.668-1.138-.982-1.884-1.218-2.433 0-.235 0-.432.04-.667.628 2.04 2.593 4.512 4.794 6.238-.157-.588-2.515-2.432-3.537-4.08-.747-1.256-.983-2.08-1.219-2.629v-.117l.079-.746c.432 2.04 2.32 4.669 4.56 6.474-.158-.51-2.32-2.354-3.224-3.884-.864-1.452-1.061-2.315-1.336-2.786.668-5.65 3.066-8.985 6.564-9.573l.079.039c-.118.667 0 1.49.393 2.275.078-.157-.118-.941-.157-1.608v-.589l.314.079c.04.784.315 1.53.668 1.609-.275-.432-.314-.981-.314-1.452l.432.118c0 .824.276 1.726.669 1.765-.354-.47-.354-1.098-.315-1.608l.079.039c.078.314.196.628.353.785.157-.197.079-.589-.039-1.02.432-.236.944-.197 1.494.156.196.236.118.353-.157.353h-.276l.63.275c.039.079.156.157-.197.196l-.236.197.825.078c.275.118.236.196.158.314l-.197.235c.708 0 1.454.157 2.358.628-.039.314-.393.275-1.06-.079.156.393.785.432.746.668-.079.431-1.022.039-1.455.588l1.062.04c.236.156.157.274-.197.274.55.667.983.863 1.14.392.157-.353.315-.353.472 0 .668.393.786.432.393.51l-.629.118.747.118c.196.078.196.235.078.353-.51.078-.55.157.394.196.393.196.55.392.393.55-.826.039-.787.156.196.235.236.117.315.274.275.392-.51.118-.432.235.197.235.078.118.157.197.04.314-.59.157-.512.236.235.236.04.274.472.235.629.588.629-.117.904.314.354.314l-.04.118c.904.04 1.297.274 1.18.824-.08.235-1.298-.471-.787 1.412l.197.196c.354.079-.04-.863.55-.784.079.039.157.313.04.784-.118.432-.394.628-.826.353-.393-.274-.629-.549-.59-.863l.04-.588c-.433.039-.511-.236-.55-.667 0-.079-.158-.04-.118-.157-.708-.118-1.022.117-1.219.628-.04.196-.197.039-.275-.157.04-.118-.236.039-.393-.04-.118 0-.079-.274-.197-.235-.078 0-.078.118-.235.118-.118-.04-.079-.314-.315-.079-.157.157-.196.157-.236-.078.04-.196.197-.589-.236-.04-.157.079-.196.079-.275-.117-.236-.667-.393-.706-.472-.118-.117.235-.235.275-.235-.078-.236-1.02-.275-1.02-.197-.04-.04.432-.157.393-.393-.117-.275-.824-.393.078-.59-.314-.275-.471-.078-1.138-.55-1.334l.275 1.373c0 .196-.314.235-.353-.078-.158-.903-.747-2.472-.63-1.962l.354 1.883c.04.157-.393.079-.471-.157l-.472-2.354c-.118-.667-.118 1.256.157 2.08 0 .117-.314.117-.275-.04 0-.196-.353-2.432-.471-2.315-.276.275.471 2.511-.118 2.158l-.354-2.315c-.04 0 0 2.158-.079 2.12-.629-.785.04-2.904-.393-3.022-.078 0-.275 2.59-.354 2.511.276 2.001 1.887 2.08 1.77 2.668l-1.14-.588c.314.588.786 1.216 1.1 1.883-.354.118.04.588.275.824-.354-.04-.275.196.393.823.157.118.197.236.157.354-.825-.197-.904-.197.433.863-.826-.118-.865-.04.078.588.158.118.354.353.393.589.04.157-.118.078-.196.078-.157-.078-.393-.235-.472-.274-.236-.04-.078.274 1.022 1.098.275.236.393.432.197.51-1.337-.823-1.258-.627.196.628.354.55.393.785.275.863-1.179-.98-1.965-1.608.079.432.354.353.432.588.157.628-2.044-1.53-.943-.51.432.902.08.078 0 .196-.078.157-1.965-1.452-2.044-1.099.04 1.06.078.195.196.352.117.51-.04.078-.196 0-.275-.04-1.415-1.334-1.297-1.06.314 1.138.236.353.354.667-.039.47-1.769-2-2.319-2.432-.04.629.237.392.276.588-.039.47-1.611-2.197-1.65-1.922-.078.432.118.274.118.314 0 .274-1.454-1.765-1.887-2.197-.079.393.236.47.197.55-.039.314-1.769-2.197-1.808-1.923-.079.353.158.275.236.432-.039.314-2.044-2.315-2.044-2.237-.078.274.039.628.039.589-.354.275-.197-.235-.197-.431-.393-.628-1.258-1.53-1.415-1.412.078.55-.157.156-.353.156-.59-.04-1.296-1.687-1.414-1.687-.392-.078l-.708-.118c-.118-.235-.236-.353-.393-.51-1.218-1.177-1.65-1.295-.432.236l-.04.117-1.375-.235c-.158 0-.354-.079-.511-.275-.59-1.02-.944-1.412-1.926-2.354.078.353.825.981 1.415 1.962.157.628-.55.353-.787.235-.432-.588-.589-.667-1.218-1.412-1.769-2.08-3.656-4.434-5.188-6.082zm4.756-16.478c.117.078.275.588.59 1.177.314.627.785 1.216.825 1.412-.944-.745-1.455-1.765-1.415-2.59zm-.59.627c.157.157.275.668.629 1.374.393.706 1.022 1.412 1.022 1.647-1.022-.863-1.65-2.04-1.65-3.02zm-.55.707c.196.157.314.745.746 1.53.433.784 1.18 1.608 1.22 1.844-1.22-.942-1.966-2.276-1.966-3.374zm-.472.706c.04 1.216.904 2.707 2.24 3.766-.039-.274-.943-1.177-1.415-2.079-.51-.863-.628-1.491-.825-1.687zm-.432.745c.078 1.334 1.022 2.943 2.555 4.16-.079-.315-1.1-1.335-1.651-2.316-.55-.98-.708-1.647-.904-1.844zm-.393.746c.117 1.452 1.179 3.217 2.83 4.512-.079-.353-1.258-1.413-1.848-2.511-.629-1.06-.747-1.766-.982-2.001zm-.393.745c.157 1.609 1.375 3.492 3.144 4.905-.079-.393-1.376-1.57-2.083-2.747-.629-1.138-.786-1.883-1.061-2.158zm-.315.746c.157 1.726 1.494 3.766 3.42 5.296-.118-.431-1.533-1.687-2.28-2.942-.707-1.256-.865-2.04-1.14-2.354zm-.275.784c.157 1.844 1.611 4.042 3.695 5.69-.158-.471-1.69-1.845-2.516-3.218-.786-1.334-.904-2.158-1.179-2.472zm-.315.746c.276 1.962 1.926 4.473 4.128 6.238-.158-.51-1.966-2.119-2.83-3.57-.826-1.452-.983-2.276-1.297-2.668zm5.189-7.73c.118.04.275.472.432.903.158.392.394.824.394.942-.63-.51-.905-1.256-.826-1.844zm10.26 10.359c-.433-.432-.709.078-.119.627.511.471 1.061.314.904.157l-.786-.784zM65.4 26.92c-.079 0 .04.47.079.706 0 .235.078.392.236.588.157.196.236.236.196.157-.157-.431-.314-.824-.354-1.177 0-.157-.078-.235-.157-.274zm-.55-.589c-.079 0 .04.55.04.824 0 .235.078.47.235.706.157.196.236.275.196.196-.157-.549-.314-.98-.314-1.412a.546.546 0 00-.157-.314zm-.59-.588c-.078-.04.04.588.04.902 0 .314.039.588.236.863.157.235.235.314.196.196-.118-.588-.314-1.098-.314-1.608 0-.236-.04-.314-.158-.353zm-.55-.589c-.079-.078 0 .667 0 1.02-.04.353.04.628.197.981.196.275.275.353.235.235-.118-.706-.275-1.294-.275-1.843 0-.275-.078-.354-.157-.393zm-.55-.628c-.079-.04 0 .785-.04 1.177-.039.393.04.707.197 1.06.157.353.275.431.236.313-.118-.784-.275-1.451-.236-2.079 0-.275-.079-.392-.157-.47zm-.59-.588c-.078-.079 0 .824-.04 1.294-.038.393 0 .785.197 1.178.158.392.236.47.236.353-.118-.863-.275-1.609-.236-2.315.04-.314-.039-.432-.157-.51zm-.51.04c-.04-.08-.04.666-.08 1.02-.039.352 0 .666.158.98.118.314.196.392.196.274-.078-.705-.196-1.294-.157-1.844.04-.274-.04-.353-.118-.43zm-.433 0c-.079-.04-.079.548-.118.823-.04.235-.04.47.079.746.117.274.157.313.157.235-.04-.55-.118-1.02-.04-1.452.04-.196-.039-.274-.078-.353z" fill="#fff"/><path fill-rule="evenodd" clip-rule="evenodd" d="M21.102 9.852c1.18 1.452 2.28 2.825 3.538 4.473 0 .275-.119.432-.433.432-1.297-1.844-2.28-3.335-3.262-4.748-.197-.274.039-.313.157-.157zm5.935 10.084c.118.314-.118.47-.354.156-.51-.588-.393-1.333.158-2 .59-.707 1.336-.707 2.004-.197.393.314.276.354-.196.354-1.337 0-1.848.667-1.612 1.687zm1.376-.628c-.55-.196-.707.039-.59.628C35.685 31 47.594 47.163 61.627 66.231l-.079.275 1.18.667-.393-1.57-.236.157c-10.81-15.066-23.348-32.8-33.686-46.453z" fill="#E2B700"/><path fill-rule="evenodd" clip-rule="evenodd" d="M47.476 22.211c0-.274 1.023-.98 2.359-1.883.59-.47 1.14-.628 1.65-.628.158.04.394.079.708.04.315.196.197.353-.157.431-.157-.118-.314-.157-.472-.078-.353.078-.393.314-.628.392l-.158-.235c-.471.314-.786 1.177-1.14 1.608l-.078-.431c-.236.039-.393.549-.747.824.04-.315-.04-.471-.157-.471-.59.392-1.022.588-1.18.431zM31.872 42.77c.354 0 .668.118.668.235 0 .157-.314.275-.668.275-.393 0-.708-.117-.708-.275 0-.117.315-.235.708-.235zm2.673-.55c.236-.352.51-.51.59-.43.078.117-.04.47-.236.784-.236.353-.511.55-.59.431-.079-.078.04-.431.236-.784zm-.865.472c.157-.275.354-.432.432-.354.079.079 0 .354-.157.628-.197.275-.393.432-.472.353-.078-.078 0-.353.197-.627zm-.786.157c.157-.236.314-.354.354-.314.078.078 0 .314-.118.549-.157.196-.315.314-.393.275-.04-.079 0-.314.157-.51zm-13.09-2.786l-.156.431c.196.04.353-.235.55-.352l-.157.706c.236.039.786-.55 1.179-.824l-.275.706c.353 0 .59-.51.864-.785l-.157.746c.432-.04.708-.589 1.061-.903l-.078.706c.314-.039.55-.47.865-.745l.157.51c.275.04.432-.353.668-.51l.118.47.59-.588.117.51.669-.235.196.275.55-.275-.039.588.747-.313.079.392.55-.314v.51l.629-.157.04.47.943-.391-.315.706.825-.51-.117.55.904-.393-.512.824c.59.039.787-.393 1.18-.589l-.275.745c.59-.117 1.1-.588 1.611-1.216.118.197.04.51-.393 1.178.63-.275.944-.707 1.18-1.178l-.197.824c.393-.039.786-.353 1.14-.902l-.04.785c.315-.236.55-.55.708-.942.393.157.825-.079.983-.706.236-.589.078-.785-.433-.589-1.69 1.177-3.93 1.491-7.232.51-2.123-.588-4.324-.667-6.525-.745-.983-.04-1.808.117-2.201 1.02zm4.993-8.436c.157-.274.471-.51.864-.745l.08.353.942-.314.08.314 1.02-.55c-.588.746-.707 1.06-.51 1.06.157 0 .904-.863 1.14-.628-.511.785-.04.55.825-.157.236.08-.314.628-.235.707.078.078.393-.157 1.021-.589.158-.117.511-.51.59-.314.04.236-.197.354-.315.51-.628.746-.471.628.63-.078.157-.079.393-.275.55-.196-.747.98-.432.784.668.117.157-.078.354-.353.55-.157-1.375 1.217-1.14 1.374.63.51-.826.942-.63.981.667.158.118-.04.276 0 .433-.08-.59.59-.669 1.021-.393.864.432-.196.982-.431 1.258-.353-.55.55-.511.785.196.667.236.079 0 .353-.707.824-.118.196-.236 0-.354-.47-.079.274-.197.274-.315.117l-.157 1.02-.236-.04v-.588c-.118-.157-.236-.157-.354 0l-.196.785-.354-.196c-.118.274-.275.549-.55.745-.236-.314-.393-.235-.472.04l-.393-.04c-.118.353-.236.432-.432.196a4.73 4.73 0 00-.904.707l-.157-.393c-.276.393-.511.628-.669.55l-.275-.275-.432.706-.708.196c0 .196.275.196.747.118.63-.078 1.848-.353 2.634-.589.786-.235 1.65-.353 2.594-.745.747-.353 1.611-.98 2.476-1.413.197.157.04.55-1.611 1.845l-.786-.236.432.589c-.197.196-.354.274-.55.235l-.708-.353.236.745c-.511 0-.747-.627-1.218-.353l.196.589-1.061-.314.196.706-.904-.392-.197.392c-.275 0-.432.079-.471.196 2.083.353 4.363-.392 6.722-1.53.117-.039.157.04.157.236-.197.941-.865 1.765-1.926 2.51l.314-1.255c-.707.314-1.494 1.844-2.083 2.04l.629-1.648-1.848 1.53c-.157-.196.079-.627.472-1.176-.55 0-1.494 1.294-1.651 1.216-.393-.196.315-.589.472-.863-.511-.04-.865.431-1.297.667-.04-.236.235-.51.707-.942l-1.533.706c0-.274.59-.51.708-.902-.708.47-1.337.785-1.494.745l.472-.745-1.337.706.826-.863-1.415.667.393-.745-1.022.666.432-.823c-.511.431-.982.706-1.258.706.276-.353.472-.628.433-.824-.472.392-.944.667-1.14.667l.196-.667a3.307 3.307 0 01-1.297.824l.472-.785c.079-.118.04-.274-.118-.157l-1.061.863c.235-.431.353-.706.196-.824l-.747.393.08-.432-.866.942c-.118-.04.04-.275.158-.706l-.905.588c.472-.941 1.258-1.57 2.32-1.883 1.257-.392 2.24-.432 3.026-.55 1.376-.196 2.24-.313 3.342-.824.51-.196 1.1-.431 1.729-.941.314-.236.197-.314-.157-.275l-1.415.079v-.628l-.55.745-.119-.745-.471 1.295-.197-1.491-.354 1.609-.196-1.57-.59 1.805-.157-1.883-.354 1.922-.353-1.962-.236 1.962-.393-1.844-.157 1.766-.512-1.805-.039 1.883-.59-1.805-.117 1.609-.393-1.57-.158 1.413-.314-1.295-.197 1.413c-.59-1.099-.825-2.001-.432-2.511.59-.667 1.376-.824 2.162-.707zm4.48-4.276c.119 0 .237.157.315.431.079.275.079.51.04.51-.118.04-.236-.157-.315-.431-.079-.235-.079-.47-.04-.51zm-4.009-.47c.59-.903 1.062-1.178 1.376-.472.393-1.255.826-1.373 1.376-.274.747 0 .904 1.137.786 2.824l-.708-1.883v1.217c-.471-2.08-3.498-.863-2.83-1.413zm13.05-6.828c.865.079 1.73.393 2.555.863.04.118.079.197-.079.118-.314-.235-.59-.353-.825-.353.079.353.04.51-.118.471-.314-.55-.59-.628-.825-.51-.08.04-.118.078-.197.04-.236-.511-.354-.511-.471-.315-.236-.196-.236-.314-.04-.314zm-4.441.236c-.197.117-.197.196-.04.235.275-.235.55-.274.904.079 0-.51.197-.471.63.157-.158-.628 0-.785.667.156 0-.51.04-.588.472.275.118.157.236.157.275.079-.235-.902-.118-.863.393.078.157.197.236.197.236.079-.04-.628.236-.51.825.353.158.196.236.274.276.078-.118-.51.117-.47.629.157.393-.039.943.275 1.65.902.08.118.158.157.236.118-.393-.706.079-.431.708 0 .393-.196.432-.314.196-.392-1.336-.47-2.437-.98-3.223-1.57-.904-.706-1.297-.51-2.358-1.177-.904-.392-1.73-.196-2.477.393zm-1.927 1.255c-.471.157-.471.353-.039.432.197.04.354.04.511 0 .275-.04.393 0 .511.235.197.393.432.55.629.432.118-.118-.747-.746-.314-.746h.235c.669.628 1.298.981 1.258.863l-.275-.706c-.078-.235.275-.117.432.04l.905.784c.117.157 0-.118-.158-.627-.078-.158.158-.158.315 0 .55.549 1.218 1.49 1.218 1.137v-.353c0-.157.197-.157.315 0 .314.392.746.746.707.589l-.078-.314c-.04-.196.117-.196.353 0l.944.785c.196.156.354.078.275-.04l-.157-.235c-.118-.196-.04-.236.196-.079l.826.589c.157.118.157-.04-.08-.392h.473c.078.274.275.353.747.549.117.078.157-.079.392-.157l1.14-.353c.354-.118.315-.353 0-.275-1.65.432-3.38-.392-5.227-1.412-2.437-1.295-4.403-1.295-6.053-.746zm16.195.902c.078.079 0 .197-.118.354-.118.117-.275.156-.354.117-.04-.078 0-.235.118-.353.157-.117.275-.157.354-.117zm1.258.314c-.276-.196-.393.275.078.118l.668-.588c.315-.55.118.157.315.117.236-.078.59-.784.51-1.059l.551-.275c.315-.274.236-.392-.197-.353-.51.393-1.021.824-1.454 1.413l-.471.627z" fill="#0092D0"/></svg>