<svg width="30" height="30" fill="none" xmlns="http://www.w3.org/2000/svg"><path d="M25.64 24.052c-.38-.694.106-1.397.933-2.27 1.313-1.384 2.742-4.593 1.416-7.853.007-.019-.263-.567-.253-.586l-.549-.028c-.176-.026-6.178-.038-12.187-.038-6.01 0-12.012.012-12.188.038 0 0-.808.595-.801.612-1.327 3.26.103 6.468 1.415 7.854.828.871 1.313 1.577.933 2.268-.368.673-1.467.771-1.467.771s.253.69.865 1.06c.565.342 1.258.424 1.739.436 0 0 1.875 2.594 6.778 2.594h5.456c4.903 0 6.778-2.594 6.778-2.594.48-.012 1.175-.092 1.74-.436.611-.37.864-1.06.864-1.06s-1.101-.096-1.472-.768z" fill="#AB872F"/><path d="M14.998 28.913v-2.88l8.714-.69.792.975s-1.875 2.595-6.778 2.595h-2.728z" fill="url(#paint0_radial_34:4037)"/><path d="M24.483 25.062c-1.306-1.983 1.589-2.721 1.589-2.721l.002.002c-.504.626-.731 1.172-.436 1.709.368.672 1.467.77 1.467.77s-1.495 1.332-2.622.24z" fill="url(#paint1_radial_34:4037)"/><path d="M27.997 13.927c1.296 3.157-.069 6.407-1.346 7.779-.176.187-.919.918-1.087 1.5 0 0-2.911-4.058-3.779-6.444-.175-.48-.335-.977-.356-1.488-.016-.384.045-.841.265-1.167.272-.4 6.148-.518 6.148-.518 0 .005.155.338.155.338z" fill="url(#paint2_radial_34:4037)"/><path d="M2.01 13.927c-1.293 3.157.069 6.407 1.346 7.779.176.187.919.918 1.088 1.5 0 0 2.91-4.058 3.778-6.444.176-.48.335-.977.356-1.488.016-.384-.045-.841-.265-1.167-.272-.4-.588-.293-1.048-.293-.878 0-4.722-.225-5.02-.225 0 .005-.234.338-.234.338z" fill="url(#paint3_radial_34:4037)"/><path d="M15.01 28.913v-2.88l-8.715-.69-.792.975s1.875 2.595 6.778 2.595h2.728z" fill="url(#paint4_radial_34:4037)"/><path d="M5.524 25.062c1.305-1.983-1.589-2.721-1.589-2.721l-.002.002c.504.626.73 1.172.436 1.709-.368.672-1.468.77-1.468.77s1.496 1.332 2.623.24z" fill="url(#paint5_radial_34:4037)"/><path d="M23.332 15.087H6.668c-1.798 0-3.268 1.565-3.268 3.48s1.47 3.48 3.268 3.48h16.666c1.798 0 3.267-1.565 3.267-3.48s-1.472-3.48-3.27-3.48z" fill="#C48E6A"/><path d="M15 3.082c-5.307 0-10.222 5.674-10.222 13.842 0 8.124 5.065 12.139 10.221 12.139 5.157 0 10.222-4.015 10.222-12.139 0-8.165-4.915-13.842-10.222-13.842z" fill="#E0BB95"/><path d="M16.176 20.459a.38.38 0 00-.098-.026H13.92a.38.38 0 00-.098.026c-.194.08-.302.28-.21.497.093.215.522.82 1.387.82.864 0 1.293-.605 1.387-.82.094-.216-.014-.418-.21-.497z" fill="#C48E6A"/><path d="M17.566 22.9c-.97.577-4.155.577-5.125 0-.558-.332-1.128.177-.896.683.228.497 1.964 1.654 3.467 1.654 1.502 0 3.215-1.155 3.445-1.654.23-.506-.333-1.013-.89-.682z" fill="#6D4C41"/><path d="M10.055 19.167c.818 0 1.48-.687 1.48-1.535 0-.848-.662-1.535-1.48-1.535-.819 0-1.482.687-1.482 1.535 0 .848.663 1.535 1.482 1.535zm9.89 0c.818 0 1.481-.687 1.481-1.535 0-.848-.663-1.535-1.48-1.535-.819 0-1.482.687-1.482 1.535 0 .848.663 1.535 1.481 1.535z" fill="#5D4037"/><path d="M12.255 14.876c-.281-.373-.935-.916-2.2-.916-1.266 0-1.92.543-2.202.916a.39.39 0 00-.007.471c.08.108.317.206.58.117.262-.089.773-.354 1.628-.358.856.007 1.369.27 1.63.358.26.09.498-.01.578-.117a.39.39 0 00-.007-.471zm9.893 0c-.282-.373-.936-.916-2.201-.916-1.266 0-1.92.543-2.201.916a.39.39 0 00-.007.471c.08.108.316.206.579.117.262-.089.773-.354 1.629-.358.855.007 1.369.27 1.629.358.262.09.499-.01.578-.117a.393.393 0 00-.006-.471z" fill="#AB872F"/><path d="M27.22 7.362c-.745-1.128-2.412-2.637-3.91-2.735-.239-1.44-1.78-2.658-3.271-3.132-4.034-1.277-6.661.155-8.07.924-.293.16-2.187 1.21-3.51.457-.83-.471-.814-1.749-.814-1.749s-2.6.99-1.711 3.75c-.893.038-2.065.413-2.684 1.667-.738 1.493-.475 2.742-.262 3.34-.769.651-1.735 2.041-1.071 3.843.499 1.357 2.491 1.98 2.491 1.98-.14 2.443.314 3.948.556 4.555.042.105.194.096.22-.014.3-1.21 1.331-5.426 1.228-6.162 0 0 3.46-.687 6.76-3.115a9.779 9.779 0 012.172-1.223c4.144-1.65 5.011 1.165 5.011 1.165s2.871-.551 3.738 3.438c.326 1.495.546 3.888.732 5.562.014.117.173.142.22.032.29-.663.87-1.982 1.008-3.325.049-.474 1.324-1.1 1.87-3.13.736-2.711-.166-5.315-.703-6.128z" fill="#AB872F"/><path d="M26.043 16.63c.05-.474 1.325-1.1 1.87-3.13a9.75 9.75 0 00.153-.656c.445-2.468-.354-4.732-.85-5.482-.69-1.04-2.166-2.407-3.568-2.686a5.056 5.056 0 00-.354-.038s.1.654-.164 1.177c-.342.677-1.038.837-1.038.837 3.654 3.654 3.393 6.71 3.951 9.977z" fill="url(#paint6_radial_34:4037)"/><path d="M12.85 1.957c-.333.162-.628.323-.884.462-.292.16-2.186 1.21-3.51.457-.816-.464-.816-1.702-.814-1.746-.375.478-1.51 3.897 1.807 4.125 1.43.098 2.313-1.149 2.834-2.206.19-.382.487-.942.567-1.092z" fill="url(#paint7_radial_34:4037)"/><path d="M19.621 1.371c2.232.605 3.321 1.74 3.685 3.258.107.445.234 4.598-7.695-.122-2.948-1.755-2.144-2.855-1.798-2.979 1.348-.49 3.307-.834 5.808-.157z" fill="url(#paint8_radial_34:4037)"/><path d="M7.633 1.13l-.018.007h-.003c-.283.12-2.515 1.15-1.68 3.736l2.374.382c-2.1-2.126-.663-4.13-.663-4.13l-.01.005z" fill="url(#paint9_radial_34:4037)"/><path d="M7.399 5.112l-1.467-.237c-.057 0-.253.019-.359.033-.825.115-1.8.541-2.325 1.636-.567 1.176-.55 2.186-.398 2.861.044.228.136.48.136.48s.726-.688 2.453-.733l1.96-4.04z" fill="url(#paint10_radial_34:4037)"/><path d="M2.915 9.942c-.722.642-1.697 2.072-.977 3.844.541 1.338 2.468 1.92 2.468 1.92 0 .007.384.119.583.119l.45-6.677c-.923 0-1.809.276-2.383.675.005.014-.143.11-.14.12z" fill="url(#paint11_radial_34:4037)"/><defs><radialGradient id="paint0_radial_34:4037" cx="0" cy="0" r="1" gradientUnits="userSpaceOnUse" gradientTransform="matrix(7.14117 0 0 3.50774 19.447 24.754)"><stop offset=".728" stop-color="#BFA055" stop-opacity="0"/><stop offset="1" stop-color="#BFA055"/></radialGradient><radialGradient id="paint1_radial_34:4037" cx="0" cy="0" r="1" gradientUnits="userSpaceOnUse" gradientTransform="rotate(154.924 10.606 14.79) scale(2.11021 1.56547)"><stop offset=".663" stop-color="#BFA055"/><stop offset="1" stop-color="#BFA055" stop-opacity="0"/></radialGradient><radialGradient id="paint2_radial_34:4037" cx="0" cy="0" r="1" gradientUnits="userSpaceOnUse" gradientTransform="matrix(-.6915 -9.24358 7.70392 -.57633 21.012 17.722)"><stop offset=".725" stop-color="#BFA055" stop-opacity="0"/><stop offset="1" stop-color="#BFA055"/></radialGradient><radialGradient id="paint3_radial_34:4037" cx="0" cy="0" r="1" gradientUnits="userSpaceOnUse" gradientTransform="matrix(.6915 -9.24358 7.70392 .57633 8.995 17.722)"><stop offset=".725" stop-color="#BFA055" stop-opacity="0"/><stop offset="1" stop-color="#BFA055"/></radialGradient><radialGradient id="paint4_radial_34:4037" cx="0" cy="0" r="1" gradientUnits="userSpaceOnUse" gradientTransform="matrix(-7.14117 0 0 -3.50774 10.56 24.754)"><stop offset=".728" stop-color="#BFA055" stop-opacity="0"/><stop offset="1" stop-color="#BFA055"/></radialGradient><radialGradient id="paint5_radial_34:4037" cx="0" cy="0" r="1" gradientUnits="userSpaceOnUse" gradientTransform="matrix(1.91131 .89435 -.66348 1.41792 3.526 23.691)"><stop offset=".663" stop-color="#BFA055"/><stop offset="1" stop-color="#BFA055" stop-opacity="0"/></radialGradient><radialGradient id="paint6_radial_34:4037" cx="0" cy="0" r="1" gradientUnits="userSpaceOnUse" gradientTransform="matrix(3.34218 10.3384 -7.67086 2.47982 20.494 12.832)"><stop offset=".699" stop-color="#BFA055" stop-opacity="0"/><stop offset="1" stop-color="#BFA055"/></radialGradient><radialGradient id="paint7_radial_34:4037" cx="0" cy="0" r="1" gradientUnits="userSpaceOnUse" gradientTransform="matrix(2.51068 1.34636 -1.59639 2.97693 9.9 .985)"><stop offset=".58" stop-color="#BFA055"/><stop offset="1" stop-color="#BFA055" stop-opacity="0"/></radialGradient><radialGradient id="paint8_radial_34:4037" cx="0" cy="0" r="1" gradientUnits="userSpaceOnUse" gradientTransform="rotate(-157.19 8.755 1.439) scale(8.90992 5.00741)"><stop offset=".699" stop-color="#BFA055" stop-opacity="0"/><stop offset="1" stop-color="#BFA055"/></radialGradient><radialGradient id="paint9_radial_34:4037" cx="0" cy="0" r="1" gradientUnits="userSpaceOnUse" gradientTransform="matrix(2.61492 0 0 3.19883 8.758 3.584)"><stop offset=".702" stop-color="#BFA055" stop-opacity="0"/><stop offset="1" stop-color="#BFA055"/></radialGradient><radialGradient id="paint10_radial_34:4037" cx="0" cy="0" r="1" gradientUnits="userSpaceOnUse" gradientTransform="rotate(-164.942 4.74 3.545) scale(4.90448 4.5897)"><stop offset=".66" stop-color="#BFA055" stop-opacity="0"/><stop offset="1" stop-color="#BFA055"/></radialGradient><radialGradient id="paint11_radial_34:4037" cx="0" cy="0" r="1" gradientUnits="userSpaceOnUse" gradientTransform="matrix(5.1011 .7018 -.98615 7.16788 7.235 12.935)"><stop offset=".598" stop-color="#BFA055" stop-opacity="0"/><stop offset="1" stop-color="#BFA055"/></radialGradient></defs></svg>