<svg width="47" height="47" fill="none" xmlns="http://www.w3.org/2000/svg"><path d="M46.4 43.636l-11.229-11.23a1.984 1.984 0 00-1.385-.594c-.544 0-1.039.198-1.385.593-3.117 3.216-7.321 4.948-11.773 4.948-9.201 0-16.72-7.52-16.72-16.723 0-9.202 7.519-16.722 16.77-16.722 9.2 0 16.67 7.52 16.67 16.723 0 1.78-.297 3.512-.841 5.194a1.937 1.937 0 001.236 2.474 1.936 1.936 0 002.474-1.237 20.36 20.36 0 001.038-6.431C41.255 9.25 32.005 0 20.628 0 9.25 0 0 9.252 0 20.63c0 11.38 9.25 20.631 20.628 20.631 4.897 0 9.497-1.682 13.158-4.75l9.893 9.895c.396.396.89.594 1.386.594.494 0 .989-.198 1.385-.594.741-.742.741-1.979-.05-2.77z" fill="#B9C4CA"/><path d="M16 16l10 10m-10 0l10-10" stroke="#B9C4CA" stroke-width="4" stroke-linecap="round" stroke-linejoin="round"/></svg>