<svg width="523" height="489" viewBox="0 0 523 489" fill="none" xmlns="http://www.w3.org/2000/svg">
<path d="M170.025 443.532C169.455 438.695 141.73 439.595 141.73 439.595C141.73 439.595 134.512 404.825 125.955 381.032C118.095 359.17 107.308 340.84 108.928 326.859C111.759 326.149 114.671 325.299 117.662 324.26C117.662 324.26 115.761 291.875 112.593 264.318C125.931 267.611 139.541 267.355 145.644 263.864C154.979 258.516 160.441 229.573 159.984 211.095H143.134C143.134 211.095 135.162 238.932 131.521 240.046C128.505 240.97 116.283 237.001 106.867 231.438C100.018 212.151 84.0984 216.632 77.113 232.074C69.5341 248.836 56.0204 300.73 56.0204 323.946C56.0204 323.946 58.8675 325.382 63.9842 326.834C64.7622 331.142 66.2539 336.746 69.0769 342.911C59.8299 366.094 31.399 436.327 31.8481 439.611C31.9443 440.313 32.4817 441.039 33.3158 441.757C30.7574 445.941 26.8837 452.717 27.806 454.896C29.1373 458.057 60.3191 466.244 72.1085 463.636C83.8979 461.028 75.7175 456.382 64.8825 452.668C57.6805 450.2 53.0129 448.789 50.5106 446.816C54.4565 443.944 78.9415 397.439 88.4613 374.528C101.927 398.726 117.662 433.504 124.263 445.471C124.279 445.537 124.311 445.595 124.351 445.628C124.96 446.156 127.054 459.724 132.379 459.542C137.696 459.344 170.594 448.368 170.025 443.532Z" fill="#A6A6A6"/>
<path d="M131.072 228.97C131.072 228.97 118.216 262.205 113.933 264.244C109.65 266.282 78.0112 232.024 78.0112 232.024C78.0112 232.024 68.4514 224.902 67.1361 239.823C65.8208 254.744 80.321 276.45 80.321 276.45C80.321 276.45 98.1174 290.018 113.941 286.287C129.764 282.557 146.903 229.647 146.903 229.647L131.072 228.97Z" fill="#525252"/>
<path d="M122.506 227.617C122.506 227.617 140.96 253.729 159.751 229.994L122.506 227.617Z" fill="#F4D9BF"/>
<path d="M352.88 443.532C352.311 438.695 324.586 439.595 324.586 439.595C324.586 439.595 317.368 404.825 308.81 381.032C300.951 359.17 290.164 340.84 291.784 326.859C294.615 326.149 297.526 325.299 300.518 324.26C300.518 324.26 298.617 291.875 295.449 264.318C308.786 267.611 322.396 267.355 328.499 263.864C337.835 258.516 343.296 229.573 342.839 211.095H325.989C325.989 211.095 318.017 238.932 314.376 240.046C311.361 240.97 299.138 237.001 289.723 231.438C282.874 212.151 266.954 216.632 259.968 232.074C252.39 248.836 238.876 300.73 238.876 323.946C238.876 323.946 241.723 325.382 246.84 326.834C247.618 331.142 249.109 336.746 251.932 342.911C242.685 366.094 214.254 436.327 214.704 439.611C214.8 440.313 215.337 441.039 216.171 441.757C213.613 445.941 209.739 452.717 210.661 454.896C211.993 458.057 243.175 466.244 254.964 463.636C266.753 461.028 258.573 456.382 247.738 452.668C240.536 450.2 235.868 448.789 233.366 446.816C237.312 443.944 261.797 397.439 271.317 374.528C284.782 398.726 300.518 433.504 307.118 445.471C307.134 445.537 307.166 445.595 307.206 445.628C307.816 446.156 309.909 459.724 315.234 459.542C320.552 459.344 353.45 448.368 352.88 443.532Z" fill="#A6A6A6"/>
<path d="M313.927 228.97C313.927 228.97 301.071 262.205 296.788 264.244C292.506 266.282 260.867 232.024 260.867 232.024C260.867 232.024 251.307 224.902 249.992 239.823C248.676 254.744 263.176 276.45 263.176 276.45C263.176 276.45 280.973 290.018 296.796 286.287C312.62 282.557 329.759 229.647 329.759 229.647L313.927 228.97Z" fill="#525252"/>
<path d="M305.361 227.617C305.361 227.617 323.815 253.729 342.606 229.994L305.361 227.617Z" fill="#F4D9BF"/>
<path d="M494.698 439.603C494.698 439.603 487.48 404.833 478.923 381.04C471.063 359.178 460.276 340.848 461.896 326.867C464.727 326.158 467.638 325.308 470.63 324.268C470.63 324.268 468.729 291.883 465.561 264.326C478.898 267.619 492.508 267.363 498.612 263.872C504.907 260.266 509.439 245.939 511.58 231.323C511.331 230.539 511.195 229.664 511.195 228.698V211.095H496.101C496.101 211.095 488.13 238.932 484.488 240.046C481.473 240.97 469.25 237.001 459.835 231.438C452.986 212.151 437.066 216.632 430.081 232.074C422.502 248.836 408.988 300.73 408.988 323.946C408.988 323.946 411.835 325.382 416.952 326.834C417.73 331.142 419.222 336.746 422.045 342.911C412.798 366.094 384.367 436.327 384.816 439.611C384.912 440.313 385.449 441.039 386.284 441.757C383.725 445.941 379.851 452.717 380.774 454.896C382.105 458.057 413.287 466.244 425.076 463.636C436.866 461.028 428.685 456.382 417.85 452.668C410.648 450.2 405.981 448.789 403.478 446.816C407.424 443.944 431.909 397.439 441.429 374.528C454.895 398.726 470.63 433.504 477.23 445.471C477.246 445.537 477.278 445.595 477.319 445.628C477.928 446.156 480.021 459.724 485.347 459.542C490.672 459.361 523.562 448.384 522.992 443.548C522.423 438.704 494.698 439.603 494.698 439.603Z" fill="#A6A6A6"/>
<path d="M484.047 228.97C484.047 228.97 471.191 262.205 466.908 264.244C462.626 266.282 430.987 232.024 430.987 232.024C430.987 232.024 421.427 224.902 420.112 239.823C418.796 254.745 433.297 276.45 433.297 276.45C433.297 276.45 451.093 290.018 466.916 286.287C482.74 282.557 499.879 229.647 499.879 229.647L484.047 228.97Z" fill="#525252"/>
<path d="M511.283 229.895L475.474 227.609C475.474 227.609 493.206 252.681 511.596 231.339C511.451 230.893 511.355 230.406 511.283 229.895Z" fill="#F4D9BF"/>
<path d="M513.256 72.0072H52.2021V79.2203H513.256V72.0072Z" fill="#2A3A49"/>
<path d="M511.492 82.8516H53.9512V233.295H511.492V82.8516Z" fill="#394C5F"/>
<path d="M513.593 72.5354H51.8574L79.5264 47.8837H493.062L513.593 72.5354Z" fill="#394C5F"/>
<path d="M489.389 106.414H76.0625V208.495H489.389V106.414Z" fill="#2A3A49"/>
<path d="M482.612 116.152H82.8467V198.756H482.612V116.152Z" fill="#48586E"/>
<path d="M516.248 78.5764H49.2109V94.8431H516.248V78.5764Z" fill="#48586E"/>
<path d="M363.499 12.6516C358.654 12.8992 353.522 15.7465 349.44 18.2307C347.138 19.6254 344.932 21.2843 342.863 23.0091C341.708 23.9665 340.674 25.0559 339.647 26.1535C339.238 26.5992 338.773 27.0036 338.348 27.4327C338.316 27.4657 338.292 27.5153 338.26 27.5483C338.163 27.5318 338.067 27.5648 338.043 27.6803C337.995 27.9362 337.602 28.225 337.442 28.4231C337.073 28.877 336.712 29.3392 336.343 29.8013C336.166 30.0242 335.974 30.28 335.79 30.5441C335.308 30.6019 334.827 30.6679 334.346 30.7257C333.68 30.8082 333.817 31.9141 334.466 31.9141C334.667 31.9141 334.859 31.9059 335.052 31.8976C334.98 32.1122 334.923 32.3268 334.907 32.5413C334.883 32.8632 335.324 33.086 335.541 32.8302C335.814 32.5166 335.982 32.1865 336.15 31.8398C342.085 31.3859 347.37 28.745 352.383 25.4025C354.893 23.7271 357.331 21.8537 359.577 19.8235C361.293 18.2719 363.651 15.8951 364.084 13.4852C364.14 13.1056 363.94 12.6269 363.499 12.6516Z" fill="#3B9B45"/>
<path d="M386.652 32.8879C379.065 29.7105 370.043 31.097 362.761 34.4477C356.746 37.2207 352.415 42.2881 349.215 48.0487C349.151 48.0899 349.103 48.1559 349.087 48.255C349.087 48.2632 349.087 48.2715 349.087 48.2797C348.317 49.6827 347.619 51.1188 346.977 52.5795C346.689 53.2398 347.795 53.7515 348.1 53.0995C348.669 51.8533 349.287 50.6236 349.953 49.4352C350.065 49.4929 350.169 49.5424 350.273 49.592C350.691 49.79 351.132 49.8973 351.565 50.0541C352.094 50.244 352.575 50.4998 353.145 50.376C353.249 50.3512 353.305 50.2935 353.353 50.2109C359.248 51.0362 365.816 48.0404 370.46 44.8135C373.347 42.8163 376.01 40.4889 378.825 38.3927C380.308 37.295 381.969 36.4285 383.605 35.6032C384.695 35.0585 385.979 34.7861 386.909 33.9773C387.302 33.639 387.061 33.0612 386.652 32.8879Z" fill="#3B9B45"/>
<path d="M212.185 38.921C211.576 38.9045 210.974 38.8797 210.381 38.8385C209.916 36.6349 208.681 34.3736 207.798 32.4919C206.379 29.4466 204.141 27.1852 201.551 25.1798C196.322 21.1276 190.315 19.1881 183.851 18.6434C183.362 18.6021 182.953 19.2459 183.233 19.6833C186.57 24.8414 189.449 30.4452 194.293 34.3901C198.928 38.1617 204.198 40.0104 209.932 40.2085C209.964 40.3322 209.996 40.4643 210.028 40.5963C210.092 40.9182 210.573 40.8604 210.581 40.5386C210.581 40.4395 210.565 40.3322 210.565 40.225C211.095 40.2332 211.624 40.2332 212.161 40.2085C212.947 40.1754 213.003 38.9375 212.185 38.921Z" fill="#3B9B45"/>
<path d="M211.135 46.7366C211.135 46.7366 211.127 46.7448 211.135 46.7366C209.37 44.0626 206.459 42.2139 203.764 40.6789C200.187 38.6321 196.161 37.2209 192.127 36.5359C188.238 35.8757 184.3 36.1645 180.506 37.1879C178.686 37.6831 176.977 38.5414 175.381 39.5565C174.507 40.1094 172.935 40.5881 172.655 41.7105C172.446 42.5358 173.858 43.4519 174.307 43.8975C175.75 45.3583 177.338 46.6045 179.023 47.7517C182.391 50.0378 186.385 51.2262 190.275 52.1918C194.212 53.1657 198.254 53.2564 202.152 52.0928C205.023 51.2345 208.416 50.2028 210.758 48.0901C211.167 48.2469 211.672 47.8095 211.495 47.3473C211.528 47.3143 211.568 47.2813 211.6 47.2483C211.88 46.9099 211.447 46.4147 211.135 46.7366Z" fill="#3B9B45"/>
<path d="M370.204 55.3444C368.319 51.9937 363.964 49.1464 360.419 47.7351C358.791 47.0914 357.131 46.7943 355.463 46.7613C357.356 45.7627 359.288 44.8631 361.406 44.1451C363.05 43.5921 364.726 43.1877 366.434 42.9071C367.309 42.7668 368.608 43.0144 369.418 42.5275C369.755 42.3294 369.915 41.8095 369.578 41.5206C366.859 39.1768 363.355 38.2937 359.778 38.4258C362.753 36.3955 365.729 34.1507 367.798 31.2126C368.135 30.7257 367.621 30.115 367.068 30.2388C362.336 31.2869 358.061 33.1191 353.955 35.4877C355.23 33.9774 356.201 32.3351 356.586 30.6184C356.674 30.2305 356.425 29.6858 355.928 29.7271C354.051 29.9087 352.287 30.3543 350.563 30.932C350.691 30.8 350.827 30.6762 350.948 30.5442C353.217 28.2333 356.193 25.4438 356.433 22.0766C356.465 21.5979 355.984 21.3091 355.551 21.3833C352.407 21.9033 349.143 22.9184 346.264 24.4782C347.114 23.4796 347.94 22.4727 348.71 21.4246C349.384 20.5168 351.228 18.2555 350.908 16.9845C350.314 14.6324 344.804 17.4384 343.569 18.0079C341.043 19.1633 338.292 20.8387 336.047 22.8441C336.223 22.2582 336.383 21.6639 336.496 21.0532C337.169 17.5787 335.934 14.3601 334.435 11.2817C334.154 10.6957 333.384 10.9268 333.167 11.4055C332.061 13.8979 329.967 16.1757 328.147 18.1812C327.497 18.8992 326.735 19.6337 326.014 20.4095C325.949 15.7548 324.53 11.1662 321.394 7.43581C321.049 7.03142 320.472 7.28726 320.295 7.6834C319.397 9.71363 318.796 11.8346 317.905 13.8649C317.328 15.1854 316.678 16.4811 316.061 17.7933C316.205 14.6654 315.988 11.521 315.459 8.54996C315.395 8.20334 315.058 8.02177 314.737 7.98876C311.818 7.6669 308.297 9.06165 305.651 10.1098C302.026 11.554 299.307 13.6255 296.299 15.8786C296.724 14.847 297.085 13.7906 297.366 12.7012C297.607 11.7604 298.689 5.68618 296.275 6.12359C292.45 6.80858 288.793 9.69713 285.889 12.074C285.408 12.4701 284.903 12.9075 284.398 13.3697C285.849 9.73839 286.371 5.85124 285.28 1.9971C285.184 1.65047 284.839 1.44415 284.478 1.52668C282.393 1.97234 280.5 3.47438 278.864 4.74534C276.506 6.58575 274.252 8.51695 272.312 10.7783C271.63 11.5706 270.972 12.4289 270.331 13.3037C270.796 11.2074 271.076 9.07815 271.149 6.92413C271.205 5.27353 271.445 2.55005 270.651 1.00674C270.026 -0.206449 269.015 0.329995 268.005 0.84168C263.899 2.93794 260.482 6.42069 257.675 9.93646C256.183 11.8016 254.836 13.7658 253.825 15.8621C253.537 15.2019 253.24 14.5499 252.943 13.9144C251.468 10.737 249.118 6.8581 246.222 4.71233C245.846 4.43173 245.204 4.68757 245.092 5.12498C244.097 9.12767 244.282 12.8993 245.132 16.6874C245.052 16.5719 244.987 16.4481 244.907 16.3408C243.985 14.9873 242.726 13.8236 241.547 12.6847C240.761 11.9254 239.975 10.7783 238.836 10.5637C238.323 10.4647 237.954 10.737 237.882 11.2322C237.481 13.7989 237.32 17.3641 238.01 20.5085C237.152 19.6997 236.254 18.9405 235.371 18.2555C231.538 15.2596 226.846 13.0809 221.906 13.1139C221.336 13.1221 220.839 13.7493 221.184 14.2693C222.283 15.9446 223.646 17.4797 224.753 19.1798C225.499 20.327 226.116 21.5567 226.694 22.7946C226.349 22.481 225.996 22.1756 225.643 21.8785C223.446 20.0381 220.815 17.7438 218.104 16.7039C217.615 16.5141 217.126 16.9515 217.094 17.4054C216.909 20.393 217.383 24.0656 218.722 27.1852C218.265 26.7725 217.816 26.3681 217.391 25.9803C215.153 23.9335 212.45 21.3586 209.579 20.1784C209.226 20.0299 208.721 20.3022 208.641 20.6653C207.606 25.2953 207.783 31.0146 209.419 35.8838C206.957 33.0696 203.821 30.833 201.07 28.2333C200.685 27.8702 199.811 28.0435 199.875 28.679C200.164 31.4437 200.95 34.1672 202.241 36.6266C201.134 35.628 199.803 35.2153 198.399 34.5799C195.712 33.3667 192.128 32.7807 189.176 32.9128C188.559 32.9375 188.158 33.5152 188.446 34.0764C190.09 37.2786 192.16 40.357 194.814 42.709C193.531 42.7833 192.264 42.9731 190.981 43.3775C187.436 44.5 184.493 47.339 182.407 50.2028C181.966 50.8052 182.64 51.4325 183.265 51.3499C187.075 50.83 190.9 50.7144 194.758 50.9043C195.159 50.9208 195.536 50.9785 195.913 51.0281C192.488 52.4971 189.738 54.6511 187.059 57.2591C186.642 57.6634 186.826 58.2824 187.348 58.4722C194.951 61.2783 203.957 60.651 211.712 58.7694C217.142 57.4571 222.628 56.2439 226.934 53.2068C225.659 55.105 223.325 58.0018 221.08 58.7116C220.486 58.8931 220.39 59.7432 221.04 59.933C225.33 61.1627 230.327 59.867 234.209 58.0183C235.893 57.2178 237.537 56.3512 239.053 55.3526C239.325 56.4255 239.742 57.4654 240.304 58.5135C240.945 59.7019 241.86 60.7666 242.758 61.7734C243.255 62.3264 244.338 63.8367 245.244 63.8532C245.605 63.8614 246.014 63.6138 246.142 63.292C246.864 61.4351 247.586 59.7349 248.645 58.0183C249.575 56.5163 250.417 55.006 251.203 53.4627C251.604 54.5933 252.213 55.6827 252.903 56.7886C254.483 59.2975 256.416 60.7336 258.87 62.2934C259.263 62.541 259.784 62.2439 259.808 61.8064C259.889 59.933 260.546 58.0926 260.843 56.2357C261.051 54.907 261.084 53.5205 260.963 52.1587C262.279 53.9909 264.139 55.6085 265.687 56.8382C268.735 59.248 272.223 61.4103 276.193 61.955C276.594 62.0128 276.955 61.5424 276.835 61.1792C276.281 59.5039 276.145 57.7542 275.8 56.0376C277.685 57.8698 280.227 59.314 282.088 60.4447C285.745 62.673 290.87 64.629 295.289 64.142C295.666 64.1008 295.987 63.5891 295.85 63.2425C295.177 61.5424 294.142 59.7927 293.011 58.1421C293.035 58.1504 293.051 58.1669 293.075 58.1834C295.145 59.3553 297.446 60.2136 299.676 61.0224C302.146 61.922 304.608 62.5822 307.191 63.0857C308.827 63.3993 310.96 63.9192 312.588 63.5891C313.149 63.4735 313.334 62.7638 312.957 62.3759C311.642 61.0142 310.358 59.5616 309.027 58.1421C313.198 60.5437 318.122 61.9467 322.87 62.1531C323.198 62.1696 323.503 61.9467 323.607 61.6414C323.976 60.4942 323.495 58.8271 323.319 57.6387C323.142 56.475 322.814 55.3196 322.388 54.1972C322.653 54.5933 322.934 54.9977 323.215 55.3939C324.025 56.5245 324.899 57.6139 325.757 58.7116C326.423 59.5616 327.032 60.7253 328.115 61.0637C328.387 61.1462 328.756 61.0389 328.893 60.7831C329.831 59.0334 330.272 56.7721 330.184 54.5191C331.499 55.7653 332.943 56.8877 334.426 58.0266C337.177 60.1311 339.896 60.9316 343.176 61.9798C343.706 62.1531 344.115 61.6661 344.042 61.1875C343.834 59.9413 343.04 58.6868 342.559 57.5066C342.262 56.7886 341.949 56.0789 341.612 55.3856C342.495 55.9963 343.401 56.5576 344.243 57.1188C347.339 59.1737 351.413 60.8326 355.15 61.2452C355.631 61.2948 355.992 60.7831 355.888 60.3539C355.375 58.3567 354.356 56.3017 352.985 54.4861C355.663 54.1642 358.35 54.1559 361.069 54.288C363.058 54.387 364.927 54.8162 366.819 55.3939C367.79 55.691 368.544 56.3182 369.554 56.4255C370.107 56.4668 370.46 55.79 370.204 55.3444Z" fill="#78B946"/>
<path d="M351.894 40.9513C350.924 40.8853 349.849 41.2484 348.822 41.2979C347.154 41.3722 345.422 41.3392 343.714 41.1659C345.085 39.5731 346.408 37.8152 347.29 36.0243C347.547 35.5043 347.17 34.7533 346.488 34.9514C345.237 35.3063 344.01 35.6942 342.783 36.0655C343.345 35.0257 343.914 33.9858 344.483 32.9542C344.86 32.2609 346.641 29.8511 345.686 29.001C344.668 28.0932 342.342 29.3229 341.259 29.686C340.137 30.0574 339.07 30.5691 338.035 31.1468C338.861 29.7355 339.8 28.3077 340.137 26.7067C340.201 26.3931 340.121 26.0877 339.832 25.9144C338.589 25.1634 336.993 26.7975 336.038 27.4742C333.865 29.034 331.684 30.7011 329.286 31.9638C329.47 31.642 329.655 31.3036 329.823 30.9652C330.954 28.7534 332.237 25.5843 331.475 23.1001C331.339 22.6627 330.801 22.4977 330.44 22.803C328.62 24.3793 327.24 26.261 325.227 27.6723C323.736 28.7204 322.011 30.3215 320.199 31.2128C320.456 30.4123 320.632 29.6117 320.688 28.8194C320.824 26.9625 320.816 25.1221 320.664 23.2652C320.56 22.0602 320.696 20.781 319.886 19.7742C319.766 19.6174 319.461 19.5266 319.269 19.6009C317.416 20.2941 316.085 22.4399 314.753 23.7686C313.534 24.9818 312.283 26.1702 310.96 27.2679C310.888 26.0547 310.783 24.8415 310.679 23.6531C310.535 21.9364 310.15 20.2528 309.909 18.5445C309.757 17.4468 309.981 16.1016 309.46 15.0782C309.332 14.8306 308.971 14.6573 308.69 14.7481C304.159 16.2667 300.085 18.7095 296.756 21.9447C296.901 20.9626 296.933 19.9392 296.572 19.0644C296.46 18.7921 296.059 18.726 295.818 18.8498C294.278 19.6669 292.971 20.8718 291.776 22.1675C292.001 20.6325 292.273 19.0974 292.49 17.5624C292.626 16.6215 292.899 15.5569 292.105 14.8719C291.888 14.6903 291.56 14.5748 291.287 14.7481C288.889 16.2914 286.467 17.8017 284.157 19.4771C282.681 20.5499 281.109 21.6476 279.947 23.0341C279.995 22.6875 280.035 22.3408 280.083 21.9942C280.588 18.5115 281.703 14.8636 281.783 11.3479C281.791 10.8444 281.254 10.5638 280.813 10.7702C277.099 12.4868 274.052 16.2419 271.165 19.0149C269.817 20.3106 267.082 22.4894 265.992 24.6517C266.016 23.521 266.096 22.3904 266.16 21.301C266.305 21.0946 266.441 20.8801 266.585 20.6737C266.85 20.2941 266.601 19.865 266.248 19.6999C266.377 16.7453 267.355 13.8238 267.564 10.8609C267.588 10.5721 267.355 10.2337 267.05 10.1677C265.47 9.82933 263.433 12.0989 262.214 12.982C259.897 14.6491 257.771 16.605 255.983 18.8003C255.077 19.9227 254.226 21.0946 253.424 22.2996C252.783 20.9378 252.27 19.3615 252.069 18.1236C251.965 17.4716 251.299 16.1181 250.569 15.92C250.248 15.8375 249.984 15.9613 249.791 16.2006C249.078 17.1002 249.013 18.6022 248.749 19.6751C248.364 21.2019 247.987 22.737 247.642 24.272C246.696 22.5059 245.805 20.6985 244.739 19.0149C244.137 18.0658 242.429 17.6119 242.301 19.1469C242.132 21.1194 241.114 23.2652 240.592 25.1881C240.32 26.2032 240.095 27.2184 239.903 28.25C239.004 27.2184 238.082 26.2115 237.128 25.2541C234.914 23.0589 232.035 18.8003 228.546 18.7425C227.945 18.7343 227.568 19.3533 227.841 19.8649C229.749 23.4302 231.466 27.2018 231.081 31.3283C230.976 31.2623 230.872 31.2045 230.768 31.1385C228.883 29.9583 227.095 28.6131 225.37 27.2184C224.344 26.3848 223.51 25.2789 222.355 24.6104C221.769 24.2638 221.168 24.7837 221.256 25.3862C221.681 28.1674 222.427 30.8744 222.636 33.6969C222.636 33.7382 222.66 33.7795 222.668 33.8125C221.994 33.3998 221.328 32.9789 220.655 32.5745C219.243 31.7162 217.719 30.99 216.348 30.0821C215.546 29.5539 214.744 29.0505 213.749 29.0505C213.26 29.0505 212.875 29.4879 212.996 29.9666C213.645 32.6075 215.402 34.9596 216.188 37.6006C216.019 37.6254 215.859 37.6501 215.69 37.6831C212.875 38.2113 210.213 39.1191 207.574 40.2003C205.906 40.8853 203.131 41.7601 201.944 43.1466C201.575 43.5675 201.703 44.4753 202.441 44.4176C206.211 44.1205 209.86 43.8811 213.605 43.8976C211.913 45.0861 210.309 46.3818 208.697 47.661C207.189 48.8577 204.783 50.5495 204.19 52.4312C204.037 52.9016 204.414 53.5041 204.96 53.4793C206.042 53.4216 206.949 52.7283 207.767 52.0928C209.98 50.3845 212.923 49.1135 215.554 48.1727C217.96 47.3144 220.486 46.7779 222.997 46.3157C222.307 46.9017 221.513 47.2979 221.425 48.2387C221.385 48.7091 221.866 48.9815 222.291 48.9237C225.475 48.4368 228.851 47.1163 231.995 45.8866C231.409 47.7435 230.88 49.683 231.073 51.4161C231.329 53.7187 233.415 52.9842 234.754 52.002C237.376 50.0791 239.622 47.5124 241.771 45.0365C242.597 48.7256 244.057 53.3143 245.837 51.936C247.193 50.8796 247.722 49.1795 248.468 47.7105C249.326 46.0186 249.96 44.2277 250.698 42.4864C250.842 44.2773 251.195 46.0517 251.965 47.6197C252.582 48.8742 253.825 51.0777 255.582 50.7641C255.903 50.7063 256.143 50.3927 256.143 50.0874C256.207 46.4148 256.825 42.6597 257.843 38.9788C259.343 41.595 261.076 44.0544 262.768 46.5963C263.778 48.1149 265.719 52.621 268.093 52.2744C268.318 52.2414 268.526 52.0351 268.582 51.8287C269.063 50.0543 268.261 47.7518 268.117 45.9691C267.957 43.9554 267.949 41.9087 267.981 39.8784C268.149 40.0517 268.31 40.2333 268.478 40.4149C270.379 42.3956 272.303 44.3433 274.108 46.4065C276.763 49.4436 279.546 52.6128 283.588 53.8672C284.021 53.9993 284.574 53.6692 284.542 53.1987C284.446 51.6307 283.852 50.1451 283.836 48.4945C283.812 46.5221 284.269 44.4836 284.791 42.5441C286.515 44.6074 288.704 46.4313 290.605 48.2552C293.236 50.7889 295.922 53.2565 298.513 55.8397C298.994 56.3266 299.884 56.013 299.9 55.328C299.964 52.3074 299.9 49.3611 300.061 46.3818C301.552 48.2635 303.59 49.9223 305.362 51.0695C307.247 52.2826 309.348 53.1905 311.321 54.2634C312.412 54.8493 313.133 55.914 314.417 55.7406C314.761 55.6994 315.026 55.3197 315.034 54.9979C315.058 53.7022 314.834 52.423 314.745 51.1272C314.593 48.7504 314.89 46.2992 315.202 43.9471C315.21 43.8976 315.219 43.8564 315.227 43.8068C316.726 45.1603 318.09 46.7449 319.501 48.0819C321.45 49.9223 323.736 51.3831 326.102 52.6623C326.551 52.9099 327.048 52.7118 327.232 52.2496C327.922 50.5 328.444 48.7916 329.157 47.108C329.951 48.7091 330.874 50.2442 331.868 51.738C332.566 52.7861 333.608 54.3211 334.9 54.7008C335.236 54.7998 335.549 54.6513 335.75 54.3872C336.536 53.3555 336.439 51.6637 336.616 50.4422C336.776 49.2786 336.921 48.1149 337.057 46.943C337.955 48.0076 338.918 49.031 340.04 49.9636C341.059 50.8136 342.984 52.6623 344.475 52.456C344.748 52.4147 344.941 52.1258 344.957 51.8783C344.989 51.0942 344.492 50.3927 344.074 49.7572C343.28 48.5523 342.543 47.3061 341.789 46.0682C345.526 45.8618 348.886 44.0462 352.255 42.3873C352.945 41.9829 352.616 41.0008 351.894 40.9513Z" fill="#3B9B45"/>
<path d="M244.618 27.0944C243.054 27.5318 241.29 28.5716 240.352 30.0489C240.737 28.3571 240.416 26.4754 239.325 25.0889C237.898 23.2732 235.861 23.0587 233.864 23.9995C231.466 25.1302 231.642 28.1095 232.949 30.313C231.137 29.7931 229.019 30.1067 227.608 31.2869C225.683 32.8962 225.427 35.5124 227.448 37.13C228.947 38.3267 230.96 38.1369 232.757 37.3363C231.097 39.9112 230.615 43.5756 233.23 44.9043C236.614 46.6209 240.416 43.6251 241.21 40.1753C241.378 40.4312 241.563 40.6705 241.771 40.9099C243.062 42.3376 246.126 43.0391 247.738 41.8012C249.334 40.5797 250.048 37.9305 249.19 36.0241C248.829 35.2153 248.332 34.6458 247.754 34.2332C248.043 34.1342 248.332 34.0186 248.62 33.8783C250.818 32.7642 252.109 30.6844 250.722 28.3241C249.559 26.3186 246.439 26.5909 244.618 27.0944Z" fill="#FFE754"/>
<path d="M292.313 28.2168C290.356 27.3173 287.292 28.4974 285.672 30.4204C285.376 27.7217 282.793 24.7506 280.203 25.9638C277.709 27.1274 277.757 29.9665 278.992 32.1453C276.53 32.2525 273.979 33.9196 274.116 36.5441C274.236 38.7394 276.473 39.5482 278.238 39.7628C278.575 39.804 278.912 39.804 279.24 39.7875C278.735 41.4711 279.24 43.2868 281.446 43.848C283.691 44.4257 285.841 42.8411 286.555 40.8687C286.635 40.9429 286.707 41.0255 286.795 41.0997C288.199 42.2552 290.516 42.4945 291.864 41.1823C293.179 39.9031 292.538 37.3034 291.719 35.9829C291.447 35.5372 291.118 35.1906 290.765 34.91C291.736 34.6046 292.61 34.0187 293.259 33.1026C294.366 31.551 294.238 29.0999 292.313 28.2168Z" fill="#FFE754"/>
<path d="M327.593 41.5617C327.409 41.4214 327.208 41.2976 327 41.1903C327.369 40.984 327.722 40.7199 328.034 40.3816C329.069 39.2839 329.133 37.4765 328.074 36.4119C326.976 35.3142 325.34 35.6278 324.153 36.3458C323.832 36.5439 323.551 36.775 323.287 37.0391C323.238 36.3541 323.102 35.6691 322.861 35.0006C322.3 33.4408 320.512 31.5096 318.691 32.2359C316.125 33.2675 316.253 36.7833 317.648 39.1931C317.023 39.0033 316.341 38.929 315.587 38.9703C314.192 39.0363 311.144 39.7873 310.775 41.537C310.382 43.3939 311.762 44.7391 313.534 44.9124C314.866 45.0445 316.277 44.8877 317.576 44.4338C317.464 44.5823 317.352 44.7391 317.247 44.9042C316.558 45.9688 315.796 47.966 317.344 48.651C318.908 49.336 320.375 48.2466 321.442 47.1325C321.827 46.7281 322.14 46.2742 322.396 45.779C323.744 47.7762 327.04 48.6923 328.836 46.6538C330.224 45.0775 328.925 42.6016 327.593 41.5617Z" fill="#FFE754"/>
<path d="M258.052 30.9567C258.453 32.1616 259.335 32.9539 260.715 32.533C262.471 31.9965 262.872 30.2056 262.407 28.6623C263.049 28.7284 263.722 28.6376 264.388 28.3982C265.84 27.8866 266.545 26.6899 265.904 25.1713C265.094 23.2731 262.511 23.0173 260.755 23.9581C261.012 23.0998 261.012 22.1425 260.739 21.3584C260.274 20.0297 258.365 18.2801 256.889 19.0971C255.422 19.9142 254.916 22.192 255.598 23.7353C254.251 23.2154 253.336 23.6445 252.462 24.7669C251.684 25.7655 252.069 27.0943 252.783 27.9773C253.256 28.5633 253.962 28.7119 254.684 28.6211C254.531 28.7944 254.395 28.9677 254.283 29.1162C253.561 30.0818 252.887 31.6334 253.986 32.5825C254.956 33.4243 256.344 32.8796 257.186 32.1451C257.563 31.815 257.844 31.4023 258.052 30.9567Z" fill="#FFD060"/>
<path d="M267.989 41.9166C267.716 41.9991 267.323 42.1642 266.914 42.387C267.62 39.614 266.032 36.0157 262.832 36.9318C261.124 37.4187 260.49 39.581 260.739 41.1903C260.899 42.2054 261.292 43.1545 261.878 43.9551C261.236 43.7652 260.563 43.6992 259.929 43.7322C258.55 43.8148 256.745 44.9454 256.721 46.5465C256.697 48.3209 258.389 48.8656 259.841 48.9151C260.763 48.9481 261.653 48.7088 262.455 48.2961C262.054 49.3773 261.645 51.4158 263.049 51.8944C264.709 52.4639 265.808 51.1847 266.217 49.5753C266.449 49.988 266.738 50.3924 267.067 50.772C267.732 51.5396 268.968 52.1998 269.745 51.2094C270.419 50.3594 270.435 49.0637 270.171 48.0485C270.05 47.6029 269.866 47.2067 269.625 46.8519C272.192 46.9592 275.079 44.9784 273.194 42.7749C271.911 41.2563 269.721 41.3636 267.989 41.9166Z" fill="#FFD060"/>
<path d="M313.141 25.8073C313.213 25.7413 313.278 25.6918 313.342 25.6175C314.232 24.6437 313.839 23.0426 312.877 22.2916C311.04 20.8638 309.195 21.8789 308.169 23.5295C308.129 23.0013 308.016 22.4731 307.88 21.9945C307.527 20.7648 305.979 18.8913 304.536 19.2627C301.737 19.9807 302.354 23.48 303.958 25.5432C301.456 24.9985 298.649 26.0879 298.625 29.2076C298.617 31.015 301.288 31.147 302.435 31.0232C302.9 30.9737 303.365 30.8664 303.814 30.7096C303.67 31.0975 303.549 31.4936 303.493 31.9228C303.261 33.6064 303.405 35.5294 305.37 35.7522C307.279 35.9668 308.674 33.6394 309.252 32.1374C309.308 31.9888 309.348 31.8403 309.388 31.6917C309.701 32.0961 310.086 32.4345 310.599 32.6573C312.115 33.3176 313.999 32.4262 314.673 30.9737C315.427 29.3479 314.617 27.4332 313.55 26.187C313.422 26.0467 313.286 25.9229 313.141 25.8073Z" fill="#FFD060"/>
<path d="M347.09 40.6455C346.408 39.127 344.772 38.6648 343.257 38.6731C342.992 38.6731 342.767 38.7308 342.551 38.8051C342.695 38.0623 342.671 37.3113 342.214 36.6511C341.685 35.8836 340.241 35.1821 339.367 35.7102C338.429 36.2797 338.052 37.4269 338.172 38.5163C338.196 38.7226 338.236 38.9619 338.292 39.2178C337.915 38.9537 337.506 38.7391 337.057 38.5823C336.127 38.2522 334.21 38.4337 333.953 39.7047C333.681 41.0417 334.475 42.0898 335.573 42.717C336.063 42.9976 336.576 43.1627 337.097 43.2287C336.432 44.0458 335.589 45.5148 336.207 46.4556C336.945 47.5698 338.308 47.413 339.383 46.9095C340.008 46.6207 340.546 46.0595 340.931 45.4158C341.195 46.0595 341.701 46.5959 342.471 46.8765C343.313 47.1819 344.251 46.7032 344.379 45.7706C344.476 45.0774 344.331 44.3759 344.018 43.7734C344.476 43.8807 344.941 43.9137 345.39 43.8064C346.825 43.4846 347.756 42.1146 347.09 40.6455Z" fill="#FFD060"/>
<path d="M244.915 231.719L235.756 233.642C235.756 233.642 176.208 230.613 188.238 164.589C188.238 164.589 201.334 119.198 256.408 119.47C256.408 119.47 271.108 119.47 291.696 129.374C312.283 139.277 314.416 143.676 314.416 153.035C314.416 162.394 312.01 167.065 306.132 170.366C300.253 173.667 290.356 177.241 290.356 177.241L259.343 191.824L244.915 231.719Z" fill="#6A3223"/>
<path d="M301.601 163.046C301.601 163.046 310.559 198.005 290.1 222.715C279.064 236.043 246.19 242.728 235.764 233.65C235.764 233.65 245.388 220.652 246.391 206.209C246.391 206.209 234.962 214.668 231.554 198.575C228.145 182.482 244.987 177.942 250.401 200.432L252.205 200.019L254.21 181.244C254.21 181.235 287.55 174.963 301.601 163.046Z" fill="#F4D9BF"/>
<path d="M244.378 195.133C242.854 192.204 239.726 190.396 237.545 193.895C235.66 196.924 236.807 201.414 239.943 202.965C241.988 203.981 243.864 202.586 244.787 200.77C245.629 199.111 245.3 196.916 244.378 195.133Z" fill="#C69474"/>
<path d="M289.162 182.226C285.721 180.988 282.225 183.728 281.559 187.243C281.447 187.821 282.217 188.292 282.537 187.706C282.545 187.697 282.553 187.681 282.561 187.673C282.642 187.689 282.738 187.689 282.802 187.623C284.326 186.195 285.441 184.792 287.694 184.792C291.079 184.792 292.755 187.904 293.453 190.883C293.557 191.329 294.231 191.263 294.231 190.8C294.263 187.664 292.193 183.315 289.162 182.226Z" fill="#481823"/>
<path d="M290.894 198.187C290.894 200.159 289.346 201.752 287.43 201.752C285.521 201.752 283.965 200.159 283.965 198.187C283.965 196.215 285.513 194.622 287.43 194.622C289.346 194.622 290.894 196.215 290.894 198.187Z" fill="#461A00"/>
<path d="M286.09 196.809C286.09 197.213 285.778 197.535 285.385 197.535C284.992 197.535 284.679 197.213 284.679 196.809C284.679 196.404 285 196.082 285.385 196.082C285.77 196.082 286.09 196.404 286.09 196.809Z" fill="white"/>
<path opacity="0.7" d="M278.39 209.733C278.126 207.727 274.573 206.564 270.451 207.133C266.328 207.703 263.2 209.791 263.457 211.796C263.722 213.802 267.275 214.965 271.397 214.396C275.519 213.826 278.647 211.738 278.39 209.733ZM265.205 210.806C265.213 210.847 265.205 210.888 265.189 210.93C265.189 210.954 265.181 210.979 265.173 210.996C265.173 211.152 265.085 211.301 264.949 211.342C264.909 211.375 264.877 211.417 264.829 211.45C264.644 211.582 264.428 211.441 264.363 211.251C264.347 211.218 264.347 211.185 264.339 211.152C264.275 211.062 264.259 210.946 264.339 210.831C264.379 210.781 264.411 210.732 264.452 210.69C264.54 210.583 264.652 210.484 264.772 210.393C265.045 210.195 265.302 210.533 265.205 210.806ZM268.446 210.616C267.82 210.756 266.858 210.888 266.392 210.302C265.983 209.791 266.392 209.097 266.817 208.759C267.17 208.47 267.587 208.256 268.029 208.19C269.095 207.909 270.37 208.066 270.226 209.246C270.122 210.071 269.135 210.467 268.446 210.616Z" fill="#F9CBC9"/>
<path d="M281.166 224.728C279.811 223.325 277.934 222.954 276.073 223.02C274.148 223.086 272.087 223.028 270.531 224.349C270.339 224.514 270.523 224.86 270.764 224.786C274.06 223.73 277.485 223.936 280.572 225.479C281.022 225.702 281.567 225.141 281.166 224.728Z" fill="#C69474"/>
<path d="M468.673 176.696C468.673 176.696 476.428 172.017 476.957 159.365C477.495 146.713 469.202 126.906 444.34 119.198C419.478 111.498 370.556 122.771 370.019 145.879C370.019 145.879 342.213 168.988 361.734 206.679C377.75 237.62 405.78 232.404 405.78 232.404L427.771 218.786L468.673 176.696Z" fill="#3E2F28"/>
<path d="M473.382 174.154C473.301 168.79 472.515 164.795 471.689 162.072C471.649 161.899 471.625 161.808 471.625 161.808C471.625 161.808 471.617 161.816 471.609 161.816C470.695 158.886 469.772 157.492 469.772 157.492C469.772 157.492 455.312 171.398 454.061 170.267C452.802 169.136 456.419 158.952 456.419 158.952C456.419 158.952 444.477 173.345 443.066 172.693C441.654 172.05 442.753 156.361 442.753 156.361C442.753 156.361 431.597 174.955 430.186 174.311C428.774 173.667 429.4 160.727 429.4 160.727C429.4 160.727 426.256 171.72 425.63 176.251C425.005 180.781 419.503 167.197 418.244 165.092C416.985 162.988 418.557 191.287 418.557 191.287L415.317 187.846C414.819 187.235 414.306 186.682 413.785 186.22L413.528 185.948L413.488 185.973C406.855 180.377 399.172 185.964 401.578 197.32C404.987 213.414 416.415 204.954 416.415 204.954C415.413 219.397 405.789 232.396 405.789 232.396C416.215 241.474 449.089 234.789 460.124 221.46C472.916 206.019 474.208 186.567 473.382 174.154Z" fill="#F4D9BF"/>
<path d="M414.402 193.896C412.878 190.966 409.751 189.158 407.569 192.658C405.684 195.686 406.831 200.176 409.967 201.728C412.012 202.743 413.889 201.348 414.811 199.532C415.653 197.873 415.324 195.678 414.402 193.896Z" fill="#C69474"/>
<path d="M459.186 180.988C455.746 179.75 452.249 182.49 451.583 186.006C451.471 186.583 452.241 187.054 452.562 186.468C452.57 186.46 452.578 186.443 452.586 186.435C452.666 186.451 452.762 186.451 452.826 186.385C454.35 184.957 455.465 183.554 457.719 183.554C461.103 183.554 462.779 186.666 463.477 189.645C463.581 190.091 464.255 190.025 464.255 189.563C464.287 186.427 462.218 182.077 459.186 180.988Z" fill="#2C2F28"/>
<path d="M460.918 196.949C460.918 198.922 459.371 200.514 457.454 200.514C455.545 200.514 453.989 198.922 453.989 196.949C453.989 194.977 455.537 193.384 457.454 193.384C459.371 193.384 460.918 194.977 460.918 196.949Z" fill="#461A00"/>
<path d="M456.115 195.571C456.115 195.975 455.802 196.297 455.409 196.297C455.016 196.297 454.703 195.975 454.703 195.571C454.703 195.166 455.024 194.845 455.409 194.845C455.794 194.836 456.115 195.166 456.115 195.571Z" fill="white"/>
<path opacity="0.7" d="M448.415 208.495C448.15 206.49 444.597 205.326 440.475 205.895C436.353 206.465 433.225 208.553 433.482 210.558C433.746 212.564 437.299 213.727 441.421 213.158C445.544 212.589 448.671 210.501 448.415 208.495ZM435.23 209.568C435.238 209.609 435.23 209.65 435.214 209.692C435.214 209.716 435.206 209.741 435.198 209.758C435.198 209.915 435.11 210.063 434.973 210.104C434.933 210.137 434.901 210.179 434.853 210.212C434.668 210.344 434.452 210.203 434.388 210.014C434.372 209.981 434.372 209.948 434.364 209.915C434.3 209.824 434.284 209.708 434.364 209.593C434.404 209.543 434.436 209.494 434.476 209.452C434.564 209.345 434.677 209.246 434.797 209.155C435.069 208.957 435.326 209.296 435.23 209.568ZM438.47 209.378C437.844 209.518 436.882 209.65 436.417 209.064C436.008 208.553 436.417 207.86 436.842 207.521C437.195 207.232 437.612 207.018 438.053 206.952C439.12 206.671 440.395 206.828 440.25 208.008C440.146 208.833 439.16 209.23 438.47 209.378Z" fill="#F9CBC9"/>
<path d="M451.19 223.491C449.835 222.088 447.958 221.716 446.098 221.782C444.173 221.848 442.112 221.791 440.556 223.111C440.363 223.276 440.548 223.623 440.788 223.549C444.085 222.492 447.509 222.699 450.597 224.242C451.046 224.465 451.591 223.903 451.19 223.491Z" fill="#C69474"/>
<path d="M133.975 207.529C133.975 207.529 140.808 194.877 142.628 196.751C144.449 198.624 139.893 207.29 137.848 209.403C135.803 211.507 135.113 221.353 131.248 221.353C127.374 221.353 117.814 221.353 117.814 221.353C117.814 221.353 116.451 219.248 114.173 211.276C111.895 203.312 112.353 200.498 115.994 204.715C115.994 204.715 121.455 188.085 123.733 189.249C126.011 190.421 122.827 204.946 122.827 204.946C122.827 204.946 129.884 187.375 131.248 188.308C132.611 189.249 128.288 204.946 128.288 204.946C128.288 204.946 136.26 188.547 137.624 189.48C138.987 190.429 133.975 207.529 133.975 207.529Z" fill="#EFCAA6"/>
<path d="M315.443 207.529C315.443 207.529 322.276 194.877 324.097 196.751C325.917 198.624 321.362 207.29 319.317 209.403C317.272 211.507 316.582 221.353 312.716 221.353C308.851 221.353 299.283 221.353 299.283 221.353C299.283 221.353 297.92 219.248 295.642 211.276C293.364 203.312 293.821 200.498 297.462 204.715C297.462 204.715 302.924 188.085 305.202 189.249C307.479 190.421 304.295 204.946 304.295 204.946C304.295 204.946 311.353 187.375 312.716 188.308C314.08 189.249 309.757 204.946 309.757 204.946C309.757 204.946 317.729 188.547 319.092 189.48C320.456 190.429 315.443 207.529 315.443 207.529Z" fill="#EFCAA6"/>
<path d="M484.817 207.529C484.817 207.529 491.65 194.877 493.471 196.751C495.291 198.624 490.736 207.29 488.691 209.403C486.646 211.507 485.956 221.353 482.09 221.353C478.217 221.353 468.657 221.353 468.657 221.353C468.657 221.353 467.294 219.248 465.016 211.276C462.738 203.312 463.195 200.498 466.836 204.715C466.836 204.715 472.298 188.085 474.576 189.249C476.853 190.421 473.669 204.946 473.669 204.946C473.669 204.946 480.727 187.375 482.09 188.308C483.454 189.249 479.131 204.946 479.131 204.946C479.131 204.946 487.103 188.547 488.466 189.48C489.822 190.429 484.817 207.529 484.817 207.529Z" fill="#EFCAA6"/>
<path d="M99.2565 463.067C99.2565 463.067 97.2755 468.027 97.885 468.58C98.4946 469.133 100.588 483.418 105.913 483.22C111.238 483.022 144.128 471.485 143.559 466.393C142.989 461.309 115.264 462.25 115.264 462.25L108.953 460.327L99.2565 463.067Z" fill="#121212"/>
<path d="M8.94302 460.912C8.75054 461.498 0.00873061 475 1.34005 478.326C2.67137 481.652 33.8531 490.26 45.6426 487.52C57.432 484.78 49.2516 479.886 38.4165 475.974C27.5815 472.062 22.4487 470.692 21.8793 465.996C21.3018 461.308 8.94302 460.912 8.94302 460.912Z" fill="#121212"/>
<path d="M45.49 352.765C45.49 353.591 4.85271 458.131 5.39005 462.258C5.92739 466.384 20.0907 471.336 23.836 469.958C27.5814 468.579 62.332 398.157 65.54 383.301L45.49 352.765Z" fill="#333333"/>
<path d="M36.6686 334.609C36.6686 334.609 36.1313 354.416 50.5672 374.496C65.0032 394.575 89.3279 452.346 97.8852 468.58C97.8852 468.58 111.784 465.831 115.265 462.25C115.265 462.25 108.047 425.664 99.4892 400.625C90.9319 375.593 78.9019 354.961 83.1846 339.825L85.3259 334.048C85.3179 334.056 48.4259 316.172 36.6686 334.609Z" fill="#4A4A4A"/>
<path d="M29.5625 340.559C29.5625 340.559 54.9378 354.127 91.1962 340.898C91.1962 340.898 87.5711 275.782 81.9651 248.984C76.3592 222.187 58.234 226.256 50.6551 243.892C43.0762 261.529 29.5625 316.139 29.5625 340.559Z" fill="#404040"/>
<path d="M57.48 239.394C54.7451 243.612 49.7407 257.666 66.3581 269.146C82.9755 280.626 109.843 282.97 119.178 277.35C128.513 271.729 133.975 241.268 133.518 221.824H116.668C116.668 221.824 108.696 251.113 105.055 252.285C101.414 253.457 84.3389 247.127 75.0037 239.403C65.6764 231.661 57.48 239.394 57.48 239.394Z" fill="#616161"/>
<path d="M70.4561 319.052C70.6806 320.224 70.6806 326.084 71.3703 326.315C72.052 326.546 87.9878 323.038 87.9878 323.038L86.1673 317.418L70.4561 319.052Z" fill="#616161"/>
<path d="M129.427 240.211C129.427 241.441 128.457 242.44 127.262 242.44C126.067 242.44 125.097 241.441 125.097 240.211C125.097 238.982 126.067 237.983 127.262 237.983C128.457 237.983 129.427 238.982 129.427 240.211Z" fill="#404040"/>
<path d="M131.457 230.754C131.457 231.983 130.486 232.982 129.291 232.982C128.096 232.982 127.126 231.983 127.126 230.754C127.126 229.524 128.096 228.525 129.291 228.525C130.494 228.533 131.457 229.524 131.457 230.754Z" fill="#404040"/>
<path d="M280.508 463.067C280.508 463.067 278.527 468.027 279.137 468.58C279.747 469.133 281.84 483.418 287.165 483.22C292.49 483.022 325.38 471.485 324.811 466.393C324.242 461.309 296.516 462.25 296.516 462.25L290.205 460.327L280.508 463.067Z" fill="#121212"/>
<path d="M190.195 460.912C190.002 461.498 181.261 475 182.592 478.326C183.923 481.652 215.105 490.26 226.895 487.52C238.684 484.78 230.504 479.886 219.668 475.974C208.833 472.062 203.701 470.692 203.131 465.996C202.554 461.308 190.195 460.912 190.195 460.912Z" fill="#121212"/>
<path d="M226.742 352.765C226.742 353.591 186.105 458.131 186.642 462.258C187.179 466.384 201.343 471.336 205.088 469.958C208.833 468.579 243.584 398.157 246.792 383.301L226.742 352.765Z" fill="#333333"/>
<path d="M217.921 334.609C217.921 334.609 217.383 354.416 231.819 374.496C246.255 394.575 270.58 452.346 279.137 468.58C279.137 468.58 293.036 465.831 296.517 462.25C296.517 462.25 289.299 425.664 280.741 400.625C272.184 375.593 260.154 354.961 264.437 339.825L266.578 334.048C266.57 334.056 229.678 316.172 217.921 334.609Z" fill="#4A4A4A"/>
<path d="M210.814 340.559C210.814 340.559 236.19 354.127 272.448 340.898C272.448 340.898 268.823 275.782 263.217 248.984C257.611 222.187 239.486 226.256 231.907 243.892C224.328 261.529 210.814 316.139 210.814 340.559Z" fill="#404040"/>
<path d="M238.732 239.394C235.997 243.612 230.993 257.666 247.61 269.146C264.227 280.626 291.095 282.97 300.43 277.35C309.765 271.729 315.227 241.268 314.77 221.824H297.92C297.92 221.824 289.948 251.113 286.307 252.285C282.665 253.457 265.591 247.127 256.256 239.403C246.928 231.661 238.732 239.394 238.732 239.394Z" fill="#616161"/>
<path d="M251.708 319.052C251.933 320.224 251.933 326.084 252.622 326.315C253.304 326.546 269.24 323.038 269.24 323.038L267.419 317.418L251.708 319.052Z" fill="#616161"/>
<path d="M310.679 240.211C310.679 241.441 309.709 242.44 308.514 242.44C307.319 242.44 306.349 241.441 306.349 240.211C306.349 238.982 307.319 237.983 308.514 237.983C309.709 237.983 310.679 238.982 310.679 240.211Z" fill="#404040"/>
<path d="M312.709 230.754C312.709 231.983 311.738 232.982 310.543 232.982C309.348 232.982 308.378 231.983 308.378 230.754C308.378 229.524 309.348 228.525 310.543 228.525C311.746 228.533 312.709 229.524 312.709 230.754Z" fill="#404040"/>
<path d="M450.532 463.067C450.532 463.067 448.551 468.027 449.16 468.58C449.77 469.133 451.863 483.418 457.188 483.22C462.514 483.022 495.404 471.485 494.834 466.393C494.265 461.309 466.54 462.25 466.54 462.25L460.228 460.327L450.532 463.067Z" fill="#121212"/>
<path d="M360.218 460.912C360.026 461.498 351.284 475 352.615 478.326C353.947 481.652 385.129 490.26 396.918 487.52C408.707 484.78 400.527 479.886 389.692 475.974C378.857 472.062 373.724 470.692 373.155 465.996C372.577 461.308 360.218 460.912 360.218 460.912Z" fill="#121212"/>
<path d="M396.765 352.765C396.765 353.591 356.128 458.131 356.665 462.258C357.203 466.384 371.366 471.336 375.111 469.958C378.857 468.579 413.607 398.157 416.815 383.301L396.765 352.765Z" fill="#333333"/>
<path d="M387.944 334.609C387.944 334.609 387.407 354.416 401.843 374.496C416.279 394.575 440.603 452.346 449.161 468.58C449.161 468.58 463.059 465.831 466.54 462.25C466.54 462.25 459.322 425.664 450.765 400.625C442.207 375.593 430.177 354.961 434.46 339.825L436.601 334.048C436.593 334.056 399.701 316.172 387.944 334.609Z" fill="#4A4A4A"/>
<path d="M380.838 340.559C380.838 340.559 406.213 354.127 442.472 340.898C442.472 340.898 438.847 275.782 433.241 248.984C427.635 222.187 409.509 226.256 401.931 243.892C394.352 261.529 380.838 316.139 380.838 340.559Z" fill="#404040"/>
<path d="M408.755 239.394C406.021 243.612 401.016 257.666 417.633 269.146C434.251 280.626 461.118 282.97 470.453 277.35C479.788 271.729 485.25 241.268 484.793 221.824H467.943C467.943 221.824 459.971 251.113 456.33 252.285C452.689 253.457 435.614 247.127 426.279 239.403C416.952 231.661 408.755 239.394 408.755 239.394Z" fill="#616161"/>
<path d="M421.731 319.052C421.956 320.224 421.956 326.084 422.646 326.315C423.327 326.546 439.263 323.038 439.263 323.038L437.443 317.418L421.731 319.052Z" fill="#616161"/>
<path d="M480.703 240.211C480.703 241.441 479.732 242.44 478.537 242.44C477.342 242.44 476.372 241.441 476.372 240.211C476.372 238.982 477.342 237.983 478.537 237.983C479.732 237.983 480.703 238.982 480.703 240.211Z" fill="#404040"/>
<path d="M482.732 230.754C482.732 231.983 481.762 232.982 480.567 232.982C479.372 232.982 478.401 231.983 478.401 230.754C478.401 229.524 479.372 228.525 480.567 228.525C481.77 228.533 482.732 229.524 482.732 230.754Z" fill="#404040"/>
<path d="M119.434 172.702L122.883 172.157C122.883 172.157 137.92 170.548 140.366 155.115C142.805 139.682 124.936 131.874 119.354 141.563C119.354 141.563 123.099 129.72 113.163 123.531C103.226 117.341 96.1602 127.657 96.1602 127.657C96.1602 127.657 97.291 114.733 82.9031 113.214C68.5153 111.688 66.9433 124.075 66.9433 124.075C66.9433 124.075 63.4065 107.082 43.3164 115.286C27.2764 121.839 29.3616 133.319 29.3616 133.319C29.7466 133.17 9.19932 132.658 9.49606 157.31C9.49606 157.31 0.874556 160.925 0.0725559 173.403C-0.729444 185.882 5.3818 190.008 5.3818 190.008C5.3818 190.008 -0.536964 209.403 17.4118 216.517C17.4118 216.517 27.3406 236.737 56.5093 233.642L76.5593 218.275C76.5593 218.275 79.1658 188.663 79.7673 188.465C80.3688 188.267 110.171 182.325 119.434 172.702Z" fill="#6B534A"/>
<path d="M119.875 167.412C119.875 167.412 120.476 171.126 122.882 172.157C122.882 172.157 122.682 210.534 110.451 222.707C98.2209 234.88 66.5419 242.72 56.1159 233.642C56.1159 233.642 65.7399 220.643 66.7424 206.201C66.7424 206.201 55.3139 214.66 51.9054 198.567C48.4969 182.473 65.3389 177.934 70.7524 200.424L72.5569 200.011L74.5619 181.235C74.5619 181.235 84.1859 189.695 90.4014 175.458C90.4014 175.458 99.4239 183.505 106.842 170.507C106.842 170.507 114.269 178.363 119.875 167.412Z" fill="#F4D9BF"/>
<path d="M64.7303 195.134C63.2065 192.204 60.0787 190.396 57.8973 193.896C56.0126 196.925 57.1594 201.414 60.2953 202.966C62.3403 203.981 64.217 202.586 65.1393 200.77C65.9814 199.112 65.6526 196.916 64.7303 195.134Z" fill="#C69474"/>
<path d="M109.513 182.226C106.073 180.988 102.576 183.728 101.911 187.244C101.798 187.821 102.568 188.292 102.889 187.706C102.897 187.698 102.905 187.681 102.913 187.673C102.993 187.689 103.089 187.689 103.154 187.623C104.677 186.196 105.792 184.793 108.046 184.793C111.43 184.793 113.106 187.904 113.804 190.883C113.908 191.329 114.582 191.263 114.582 190.801C114.614 187.665 112.545 183.315 109.513 182.226Z" fill="#6B534A"/>
<path d="M111.246 198.187C111.246 200.159 109.698 201.752 107.781 201.752C105.872 201.752 104.316 200.159 104.316 198.187C104.316 196.215 105.864 194.622 107.781 194.622C109.698 194.622 111.246 196.215 111.246 198.187Z" fill="#461A00"/>
<path d="M106.442 196.809C106.442 197.213 106.129 197.535 105.736 197.535C105.343 197.535 105.03 197.213 105.03 196.809C105.03 196.405 105.351 196.083 105.736 196.083C106.121 196.083 106.442 196.405 106.442 196.809Z" fill="white"/>
<path opacity="0.7" d="M98.7428 209.733C98.4782 207.728 94.9253 206.564 90.8031 207.133C86.6808 207.703 83.553 209.791 83.8097 211.796C84.0743 213.802 87.6272 214.966 91.7494 214.396C95.8717 213.827 98.9995 211.739 98.7428 209.733ZM85.558 210.806C85.566 210.847 85.558 210.889 85.542 210.93C85.542 210.955 85.5339 210.979 85.5259 210.996C85.5259 211.153 85.4377 211.301 85.3014 211.343C85.2613 211.376 85.2292 211.417 85.1811 211.45C84.9966 211.582 84.7801 211.442 84.7159 211.252C84.6999 211.219 84.6999 211.186 84.6918 211.153C84.6277 211.062 84.6116 210.946 84.6918 210.831C84.7319 210.781 84.764 210.732 84.8041 210.691C84.8923 210.583 85.0046 210.484 85.1249 210.393C85.3976 210.195 85.6542 210.534 85.558 210.806ZM88.7981 210.616C88.1725 210.757 87.2101 210.889 86.745 210.303C86.3359 209.791 86.745 209.098 87.17 208.759C87.5229 208.47 87.9399 208.256 88.381 208.19C89.4477 207.909 90.7229 208.066 90.5785 209.246C90.4742 210.072 89.4878 210.468 88.7981 210.616Z" fill="#F9CBC9"/>
<path d="M101.517 224.729C100.162 223.326 98.2854 222.954 96.4247 223.02C94.4999 223.086 92.4388 223.029 90.8829 224.349C90.6904 224.514 90.8749 224.861 91.1155 224.786C94.4117 223.73 97.8363 223.936 100.924 225.48C101.373 225.703 101.918 225.141 101.517 224.729Z" fill="#C69474"/>
</svg>
