<svg width="523" height="489" fill="none" xmlns="http://www.w3.org/2000/svg"><path d="M170.025 443.532c-.57-4.837-28.295-3.937-28.295-3.937s-7.218-34.77-15.775-58.563c-7.86-21.862-18.647-40.192-17.027-54.173 2.831-.71 5.743-1.56 8.734-2.599 0 0-1.901-32.385-5.069-59.942 13.338 3.293 26.948 3.037 33.051-.454 9.335-5.348 14.797-34.291 14.34-52.769h-16.85s-7.972 27.837-11.613 28.951c-3.016.924-15.238-3.045-24.654-8.608-6.849-19.287-22.769-14.806-29.754.636-7.579 16.762-21.093 68.656-21.093 91.872 0 0 2.847 1.436 7.964 2.888.778 4.308 2.27 9.912 5.093 16.077-9.247 23.183-37.678 93.416-37.229 96.7.096.702.634 1.428 1.468 2.146-2.559 4.184-6.432 10.96-5.51 13.139 1.331 3.161 32.513 11.348 44.303 8.74 11.789-2.608 3.609-7.254-7.227-10.968-7.202-2.468-11.87-3.879-14.371-5.852 3.945-2.872 28.43-49.377 37.95-72.288 13.466 24.198 29.201 58.976 35.802 70.943a.297.297 0 00.088.157c.609.528 2.703 14.096 8.028 13.914 5.317-.198 38.215-11.174 37.646-16.01z" fill="#A6A6A6"/><path d="M131.072 228.97s-12.856 33.235-17.139 35.274c-4.283 2.038-35.922-32.22-35.922-32.22s-9.56-7.122-10.875 7.799c-1.315 14.921 13.185 36.627 13.185 36.627s17.796 13.568 33.62 9.837c15.823-3.73 32.962-56.64 32.962-56.64l-15.831-.677z" fill="#525252"/><path d="M122.506 227.617s18.454 26.112 37.245 2.377l-37.245-2.377z" fill="#F4D9BF"/><path d="M352.88 443.532c-.569-4.837-28.294-3.937-28.294-3.937s-7.218-34.77-15.776-58.563c-7.859-21.862-18.646-40.192-17.026-54.173 2.831-.71 5.742-1.56 8.734-2.599 0 0-1.901-32.385-5.069-59.942 13.337 3.293 26.947 3.037 33.05-.454 9.336-5.348 14.797-34.291 14.34-52.769h-16.85s-7.972 27.837-11.613 28.951c-3.015.924-15.238-3.045-24.653-8.608-6.849-19.287-22.769-14.806-29.755.636-7.578 16.762-21.092 68.656-21.092 91.872 0 0 2.847 1.436 7.964 2.888.778 4.308 2.269 9.912 5.092 16.077-9.247 23.183-37.678 93.416-37.228 96.7.096.702.633 1.428 1.467 2.146-2.558 4.184-6.432 10.96-5.51 13.139 1.332 3.161 32.514 11.348 44.303 8.74 11.789-2.608 3.609-7.254-7.226-10.968-7.202-2.468-11.87-3.879-14.372-5.852 3.946-2.872 28.431-49.377 37.951-72.288 13.465 24.198 29.201 58.976 35.801 70.943a.297.297 0 00.088.157c.61.528 2.703 14.096 8.028 13.914 5.318-.198 38.216-11.174 37.646-16.01z" fill="#A6A6A6"/><path d="M313.927 228.97s-12.856 33.235-17.139 35.274c-4.282 2.038-35.921-32.22-35.921-32.22s-9.56-7.122-10.875 7.799c-1.316 14.921 13.184 36.627 13.184 36.627s17.797 13.568 33.62 9.837c15.824-3.73 32.963-56.64 32.963-56.64l-15.832-.677z" fill="#525252"/><path d="M305.361 227.617s18.454 26.112 37.245 2.377l-37.245-2.377z" fill="#F4D9BF"/><path d="M494.698 439.603s-7.218-34.77-15.775-58.563c-7.86-21.862-18.647-40.192-17.027-54.173a102.02 102.02 0 008.734-2.599s-1.901-32.385-5.069-59.942c13.337 3.293 26.947 3.037 33.051-.454 6.295-3.606 10.827-17.933 12.968-32.549a8.639 8.639 0 01-.385-2.625v-17.603h-15.094s-7.971 27.837-11.613 28.951c-3.015.924-15.238-3.045-24.653-8.608-6.849-19.287-22.769-14.806-29.754.636-7.579 16.762-21.093 68.656-21.093 91.872 0 0 2.847 1.436 7.964 2.888.778 4.308 2.27 9.912 5.093 16.077-9.247 23.183-37.678 93.416-37.229 96.7.096.702.633 1.428 1.468 2.146-2.559 4.184-6.433 10.96-5.51 13.139 1.331 3.161 32.513 11.348 44.302 8.74 11.79-2.608 3.609-7.254-7.226-10.968-7.202-2.468-11.869-3.879-14.372-5.852 3.946-2.872 28.431-49.377 37.951-72.288 13.466 24.198 29.201 58.976 35.801 70.943a.291.291 0 00.089.157c.609.528 2.702 14.096 8.028 13.914 5.325-.181 38.215-11.158 37.645-15.994-.569-4.844-28.294-3.945-28.294-3.945z" fill="#A6A6A6"/><path d="M484.047 228.97s-12.856 33.235-17.139 35.274c-4.282 2.038-35.921-32.22-35.921-32.22s-9.56-7.122-10.875 7.799c-1.316 14.922 13.185 36.627 13.185 36.627s17.796 13.568 33.619 9.837c15.824-3.73 32.963-56.64 32.963-56.64l-15.832-.677z" fill="#525252"/><path d="M511.283 229.895l-35.809-2.286s17.732 25.072 36.122 3.73a8.56 8.56 0 01-.313-1.444z" fill="#F4D9BF"/><path d="M513.256 72.007H52.202v7.213h461.054v-7.213z" fill="#2A3A49"/><path d="M511.492 82.852H53.952v150.443h457.54V82.852zm2.101-10.317H51.857l27.67-24.651h413.535l20.531 24.651z" fill="#394C5F"/><path d="M489.389 106.414H76.062v102.081H489.39V106.414z" fill="#2A3A49"/><path d="M482.612 116.152H82.847v82.604h399.765v-82.604zm33.636-37.576H49.211v16.267h467.037V78.576z" fill="#48586E"/><path d="M363.499 12.652c-4.845.247-9.977 3.095-14.059 5.579-2.302 1.394-4.508 3.053-6.577 4.778-1.155.957-2.189 2.047-3.216 3.145-.409.445-.874.85-1.299 1.279-.032.033-.056.082-.088.115-.097-.016-.193.017-.217.132-.048.256-.441.545-.601.743-.369.454-.73.916-1.099 1.378-.177.223-.369.479-.553.743-.482.058-.963.124-1.444.182-.666.082-.529 1.188.12 1.188.201 0 .393-.008.586-.016a2.66 2.66 0 00-.145.643c-.024.322.417.545.634.29.273-.314.441-.645.609-.991 5.935-.454 11.22-3.095 16.233-6.438a62.564 62.564 0 007.194-5.579c1.716-1.551 4.074-3.928 4.507-6.338.056-.38-.144-.858-.585-.833zm23.153 20.236c-7.587-3.177-16.609-1.791-23.891 1.56-6.015 2.773-10.346 7.84-13.546 13.6a.288.288 0 00-.128.207v.025a54.518 54.518 0 00-2.11 4.3c-.288.66.818 1.172 1.123.52a49.914 49.914 0 011.853-3.665c.112.058.216.107.32.157.418.198.859.305 1.292.462.529.19 1.01.446 1.58.322a.308.308 0 00.208-.165c5.895.825 12.463-2.17 17.107-5.398 2.887-1.997 5.55-4.324 8.365-6.42 1.483-1.098 3.144-1.965 4.78-2.79 1.09-.544 2.374-.817 3.304-1.626.393-.338.152-.916-.257-1.09zm-174.467 6.033a42.793 42.793 0 01-1.804-.082c-.465-2.204-1.7-4.465-2.583-6.347-1.419-3.045-3.657-5.307-6.247-7.312-5.229-4.052-11.236-5.992-17.7-6.537-.489-.04-.898.603-.618 1.04 3.337 5.158 6.216 10.762 11.06 14.707 4.635 3.772 9.905 5.62 15.639 5.819.032.123.064.255.096.387.064.322.545.264.553-.057 0-.1-.016-.207-.016-.314.53.008 1.059.008 1.596-.017.786-.033.842-1.27.024-1.287zm-1.05 7.816s-.008.008 0 0c-1.765-2.674-4.676-4.523-7.371-6.058-3.577-2.047-7.603-3.458-11.637-4.143-3.889-.66-7.827-.372-11.621.652-1.82.495-3.529 1.353-5.125 2.368-.874.553-2.446 1.032-2.726 2.155-.209.825 1.203 1.74 1.652 2.187 1.443 1.46 3.031 2.706 4.716 3.854 3.368 2.286 7.362 3.474 11.252 4.44 3.937.974 7.979 1.064 11.877-.1 2.871-.858 6.264-1.89 8.606-4.002.409.157.914-.28.737-.743.033-.033.073-.066.105-.099.28-.338-.153-.833-.465-.511z" fill="#3B9B45"/><path d="M370.204 55.344c-1.885-3.35-6.24-6.198-9.785-7.609a14.122 14.122 0 00-4.956-.974c1.893-.998 3.825-1.898 5.943-2.616a31.996 31.996 0 015.028-1.238c.875-.14 2.174.107 2.984-.38.337-.198.497-.718.16-1.006-2.719-2.344-6.223-3.227-9.8-3.095 2.975-2.03 5.951-4.275 8.02-7.213.337-.487-.177-1.098-.73-.974-4.732 1.048-9.007 2.88-13.113 5.249 1.275-1.51 2.246-3.153 2.631-4.87.088-.387-.161-.932-.658-.89-1.877.18-3.641.626-5.365 1.204.128-.132.264-.256.385-.388 2.269-2.31 5.245-5.1 5.485-8.467.032-.48-.449-.768-.882-.694-3.144.52-6.408 1.535-9.287 3.095a54.656 54.656 0 002.446-3.053c.674-.908 2.518-3.17 2.198-4.44-.594-2.353-6.104.453-7.339 1.023-2.526 1.155-5.277 2.83-7.522 4.836.176-.586.336-1.18.449-1.79.673-3.475-.562-6.694-2.061-9.772-.281-.586-1.051-.355-1.268.123-1.106 2.493-3.2 4.77-5.02 6.776-.65.718-1.412 1.453-2.133 2.229-.065-4.655-1.484-9.244-4.62-12.974-.345-.405-.922-.149-1.099.247-.898 2.03-1.499 4.152-2.39 6.182-.577 1.32-1.227 2.616-1.844 3.928a42.075 42.075 0 00-.602-9.243c-.064-.347-.401-.528-.722-.561-2.919-.322-6.44 1.073-9.086 2.12-3.625 1.445-6.344 3.517-9.352 5.77a24.203 24.203 0 001.067-3.178c.241-.94 1.323-7.015-1.091-6.577-3.825.685-7.482 3.573-10.386 5.95-.481.396-.986.834-1.491 1.296 1.451-3.632 1.973-7.519.882-11.373a.666.666 0 00-.802-.47c-2.085.445-3.978 1.947-5.614 3.218-2.358 1.84-4.612 3.772-6.552 6.033-.682.793-1.34 1.65-1.981 2.526.465-2.097.745-4.226.818-6.38.056-1.65.296-4.374-.498-5.917-.625-1.213-1.636-.677-2.646-.165-4.106 2.096-7.523 5.579-10.33 9.094-1.492 1.866-2.839 3.83-3.85 5.926a82.872 82.872 0 00-.882-1.948c-1.475-3.177-3.825-7.056-6.721-9.202-.376-.28-1.018-.024-1.13.413-.995 4.003-.81 7.774.04 11.562-.08-.115-.145-.239-.225-.346-.922-1.354-2.181-2.517-3.36-3.656-.786-.76-1.572-1.907-2.711-2.121-.513-.1-.882.173-.954.668-.401 2.567-.562 6.132.128 9.277a36.372 36.372 0 00-2.639-2.253c-3.833-2.996-8.525-5.175-13.465-5.142-.57.008-1.067.635-.722 1.155 1.099 1.676 2.462 3.21 3.569 4.91.746 1.148 1.363 2.378 1.941 3.616a36.621 36.621 0 00-1.051-.917c-2.197-1.84-4.828-4.134-7.539-5.174-.489-.19-.978.247-1.01.701-.185 2.988.289 6.66 1.628 9.78-.457-.412-.906-.817-1.331-1.205-2.238-2.047-4.941-4.621-7.812-5.802-.353-.148-.858.124-.938.487-1.035 4.63-.858 10.35.778 15.219-2.462-2.814-5.598-5.051-8.349-7.65-.385-.364-1.259-.19-1.195.445.289 2.765 1.075 5.488 2.366 7.948-1.107-.999-2.438-1.412-3.842-2.047-2.687-1.213-6.271-1.8-9.223-1.667-.617.025-1.018.602-.73 1.163 1.644 3.203 3.714 6.281 6.368 8.633-1.283.074-2.55.264-3.833.668-3.545 1.123-6.488 3.962-8.574 6.826-.441.602.233 1.23.858 1.147 3.81-.52 7.635-.636 11.493-.446.401.017.778.074 1.155.124-3.425 1.47-6.175 3.623-8.854 6.231-.417.404-.233 1.023.289 1.213 7.603 2.806 16.609 2.179 24.364.297 5.43-1.312 10.916-2.525 15.222-5.562-1.275 1.898-3.609 4.795-5.854 5.505-.594.181-.69 1.031-.04 1.221 4.29 1.23 9.287-.066 13.169-1.915 1.684-.8 3.328-1.667 4.844-2.665a13.865 13.865 0 001.251 3.16c.641 1.189 1.556 2.254 2.454 3.26.497.553 1.58 2.064 2.486 2.08.361.008.77-.24.898-.561.722-1.857 1.444-3.557 2.503-5.274a62.441 62.441 0 002.558-4.555c.401 1.13 1.01 2.22 1.7 3.326 1.58 2.508 3.513 3.945 5.967 5.504.393.248.914-.05.938-.487.081-1.873.738-3.713 1.035-5.57.208-1.329.241-2.715.12-4.077 1.316 1.832 3.176 3.45 4.724 4.68 3.048 2.409 6.536 4.571 10.506 5.116.401.058.762-.413.642-.776-.554-1.675-.69-3.425-1.035-5.141 1.885 1.832 4.427 3.276 6.288 4.407 3.657 2.228 8.782 4.184 13.201 3.697.377-.041.698-.553.561-.9-.673-1.7-1.708-3.45-2.839-5.1.024.008.04.025.064.041 2.07 1.172 4.371 2.03 6.601 2.84 2.47.899 4.932 1.56 7.515 2.063 1.636.313 3.769.833 5.397.503.561-.115.746-.825.369-1.213-1.315-1.362-2.599-2.814-3.93-4.234 4.171 2.402 9.095 3.805 13.843 4.011a.758.758 0 00.737-.512c.369-1.147-.112-2.814-.288-4.002a16.91 16.91 0 00-.931-3.442c.265.396.546.8.827 1.197.81 1.13 1.684 2.22 2.542 3.318.666.85 1.275 2.013 2.358 2.352.272.082.641-.025.778-.28.938-1.75 1.379-4.012 1.291-6.265 1.315 1.246 2.759 2.369 4.242 3.508 2.751 2.104 5.47 2.905 8.75 3.953.53.173.939-.314.866-.792-.208-1.247-1.002-2.501-1.483-3.681a38.607 38.607 0 00-.947-2.121c.883.61 1.789 1.172 2.631 1.733 3.096 2.055 7.17 3.714 10.907 4.126.481.05.842-.462.738-.891-.513-1.997-1.532-4.052-2.903-5.868 2.678-.322 5.365-.33 8.084-.198 1.989.099 3.858.528 5.75 1.106.971.297 1.725.924 2.735 1.032.553.04.906-.636.65-1.082z" fill="#78B946"/><path d="M351.894 40.951c-.97-.066-2.045.297-3.072.347a35.44 35.44 0 01-5.108-.132c1.371-1.593 2.694-3.35 3.576-5.142.257-.52-.12-1.27-.802-1.073-1.251.355-2.478.743-3.705 1.114.562-1.04 1.131-2.08 1.7-3.11.377-.694 2.158-3.104 1.203-3.954-1.018-.908-3.344.322-4.427.685-1.122.371-2.189.883-3.224 1.46.826-1.41 1.765-2.838 2.102-4.44.064-.313-.016-.618-.305-.792-1.243-.75-2.839.883-3.794 1.56-2.173 1.56-4.354 3.227-6.752 4.49.184-.322.369-.66.537-.999 1.131-2.212 2.414-5.38 1.652-7.865a.644.644 0 00-1.035-.297c-1.82 1.576-3.2 3.458-5.213 4.87-1.491 1.047-3.216 2.649-5.028 3.54.257-.8.433-1.601.489-2.394a35.76 35.76 0 00-.024-5.554c-.104-1.205.032-2.484-.778-3.49-.12-.158-.425-.248-.617-.174-1.853.693-3.184 2.839-4.516 4.168-1.219 1.213-2.47 2.401-3.793 3.499a129.547 129.547 0 00-.281-3.615c-.144-1.717-.529-3.4-.77-5.108-.152-1.098.072-2.443-.449-3.467-.128-.247-.489-.42-.77-.33-4.531 1.519-8.605 3.961-11.934 7.197.145-.982.177-2.006-.184-2.88-.112-.273-.513-.339-.754-.215-1.54.817-2.847 2.022-4.042 3.317.225-1.535.497-3.07.714-4.605.136-.94.409-2.005-.385-2.69-.217-.182-.545-.297-.818-.124-2.398 1.543-4.82 3.054-7.13 4.73-1.476 1.072-3.048 2.17-4.21 3.556.048-.346.088-.693.136-1.04.505-3.482 1.62-7.13 1.7-10.646.008-.504-.529-.784-.97-.578-3.714 1.717-6.761 5.472-9.648 8.245-1.348 1.296-4.083 3.474-5.173 5.637.024-1.131.104-2.262.168-3.351.145-.206.281-.42.425-.627.265-.38.016-.809-.337-.974.129-2.955 1.107-5.876 1.316-8.84.024-.288-.209-.626-.514-.692-1.58-.339-3.617 1.93-4.836 2.814-2.317 1.667-4.443 3.623-6.231 5.818a47.231 47.231 0 00-2.559 3.5c-.641-1.362-1.154-2.939-1.355-4.176-.104-.652-.77-2.006-1.5-2.204-.321-.082-.585.041-.778.28-.713.9-.778 2.402-1.042 3.475a182.626 182.626 0 00-1.107 4.597c-.946-1.766-1.837-3.573-2.903-5.257-.602-.95-2.31-1.403-2.438.132-.169 1.972-1.187 4.118-1.709 6.041a40.217 40.217 0 00-.689 3.062 61.254 61.254 0 00-2.775-2.996c-2.214-2.195-5.093-6.454-8.582-6.512-.601-.008-.978.611-.705 1.123 1.908 3.565 3.625 7.337 3.24 11.463-.105-.066-.209-.123-.313-.19-1.885-1.18-3.673-2.525-5.398-3.92-1.026-.833-1.86-1.94-3.015-2.608-.586-.346-1.187.174-1.099.776.425 2.781 1.171 5.488 1.38 8.31 0 .042.024.084.032.117-.674-.413-1.34-.834-2.013-1.239-1.412-.858-2.936-1.584-4.307-2.492-.802-.528-1.604-1.032-2.599-1.032-.489 0-.874.438-.753.917.649 2.64 2.406 4.993 3.192 7.634a10.5 10.5 0 00-.498.082c-2.815.528-5.477 1.436-8.116 2.517-1.668.685-4.443 1.56-5.63 2.947-.369.42-.241 1.328.497 1.27 3.77-.297 7.419-.536 11.164-.52-1.692 1.19-3.296 2.485-4.908 3.764-1.508 1.197-3.914 2.889-4.507 4.77-.153.47.224 1.073.77 1.048 1.082-.057 1.989-.75 2.807-1.386 2.213-1.709 5.156-2.98 7.787-3.92 2.406-.859 4.932-1.395 7.443-1.857-.69.586-1.484.982-1.572 1.923-.04.47.441.742.866.685 3.184-.487 6.56-1.808 9.704-3.037-.586 1.856-1.115 3.796-.922 5.53.256 2.302 2.342 1.567 3.681.585 2.622-1.923 4.868-4.49 7.017-6.966.826 3.69 2.286 8.278 4.066 6.9 1.356-1.056 1.885-2.757 2.631-4.225.858-1.692 1.492-3.483 2.23-5.225.144 1.791.497 3.566 1.267 5.134.617 1.254 1.86 3.458 3.617 3.144a.712.712 0 00.561-.677c.064-3.672.682-7.427 1.7-11.108 1.5 2.616 3.233 5.075 4.925 7.617 1.01 1.519 2.951 6.025 5.325 5.678a.648.648 0 00.489-.445c.481-1.775-.321-4.077-.465-5.86-.16-2.014-.168-4.06-.136-6.09.168.173.329.354.497.536 1.901 1.98 3.825 3.928 5.63 5.992 2.655 3.037 5.438 6.206 9.48 7.46.433.132.986-.198.954-.668-.096-1.568-.69-3.054-.706-4.704-.024-1.973.433-4.011.955-5.95 1.724 2.062 3.913 3.886 5.814 5.71 2.631 2.534 5.317 5.002 7.908 7.585.481.487 1.371.173 1.387-.512.064-3.02 0-5.967.161-8.946 1.491 1.882 3.529 3.54 5.301 4.688 1.885 1.213 3.986 2.12 5.959 3.193 1.091.586 1.812 1.651 3.096 1.478.344-.042.609-.421.617-.743.024-1.296-.2-2.575-.289-3.87-.152-2.378.145-4.829.457-7.18l.025-.141c1.499 1.353 2.863 2.938 4.274 4.275 1.949 1.84 4.235 3.301 6.601 4.58.449.248.946.05 1.13-.412.69-1.75 1.212-3.458 1.925-5.142.794 1.601 1.717 3.136 2.711 4.63.698 1.048 1.74 2.583 3.032 2.963.336.099.649-.05.85-.314.786-1.032.689-2.723.866-3.945.16-1.163.305-2.327.441-3.499.898 1.065 1.861 2.088 2.983 3.02 1.019.85 2.944 2.7 4.435 2.493.273-.041.466-.33.482-.578.032-.784-.465-1.485-.883-2.12-.794-1.206-1.531-2.452-2.285-3.69 3.737-.206 7.097-2.022 10.466-3.68.69-.405.361-1.387-.361-1.437z" fill="#3B9B45"/><path d="M244.618 27.094c-1.564.438-3.328 1.478-4.266 2.955.385-1.692.064-3.574-1.027-4.96-1.427-1.816-3.464-2.03-5.461-1.09-2.398 1.131-2.222 4.11-.915 6.314-1.812-.52-3.93-.206-5.341.974-1.925 1.61-2.181 4.225-.16 5.843 1.499 1.197 3.512 1.007 5.309.206-1.66 2.575-2.142 6.24.473 7.568 3.384 1.717 7.186-1.279 7.98-4.729.168.256.353.495.561.735 1.291 1.428 4.355 2.13 5.967.891 1.596-1.221 2.31-3.87 1.452-5.777-.361-.809-.858-1.378-1.436-1.79.289-.1.578-.215.866-.356 2.198-1.114 3.489-3.194 2.102-5.554-1.163-2.005-4.283-1.733-6.104-1.23zm47.695 1.123c-1.957-.9-5.021.28-6.641 2.203-.296-2.698-2.879-5.67-5.469-4.456-2.494 1.163-2.446 4.003-1.211 6.181-2.462.107-5.013 1.775-4.876 4.4.12 2.194 2.357 3.003 4.122 3.218a5.91 5.91 0 001.002.025c-.505 1.683 0 3.499 2.206 4.06 2.245.578 4.395-1.007 5.109-2.98.08.075.152.157.24.232 1.404 1.155 3.721 1.395 5.069.082 1.315-1.279.674-3.879-.145-5.2a4.063 4.063 0 00-.954-1.072 4.753 4.753 0 002.494-1.807c1.107-1.552.979-4.003-.946-4.886zm35.28 13.345a4.017 4.017 0 00-.593-.372 4.15 4.15 0 001.034-.808c1.035-1.098 1.099-2.905.04-3.97-1.098-1.098-2.734-.784-3.921-.066a4.722 4.722 0 00-.866.693 7.592 7.592 0 00-.426-2.038c-.561-1.56-2.349-3.491-4.17-2.765-2.566 1.032-2.438 4.547-1.043 6.957-.625-.19-1.307-.264-2.061-.223-1.395.066-4.443.817-4.812 2.567-.393 1.857.987 3.202 2.759 3.375a9.536 9.536 0 004.042-.478 7.204 7.204 0 00-.329.47c-.689 1.065-1.451 3.062.097 3.747 1.564.685 3.031-.404 4.098-1.519.385-.404.698-.858.954-1.353 1.348 1.997 4.644 2.913 6.44.875 1.388-1.577.089-4.052-1.243-5.092z" fill="#FFE754"/><path d="M258.052 30.957c.401 1.205 1.283 1.997 2.663 1.576 1.756-.537 2.157-2.327 1.692-3.87a4.497 4.497 0 001.981-.265c1.452-.511 2.157-1.708 1.516-3.227-.81-1.898-3.393-2.154-5.149-1.213.257-.858.257-1.816-.016-2.6-.465-1.328-2.374-3.078-3.85-2.26-1.467.816-1.973 3.094-1.291 4.637-1.347-.52-2.262-.09-3.136 1.032-.778.998-.393 2.327.321 3.21.473.586 1.179.735 1.901.644a8.305 8.305 0 00-.401.495c-.722.966-1.396 2.517-.297 3.467.97.841 2.358.297 3.2-.438.377-.33.658-.743.866-1.188zm9.937 10.96a6.133 6.133 0 00-1.075.47c.706-2.773-.882-6.371-4.082-5.455-1.708.487-2.342 2.649-2.093 4.258a6.356 6.356 0 001.139 2.765 5.857 5.857 0 00-1.949-.223c-1.379.083-3.184 1.213-3.208 2.815-.024 1.774 1.668 2.319 3.12 2.368.922.033 1.812-.206 2.614-.619-.401 1.081-.81 3.12.594 3.598 1.66.57 2.759-.71 3.168-2.319.232.413.521.817.85 1.197.665.768 1.901 1.428 2.678.437.674-.85.69-2.145.426-3.16a3.953 3.953 0 00-.546-1.197c2.567.107 5.454-1.874 3.569-4.077-1.283-1.519-3.473-1.411-5.205-.858zm45.152-16.11c.072-.066.137-.115.201-.19.89-.973.497-2.574-.465-3.325-1.837-1.428-3.682-.413-4.708 1.237a7.874 7.874 0 00-.289-1.535c-.353-1.23-1.901-3.103-3.344-2.731-2.799.718-2.182 4.217-.578 6.28-2.502-.544-5.309.545-5.333 3.665-.008 1.807 2.663 1.939 3.81 1.815.465-.05.93-.157 1.379-.313a5.507 5.507 0 00-.321 1.213c-.232 1.683-.088 3.606 1.877 3.83 1.909.214 3.304-2.114 3.882-3.616.056-.148.096-.297.136-.445.313.404.698.742 1.211.965 1.516.66 3.4-.23 4.074-1.683.754-1.626-.056-3.54-1.123-4.787a3.505 3.505 0 00-.409-.38zm33.949 14.838c-.682-1.518-2.318-1.98-3.833-1.972-.265 0-.49.058-.706.132.144-.743.12-1.494-.337-2.154-.529-.767-1.973-1.469-2.847-.94-.938.569-1.315 1.716-1.195 2.805.024.207.064.446.12.702a5.034 5.034 0 00-1.235-.636c-.93-.33-2.847-.148-3.104 1.123-.272 1.337.522 2.385 1.62 3.012.49.28 1.003.446 1.524.512-.665.817-1.508 2.286-.89 3.227.738 1.114 2.101.957 3.176.453.625-.288 1.163-.85 1.548-1.493.264.644.77 1.18 1.54 1.46.842.306 1.78-.173 1.908-1.105a3.35 3.35 0 00-.361-1.998c.458.108.923.14 1.372.033 1.435-.321 2.366-1.691 1.7-3.16z" fill="#FFD060"/><path d="M244.915 231.719l-9.159 1.923s-59.548-3.029-47.518-69.053c0 0 13.096-45.391 68.17-45.119 0 0 14.7 0 35.288 9.904 20.587 9.903 22.72 14.302 22.72 23.661 0 9.359-2.406 14.03-8.284 17.331-5.879 3.301-15.776 6.875-15.776 6.875l-31.013 14.583-14.428 39.895z" fill="#6A3223"/><path d="M301.601 163.046s8.958 34.959-11.501 59.669c-11.036 13.328-43.91 20.013-54.336 10.935 0 0 9.624-12.998 10.627-27.441 0 0-11.429 8.459-14.837-7.634-3.409-16.093 13.433-20.633 18.847 1.857l1.804-.413 2.005-18.775c0-.009 33.34-6.281 47.391-18.198z" fill="#F4D9BF"/><path d="M244.378 195.133c-1.524-2.929-4.652-4.737-6.833-1.238-1.885 3.029-.738 7.519 2.398 9.07 2.045 1.016 3.921-.379 4.844-2.195.842-1.659.513-3.854-.409-5.637z" fill="#C69474"/><path d="M289.162 182.226c-3.441-1.238-6.937 1.502-7.603 5.017-.112.578.658 1.049.978.463.008-.009.016-.025.024-.033.081.016.177.016.241-.05 1.524-1.428 2.639-2.831 4.892-2.831 3.385 0 5.061 3.112 5.759 6.091.104.446.778.38.778-.083.032-3.136-2.038-7.485-5.069-8.574z" fill="#481823"/><path d="M290.894 198.187c0 1.972-1.548 3.565-3.464 3.565-1.909 0-3.465-1.593-3.465-3.565s1.548-3.565 3.465-3.565c1.916 0 3.464 1.593 3.464 3.565z" fill="#461A00"/><path d="M286.09 196.809a.711.711 0 01-.705.726.712.712 0 01-.706-.726c0-.405.321-.727.706-.727.385 0 .705.322.705.727z" fill="#fff"/><path opacity=".7" d="M278.39 209.733c-.264-2.006-3.817-3.169-7.939-2.6-4.123.57-7.251 2.658-6.994 4.663.265 2.006 3.818 3.169 7.94 2.6 4.122-.57 7.25-2.658 6.993-4.663zm-13.185 1.073a.224.224 0 01-.016.124.164.164 0 01-.016.066c0 .156-.088.305-.224.346-.04.033-.072.075-.12.108-.185.132-.401-.009-.466-.199-.016-.033-.016-.066-.024-.099a.265.265 0 010-.321c.04-.05.072-.099.113-.141.088-.107.2-.206.32-.297.273-.198.53.14.433.413zm3.241-.19c-.626.14-1.588.272-2.054-.314-.409-.511 0-1.205.425-1.543.353-.289.77-.503 1.212-.569 1.066-.281 2.341-.124 2.197 1.056-.104.825-1.091 1.221-1.78 1.37z" fill="#F9CBC9"/><path d="M281.166 224.728c-1.355-1.403-3.232-1.774-5.093-1.708-1.925.066-3.986.008-5.542 1.329-.192.165-.008.511.233.437 3.296-1.056 6.721-.85 9.808.693.45.223.995-.338.594-.751z" fill="#C69474"/><path d="M468.673 176.696s7.755-4.679 8.284-17.331c.538-12.652-7.755-32.459-32.617-40.167-24.862-7.7-73.784 3.573-74.321 26.681 0 0-27.806 23.109-8.285 60.8 16.016 30.941 44.046 25.725 44.046 25.725l21.991-13.618 40.902-42.09z" fill="#3E2F28"/><path d="M473.382 174.154c-.081-5.364-.867-9.359-1.693-12.082a9.915 9.915 0 00-.064-.264s-.008.008-.016.008c-.914-2.93-1.837-4.324-1.837-4.324s-14.46 13.906-15.711 12.775c-1.259-1.131 2.358-11.315 2.358-11.315s-11.942 14.393-13.353 13.741c-1.412-.643-.313-16.332-.313-16.332s-11.156 18.594-12.567 17.95c-1.412-.644-.786-13.584-.786-13.584s-3.144 10.993-3.77 15.524c-.625 4.53-6.127-9.054-7.386-11.159-1.259-2.104.313 26.195.313 26.195l-3.24-3.441a13.999 13.999 0 00-1.532-1.626l-.257-.272-.04.025c-6.633-5.596-14.316-.009-11.91 11.347 3.409 16.094 14.837 7.634 14.837 7.634-1.002 14.443-10.626 27.442-10.626 27.442 10.426 9.078 43.3 2.393 54.335-10.936 12.792-15.441 14.084-34.893 13.258-47.306z" fill="#F4D9BF"/><path d="M414.402 193.896c-1.524-2.93-4.651-4.738-6.833-1.238-1.885 3.028-.738 7.518 2.398 9.07 2.045 1.015 3.922-.38 4.844-2.196.842-1.659.513-3.854-.409-5.636z" fill="#C69474"/><path d="M459.186 180.988c-3.44-1.238-6.937 1.502-7.603 5.018-.112.577.658 1.048.979.462.008-.008.016-.025.024-.033.08.016.176.016.24-.05 1.524-1.428 2.639-2.831 4.893-2.831 3.384 0 5.06 3.112 5.758 6.091.104.446.778.38.778-.082.032-3.136-2.037-7.486-5.069-8.575z" fill="#2C2F28"/><path d="M460.918 196.949c0 1.973-1.547 3.565-3.464 3.565-1.909 0-3.465-1.592-3.465-3.565 0-1.972 1.548-3.565 3.465-3.565 1.917 0 3.464 1.593 3.464 3.565z" fill="#461A00"/><path d="M456.115 195.571a.712.712 0 01-.706.726.712.712 0 01-.706-.726c0-.405.321-.726.706-.726.385-.009.706.321.706.726z" fill="#fff"/><path opacity=".7" d="M448.415 208.495c-.265-2.005-3.818-3.169-7.94-2.6-4.122.57-7.25 2.658-6.993 4.663.264 2.006 3.817 3.169 7.939 2.6 4.123-.569 7.25-2.657 6.994-4.663zm-13.185 1.073a.224.224 0 01-.016.124.164.164 0 01-.016.066c0 .157-.088.305-.225.346-.04.033-.072.075-.12.108-.185.132-.401-.009-.465-.198-.016-.033-.016-.066-.024-.099a.266.266 0 010-.322c.04-.05.072-.099.112-.141a1.91 1.91 0 01.321-.297c.272-.198.529.141.433.413zm3.24-.19c-.626.14-1.588.272-2.053-.314-.409-.511 0-1.204.425-1.543.353-.289.77-.503 1.211-.569 1.067-.281 2.342-.124 2.197 1.056-.104.825-1.09 1.222-1.78 1.37z" fill="#F9CBC9"/><path d="M451.19 223.491c-1.355-1.403-3.232-1.775-5.092-1.709-1.925.066-3.986.009-5.542 1.329-.193.165-.008.512.232.438 3.297-1.057 6.721-.85 9.809.693.449.223.994-.339.593-.751z" fill="#C69474"/><path d="M133.975 207.529s6.833-12.652 8.653-10.778c1.821 1.873-2.735 10.539-4.78 12.652-2.045 2.104-2.735 11.95-6.6 11.95h-13.434s-1.363-2.105-3.641-10.077c-2.278-7.964-1.82-10.778 1.821-6.561 0 0 5.461-16.63 7.739-15.466 2.278 1.172-.906 15.697-.906 15.697s7.057-17.571 8.421-16.638c1.363.941-2.96 16.638-2.96 16.638s7.972-16.399 9.336-15.466c1.363.949-3.649 18.049-3.649 18.049zm181.468 0s6.833-12.652 8.654-10.778c1.82 1.873-2.735 10.539-4.78 12.652-2.045 2.104-2.735 11.95-6.601 11.95h-13.433s-1.363-2.105-3.641-10.077c-2.278-7.964-1.821-10.778 1.82-6.561 0 0 5.462-16.63 7.74-15.466 2.277 1.172-.907 15.697-.907 15.697s7.058-17.571 8.421-16.638c1.364.941-2.959 16.638-2.959 16.638s7.972-16.399 9.335-15.466c1.364.949-3.649 18.049-3.649 18.049zm169.374 0s6.833-12.652 8.654-10.778c1.82 1.873-2.735 10.539-4.78 12.652-2.045 2.104-2.735 11.95-6.601 11.95h-13.433s-1.363-2.105-3.641-10.077c-2.278-7.964-1.821-10.778 1.82-6.561 0 0 5.462-16.63 7.74-15.466 2.277 1.172-.907 15.697-.907 15.697s7.058-17.571 8.421-16.638c1.364.941-2.959 16.638-2.959 16.638s7.972-16.399 9.335-15.466c1.356.949-3.649 18.049-3.649 18.049z" fill="#EFCAA6"/><path d="M99.257 463.067s-1.982 4.96-1.372 5.513c.61.553 2.703 14.838 8.028 14.64 5.325-.198 38.215-11.735 37.646-16.827-.57-5.084-28.295-4.143-28.295-4.143l-6.311-1.923-9.697 2.74zm-90.314-2.155C8.751 461.498.009 475 1.34 478.326c1.331 3.326 32.513 11.934 44.303 9.194 11.789-2.74 3.609-7.634-7.227-11.546-10.834-3.912-15.967-5.282-16.537-9.978-.577-4.688-12.936-5.084-12.936-5.084z" fill="#121212"/><path d="M45.49 352.765c0 .826-40.637 105.366-40.1 109.493.537 4.126 14.7 9.078 18.446 7.7 3.745-1.379 38.496-71.801 41.704-86.657l-20.05-30.536z" fill="#333"/><path d="M36.669 334.609s-.538 19.807 13.898 39.887c14.436 20.079 38.76 77.85 47.318 94.084 0 0 13.899-2.749 17.38-6.33 0 0-7.218-36.586-15.776-61.625-8.557-25.032-20.587-45.664-16.304-60.8l2.14-5.777c-.007.008-36.9-17.876-48.656.561z" fill="#4A4A4A"/><path d="M29.563 340.559s25.375 13.568 61.633.339c0 0-3.625-65.116-9.23-91.914-5.607-26.797-23.732-22.728-31.31-5.092-7.58 17.637-21.093 72.247-21.093 96.667z" fill="#404040"/><path d="M57.48 239.394c-2.735 4.218-7.74 18.272 8.878 29.752 16.617 11.48 43.485 13.824 52.82 8.204 9.335-5.621 14.797-36.082 14.34-55.526h-16.85s-7.972 29.289-11.613 30.461c-3.641 1.172-20.716-5.158-30.051-12.882-9.328-7.742-17.524-.009-17.524-.009zm12.976 79.658c.225 1.172.225 7.032.914 7.263.682.231 16.618-3.277 16.618-3.277l-1.82-5.62-15.712 1.634z" fill="#616161"/><path d="M129.427 240.211c0 1.23-.97 2.229-2.165 2.229s-2.165-.999-2.165-2.229c0-1.229.97-2.228 2.165-2.228s2.165.999 2.165 2.228zm2.03-9.457c0 1.229-.971 2.228-2.166 2.228-1.195 0-2.165-.999-2.165-2.228 0-1.23.97-2.229 2.165-2.229 1.203.008 2.166.999 2.166 2.229z" fill="#404040"/><path d="M280.508 463.067s-1.981 4.96-1.371 5.513c.61.553 2.703 14.838 8.028 14.64 5.325-.198 38.215-11.735 37.646-16.827-.569-5.084-28.295-4.143-28.295-4.143l-6.311-1.923-9.697 2.74zm-90.313-2.155c-.193.586-8.934 14.088-7.603 17.414 1.331 3.326 32.513 11.934 44.303 9.194 11.789-2.74 3.609-7.634-7.227-11.546-10.835-3.912-15.967-5.282-16.537-9.978-.577-4.688-12.936-5.084-12.936-5.084z" fill="#121212"/><path d="M226.742 352.765c0 .826-40.637 105.366-40.1 109.493.537 4.126 14.701 9.078 18.446 7.7 3.745-1.379 38.496-71.801 41.704-86.657l-20.05-30.536z" fill="#333"/><path d="M217.921 334.609s-.538 19.807 13.898 39.887c14.436 20.079 38.761 77.85 47.318 94.084 0 0 13.899-2.749 17.38-6.33 0 0-7.218-36.586-15.776-61.625-8.557-25.032-20.587-45.664-16.304-60.8l2.141-5.777c-.008.008-36.9-17.876-48.657.561z" fill="#4A4A4A"/><path d="M210.814 340.559s25.376 13.568 61.634.339c0 0-3.625-65.116-9.231-91.914-5.606-26.797-23.731-22.728-31.31-5.092-7.579 17.637-21.093 72.247-21.093 96.667z" fill="#404040"/><path d="M238.732 239.394c-2.735 4.218-7.739 18.272 8.878 29.752s43.485 13.824 52.82 8.204c9.335-5.621 14.797-36.082 14.34-55.526h-16.85s-7.972 29.289-11.613 30.461c-3.642 1.172-20.716-5.158-30.051-12.882-9.328-7.742-17.524-.009-17.524-.009zm12.976 79.658c.225 1.172.225 7.032.914 7.263.682.231 16.618-3.277 16.618-3.277l-1.821-5.62-15.711 1.634z" fill="#616161"/><path d="M310.679 240.211c0 1.23-.97 2.229-2.165 2.229s-2.165-.999-2.165-2.229c0-1.229.97-2.228 2.165-2.228s2.165.999 2.165 2.228zm2.03-9.457c0 1.229-.971 2.228-2.166 2.228-1.195 0-2.165-.999-2.165-2.228 0-1.23.97-2.229 2.165-2.229 1.203.008 2.166.999 2.166 2.229z" fill="#404040"/><path d="M450.532 463.067s-1.981 4.96-1.372 5.513c.61.553 2.703 14.838 8.028 14.64 5.326-.198 38.216-11.735 37.646-16.827-.569-5.084-28.294-4.143-28.294-4.143l-6.312-1.923-9.696 2.74zm-90.314-2.155c-.192.586-8.934 14.088-7.603 17.414 1.332 3.326 32.514 11.934 44.303 9.194 11.789-2.74 3.609-7.634-7.226-11.546-10.835-3.912-15.968-5.282-16.537-9.978-.578-4.688-12.937-5.084-12.937-5.084z" fill="#121212"/><path d="M396.765 352.765c0 .826-40.637 105.366-40.1 109.493.538 4.126 14.701 9.078 18.446 7.7 3.746-1.379 38.496-71.801 41.704-86.657l-20.05-30.536z" fill="#333"/><path d="M387.944 334.609s-.537 19.807 13.899 39.887c14.436 20.079 38.76 77.85 47.318 94.084 0 0 13.898-2.749 17.379-6.33 0 0-7.218-36.586-15.775-61.625-8.558-25.032-20.588-45.664-16.305-60.8l2.141-5.777c-.008.008-36.9-17.876-48.657.561z" fill="#4A4A4A"/><path d="M380.838 340.559s25.375 13.568 61.634.339c0 0-3.625-65.116-9.231-91.914-5.606-26.797-23.732-22.728-31.31-5.092-7.579 17.637-21.093 72.247-21.093 96.667z" fill="#404040"/><path d="M408.755 239.394c-2.734 4.218-7.739 18.272 8.878 29.752 16.618 11.48 43.485 13.824 52.82 8.204 9.335-5.621 14.797-36.082 14.34-55.526h-16.85s-7.972 29.289-11.613 30.461c-3.641 1.172-20.716-5.158-30.051-12.882-9.327-7.742-17.524-.009-17.524-.009zm12.976 79.658c.225 1.172.225 7.032.915 7.263.681.231 16.617-3.277 16.617-3.277l-1.82-5.62-15.712 1.634z" fill="#616161"/><path d="M480.703 240.211c0 1.23-.971 2.229-2.166 2.229-1.195 0-2.165-.999-2.165-2.229 0-1.229.97-2.228 2.165-2.228s2.166.999 2.166 2.228zm2.029-9.457c0 1.229-.97 2.228-2.165 2.228s-2.166-.999-2.166-2.228c0-1.23.971-2.229 2.166-2.229 1.203.008 2.165.999 2.165 2.229z" fill="#404040"/><path d="M119.434 172.702l3.449-.545s15.037-1.609 17.483-17.042c2.439-15.433-15.43-23.241-21.012-13.552 0 0 3.745-11.843-6.191-18.032-9.937-6.19-17.003 4.126-17.003 4.126s1.131-12.924-13.257-14.443c-14.388-1.526-15.96 10.861-15.96 10.861s-3.536-16.993-23.627-8.789c-16.04 6.553-13.954 18.033-13.954 18.033.385-.149-20.163-.661-19.866 23.991 0 0-8.621 3.615-9.423 16.093-.802 12.479 5.309 16.605 5.309 16.605s-5.919 19.395 12.03 26.509c0 0 9.929 20.22 39.097 17.125l20.05-15.367s2.607-29.612 3.208-29.81c.602-.198 30.404-6.14 39.667-15.763z" fill="#6B534A"/><path d="M119.875 167.412s.601 3.714 3.007 4.745c0 0-.2 38.377-12.431 50.55-12.23 12.173-43.91 20.013-54.335 10.935 0 0 9.624-12.999 10.626-27.441 0 0-11.428 8.459-14.837-7.634-3.408-16.094 13.434-20.633 18.847 1.857l1.805-.413 2.005-18.776s9.624 8.46 15.84-5.777c0 0 9.022 8.047 16.44-4.951 0 0 7.427 7.856 13.033-3.095z" fill="#F4D9BF"/><path d="M64.73 195.134c-1.524-2.93-4.651-4.738-6.833-1.238-1.884 3.029-.738 7.518 2.398 9.07 2.045 1.015 3.922-.38 4.844-2.196.842-1.658.514-3.854-.409-5.636z" fill="#C69474"/><path d="M109.513 182.226c-3.44-1.238-6.937 1.502-7.602 5.018-.113.577.657 1.048.978.462.008-.008.016-.025.024-.033.08.016.176.016.241-.05 1.523-1.427 2.638-2.83 4.892-2.83 3.384 0 5.06 3.111 5.758 6.09.104.446.778.38.778-.082.032-3.136-2.037-7.486-5.069-8.575z" fill="#6B534A"/><path d="M111.246 198.187c0 1.972-1.548 3.565-3.465 3.565-1.909 0-3.465-1.593-3.465-3.565s1.548-3.565 3.465-3.565c1.917 0 3.465 1.593 3.465 3.565z" fill="#461A00"/><path d="M106.442 196.809a.712.712 0 01-.706.726.712.712 0 01-.706-.726c0-.404.321-.726.706-.726.385 0 .706.322.706.726z" fill="#fff"/><path opacity=".7" d="M98.743 209.733c-.265-2.005-3.818-3.169-7.94-2.6-4.122.57-7.25 2.658-6.993 4.663.264 2.006 3.817 3.17 7.94 2.6 4.122-.569 7.25-2.657 6.993-4.663zm-13.185 1.073a.223.223 0 01-.016.124.16.16 0 01-.016.066c0 .157-.088.305-.225.347-.04.033-.072.074-.12.107-.184.132-.4-.008-.465-.198-.016-.033-.016-.066-.024-.099a.266.266 0 010-.322c.04-.05.072-.099.112-.14.088-.108.2-.207.32-.298.274-.198.53.141.434.413zm3.24-.19c-.626.141-1.588.273-2.053-.313-.41-.512 0-1.205.425-1.544.353-.289.77-.503 1.211-.569 1.067-.281 2.342-.124 2.198 1.056-.105.826-1.091 1.222-1.78 1.37z" fill="#F9CBC9"/><path d="M101.517 224.729c-1.355-1.403-3.232-1.775-5.092-1.709-1.925.066-3.986.009-5.542 1.329-.193.165-.008.512.233.437 3.296-1.056 6.72-.85 9.808.694.449.223.994-.339.593-.751z" fill="#C69474"/></svg>