<svg width="488" height="696" fill="none" xmlns="http://www.w3.org/2000/svg"><path d="M134.493 205.537s19.432 17.092 35.127 57.581c15.695 40.489 21.076 55.713 21.076 55.713l-18.73 11.235-11.24-4.452s-14.993-47.286-27.161-69.518c-12.168-22.232-11.704-35.574-11.704-35.574l12.632-14.985z" fill="#1A2B66"/><path d="M36.95 617.732s-.35 15.8-1.404 21.417c-1.054 5.618-2.81 11.587 9.484 14.395 12.295 2.809 35.479 5.267 44.26 4.565 8.782-.702 16.511-4.565 4.216-12.64-12.295-8.075-24.94-12.991-27.048-18.96-2.108-5.968-29.507-8.777-29.507-8.777z" fill="#121212"/><path d="M32.385 622.296s8.781 9.831 40.045 6.671l3.864-108.14-44.26-4.213.35 105.682z" fill="#333"/><path d="M104.395 621.594s-.351 15.8-1.405 21.418c-1.054 5.617-2.81 11.586 9.485 14.395 12.294 2.809 35.478 5.266 44.26 4.564 8.782-.702 16.51-4.564 4.215-12.64-12.294-8.075-24.94-12.99-27.048-18.959-2.107-5.969-29.507-8.778-29.507-8.778z" fill="#121212"/><path d="M99.829 626.159s8.782 9.83 40.045 6.671l3.864-108.14-44.26-4.213.35 105.682z" fill="#333"/><path d="M4.31 520.954s1.883-119.389 12.576-207.362C27.58 225.62 54.6 184.78 100.49 187.926c45.891 3.146 44.008 137.604 47.773 238.146 3.766 100.542 0 103.056 0 103.056s-72.924 11.305-143.951-8.174z" fill="#2E3B69"/><path d="M70.378 191.661c1.813 3.16 36.153 55.11 36.153 55.11l16.271-44.717s-8.136-15.35-23.044-19.423c-14.908-4.073-29.38 9.03-29.38 9.03z" fill="#1E2B59"/><path d="M78.752 190.089l25.994 36.865s8.782-28.439 9.836-28.439c1.054 0-10.974-13.932-35.83-8.426zm44.963 20.139s8.894 138.096 8.43 186.323c-.463 48.214.942 70.684.942 70.684l16.397-.463s1.405-92.228-1.868-142.309c-3.274-50.096-14.515-121.721-14.515-121.721l-9.386 7.486zm-51.989-20.14s23.887 73.493 29.971 103.463c6.084 29.957.941 177.42-.464 179.765-1.405 2.346-30.912-.463-30.912-.463s2.347-113.294 4.68-139.978c2.346-26.684 0-45.405-5.621-81.456-5.62-36.051-9.372-52.427-9.372-52.427s6.098-7.499 11.718-8.904z" fill="#E5ECE3"/><path d="M85.019 443.304s0 18.847.14 19.128c.14.295 3.583 0 3.583 0l1.237-19.648h6.21s2.122-3.806-.14-4.817c-.73-.337-5.34-.73-5.34-.73l-.435-6.432h-5.69l.07 6.713-6.436.14s-2.6 5.702-.225 5.702c.169.014 7.026-.056 7.026-.056zm54.532-9.255s.758 13.511.857 13.721c.098.197 2.164-.126 2.164-.126l-.043-14.129 3.752-.21s1.124-2.795-.281-3.455c-.464-.211-3.246-.337-3.246-.337l-.52-4.593-3.442.197.309 4.817-3.864.323s-1.335 4.171.098 4.087c.071-.014 4.216-.295 4.216-.295z" fill="#113A49"/><path d="M78.05 279.62c.703 1.053 90.629 29.141 90.629 29.141v9.129l-93.79-30.897 3.161-7.373zm134.889 4.213c-1.11-.126-44.26 24.928-44.26 24.928v9.129s43.909-24.226 47.422-26.333c3.512-2.106 2.81-7.022-3.162-7.724z" fill="#FFE7CC"/><path d="M74.888 286.993l-33.61 97.845s79.627 5.155 80.33 5.155c.702 0 47.07-72.089 47.07-72.089l-93.79-30.911z" fill="#363133"/><path d="M216.915 291.445l-46.593 79.574-48.715 18.96 47.071-72.089 48.237-26.445z" fill="#272726"/><path d="M218.207 132.859s11.241 0 18.969-36.164c7.728-36.163-17.915-63.437-55.389-84.967-37.474-21.53-90.867-8.426-102.108 0 0 0-39.343-1.868-65.576 51.5-26.233 53.368 7.026 119.375 47.773 119.838l4.216-5.154-5.157-17.316 47.773-71.162 107.729 14.044 1.77 29.381z" fill="#2A3A49"/><path opacity=".7" d="M105.322 186.914c-.337-2.485-4.861-3.918-10.102-3.216-5.255.703-9.232 3.287-8.909 5.773.338 2.485 4.862 3.918 10.103 3.216 5.255-.717 9.231-3.287 8.908-5.773zm-16.79 1.321c.013.056 0 .098-.015.154a.198.198 0 01-.028.084c0 .197-.112.38-.28.422-.043.042-.085.098-.155.14-.225.155-.506-.014-.59-.239-.014-.042-.029-.084-.029-.126-.084-.112-.098-.253 0-.393.043-.056.099-.127.14-.183a2.08 2.08 0 01.408-.365c.352-.253.675.183.548.506zm4.13-.225c-.8.168-2.023.337-2.613-.379-.52-.632 0-1.489.548-1.91.45-.351.984-.618 1.531-.702 1.363-.338 2.993-.155 2.81 1.306-.154 1.011-1.404 1.488-2.276 1.685z" fill="#F9CBC9"/><path d="M52.054 162.464s10.89 44.477 66.04 50.446c58.213 6.306 113.349-49.042 108.656-117.38 0 0-65.098 7.962-120.838-19.199 0 0-31.376 57.118-45.905 71.625 0 0 .464-13.581-7.489-19.198-7.967-5.618-19.207 4.452-20.374 17.091-1.166 12.64 7.026 19.901 19.91 16.615z" fill="#F4D9BF"/><path opacity=".5" d="M52.982 144.754c.07-2.935-1.068-5.688-3.723-7.809-1.616-1.292-4.173-.547-5.775.239-2.389 1.166-3.64 4.157-4.469 6.475-1.475 4.1-.97 9.943 2.726 12.822 4.567 3.567 9.12.632 10.862-4.059.758-2.036.899-5 .38-7.668z" fill="#C69474"/><path d="M137.091 173.053a6.062 6.062 0 01-6.07 6.067 6.07 6.07 0 01-6.07-6.067 6.06 6.06 0 016.07-6.067 6.06 6.06 0 016.07 6.067z" fill="#461A00"/><path d="M128.675 170.693c0 .689-.548 1.236-1.236 1.236a1.229 1.229 0 01-1.237-1.236c0-.688.562-1.235 1.237-1.235.674 0 1.236.561 1.236 1.235z" fill="#fff"/><path d="M194.939 174.907a6.062 6.062 0 01-6.07 6.067 6.07 6.07 0 01-6.07-6.067 6.06 6.06 0 016.07-6.067 6.06 6.06 0 016.07 6.067z" fill="#461A00"/><path d="M186.523 172.547c0 .689-.548 1.236-1.237 1.236a1.229 1.229 0 01-1.236-1.236c0-.688.562-1.235 1.236-1.235.675 0 1.237.561 1.237 1.235z" fill="#fff"/><path d="M201.093 140.639c-4.819-.084-8.922 2.781-11.156 6.952-.197.365.197.941.618.646 2.333-1.629 4.792-3.37 7.531-4.199 2.431-.744 4.693.491 6.52 1.994 1.138.927 1.546 2.444 2.684 3.413.829.702 2.248.379 2.276-.871.098-4.157-4.384-7.85-8.473-7.935zm-50.696 5.014c-2.318-3.736-4.931-7.12-9.695-7.654-5.269-.59-10.988.997-14.697 4.901-1.419 1.489.239 3.792 2.108 2.879 3.709-1.811 6.885-3.721 11.128-4.072 4.159-.352 7.18 2.556 10.271 4.803.492.393 1.223-.309.885-.857z" fill="#2A3A49"/><path opacity=".5" d="M149.33 200.327c-3.639-4.115-9.372-4.93-14.501-4.045-4.552.786-11.058 2.458-14.051 6.25-1.349 1.699-2.192 5.673-.787 7.611 2.825 3.905 8.684 4.031 13.138 4.003 4.595-.028 11.466-.716 14.936-4.157 2.389-2.359 3.836-6.741 1.265-9.662z" fill="#C69474"/><path d="M201.459 314.618c.239-1.011 5.621 5.154 5.382 9.592-.239 4.438-11.241 30.195-24.589 36.753-13.349 6.559-3.752-6.558 3.751-10.533 0 0-21.315 3.975 6.323-10.294 0 0-13.109 5.379-13.587.941-.478-4.438 16.397-9.368 16.397-9.368s-12.407 1.644-14.051-2.808c-1.63-4.452 18.744-7.5 20.374-14.283z" fill="#EFCAA6"/><path d="M87.183 338.956l-5.157 40.265s-44.5 9.831-69.313-20.603c-24.814-30.434-8.894-92.228 10.3-120.779 19.207-28.552 36.995-38.86 36.995-38.86s-34.186 79.11-25.291 111.889c8.908 32.779 52.466 26.22 52.466 28.088z" fill="#283562"/><path d="M101.698 340.599c.702.239 31.151-15.209 33.019-11.474 1.869 3.75-21.54 17.317-21.54 17.317s23.184-4.916 25.053-1.868c1.869 3.047-24.35 13.103-24.35 13.103s18.73-1.868 19.207 2.107c.464 3.974-21.315 7.485-21.315 7.485s15.695.239 17.1 3.272c1.405 3.048-44.724 10.772-45.904 3.048l3.049-25.982s13.348-24.816 17.325-23.875c3.976.941-1.644 16.867-1.644 16.867z" fill="#EFCAA6"/><path opacity=".7" d="M110.423 190.664c.969-3.146-3.639-7.359-10.3-9.409-6.66-2.051-12.842-1.166-13.812 1.98-.97 3.146 3.64 7.359 10.3 9.41 6.66 2.05 12.828 1.165 13.812-1.981zm-20.782-7.654a.458.458 0 01-.098.183c-.014.042-.056.056-.084.084-.113.239-.352.393-.576.351l-.253.085c-.365.056-.604-.295-.576-.618 0-.057.014-.113.028-.155-.028-.183.014-.365.225-.463.098-.043.182-.099.267-.127.196-.112.45-.168.688-.224.548-.141.703.547.38.884zm5.045 1.995c-1.054-.239-2.614-.717-2.923-1.91-.267-1.054.815-1.784 1.7-1.981.731-.168 1.518-.196 2.234 0 1.813.337 3.654 1.461 2.628 3.104-.717 1.152-2.487 1.039-3.64.787z" fill="#F9CBC9"/><path d="M434.55 460.227H121.326v9.789H434.55v-9.789z" fill="#2A3A49"/><path d="M440.24 481.574H115.635v204.202H440.24V481.574zm-281.862-46.626l-37.502 25.995h314.137l-32.893-25.995H158.378z" fill="#394C5F"/><path d="M410.691 508.342H145.198v150.68h265.493v-150.68z" fill="#2A3A49"/><path d="M403.44 517.19H152.448v132.984H403.44V517.19zm43.53-48.045H108.904v22.077H446.97v-22.077z" fill="#48586E"/><path d="M458.239 677.63H86.156v14.508H458.24V677.63z" fill="#272726"/><path d="M65.797 664.836V696h35.577v-31.164c-19.278-11.39-35.577 0-35.577 0zm386.626 0V696H488v-31.164c-19.264-11.39-35.577 0-35.577 0z" fill="#2A3A49"/><path d="M369.874 422.631c4.033.07 9.386-.323 6.885-5.772-2.965-6.474-11.676-9.311-19.812-8.974 2.993-2.654 4.328-5.969 1.841-9.943-2.445-3.891-9.386-3.947-13.321-3.469-3.554.435-7.011 1.25-10.439 2.289.632-.829 1.25-1.671 1.784-2.584 1.377-2.332 2.206-5.126 2.206-7.823 0-2.163.815-5-1.517-6.207-1.799-.941-5.396-.885-7.335-.618-3.372.477-6.449 1.545-9.527 2.991-3.793 1.77-7.109 3.82-10.06 6.362.984-4.325.365-8.454.225-13.201-.028-.745-.632-1.25-1.377-1.11-6.393 1.264-11.887 4.312-16.651 8.722-1.756 1.615-3.85 3.89-5.423 6.39a52.476 52.476 0 00-1.981-5.056c-1.293-2.879-3.134-5.449-5.087-7.921-1.264-1.615-2.88-4.494-4.932-5.126-.295-.099-.716-.028-.927.224-3.133 3.624-5.072 8.736-6.197 13.328-.533 2.177-.674 4.284-.548 6.362a30.498 30.498 0 00-3.948-6.432c-1.236-1.531-3.414-4.592-5.409-5.224-1.153-.365-2.066-.211-2.811.87-1.391 1.995-2.88 3.933-4.173 5.997-2.627 4.185-4.566 8.637-5.058 13.412-5.101-7.485-13.475-12.976-21.484-16.333-4.075-1.699-4.398 6.657-4.145 8.637.52 4.214 1.798 8.272 3.681 12.05a65.105 65.105 0 00-3.934-3.483c-2.74-2.275-6.618-5.674-10.257-6.264-.45-.07-.815.323-.97.689-.688 1.685.661 4.381 1.04 6.081.717 3.16 2.347 5.884 4.047 8.609.196.323.463.73.759 1.165-3.176-.842-6.618-.772-9.766.029-4.777 1.221-11.086 4.676-13.91 8.819-2.389 3.497 6.421 4.986 7.995 5.183 2.178.28 4.313.295 6.421.154-2.684.969-5.199 2.233-7.517 3.961-2.052 1.544-11.564 8.412-4.651 10.617 9.063 2.879 19.362 1.952 29.029-.815-2.037 1.7-3.962 3.596-5.606 5.646-1.588 1.994-7.012 11.98-1.307 12.176 3.021.099 6.295-1.46 9.077-2.542 4.075-1.601 7.7-4.002 11.255-6.502 3.442-2.416 6.533-5.07 9.273-8.047a42.025 42.025 0 00-.716 13.285c.056.52.744.885 1.222.731 4.258-1.349 8.262-5.772 11.381-8.792 2.277-2.219 4.384-4.522 6.07-7.092 1.237 5.786 4.16 11.249 8.586 14.985.337.281.772.421 1.194.182 1.152-.66 1.855-2.148 2.613-3.216 1.672-2.345 3.134-4.733 4.679-7.148 1.096-1.7 2.15-3.581 2.965-5.562 1.026 1.517 2.234 2.922 3.443 4.171 3.372 3.497 6.913 7.023 11.451 8.904 3.555 1.475 1.785-3.679 1.447-5.182a93.285 93.285 0 01-1.068-5.828c1.125 1.446 2.431 2.781 3.541 3.932 1.743 1.826 3.808 3.329 5.902 4.719 1.658 1.095 3.611 2.584 5.536 3.132.407.112.871-.042 1.11-.407 1.939-3.174 2.107-7.57 1.433-11.587 7.278 5.688 16.229 9.199 25.207 10.912.773.141 1.335-.393 1.237-1.165-.323-2.303-1.546-4.579-2.824-6.713a72.12 72.12 0 005.648 4.381c3.176 2.233 6.773 3.863 10.496 5 2.347.716 6.674 1.77 8.824.056 4.019-3.188-2.445-9.901-6.393-13.482 1.433.393 2.951.632 4.581.688 4.889.141 15.203-.084 15.933-6.488.562-4.733-4.482-7.879-8.936-9.733z" fill="#78B946"/><path d="M359.982 421.241c-.632-4.269-5.887-6.236-9.611-6.755-3.414-.464-7.011-.66-10.51-.253 6.014-3.806 11.733-8.792 7.419-12.275-3.555-2.865-10.117-1.502-14.107-.337a41.952 41.952 0 00-13.348 6.671c1.348-2.064 2.529-4.255 3.47-6.614.984-2.458 1.574-4.888 1.574-7.514 0-1.362.365-3.581-.759-4.621-.323-.295-.688-.337-1.082-.168-4.327 1.741-8.374 3.778-12.266 6.404-2.6 1.755-5.508 3.778-7.728 6.236 0-2.065-.028-4.143-.071-6.208-.042-2.219-.267-4.466-.154-6.685.028-.66-.113-1.236-.604-1.699a.896.896 0 00-1.054-.169c-3.246 1.615-6.281 4.607-8.726 7.233-2.332 2.528-3.597 5.533-5.114 8.454-.886-2.738-1.869-5.449-2.782-8.047-1.167-3.314-3.232-7.331-6.998-8.061-2.936-.576-4.412 2.542-5.114 4.775-1.349 4.269-2.445 8.567-3.766 12.836-.365-.73-.731-1.446-1.11-2.163-1.054-2.008-2.88-8.721-5.915-8.805-3.162-.085-5.368 2.949-7.026 5.294-2.585 3.68-3.485 7.753-4.299 11.994-1.785-1.812-3.682-3.525-5.607-5.154-3.513-2.978-8.641-7.57-13.601-7.71-4.173-.113-.618 6.685.098 8.159 1.335 2.725 3.176 5.969 5.649 8.216-3.991.309-7.995 1.053-11.494 2.472-4.019 1.615-10.988 5.477-11.437 10.491-.577 6.32 9.863 3.483 18.631.042-2.136 2.289-4.285 5.646-3.583 8.721.731 3.174 5.747 1.377 7.447.674 4.679-1.938 9.021-5.87 12.758-9.465-.815 3.342-2.782 10.87 1.532 12.401 5.269 1.868 11.128-3.385 14.922-6.39a127.311 127.311 0 003.752-3.104c.168 1.306.674 2.556 1.601 3.567 2.333 2.514 5.986.407 7.967-1.334 2.375-2.107 4.426-4.494 6.562-6.797-.056 4.845 1.194 10.097 6.52 9.465 3.063-.365 4.749-4.339 5.69-6.755.239-.604.45-1.194.675-1.784.211.998.478 1.995.815 2.992.969 2.921 3.316 8.047 6.59 9.086 3.231 1.012 4.608-1.306 4.636-4.269.043-4.663 2.024-8.3 4.258-11.966.14 5.379 3.611 14.831 10.398 13.848 3.948-.576 4.735-3.947 4.201-7.767 2.515 3.526 5.831 6.236 10.285 6.685 6.562.661 5.944-5.533 3.4-9.844 2.192.463 4.483.617 6.871.519 2.333-.112 10.749-.463 10.145-4.522z" fill="#3B9B45"/><path d="M277.039 400.652c.21-.042.407-.098.604-.168-.084.168-.183.323-.253.491-.646 1.657-.408 3.652 1.405 4.326 1.799.674 3.639-1.278 4.37-2.641l.084-.21c.885 1.109 2.445 1.882 3.667.983.591-.435.591-1.545.548-2.177-.042-.604-.21-1.194-.435-1.755.393.028.787.028 1.18-.029 2.248-.294 4.005-1.853 2.895-4.185-.815-1.713-2.965-2.022-4.637-1.896a8.847 8.847 0 00-1.7.309c.52-1.011.59-2.359.182-3.286-.744-1.741-2.599-3.118-4.566-2.767-2.15.394-3.091 2.233-2.347 4.27.141.379.337.786.604 1.179-3.133-.533-6.814.955-6.407 4.551.267 2.303 2.67 3.441 4.806 3.005zm12.225 16.881c.323-1.081.239-2.331-.211-3.37-.969-2.219-3.007-4.143-5.522-4.228-2.318-.07-3.892 2.346-3.344 4.48.155.604.394 1.208.689 1.784-2.81-1.545-6.253-1.643-8.178 1.489-1.307 2.134.028 4.887 2.29 5.631.914.295 1.827.366 2.726.295-1.475 1.377-2.557 3.245-2.304 5.323.309 2.542 4.159 1.629 5.564 1.053.956-.393 1.981-1.067 2.852-1.91.422 1.981 2.22 3.343 4.342 2.851 2.754-.632 3.33-3.679 2.487-6.053.984.211 2.052.197 3.148-.07 2.29-.548 4.369-2.247 3.569-4.803-.928-3.034-5.031-3.595-8.108-2.472zm67.487 3.343c-2.122-1.559-4.707-1.391-6.885-.056-.07-3.385-3.428-7.781-6.576-6.91-2.557.702-3.232 3.146-2.951 5.603.127 1.012.478 2.43 1.082 3.666-.941-.59-1.995-.941-3.302-.786-2.121.252-3.934 1.685-4.384 3.834-.421 2.008 1.434 3.272 3.092 3.763.955.295 1.925.295 2.838.127-.927 1.517-1.279 3.413-.379 5.028.983 1.755 3.583 1.474 5.058.716 1.194-.618 2.108-1.756 2.726-3.034.787 1.798 2.403 3.174 4.384 3.525 2.655.464 3.569-2.205 3.203-4.367-.224-1.363-.829-2.697-1.742-3.722 1.518.042 3.035-.337 4.061-1.292 1.869-1.728 1.911-4.522-.225-6.095z" fill="#FFD060"/><path d="M327.271 409.598c-1.475-2.485-4.201-4.03-7.124-3.483a9.953 9.953 0 00-3.007 1.082c.436-1.489.225-3.132-.365-4.677-.745-1.952-2.642-4.691-5.115-4.087-3.512.857-3.864 4.86-2.753 8.09-.942-.787-2.136-1.363-3.583-1.756-3.078-.842-6.295.281-6.998 3.567-.66 3.062 2.81 5.365 5.269 6.18.352.112.717.196 1.082.253-1.939 1.853-3.189 4.423-2.599 6.642.66 2.5 4.018 2.627 5.943 1.953 1.981-.689 3.597-2.402 4.609-4.312.225 2.331 1.756 4.859 4.103 5.224 4.328.689 5.761-4.831 4.271-8.524 1.139.112 2.333-.071 3.513-.562 2.136-.899 4.201-3.146 2.754-5.59zm-73.697-4.381c.169-3.919-3.723-8.638-7.587-7.079-3.864 1.559-2.768 5.786-.253 8.525-1.574-.407-3.218-.477-4.988.056-2.557.759-4.581 3.357-3.892 6.095.716 2.837 3.47 4.143 6.309 3.764.604-.084 1.138-.21 1.672-.365-.225.379-.45.773-.633 1.194-.955 2.092-.66 5.182 1.925 5.969 3.499 1.067 5.817-1.292 6.956-4.354 1.447 1.755 4.861 3.82 6.927 1.769 2.206-2.204 1.967-5.435.562-8.033-.014-.028-.028-.042-.042-.07 2.641-.8 5.409-3.427 3.92-6.334-2.066-3.96-7.728-3.792-10.876-1.137z" fill="#FFE754"/></svg>