<svg width="107" height="126" fill="none" xmlns="http://www.w3.org/2000/svg"><g filter="url(#filter0_d_201:4186)" fill="#fff"><path d="M42.264 90.541c-.912.481-1.858.98-2.82.98-.265 0-.53-.034-.763-.117-1.228-.398-1.858-1.692-2.406-2.837-.298-.597-.73-1.51-1.061-1.659a.702.702 0 00-.266-.033c-.448 0-1.078.182-1.692.365-.763.216-1.543.448-2.306.448-.531 0-.996-.116-1.394-.349-1.111-.647-1.46-2.04-1.758-3.268-.166-.697-.399-1.642-.697-1.858-.066-.05-.266-.15-.913-.15-.331 0-.697.034-1.078.05-.398.034-.813.05-1.228.05-.116 0-.232 0-.365-.016l-13.62 18.315 12.044.598 4.115 11.414 16.391-22.049a.625.625 0 01-.183.116zM20.448 78.696L4.455 100.231l2.787.132 14.119-18.996c-.68-.68-.846-1.675-.913-2.67zm24.588 11.945l-18.1 24.372.929 2.554 18.664-25.134c-.382-.382-.714-.813-1.029-1.211a10.696 10.696 0 00-.464-.58zm38.008-8.444c-.415 0-.83-.033-1.227-.05-.382-.033-.747-.05-1.079-.05-.63 0-.846.1-.912.15-.282.215-.531 1.16-.697 1.858-.299 1.227-.647 2.621-1.759 3.268-.398.232-.862.348-1.393.348-.747 0-1.543-.232-2.306-.448-.614-.182-1.245-.364-1.693-.364-.165 0-.232.016-.265.033-.332.149-.763 1.061-1.062 1.659-.547 1.144-1.178 2.439-2.405 2.837a2.367 2.367 0 01-.764.116c-.962 0-1.907-.498-2.82-.979a.775.775 0 00-.166-.083l16.392 22.049 4.114-11.414 12.045-.598-13.621-18.316c-.15-.033-.266-.016-.382-.016zm3.418-3.501c-.066.979-.232 1.974-.912 2.655l14.118 19.012 2.788-.132-15.994-21.535zM61.41 91.222c-.315.415-.663.846-1.028 1.21l18.664 25.135.93-2.554-18.101-24.372c-.166.2-.332.398-.465.58z"/><path d="M62.455 88.285c1.543-.332 3.8 2.09 5.276 1.61 1.493-.482 1.908-3.766 3.335-4.397 1.427-.63 4.147 1.244 5.491.465 1.36-.78 1.079-4.082 2.34-4.994 1.26-.913 4.313.365 5.474-.68 1.162-1.046.2-4.214 1.245-5.376 1.045-1.161 4.297-.53 5.21-1.808.912-1.261-.681-4.164.115-5.508.78-1.344 4.081-1.41 4.728-2.854.63-1.426-1.526-3.932-1.045-5.425.481-1.476 3.7-2.24 4.032-3.766.315-1.51-2.323-3.517-2.157-5.077.166-1.542 3.152-2.953 3.152-4.529s-2.986-2.986-3.152-4.529c-.166-1.576 2.472-3.567 2.157-5.077-.332-1.543-3.55-2.29-4.032-3.766-.48-1.493 1.676-3.998 1.046-5.425-.631-1.427-3.95-1.493-4.729-2.853-.78-1.36.813-4.247-.116-5.508-.912-1.261-4.164-.647-5.21-1.809-1.045-1.161-.082-4.33-1.244-5.375-1.161-1.045-4.214.232-5.474-.68-1.261-.913-.98-4.214-2.34-4.994-1.344-.78-4.064 1.112-5.491.465-1.427-.63-1.842-3.916-3.335-4.397-1.477-.481-3.733 1.925-5.276 1.61-1.51-.316-2.604-3.451-4.18-3.6-1.543-.167-3.252 2.67-4.828 2.67-1.576 0-3.285-2.837-4.828-2.67-1.576.165-2.655 3.284-4.18 3.6-1.544.331-3.8-2.091-5.277-1.61-1.493.481-1.908 3.766-3.334 4.397-1.427.63-4.148-1.245-5.492-.465-1.36.78-1.078 4.081-2.34 4.994-1.26.912-4.313-.365-5.474.68-1.161 1.045-.2 4.214-1.244 5.375-1.045 1.162-4.297.531-5.21 1.809-.912 1.26.68 4.164-.116 5.508-.78 1.344-4.081 1.41-4.728 2.853-.63 1.427 1.526 3.932 1.045 5.425-.481 1.477-3.7 2.24-4.031 3.766-.316 1.51 2.322 3.518 2.156 5.077-.165 1.543-3.152 2.953-3.152 4.53 0 1.575 2.987 2.986 3.152 4.528.166 1.577-2.472 3.567-2.156 5.077.331 1.543 3.55 2.29 4.031 3.766.481 1.493-1.675 3.998-1.045 5.425.63 1.427 3.948 1.494 4.728 2.854.78 1.36-.813 4.247.116 5.508.913 1.26 4.165.647 5.21 1.808 1.045 1.162.083 4.33 1.244 5.376 1.161 1.045 4.214-.233 5.475.68 1.26.912.979 4.214 2.34 4.994 1.343.78 4.064-1.112 5.49-.465 1.427.63 1.842 3.915 3.335 4.396 1.477.482 3.733-1.924 5.276-1.609 1.51.315 2.605 3.451 4.18 3.6 1.544.166 3.253-2.67 4.829-2.67 1.576 0 3.285 2.836 4.828 2.67 1.576-.166 2.67-3.285 4.18-3.6zm-9.008-1.526c-22.547 0-40.83-18.283-40.83-40.83 0-22.546 18.283-40.828 40.83-40.828 22.546 0 40.829 18.282 40.829 40.829 0 22.546-18.283 40.829-40.83 40.829z"/><path d="M91.622 47.108c-.266 0-.498.199-.498.464 0 .266.2.498.465.515.265.016.514-.2.514-.465 0-.282-.2-.514-.481-.514zm-.117 2.156a.509.509 0 00-.53.448.483.483 0 00.43.531.499.499 0 00.548-.431c.017-.282-.182-.531-.448-.548zm-.248 2.141a.496.496 0 00-.548.414.488.488 0 00.398.564c.266.05.515-.132.565-.414.05-.266-.15-.515-.415-.564zm-.366 2.14a.493.493 0 00-.58.381c-.067.266.1.515.364.581a.493.493 0 10.216-.962zm-.481 2.107a.51.51 0 00-.614.348.496.496 0 00.332.597c.265.083.53-.083.614-.348a.475.475 0 00-.332-.597zm-.613 2.073a.477.477 0 00-.614.316c-.083.248.05.53.298.63.25.083.531-.05.614-.315.083-.266-.05-.548-.298-.63zm-.731 2.041a.497.497 0 00-.63.266.5.5 0 00.282.647c.249.1.53-.017.63-.266.083-.265-.033-.564-.282-.647zm-.846 1.991a.492.492 0 00-.647.232c-.1.25-.016.531.233.647.248.116.547.017.647-.232a.461.461 0 00-.233-.647zm-.945 1.941a.47.47 0 00-.647.2.488.488 0 00.182.663c.233.132.531.05.68-.2a.506.506 0 00-.215-.663zm-1.062 1.875a.507.507 0 00-.68.166.465.465 0 00.15.663c.231.15.53.084.68-.149.165-.232.082-.53-.15-.68zm-1.841 1.941c-.15.216-.1.531.116.68.216.15.531.1.68-.116a.48.48 0 00-.116-.68.494.494 0 00-.68.116zm-1.278 1.726a.5.5 0 00.083.696.5.5 0 00.697-.083.499.499 0 00-.083-.696c-.232-.166-.53-.133-.697.083zm-.681 1.592c-.199-.182-.514-.15-.696.05-.183.199-.15.514.05.697a.482.482 0 00.696-.05.495.495 0 00-.05-.697zm-2.139 1.609c-.183.2-.2.498 0 .697.183.2.514.2.697 0a.496.496 0 00-.017-.697.462.462 0 00-.68 0zm-1.544 1.477a.493.493 0 00-.05.68.514.514 0 00.697.05.496.496 0 00.034-.697.463.463 0 00-.68-.033zm-1.625 1.377a.479.479 0 00-.083.68.499.499 0 00.697.083.48.48 0 00.083-.68.5.5 0 00-.697-.083zm-1.709 1.294a.497.497 0 00-.116.68c.15.216.465.266.68.116.233-.166.282-.464.117-.68-.15-.232-.448-.282-.68-.116zm-1.759 1.195a.487.487 0 00-.15.68c.15.232.449.298.681.149a.487.487 0 00.15-.68.49.49 0 00-.68-.15zm-1.841 1.094a.488.488 0 00-.183.664.474.474 0 00.664.182.504.504 0 00.182-.68.499.499 0 00-.663-.166zm-1.891.979c-.233.117-.349.399-.233.647a.484.484 0 00.664.233c.249-.133.349-.432.216-.664a.486.486 0 00-.647-.216zm-1.942.879a.482.482 0 00-.265.63c.1.25.381.382.647.266.265-.1.365-.398.265-.647a.533.533 0 00-.647-.249zm-1.99.764a.486.486 0 10.332.913.463.463 0 00.298-.615.514.514 0 00-.63-.298zm-2.042.647a.482.482 0 00-.331.597.48.48 0 00.614.332c.265-.083.414-.349.331-.598a.514.514 0 00-.614-.331zm-2.056.531c-.266.066-.432.332-.365.58.066.25.315.432.58.365.266-.066.432-.332.365-.58a.504.504 0 00-.58-.365zm-2.091.415a.488.488 0 10.166.962.488.488 0 00.398-.564.5.5 0 00-.564-.398zm-2.124.297a.499.499 0 00-.43.548.49.49 0 00.547.431.499.499 0 00.431-.547.499.499 0 00-.547-.431zm-2.122.184a.486.486 0 00-.465.514c.017.266.249.498.514.465a.49.49 0 00.465-.531.483.483 0 00-.514-.448zm-2.141.066c-.265 0-.481.2-.498.481a.5.5 0 00.498.498.499.499 0 00.498-.498c0-.282-.216-.481-.498-.481zm-2.124-.066a.483.483 0 00-.514.448.51.51 0 00.464.53.467.467 0 00.515-.464c0-.282-.2-.498-.465-.514zm-2.123-.183a.487.487 0 00-.548.431.499.499 0 00.432.548.487.487 0 00.547-.431c.017-.266-.166-.515-.431-.548zm-2.124-.315a.488.488 0 10-.166.962.48.48 0 00.565-.398.496.496 0 00-.399-.564zm-2.09-.416a.495.495 0 00-.597.366.47.47 0 00.365.58c.265.067.53-.1.597-.364.066-.25-.1-.515-.365-.581zm-2.057-.53a.514.514 0 00-.614.332.463.463 0 00.332.597c.265.083.53-.083.614-.331a.488.488 0 00-.332-.598zm-2.041-.663a.514.514 0 00-.63.298c-.1.25.033.531.299.63.265.084.547-.049.63-.298a.474.474 0 00-.299-.63zm-1.991-.763a.5.5 0 00-.647.248.475.475 0 00.266.647.5.5 0 00.647-.265.483.483 0 00-.266-.63zm-1.941-.88a.477.477 0 00-.647.216.51.51 0 00.215.663.484.484 0 00.664-.232.493.493 0 00-.232-.647zm-1.891-.996a.488.488 0 00-.664.183.512.512 0 00.183.68c.232.133.53.05.663-.183a.508.508 0 00-.182-.68zm-1.825-1.094a.487.487 0 00-.68.149.487.487 0 00.149.68c.232.15.53.083.68-.15a.483.483 0 00-.15-.68zm-2.456-1.096a.469.469 0 00.116.68c.233.167.531.117.68-.115a.497.497 0 00-.115-.68c-.2-.15-.515-.1-.68.115zm-1.692-1.327a.482.482 0 00.067.697c.215.166.53.133.696-.083a.479.479 0 00-.082-.68.478.478 0 00-.68.066zm-1.626-1.443a.496.496 0 00.033.697.495.495 0 00.697-.034.463.463 0 00-.05-.68.476.476 0 00-.68.017zm-1.543-1.51a.496.496 0 00-.017.697.481.481 0 00.697 0 .512.512 0 000-.697.475.475 0 00-.68 0zM24.43 70.75a.497.497 0 00-.05.696.483.483 0 00.697.05.514.514 0 00.05-.697.514.514 0 00-.697-.05zm-1.36-1.677c-.216.166-.25.465-.083.697a.499.499 0 00.697.083.499.499 0 00.082-.697.5.5 0 00-.696-.083zm-1.278-1.758c-.232.15-.282.448-.116.68.166.232.464.282.68.116a.5.5 0 00.116-.68c-.133-.216-.448-.265-.68-.116zm-1.145-1.825a.488.488 0 10.515.83.471.471 0 00.149-.664.503.503 0 00-.664-.166zm-1.061-1.891a.516.516 0 00-.216.663.495.495 0 00.68.2.51.51 0 00.2-.664.505.505 0 00-.664-.2zm-.299-1.693a.478.478 0 00-.647-.232c-.25.116-.349.398-.25.664.117.248.399.365.648.232.249-.133.365-.431.249-.664zm-.847-1.957a.505.505 0 00-.63-.282.503.503 0 00-.282.647c.1.265.382.381.63.282a.501.501 0 00.283-.647zm-.73-2.008a.508.508 0 00-.63-.315.484.484 0 00-.315.614.495.495 0 00.63.315.484.484 0 00.315-.614zm-.63-2.041a.515.515 0 00-.614-.348.463.463 0 00-.332.597.51.51 0 00.614.349c.249-.066.415-.349.332-.597zm-.498-2.073a.502.502 0 00-.58-.382.481.481 0 00-.382.58.52.52 0 00.597.382.504.504 0 00.365-.58zm-.397-2.107a.486.486 0 00-.548-.415.482.482 0 00-.415.564c.05.266.3.448.565.415a.488.488 0 00.398-.564zm-.697-1.576a.496.496 0 00.431-.531.488.488 0 00-.53-.448c-.266.016-.465.265-.449.53a.49.49 0 00.548.449zm-.183-2.157a.496.496 0 00.465-.514.472.472 0 00-.498-.465c-.265 0-.481.232-.481.514a.496.496 0 00.514.465zm-.05-2.157a.496.496 0 00.498-.48.486.486 0 00-.48-.499.496.496 0 00-.499.482c0 .265.216.497.482.497zm.067-2.157c.265.017.514-.182.53-.448a.509.509 0 00-.447-.53.509.509 0 00-.531.447.488.488 0 00.448.531zm.199-2.156a.499.499 0 00.548-.431.487.487 0 00-.432-.548.487.487 0 00-.547.431.487.487 0 00.431.548zm.299-2.141a.488.488 0 00.564-.398c.05-.265-.133-.514-.399-.58a.476.476 0 00-.564.398c-.05.282.133.53.398.58zm.43-2.123a.47.47 0 00.581-.365.494.494 0 10-.962-.232c-.05.265.116.53.382.597zm.548-2.091a.463.463 0 00.597-.331c.067-.25-.05-.531-.315-.614-.249-.083-.547.066-.614.315a.497.497 0 00.332.63zm.664-2.057c.265.1.53-.05.63-.298a.49.49 0 00-.282-.63c-.249-.1-.53.032-.647.281-.1.266.05.564.299.647zm.779-2.024c.25.1.548 0 .647-.249a.485.485 0 00-.248-.647.485.485 0 00-.648.249.475.475 0 00.25.647zm.896-1.957a.506.506 0 00.664-.216.5.5 0 00-.216-.664c-.232-.132-.53-.033-.663.216a.506.506 0 00.215.664zm1.013-1.908c.232.132.531.05.664-.183a.512.512 0 00-.183-.68.474.474 0 00-.663.182.504.504 0 00.182.68zm1.112-1.859c.232.15.53.083.68-.149a.487.487 0 00-.15-.68.487.487 0 00-.68.15.519.519 0 00.15.68zm1.908-1.891a.497.497 0 00-.1-.68.487.487 0 00-.697.1.488.488 0 00.116.697.5.5 0 00.68-.117zm1.31-1.676a.477.477 0 00-.05-.68c-.199-.182-.514-.15-.696.05a.483.483 0 00.066.697.494.494 0 00.68-.067zm1.427-1.592a.496.496 0 00-.017-.697.496.496 0 00-.697.016.496.496 0 00.017.697.512.512 0 00.697-.016zm1.493-1.527c.2-.182.2-.497.017-.696a.496.496 0 00-.697-.017c-.2.183-.2.498-.017.697.2.199.498.199.697.016zm1.592-1.426a.497.497 0 00.05-.697c-.166-.216-.481-.232-.697-.05a.483.483 0 00-.05.697c.183.2.481.216.697.05zm1.659-1.344a.497.497 0 00.1-.68c-.166-.216-.481-.266-.68-.1a.499.499 0 00-.083.697c.133.216.448.249.663.083zm1.725-1.244a.467.467 0 00.133-.664.502.502 0 00-.68-.15.506.506 0 00-.133.698.5.5 0 00.68.116zm1.809-1.145a.488.488 0 00.182-.664.504.504 0 00-.68-.182.475.475 0 00-.166.68.483.483 0 00.664.166zm1.858-1.045a.506.506 0 00.216-.664c-.116-.249-.415-.332-.663-.216a.496.496 0 00-.216.664c.133.249.431.348.663.216zm1.925-.929a.5.5 0 00.248-.647.48.48 0 00-.647-.25.485.485 0 00-.248.648c.116.249.398.365.647.249zm1.974-.813a.49.49 0 00.282-.63.49.49 0 00-.63-.282.49.49 0 00-.282.63.484.484 0 00.63.282zm2.008-.714a.497.497 0 00.315-.614c-.083-.265-.365-.415-.614-.315a.495.495 0 00-.315.63.488.488 0 00.614.3zm2.04-.597a.467.467 0 00.348-.58.495.495 0 00-.597-.366.51.51 0 00-.348.614.504.504 0 00.597.332zm2.09-.481a.476.476 0 00.382-.564.504.504 0 00-.58-.398.48.48 0 00-.382.58c.05.282.315.432.58.382zm2.108-.349a.487.487 0 00.415-.547.499.499 0 00-.548-.432.475.475 0 00-.414.548.487.487 0 00.547.431zm2.122-.232a.488.488 0 00.449-.53.488.488 0 00-.531-.448.468.468 0 00-.448.53.488.488 0 00.53.448zm2.125-.116a.496.496 0 00.481-.497.496.496 0 00-.497-.482.475.475 0 00-.482.498c0 .282.233.498.498.481zm2.14 0a.485.485 0 00.498-.48.475.475 0 00-.481-.499c-.283 0-.498.2-.498.482 0 .265.215.497.48.497zm2.124.133a.509.509 0 00.53-.448c.034-.265-.165-.498-.447-.53a.478.478 0 00-.531.447.509.509 0 00.448.53zm2.123.232a.513.513 0 00.564-.415.475.475 0 00-.415-.547.503.503 0 00-.564.431.48.48 0 00.415.531zm2.108.349a.502.502 0 00.58-.382.493.493 0 00-.381-.581.504.504 0 00-.581.398.458.458 0 00.381.564zm2.073.48a.484.484 0 00.597-.348.51.51 0 00-.348-.613c-.266-.083-.531.1-.598.365a.49.49 0 00.349.597zm2.057.614c.25.083.531-.05.614-.315a.501.501 0 00-.315-.63.477.477 0 00-.614.315c-.083.265.05.53.316.63zm2.007.714a.49.49 0 00.63-.282.477.477 0 00-.281-.63c-.25-.1-.548.016-.63.281a.49.49 0 00.281.63zm1.958.83c.249.116.53 0 .647-.25a.485.485 0 00-.249-.646.48.48 0 00-.647.248c-.1.25.017.531.249.648zm1.925.929a.5.5 0 00.663-.216c.133-.232.034-.531-.215-.664a.478.478 0 00-.664.216.506.506 0 00.216.664zm1.858 1.044c.232.133.53.067.663-.165a.488.488 0 00-.166-.68.493.493 0 00-.68.182c-.116.232-.05.53.183.663zm2.472 1.029c.15-.215.1-.53-.133-.696a.498.498 0 00-.68.132.495.495 0 00.813.564zm1.742 1.278a.499.499 0 00-.083-.697c-.215-.166-.53-.133-.68.083a.515.515 0 00.083.697.479.479 0 00.68-.083zm1.659 1.393c.183-.199.15-.514-.05-.696a.483.483 0 00-.697.05.513.513 0 00.05.696c.216.166.531.15.697-.05zm1.593 1.461a.496.496 0 00-.017-.697.496.496 0 00-.696.016.496.496 0 00.016.697c.2.183.498.183.697-.016zm1.492 1.559a.481.481 0 00.017-.697.481.481 0 00-.697-.016c-.2.182-.2.497-.017.697a.512.512 0 00.697.016zm1.411 1.642a.482.482 0 00.066-.696.5.5 0 00-.696-.067c-.2.183-.233.481-.05.68a.453.453 0 00.68.083zm1.311 1.726a.518.518 0 00.116-.697c-.15-.232-.481-.266-.697-.1a.497.497 0 00-.1.68c.15.233.448.283.68.117zm1.211 1.791a.487.487 0 00.15-.68.487.487 0 00-.681-.149.505.505 0 00-.15.68c.15.232.449.299.68.15zm1.111 1.859a.488.488 0 00.183-.664.488.488 0 00-.664-.183.488.488 0 00-.183.664c.117.232.415.315.664.183zm.996 1.908c.249-.116.332-.415.216-.664-.133-.249-.415-.348-.664-.216a.51.51 0 00-.216.664.516.516 0 00.664.216zm.249 1.725c.116.249.398.365.647.249a.48.48 0 00.249-.647c-.116-.249-.398-.365-.647-.249-.249.116-.365.398-.249.647zm.795 1.974a.488.488 0 00.615.299.493.493 0 00.298-.63.503.503 0 00-.647-.283.472.472 0 00-.265.614zm.68 2.024c.067.25.35.398.598.332a.486.486 0 00.332-.614.486.486 0 00-.614-.332.504.504 0 00-.315.614zm.566 2.057a.49.49 0 00.58.365.495.495 0 00.365-.597c-.066-.266-.331-.431-.58-.365a.495.495 0 00-.365.597zm.431 2.091c.05.265.298.447.564.398a.496.496 0 00.398-.581.488.488 0 00-.564-.398.528.528 0 00-.398.58zm.331 2.107a.512.512 0 00.548.431.499.499 0 00.431-.547.499.499 0 00-.547-.432.487.487 0 00-.432.548zm.2 2.123c.016.266.248.465.53.465a.488.488 0 00.448-.531.49.49 0 00-.53-.465.509.509 0 00-.448.531zm.58 1.642a.496.496 0 00-.48.498c0 .266.231.481.497.481a.485.485 0 00.481-.497c-.016-.282-.232-.498-.498-.481z"/><path d="M53.447 82.445c20.141 0 36.532-16.391 36.532-36.532 0-20.14-16.39-36.532-36.532-36.532-20.14 0-36.515 16.408-36.515 36.549 0 20.14 16.374 36.515 36.515 36.515zm0-71.571c19.328 0 35.056 15.728 35.056 35.056 0 19.327-15.728 35.055-35.056 35.055-19.328 0-35.055-15.728-35.055-35.055 0-19.328 15.727-35.056 35.055-35.056z"/></g><path d="M54.094 32.475s2.621-.15 3.932 1.642c.498-2.057.116-3.865.116-3.882l-.133-.597c-.58-.813-1.874-2.207-3.915-2.207-2.04 0-3.351 1.394-3.915 2.207l-.133.597c0 .017-.382 1.842.116 3.882 1.31-1.792 3.932-1.642 3.932-1.642zm-11.58 27.291l4.512-.58.448 5.458 6.371-10.784-3.534-5.99a1851.054 1851.054 0 01-7.797 11.896z" fill="#fff"/><path d="M54.343 41.616a507.992 507.992 0 003.517 5.458l1.642-2.804c.034-.05 2.44-3.965 1.925-6.586l-2.72-6.172a6.9 6.9 0 010 .83c-.034.68-.134 1.476-.366 2.29a7.096 7.096 0 01-.465 1.194c-.364.746-1.741 2.97-3.533 5.79z" fill="#fff"/><path d="M57.877 47.87c-.05-.066-.083-.132-.133-.199-.05-.066-.083-.132-.133-.199a797.799 797.799 0 01-3.517-5.458c-.05-.066-.083-.133-.133-.2-.05-.066-.083-.132-.132-.198-1.792-2.82-3.17-5.044-3.517-5.79a8.866 8.866 0 01-.465-1.195 9.22 9.22 0 01-.365-2.29 6.9 6.9 0 010-.829l-2.737 6.172c-.515 2.621 1.907 6.553 1.924 6.586l1.659 2.804.116.2.116.198 3.517 5.973.117.215.116.216 6.37 10.784.449-5.458 4.512.58c-.946-1.493-4.38-6.702-7.764-11.912z" fill="#fff"/><defs><filter id="filter0_d_201:4186" x=".455" y="0" width="106" height="125.567" filterUnits="userSpaceOnUse" color-interpolation-filters="sRGB"><feFlood flood-opacity="0" result="BackgroundImageFix"/><feColorMatrix in="SourceAlpha" values="0 0 0 0 0 0 0 0 0 0 0 0 0 0 0 0 0 0 127 0" result="hardAlpha"/><feOffset dy="4"/><feGaussianBlur stdDeviation="2"/><feComposite in2="hardAlpha" operator="out"/><feColorMatrix values="0 0 0 0 0 0 0 0 0 0 0 0 0 0 0 0 0 0 0.45 0"/><feBlend in2="BackgroundImageFix" result="effect1_dropShadow_201:4186"/><feBlend in="SourceGraphic" in2="effect1_dropShadow_201:4186" result="shape"/></filter></defs></svg>