<svg width="107" height="126" viewBox="0 0 107 126" fill="none" xmlns="http://www.w3.org/2000/svg">
<g filter="url(#filter0_d_201:4186)">
<path d="M42.2645 90.5413C41.352 91.0225 40.4064 91.5202 39.4441 91.5202C39.1787 91.5202 38.9132 91.487 38.681 91.404C37.4533 91.0059 36.8228 89.7118 36.2754 88.5671C35.9767 87.9698 35.5454 87.0573 35.2136 86.908C35.1804 86.8914 35.0974 86.8748 34.9481 86.8748C34.5002 86.8748 33.8697 87.0573 33.2559 87.2398C32.4927 87.4555 31.713 87.6878 30.9498 87.6878C30.4189 87.6878 29.9544 87.5716 29.5562 87.3394C28.4446 86.6923 28.0962 85.2987 27.7976 84.071C27.6317 83.3742 27.3994 82.4286 27.1008 82.2129C27.0345 82.1631 26.8354 82.0636 26.1883 82.0636C25.8565 82.0636 25.4915 82.0968 25.11 82.1134C24.7118 82.1465 24.297 82.1631 23.8823 82.1631C23.7661 82.1631 23.65 82.1631 23.5173 82.1466L9.89648 100.462L21.9412 101.06L26.0556 112.474L42.447 90.4252C42.3641 90.4916 42.3143 90.5247 42.2645 90.5413Z" fill="white"/>
<path d="M20.4483 78.6961L4.45508 100.231L7.24228 100.363L21.3608 81.3672C20.6806 80.687 20.5147 79.6915 20.4483 78.6961Z" fill="white"/>
<path d="M45.0358 90.6411L26.9355 115.013L27.8646 117.567L46.5289 92.4329C46.1473 92.0513 45.8155 91.62 45.5003 91.2218C45.3676 91.0393 45.2017 90.8402 45.0358 90.6411Z" fill="white"/>
<path d="M83.0443 82.1968C82.6295 82.1968 82.2147 82.1636 81.8166 82.147C81.435 82.1138 81.07 82.0972 80.7382 82.0972C80.1077 82.0972 79.8921 82.1968 79.8257 82.2465C79.5437 82.4622 79.2948 83.4079 79.1289 84.1047C78.8303 85.3324 78.4819 86.726 77.3703 87.373C76.9721 87.6053 76.5076 87.7214 75.9767 87.7214C75.2301 87.7214 74.4338 87.4891 73.6706 87.2735C73.0568 87.091 72.4263 86.9085 71.9784 86.9085C71.8125 86.9085 71.7461 86.9251 71.713 86.9416C71.3811 87.091 70.9498 88.0034 70.6512 88.6007C70.1037 89.7454 69.4732 91.0395 68.2455 91.4377C67.9967 91.5206 67.7478 91.5538 67.4824 91.5538C66.5201 91.5538 65.5745 91.0561 64.662 90.575C64.6122 90.5418 64.5459 90.5086 64.4961 90.492L80.8875 112.541L85.0019 101.127L97.0466 100.529L83.4258 82.2134C83.2765 82.1802 83.1604 82.1968 83.0443 82.1968Z" fill="white"/>
<path d="M86.4623 78.6961C86.3959 79.6749 86.23 80.6704 85.5498 81.3506L99.6683 100.363L102.456 100.231L86.4623 78.6961Z" fill="white"/>
<path d="M61.4104 91.2218C61.0952 91.6365 60.7468 92.0679 60.3818 92.4329L79.0461 117.567L79.9752 115.013L61.875 90.6411C61.7091 90.8402 61.5432 91.0393 61.4104 91.2218Z" fill="white"/>
<path d="M62.4553 88.2852C63.9982 87.9534 66.2545 90.3756 67.7311 89.8945C69.2242 89.4134 69.639 86.1285 71.0658 85.498C72.4926 84.8676 75.2134 86.7423 76.5572 85.9625C77.9177 85.1828 77.6356 81.8813 78.8965 80.9688C80.1574 80.0563 83.21 81.3338 84.3714 80.2886C85.5327 79.2434 84.5704 76.0746 85.6156 74.9133C86.6608 73.7519 89.9126 74.3824 90.8251 73.1049C91.7375 71.844 90.1448 68.9407 90.9412 67.5969C91.7209 66.2531 95.0225 66.1867 95.6695 64.7433C96.2999 63.3165 94.1432 60.8114 94.6243 59.3182C95.1054 57.8417 98.324 57.0785 98.6558 55.5522C98.971 54.0425 96.3331 52.035 96.499 50.4755C96.6649 48.9326 99.6512 47.5224 99.6512 45.9463C99.6512 44.3702 96.6649 42.96 96.499 41.4171C96.3331 39.841 98.971 37.8501 98.6558 36.3404C98.324 34.7975 95.1054 34.0509 94.6243 32.5744C94.1432 31.0812 96.2999 28.5761 95.6695 27.1493C95.039 25.7225 91.7209 25.6561 90.9412 24.2957C90.1614 22.9353 91.7541 20.0485 90.8251 18.7877C89.9126 17.5268 86.6608 18.1406 85.6156 16.9793C84.5704 15.818 85.5327 12.6492 84.3714 11.604C83.21 10.5588 80.1574 11.8363 78.8965 10.9238C77.6356 10.0113 77.9177 6.7098 76.5572 5.93005C75.2134 5.15029 72.4926 7.04161 71.0658 6.39458C69.639 5.76415 69.2242 2.47923 67.7311 1.99811C66.2545 1.51698 63.9982 3.9226 62.4553 3.60738C60.9456 3.29216 59.8506 0.156561 58.2745 0.007247C56.7316 -0.158658 55.0228 2.67832 53.4467 2.67832C51.8706 2.67832 50.1618 -0.158658 48.6189 0.007247C47.0428 0.173152 45.9644 3.29216 44.4381 3.60738C42.8951 3.93919 40.6388 1.51698 39.1623 1.99811C37.6691 2.47923 37.2544 5.76415 35.8276 6.39458C34.4008 7.02502 31.68 5.15029 30.3361 5.93005C28.9757 6.7098 29.2578 10.0113 27.9969 10.9238C26.736 11.8363 23.6834 10.5588 22.522 11.604C21.3607 12.6492 22.3229 15.818 21.2777 16.9793C20.2325 18.1406 16.9808 17.5102 16.0683 18.7877C15.1558 20.0485 16.7485 22.9519 15.9522 24.2957C15.1724 25.6395 11.8709 25.7059 11.2239 27.1493C10.5935 28.5761 12.7502 31.0812 12.2691 32.5744C11.788 34.0509 8.56943 34.8141 8.23762 36.3404C7.9224 37.8501 10.5603 39.8576 10.3944 41.4171C10.2285 42.96 7.24219 44.3702 7.24219 45.9463C7.24219 47.5224 10.2285 48.9326 10.3944 50.4755C10.5603 52.0516 7.9224 54.0425 8.23762 55.5522C8.56943 57.0951 11.788 57.8417 12.2691 59.3182C12.7502 60.8114 10.5935 63.3165 11.2239 64.7433C11.8543 66.1701 15.1724 66.2365 15.9522 67.5969C16.7319 68.9573 15.1393 71.844 16.0683 73.1049C16.9808 74.3658 20.2325 73.7519 21.2777 74.9133C22.3229 76.0746 21.3607 79.2434 22.522 80.2886C23.6834 81.3338 26.736 80.0563 27.9969 80.9688C29.2578 81.8813 28.9757 85.1828 30.3361 85.9625C31.68 86.7423 34.4008 84.851 35.8276 85.498C37.2544 86.1285 37.6691 89.4134 39.1623 89.8945C40.6388 90.3756 42.8951 87.97 44.4381 88.2852C45.9478 88.6004 47.0428 91.736 48.6189 91.8854C50.1618 92.0513 51.8706 89.2143 53.4467 89.2143C55.0228 89.2143 56.7316 92.0513 58.2745 91.8854C59.8506 91.7195 60.9456 88.6004 62.4553 88.2852ZM53.4467 86.7589C30.9002 86.7589 12.6175 68.4762 12.6175 45.9297C12.6175 23.3832 30.9002 5.10052 53.4467 5.10052C75.9932 5.10052 94.2759 23.3832 94.2759 45.9297C94.2759 68.4762 75.9932 86.7589 53.4467 86.7589Z" fill="white"/>
<path d="M91.6217 47.1077C91.3563 47.1077 91.124 47.3068 91.124 47.5723C91.124 47.8377 91.3231 48.07 91.5886 48.0866C91.854 48.1032 92.1029 47.8875 92.1029 47.622C92.1029 47.34 91.9038 47.1077 91.6217 47.1077Z" fill="white"/>
<path d="M91.5052 49.2641C91.2398 49.2476 91.0075 49.4466 90.9743 49.7121C90.9411 49.9775 91.1402 50.2098 91.4057 50.243C91.6711 50.2762 91.92 50.0771 91.9532 49.8116C91.9698 49.5296 91.7707 49.2807 91.5052 49.2641Z" fill="white"/>
<path d="M91.2568 51.4046C90.9914 51.3714 90.7591 51.5539 90.7094 51.8193C90.6596 52.0848 90.8421 52.3336 91.1075 52.3834C91.373 52.4332 91.6218 52.2507 91.6716 51.9687C91.7214 51.7032 91.5223 51.4544 91.2568 51.4046Z" fill="white"/>
<path d="M90.8912 53.5449C90.6258 53.4952 90.3603 53.6611 90.3105 53.9265C90.2442 54.192 90.4101 54.4408 90.6755 54.5072C90.941 54.5735 91.2064 54.4076 91.2728 54.1256C91.3225 53.8602 91.1566 53.5947 90.8912 53.5449Z" fill="white"/>
<path d="M90.4099 55.6516C90.1444 55.5852 89.879 55.7345 89.796 56C89.7297 56.2488 89.879 56.5309 90.1278 56.5972C90.3933 56.6802 90.6587 56.5143 90.7417 56.2488C90.8247 55.9834 90.6587 55.7179 90.4099 55.6516Z" fill="white"/>
<path d="M89.7967 57.7254C89.5313 57.6424 89.2658 57.7751 89.1829 58.0406C89.0999 58.2894 89.2327 58.5715 89.4815 58.671C89.7304 58.754 90.0124 58.6212 90.0954 58.3558C90.1783 58.0903 90.0456 57.8083 89.7967 57.7254Z" fill="white"/>
<path d="M89.0661 59.7661C88.8173 59.6666 88.5353 59.7993 88.4357 60.0316C88.3362 60.2804 88.4523 60.5624 88.7178 60.6786C88.9666 60.7781 89.2486 60.662 89.3482 60.4131C89.4311 60.1477 89.315 59.8491 89.0661 59.7661Z" fill="white"/>
<path d="M88.2203 61.757C87.9715 61.6409 87.6894 61.757 87.5733 61.9893C87.4737 62.2381 87.5567 62.5201 87.8056 62.6363C88.0544 62.7524 88.353 62.6529 88.4526 62.404C88.5853 62.1552 88.4692 61.8565 88.2203 61.757Z" fill="white"/>
<path d="M87.2748 63.6981C87.0426 63.5653 86.7439 63.6649 86.6278 63.8971C86.4951 64.1294 86.578 64.428 86.8103 64.5608C87.0426 64.6935 87.3412 64.6105 87.4905 64.3617C87.6066 64.1128 87.5071 63.8142 87.2748 63.6981Z" fill="white"/>
<path d="M86.2131 65.573C85.9808 65.4403 85.6822 65.5067 85.5329 65.7389C85.3835 65.9712 85.4499 66.2698 85.6822 66.4025C85.9144 66.5519 86.2131 66.4855 86.3624 66.2532C86.5283 66.021 86.4453 65.7223 86.2131 65.573Z" fill="white"/>
<path d="M84.372 67.5141C84.2226 67.7298 84.2724 68.045 84.4881 68.1943C84.7038 68.3436 85.019 68.2939 85.1683 68.0782C85.3342 67.8459 85.2678 67.5473 85.0522 67.398C84.8199 67.2486 84.5213 67.2984 84.372 67.5141Z" fill="white"/>
<path d="M83.0942 69.2395C82.9283 69.4552 82.9615 69.7538 83.1771 69.9363C83.3928 70.1022 83.6914 70.069 83.8739 69.8534C84.0398 69.6377 84.0067 69.3225 83.791 69.1566C83.5587 68.9907 83.2601 69.0238 83.0942 69.2395Z" fill="white"/>
<path d="M82.4134 70.8321C82.2143 70.6496 81.8991 70.6828 81.7166 70.8819C81.5341 71.081 81.5673 71.3962 81.7663 71.5787C81.9654 71.7612 82.2806 71.7446 82.4631 71.5289C82.6456 71.3132 82.6125 70.998 82.4134 70.8321Z" fill="white"/>
<path d="M80.274 72.4412C80.0915 72.6403 80.0749 72.9389 80.274 73.138C80.4565 73.3371 80.7883 73.3371 80.9708 73.138C81.1533 72.9389 81.1533 72.6237 80.9542 72.4412C80.7717 72.2421 80.4565 72.2421 80.274 72.4412Z" fill="white"/>
<path d="M78.7303 73.9177C78.5312 74.1002 78.5146 74.3988 78.6805 74.5979C78.863 74.797 79.1782 74.8136 79.3773 74.6477C79.5764 74.4652 79.593 74.15 79.4105 73.9509C79.228 73.7352 78.9294 73.7352 78.7303 73.9177Z" fill="white"/>
<path d="M77.1049 75.2947C76.8892 75.4606 76.856 75.7592 77.0219 75.9749C77.1878 76.1906 77.503 76.2237 77.7187 76.0578C77.9344 75.8919 77.9676 75.5767 77.8017 75.3776C77.6192 75.162 77.3205 75.1288 77.1049 75.2947Z" fill="white"/>
<path d="M75.3963 76.5889C75.1806 76.7382 75.1308 77.0534 75.2802 77.2691C75.4295 77.4848 75.7447 77.5346 75.9604 77.3852C76.1926 77.2193 76.2424 76.9207 76.0765 76.705C75.9272 76.4728 75.6286 76.423 75.3963 76.5889Z" fill="white"/>
<path d="M73.6372 77.7835C73.405 77.9328 73.3386 78.2315 73.4879 78.4637C73.6372 78.696 73.9359 78.7624 74.1681 78.613C74.4004 78.4637 74.4668 78.1651 74.3175 77.9328C74.1681 77.7006 73.8529 77.6342 73.6372 77.7835Z" fill="white"/>
<path d="M71.7956 78.8783C71.5634 79.011 71.4804 79.3097 71.6131 79.5419C71.7459 79.7908 72.0445 79.8571 72.2768 79.7244C72.509 79.5917 72.592 79.2931 72.4593 79.0442C72.3265 78.8285 72.0279 78.7456 71.7956 78.8783Z" fill="white"/>
<path d="M69.9048 79.8574C69.6725 79.9736 69.5564 80.2556 69.6725 80.5045C69.7886 80.7533 70.0873 80.8695 70.3361 80.7367C70.585 80.604 70.6845 80.3054 70.5518 80.0731C70.4357 79.8408 70.1536 79.7413 69.9048 79.8574Z" fill="white"/>
<path d="M67.9631 80.7363C67.7142 80.8358 67.5981 81.1179 67.6977 81.3667C67.7972 81.6156 68.0792 81.7483 68.3447 81.6322C68.6101 81.5326 68.7097 81.234 68.6101 80.9851C68.494 80.7529 68.212 80.6533 67.9631 80.7363Z" fill="white"/>
<path d="M65.9727 81.4998C65.7239 81.5828 65.5912 81.8648 65.6741 82.1137C65.7571 82.3626 66.0391 82.5119 66.3045 82.4123C66.57 82.3294 66.7027 82.0473 66.6032 81.7985C66.5036 81.5496 66.2216 81.4169 65.9727 81.4998Z" fill="white"/>
<path d="M63.9315 82.1466C63.6827 82.213 63.5168 82.495 63.5997 82.7439C63.6661 83.0093 63.9481 83.1586 64.2136 83.0757C64.479 82.9927 64.6283 82.7273 64.5454 82.4784C64.4624 82.2296 64.197 82.0803 63.9315 82.1466Z" fill="white"/>
<path d="M61.8747 82.6777C61.6093 82.744 61.4434 83.0095 61.5098 83.2583C61.5761 83.5072 61.825 83.6897 62.0904 83.6233C62.3559 83.5569 62.5218 83.2915 62.4554 83.0426C62.389 82.7938 62.1402 82.6279 61.8747 82.6777Z" fill="white"/>
<path d="M59.7843 83.0926C59.5188 83.1424 59.3364 83.3913 59.3861 83.6567C59.4359 83.9222 59.6847 84.1047 59.9502 84.0549C60.2156 84.0051 60.3981 83.7563 60.3484 83.4908C60.2986 83.2254 60.0497 83.0595 59.7843 83.0926Z" fill="white"/>
<path d="M57.6606 83.3907C57.3951 83.4239 57.196 83.6727 57.2292 83.9382C57.2624 84.2036 57.4946 84.4027 57.7767 84.3695C58.0421 84.3364 58.2412 84.0875 58.208 83.8221C58.1749 83.5566 57.926 83.3575 57.6606 83.3907Z" fill="white"/>
<path d="M55.5377 83.5737C55.2722 83.5903 55.0566 83.806 55.0732 84.088C55.0898 84.3535 55.322 84.5857 55.5875 84.5526C55.8695 84.536 56.0686 84.3037 56.052 84.0217C56.0354 83.7562 55.8031 83.5571 55.5377 83.5737Z" fill="white"/>
<path d="M53.3971 83.64C53.1317 83.64 52.916 83.8391 52.8994 84.1211C52.8994 84.3866 53.1151 84.6188 53.3971 84.6188C53.6792 84.6188 53.8948 84.3866 53.8948 84.1211C53.8948 83.8391 53.6792 83.64 53.3971 83.64Z" fill="white"/>
<path d="M51.2731 83.5737C51.0076 83.5571 50.7754 83.7562 50.7588 84.0217C50.7422 84.2871 50.9413 84.5194 51.2233 84.5526C51.5053 84.5857 51.7376 84.3535 51.7376 84.088C51.7376 83.806 51.5385 83.5903 51.2731 83.5737Z" fill="white"/>
<path d="M49.1497 83.391C48.8843 83.3578 48.6354 83.5403 48.6023 83.8223C48.5691 84.0878 48.7682 84.3366 49.0336 84.3698C49.299 84.403 49.5479 84.2205 49.5811 83.9385C49.5977 83.673 49.4152 83.4241 49.1497 83.391Z" fill="white"/>
<path d="M47.0264 83.0756C46.7609 83.0258 46.5121 83.2083 46.4623 83.4738C46.4125 83.7392 46.595 83.9881 46.8605 84.0378C47.1259 84.0876 47.3914 83.9051 47.4245 83.6397C47.4743 83.3908 47.2918 83.1253 47.0264 83.0756Z" fill="white"/>
<path d="M44.9361 82.6608C44.6707 82.5945 44.4052 82.7604 44.3389 83.0258C44.2725 83.2913 44.4384 83.5567 44.7038 83.6065C44.9693 83.6728 45.2347 83.5069 45.3011 83.2415C45.3675 82.9926 45.2016 82.7272 44.9361 82.6608Z" fill="white"/>
<path d="M42.879 82.1303C42.6135 82.064 42.3481 82.2133 42.2651 82.4621C42.1822 82.7276 42.3315 82.993 42.5969 83.0594C42.8624 83.1424 43.1278 82.9764 43.2108 82.7276C43.2771 82.4621 43.1278 82.1967 42.879 82.1303Z" fill="white"/>
<path d="M40.8383 81.4667C40.5894 81.3838 40.3074 81.5165 40.2079 81.7653C40.1083 82.0142 40.241 82.2962 40.5065 82.3958C40.7719 82.4787 41.054 82.346 41.1369 82.0972C41.2365 81.8317 41.1037 81.5497 40.8383 81.4667Z" fill="white"/>
<path d="M38.8472 80.7035C38.5984 80.6039 38.3163 80.7035 38.2002 80.9523C38.0841 81.2012 38.2002 81.4998 38.4657 81.5994C38.7145 81.6989 39.0131 81.5828 39.1127 81.3339C39.2122 81.0851 39.0961 80.803 38.8472 80.7035Z" fill="white"/>
<path d="M36.9056 79.8241C36.6734 79.708 36.3748 79.7909 36.2586 80.0398C36.1425 80.2887 36.242 80.5707 36.4743 80.7034C36.7232 80.8361 37.0218 80.72 37.1379 80.4711C37.254 80.2223 37.1379 79.9403 36.9056 79.8241Z" fill="white"/>
<path d="M35.015 78.8283C34.7828 78.6956 34.4842 78.7785 34.3514 79.0108C34.2187 79.2431 34.3017 79.5417 34.5339 79.691C34.7662 79.8237 35.0648 79.7408 35.1975 79.5085C35.3303 79.2762 35.2473 78.961 35.015 78.8283Z" fill="white"/>
<path d="M33.1896 77.7336C32.9574 77.5843 32.6587 77.6506 32.5094 77.8829C32.3601 78.1152 32.4265 78.4138 32.6587 78.5631C32.891 78.7124 33.1896 78.6461 33.3389 78.4138C33.4883 78.1815 33.4219 77.8663 33.1896 77.7336Z" fill="white"/>
<path d="M30.7344 76.6385C30.5685 76.8542 30.6183 77.1694 30.8505 77.3187C31.0828 77.4846 31.3814 77.4348 31.5308 77.2026C31.6801 76.9869 31.6303 76.6717 31.4146 76.5223C31.2155 76.373 30.9003 76.4228 30.7344 76.6385Z" fill="white"/>
<path d="M29.0423 75.3115C28.8598 75.5271 28.893 75.8424 29.1086 76.0083C29.3243 76.1742 29.6395 76.141 29.8055 75.9253C29.9714 75.7096 29.9382 75.411 29.7225 75.2451C29.5234 75.0792 29.2082 75.0958 29.0423 75.3115Z" fill="white"/>
<path d="M27.4162 73.8678C27.2337 74.0669 27.2503 74.3821 27.4494 74.5646C27.665 74.7471 27.9637 74.7305 28.1462 74.5314C28.3286 74.3324 28.3121 74.0171 28.0964 73.8512C27.9139 73.6687 27.5987 73.6687 27.4162 73.8678Z" fill="white"/>
<path d="M25.8731 72.3582C25.6741 72.5407 25.674 72.856 25.8565 73.0551C26.039 73.2541 26.3543 73.2541 26.5533 73.0551C26.7358 72.856 26.7358 72.5573 26.5533 72.3582C26.3874 72.1758 26.0722 72.1592 25.8731 72.3582Z" fill="white"/>
<path d="M24.4304 70.7491C24.2313 70.9316 24.1981 71.2302 24.3806 71.4459C24.5631 71.6616 24.8783 71.6782 25.0774 71.4957C25.2765 71.3132 25.2931 70.998 25.1272 70.7989C24.9447 70.5998 24.6295 70.5832 24.4304 70.7491Z" fill="white"/>
<path d="M23.0697 69.0735C22.854 69.2394 22.8209 69.538 22.9868 69.7703C23.1527 69.986 23.4679 70.0191 23.6836 69.8532C23.8992 69.6873 23.9324 69.3721 23.7665 69.1564C23.584 68.9408 23.2854 68.9076 23.0697 69.0735Z" fill="white"/>
<path d="M21.7919 67.3149C21.5597 67.4642 21.5099 67.7628 21.6758 67.9951C21.8417 68.2274 22.1404 68.2771 22.356 68.1112C22.5717 67.9453 22.6215 67.6467 22.4722 67.431C22.3394 67.2154 22.0242 67.1656 21.7919 67.3149Z" fill="white"/>
<path d="M20.6472 65.4899C20.4149 65.6226 20.3319 65.9378 20.4813 66.1701C20.6306 66.4024 20.9292 66.4687 21.1615 66.3194C21.3937 66.1701 21.4601 65.8715 21.3108 65.6558C21.1615 65.4401 20.8794 65.3572 20.6472 65.4899Z" fill="white"/>
<path d="M19.5856 63.5987C19.3534 63.7314 19.2538 64.03 19.3699 64.2623C19.5027 64.5112 19.8013 64.5941 20.0502 64.4614C20.2824 64.3287 20.3654 64.03 20.2492 63.7978C20.1165 63.5655 19.8345 63.4826 19.5856 63.5987Z" fill="white"/>
<path d="M19.2866 61.9062C19.1704 61.6574 18.8884 61.5578 18.6395 61.674C18.3907 61.7901 18.2911 62.0721 18.3907 62.3376C18.5068 62.5864 18.7889 62.7026 19.0377 62.5698C19.2866 62.4371 19.4027 62.1385 19.2866 61.9062Z" fill="white"/>
<path d="M18.4408 59.9487C18.3413 59.6999 18.0593 59.5837 17.8104 59.6667C17.5615 59.7662 17.4288 60.0483 17.5284 60.3137C17.6279 60.5792 17.9099 60.6953 18.1588 60.5958C18.4242 60.4796 18.5404 60.1976 18.4408 59.9487Z" fill="white"/>
<path d="M17.7104 57.9413C17.6275 57.6924 17.3455 57.5431 17.08 57.6261C16.8146 57.709 16.6818 57.9911 16.7648 58.2399C16.8477 58.5054 17.1298 58.6381 17.3952 58.5551C17.6607 58.4722 17.7934 58.1901 17.7104 57.9413Z" fill="white"/>
<path d="M17.0799 55.9006C17.0136 55.6517 16.7315 55.4858 16.4661 55.5522C16.2006 55.6185 16.0513 55.884 16.1343 56.1494C16.2172 56.4149 16.4827 56.5642 16.7481 56.4978C16.997 56.4315 17.1629 56.1494 17.0799 55.9006Z" fill="white"/>
<path d="M16.5824 53.8266C16.516 53.5612 16.2672 53.3952 16.0017 53.445C15.7363 53.4948 15.5538 53.7602 15.6201 54.0257C15.6865 54.2911 15.952 54.457 16.2174 54.4073C16.4663 54.3409 16.6322 54.092 16.5824 53.8266Z" fill="white"/>
<path d="M16.1847 51.72C16.1516 51.4545 15.9027 51.272 15.6373 51.3052C15.3718 51.3384 15.1727 51.5873 15.2225 51.8693C15.2723 52.1348 15.5211 52.3172 15.7866 52.2841C16.052 52.2343 16.2345 51.9854 16.1847 51.72Z" fill="white"/>
<path d="M15.4879 50.1436C15.7534 50.1104 15.9358 49.8781 15.9193 49.6127C15.9027 49.3472 15.6704 49.1481 15.3884 49.1647C15.1229 49.1813 14.9238 49.4302 14.9404 49.6956C14.957 49.9776 15.2225 50.1767 15.4879 50.1436Z" fill="white"/>
<path d="M15.3053 47.9871C15.5708 47.9705 15.7864 47.7382 15.7699 47.4728C15.7699 47.2073 15.5376 46.9916 15.2721 47.0082C15.0067 47.0082 14.791 47.2405 14.791 47.5225C14.8076 47.788 15.0399 48.0036 15.3053 47.9871Z" fill="white"/>
<path d="M15.2555 45.8302C15.521 45.8302 15.7533 45.6145 15.7533 45.3491C15.7533 45.0836 15.5542 44.8514 15.2721 44.8514C15.0067 44.8514 14.7744 45.067 14.7744 45.3325C14.7744 45.5979 14.9901 45.8302 15.2555 45.8302Z" fill="white"/>
<path d="M15.322 43.6731C15.5874 43.6897 15.8363 43.4906 15.8529 43.2252C15.8694 42.9597 15.6704 42.7274 15.4049 42.6943C15.1395 42.6777 14.9072 42.8768 14.874 43.1422C14.8574 43.4242 15.0565 43.6565 15.322 43.6731Z" fill="white"/>
<path d="M15.5212 41.5169C15.7866 41.5501 16.0355 41.351 16.0687 41.0856C16.1018 40.8201 15.9193 40.5712 15.6373 40.5381C15.3719 40.5049 15.123 40.6874 15.0898 40.9694C15.0566 41.2349 15.2391 41.4837 15.5212 41.5169Z" fill="white"/>
<path d="M15.8194 39.3764C16.0849 39.4262 16.3338 39.2437 16.3835 38.9782C16.4333 38.7128 16.2508 38.4639 15.9854 38.3976C15.7199 38.3478 15.4711 38.5137 15.4213 38.7957C15.3715 39.0778 15.554 39.3266 15.8194 39.3764Z" fill="white"/>
<path d="M16.2507 37.2528C16.5162 37.3192 16.7816 37.1533 16.8314 36.8878C16.8978 36.6224 16.7319 36.3569 16.4664 36.2906C16.201 36.2242 15.9355 36.3901 15.8692 36.6556C15.8194 36.921 15.9853 37.1865 16.2507 37.2528Z" fill="white"/>
<path d="M16.7981 35.1623C17.0635 35.2453 17.329 35.0959 17.3954 34.8305C17.4617 34.5816 17.3456 34.2996 17.0801 34.2166C16.8313 34.1337 16.5327 34.283 16.4663 34.5319C16.3833 34.8139 16.5327 35.0794 16.7981 35.1623Z" fill="white"/>
<path d="M17.4616 33.1051C17.7271 33.2047 17.9925 33.0554 18.0921 32.8065C18.1916 32.5576 18.0589 32.2756 17.81 32.1761C17.5612 32.0765 17.2791 32.2092 17.163 32.4581C17.0635 32.7236 17.2128 33.0222 17.4616 33.1051Z" fill="white"/>
<path d="M18.2414 31.081C18.4902 31.1806 18.7889 31.081 18.8884 30.8322C19.0045 30.5833 18.8884 30.3013 18.6395 30.1851C18.3907 30.069 18.1086 30.1851 17.9925 30.434C17.8764 30.6994 17.9925 30.9815 18.2414 31.081Z" fill="white"/>
<path d="M19.1374 29.1236C19.3862 29.2398 19.6849 29.1402 19.801 28.908C19.9171 28.6757 19.8342 28.3771 19.5853 28.2443C19.3531 28.1116 19.0544 28.2112 18.9217 28.46C18.8056 28.7089 18.9051 29.0075 19.1374 29.1236Z" fill="white"/>
<path d="M20.1501 27.2157C20.3824 27.3484 20.681 27.2655 20.8138 27.0332C20.9465 26.8009 20.8635 26.5023 20.6313 26.353C20.399 26.2203 20.1004 26.2866 19.9676 26.5355C19.8349 26.7844 19.9179 27.083 20.1501 27.2157Z" fill="white"/>
<path d="M21.2616 25.3574C21.4939 25.5067 21.7925 25.4404 21.9418 25.2081C22.0911 24.9759 22.0247 24.6772 21.7925 24.5279C21.5602 24.3786 21.2616 24.445 21.1123 24.6772C20.9796 24.9095 21.0459 25.2081 21.2616 25.3574Z" fill="white"/>
<path d="M23.1694 23.4663C23.3187 23.2507 23.2856 22.952 23.0699 22.7861C22.8542 22.6202 22.539 22.6534 22.3731 22.8857C22.2072 23.1179 22.2569 23.4166 22.4892 23.5825C22.7049 23.7318 23.0035 23.682 23.1694 23.4663Z" fill="white"/>
<path d="M24.4803 21.7903C24.6628 21.5912 24.6296 21.276 24.4305 21.1101C24.2314 20.9276 23.9162 20.9608 23.7337 21.1599C23.5512 21.359 23.5844 21.6908 23.8001 21.8567C24.0157 22.0226 24.2978 21.9894 24.4803 21.7903Z" fill="white"/>
<path d="M25.9069 20.1976C26.0893 19.9985 26.0893 19.6999 25.8903 19.5008C25.6912 19.3183 25.376 19.3183 25.1935 19.5174C25.011 19.7164 25.011 20.0317 25.2101 20.2142C25.4091 20.3967 25.7078 20.3801 25.9069 20.1976Z" fill="white"/>
<path d="M27.4 18.6714C27.5991 18.4889 27.5991 18.1737 27.4166 17.9746C27.2341 17.7755 26.9189 17.7755 26.7198 17.958C26.5207 18.1405 26.5207 18.4557 26.7032 18.6548C26.9023 18.8539 27.2009 18.8539 27.4 18.6714Z" fill="white"/>
<path d="M28.9922 17.2449C29.1913 17.0624 29.2245 16.7638 29.042 16.5481C28.8761 16.3324 28.5608 16.3158 28.3452 16.4983C28.1295 16.6808 28.1129 16.996 28.2954 17.1951C28.4779 17.3942 28.7765 17.4108 28.9922 17.2449Z" fill="white"/>
<path d="M30.6514 15.901C30.867 15.7351 30.9002 15.4364 30.7509 15.2208C30.585 15.0051 30.2698 14.9553 30.0707 15.1212C29.855 15.2871 29.8218 15.6023 29.9877 15.818C30.1205 16.0337 30.4357 16.0669 30.6514 15.901Z" fill="white"/>
<path d="M32.3764 14.6568C32.6087 14.5075 32.6585 14.2089 32.5091 13.9932C32.3598 13.7609 32.0612 13.7112 31.8289 13.8439C31.5967 14.0098 31.5469 14.3084 31.6962 14.5407C31.8621 14.7564 32.1607 14.8061 32.3764 14.6568Z" fill="white"/>
<path d="M34.185 13.512C34.4172 13.3793 34.5002 13.0806 34.3675 12.8484C34.2347 12.6161 33.9361 12.5332 33.6873 12.6659C33.4384 12.7986 33.372 13.1138 33.5213 13.3461C33.6541 13.5784 33.9527 13.6447 34.185 13.512Z" fill="white"/>
<path d="M36.0434 12.4666C36.2757 12.3505 36.3752 12.0518 36.2591 11.803C36.1429 11.5541 35.8443 11.4712 35.5955 11.5873C35.3466 11.72 35.2637 12.0021 35.3798 12.2509C35.5125 12.4998 35.8111 12.5993 36.0434 12.4666Z" fill="white"/>
<path d="M37.9677 11.5376C38.2165 11.4215 38.3161 11.1395 38.2165 10.8906C38.117 10.6417 37.8184 10.5256 37.5695 10.6417C37.3206 10.7579 37.2045 11.0399 37.3206 11.2888C37.4368 11.5376 37.7188 11.6538 37.9677 11.5376Z" fill="white"/>
<path d="M39.942 10.725C40.1909 10.6255 40.3236 10.3434 40.224 10.0946C40.1245 9.84572 39.8425 9.713 39.5936 9.81254C39.3447 9.91208 39.212 10.1941 39.3116 10.443C39.3945 10.6918 39.6931 10.8246 39.942 10.725Z" fill="white"/>
<path d="M41.9499 10.0111C42.1988 9.92816 42.3481 9.64613 42.2651 9.39727C42.1822 9.13182 41.9002 8.9825 41.6513 9.08204C41.3858 9.165 41.2531 9.44704 41.3361 9.71249C41.419 9.96134 41.7011 10.0941 41.9499 10.0111Z" fill="white"/>
<path d="M43.9899 9.41396C44.2554 9.3476 44.4047 9.09874 44.3383 8.8333C44.2719 8.56785 44.0065 8.40195 43.7411 8.46831C43.4756 8.55126 43.3263 8.8167 43.3927 9.08215C43.4756 9.33101 43.7411 9.48032 43.9899 9.41396Z" fill="white"/>
<path d="M46.0807 8.93296C46.3461 8.88319 46.512 8.63434 46.4623 8.36889C46.4125 8.10344 46.147 7.92095 45.8816 7.97072C45.6162 8.02049 45.4337 8.28594 45.5 8.55138C45.5498 8.83342 45.8152 8.98273 46.0807 8.93296Z" fill="white"/>
<path d="M48.188 8.58426C48.4534 8.55108 48.6359 8.30223 48.6027 8.03678C48.5695 7.77133 48.3207 7.57224 48.0552 7.60542C47.7898 7.63861 47.5907 7.88747 47.6405 8.15291C47.6737 8.43495 47.9225 8.61744 48.188 8.58426Z" fill="white"/>
<path d="M50.3109 8.35236C50.5763 8.33577 50.7754 8.10351 50.7588 7.82147C50.7422 7.55602 50.51 7.35693 50.2279 7.37352C49.9459 7.39011 49.7468 7.62238 49.78 7.90442C49.7966 8.16987 50.0288 8.36895 50.3109 8.35236Z" fill="white"/>
<path d="M52.4351 8.23623C52.7006 8.23623 52.9163 8.00396 52.9163 7.73851C52.9163 7.47307 52.684 7.25739 52.4185 7.25739C52.1365 7.25739 51.9208 7.48965 51.9374 7.7551C51.9374 8.03714 52.1697 8.25282 52.4351 8.23623Z" fill="white"/>
<path d="M54.5749 8.23623C54.8403 8.23623 55.0726 8.03714 55.0726 7.7551C55.0892 7.48965 54.8735 7.25739 54.5915 7.25739C54.3094 7.25739 54.0938 7.45648 54.0938 7.73851C54.0938 8.00396 54.3094 8.23623 54.5749 8.23623Z" fill="white"/>
<path d="M56.6989 8.36894C56.9644 8.38553 57.1966 8.18644 57.2298 7.92099C57.263 7.65554 57.0639 7.42328 56.7819 7.3901C56.4998 7.35692 56.2676 7.57259 56.251 7.83804C56.2344 8.10349 56.4335 8.33576 56.6989 8.36894Z" fill="white"/>
<path d="M58.822 8.60108C59.0874 8.63426 59.3363 8.45176 59.3861 8.18632C59.4358 7.92087 59.2367 7.67201 58.9713 7.63883C58.7058 7.60565 58.4404 7.78815 58.4072 8.07019C58.374 8.31904 58.5565 8.5679 58.822 8.60108Z" fill="white"/>
<path d="M60.9295 8.94926C61.1949 8.99903 61.4438 8.83313 61.5101 8.56768C61.5599 8.30223 61.394 8.03679 61.1285 7.98701C60.8631 7.93724 60.5976 8.11974 60.5479 8.38518C60.4815 8.65063 60.664 8.91608 60.9295 8.94926Z" fill="white"/>
<path d="M63.0027 9.43087C63.2682 9.49723 63.5336 9.34792 63.6 9.08247C63.6664 8.81702 63.517 8.55158 63.2516 8.46863C62.9862 8.38567 62.7207 8.56817 62.6543 8.83361C62.588 9.11565 62.7539 9.36451 63.0027 9.43087Z" fill="white"/>
<path d="M65.0605 10.0444C65.3093 10.1273 65.5914 9.9946 65.6743 9.72915C65.7573 9.46371 65.6246 9.19825 65.3591 9.09871C65.0937 9.01576 64.8282 9.14848 64.7453 9.41393C64.6623 9.67938 64.795 9.94483 65.0605 10.0444Z" fill="white"/>
<path d="M67.0672 10.7576C67.3161 10.8572 67.5981 10.7244 67.6977 10.4756C67.7972 10.2267 67.6811 9.94468 67.4156 9.84513C67.1668 9.74559 66.8681 9.86173 66.7852 10.1272C66.6857 10.376 66.8184 10.6581 67.0672 10.7576Z" fill="white"/>
<path d="M69.0249 11.5876C69.2737 11.7037 69.5558 11.5876 69.6719 11.3387C69.788 11.0898 69.6719 10.8078 69.4231 10.6917C69.1742 10.5755 68.8756 10.6917 68.776 10.9405C68.6765 11.1894 68.7926 11.4714 69.0249 11.5876Z" fill="white"/>
<path d="M70.9499 12.5165C71.1821 12.6327 71.4808 12.5497 71.6135 12.3008C71.7462 12.0686 71.6467 11.77 71.3978 11.6372C71.149 11.5045 70.8503 11.604 70.7342 11.8529C70.6181 12.1018 70.7176 12.4004 70.9499 12.5165Z" fill="white"/>
<path d="M72.8078 13.5614C73.0401 13.6941 73.3387 13.6278 73.4714 13.3955C73.6207 13.1632 73.5378 12.848 73.3055 12.7153C73.0732 12.5826 72.758 12.6489 72.6253 12.8978C72.5092 13.1301 72.5755 13.4287 72.8078 13.5614Z" fill="white"/>
<path d="M75.2802 14.5904C75.4295 14.3747 75.3797 14.0595 75.1475 13.8936C74.9152 13.7443 74.6166 13.8106 74.4672 14.0263C74.3179 14.2586 74.3843 14.5572 74.6 14.7065C74.8322 14.8558 75.1309 14.8061 75.2802 14.5904Z" fill="white"/>
<path d="M77.0222 15.8678C77.1881 15.6522 77.1549 15.3369 76.9393 15.171C76.7236 15.0051 76.4084 15.0383 76.2591 15.254C76.0931 15.4697 76.1429 15.7849 76.342 15.9508C76.5577 16.1167 76.8563 16.0835 77.0222 15.8678Z" fill="white"/>
<path d="M78.681 17.2614C78.8635 17.0623 78.8303 16.747 78.6312 16.5646C78.4321 16.3821 78.1169 16.3986 77.9344 16.6143C77.7685 16.83 77.7851 17.1286 77.9842 17.3111C78.1999 17.477 78.5151 17.4604 78.681 17.2614Z" fill="white"/>
<path d="M80.274 18.7216C80.4565 18.5225 80.4565 18.2238 80.2575 18.0248C80.0584 17.8423 79.7431 17.8423 79.5606 18.0413C79.3782 18.2404 79.3781 18.5557 79.5772 18.7381C79.7763 18.9206 80.075 18.9206 80.274 18.7216Z" fill="white"/>
<path d="M81.7662 20.2811C81.9653 20.0986 81.9819 19.7833 81.7828 19.5843C81.6003 19.3852 81.2851 19.3686 81.086 19.5677C80.8869 19.7502 80.8869 20.0654 81.0694 20.2645C81.2519 20.447 81.5671 20.4636 81.7662 20.2811Z" fill="white"/>
<path d="M83.177 21.9234C83.3927 21.7575 83.4259 21.4423 83.2434 21.2266C83.0609 21.0109 82.7457 20.9943 82.5466 21.1603C82.3475 21.3427 82.3143 21.6414 82.4968 21.8405C82.6627 22.0727 82.9614 22.1059 83.177 21.9234Z" fill="white"/>
<path d="M84.4877 23.6487C84.7033 23.4828 84.7531 23.1842 84.6038 22.9519C84.4545 22.7196 84.1227 22.6864 83.907 22.8523C83.6913 23.0183 83.6581 23.3169 83.8074 23.5326C83.9568 23.7648 84.2554 23.8146 84.4877 23.6487Z" fill="white"/>
<path d="M85.6989 25.4405C85.9312 25.2912 85.9975 24.9926 85.8482 24.7603C85.6989 24.528 85.4003 24.4617 85.168 24.611C84.9357 24.7603 84.886 25.0755 85.0187 25.2912C85.168 25.5235 85.4666 25.5898 85.6989 25.4405Z" fill="white"/>
<path d="M86.81 27.2985C87.0422 27.1658 87.1252 26.8671 86.9925 26.6349C86.8597 26.4026 86.5611 26.3197 86.3288 26.4524C86.0966 26.5851 86.0136 26.8837 86.1464 27.116C86.2625 27.3483 86.5611 27.4312 86.81 27.2985Z" fill="white"/>
<path d="M87.806 29.2067C88.0549 29.0906 88.1378 28.792 88.0217 28.5431C87.889 28.2942 87.6069 28.1947 87.3581 28.3274C87.1258 28.4601 87.0263 28.7422 87.1424 28.991C87.2751 29.2233 87.5738 29.3228 87.806 29.2067Z" fill="white"/>
<path d="M88.055 30.9321C88.1711 31.1809 88.4532 31.2971 88.702 31.1809C88.9509 31.0814 89.067 30.7828 88.9509 30.5339C88.8348 30.2851 88.5527 30.1689 88.3039 30.2851C88.055 30.4012 87.9389 30.6832 88.055 30.9321Z" fill="white"/>
<path d="M88.8508 32.9061C88.9338 33.155 89.2158 33.2877 89.4647 33.2048C89.7135 33.1218 89.8628 32.8232 89.7633 32.5743C89.6638 32.3255 89.3817 32.1927 89.1163 32.2923C88.884 32.3752 88.7513 32.6573 88.8508 32.9061Z" fill="white"/>
<path d="M89.5307 34.9303C89.597 35.1792 89.8791 35.3285 90.1279 35.2621C90.3934 35.1792 90.5427 34.9137 90.4597 34.6483C90.3934 34.3828 90.0947 34.2335 89.8459 34.3164C89.597 34.3994 89.4643 34.6648 89.5307 34.9303Z" fill="white"/>
<path d="M90.0957 36.9872C90.162 37.2526 90.4109 37.402 90.6764 37.3522C90.9418 37.2858 91.1077 37.0204 91.0413 36.7549C90.975 36.4895 90.7095 36.3236 90.4607 36.3899C90.1952 36.4563 90.0293 36.7217 90.0957 36.9872Z" fill="white"/>
<path d="M90.5267 39.0775C90.5764 39.343 90.8253 39.5254 91.0907 39.4757C91.3562 39.4259 91.5387 39.177 91.4889 38.895C91.4392 38.6296 91.1903 38.4471 90.9248 38.4968C90.6594 38.5632 90.4935 38.8121 90.5267 39.0775Z" fill="white"/>
<path d="M90.8584 41.1847C90.8916 41.4502 91.1404 41.6327 91.4059 41.6161C91.6713 41.5829 91.8704 41.334 91.8372 41.0686C91.804 40.8031 91.5552 40.604 91.2897 40.6372C91.0077 40.6704 90.8252 40.9193 90.8584 41.1847Z" fill="white"/>
<path d="M91.0576 43.3082C91.0742 43.5737 91.3065 43.7728 91.5885 43.7728C91.854 43.7562 92.053 43.5239 92.0364 43.2419C92.0199 42.9598 91.7876 42.7607 91.5056 42.7773C91.2401 42.8105 91.041 43.0428 91.0576 43.3082Z" fill="white"/>
<path d="M91.6383 44.9506C91.3729 44.9506 91.1572 45.1829 91.1572 45.4483C91.1572 45.7138 91.3895 45.9294 91.6549 45.9294C91.9204 45.9294 92.1361 45.7138 92.1361 45.4317C92.1195 45.1497 91.9038 44.934 91.6383 44.9506Z" fill="white"/>
<path d="M53.4473 82.4452C73.5881 82.4452 89.9795 66.0538 89.9795 45.913C89.9795 25.7721 73.5881 9.38074 53.4473 9.38074C33.3064 9.38074 16.9316 25.7887 16.9316 45.9296C16.9316 66.0704 33.3064 82.4452 53.4473 82.4452ZM53.4473 10.8739C72.7752 10.8739 88.503 26.6017 88.503 45.9296C88.503 65.2575 72.7752 80.9853 53.4473 80.9853C34.1194 80.9853 18.3916 65.2575 18.3916 45.9296C18.3916 26.6017 34.1194 10.8739 53.4473 10.8739Z" fill="white"/>
</g>
<path d="M54.0941 32.4747C54.0941 32.4747 56.7154 32.3253 58.0261 34.1171C58.5238 32.0599 58.1422 30.2515 58.1422 30.2349L58.0095 29.6377C57.4288 28.8248 56.1348 27.4312 54.0941 27.4312C52.0535 27.4312 50.7428 28.8248 50.1788 29.6377L50.046 30.2349C50.046 30.2515 49.6645 32.0765 50.1622 34.1171C51.4728 32.3253 54.0941 32.4747 54.0941 32.4747Z" fill="white"/>
<path d="M42.5137 59.766L47.0263 59.1853L47.4742 64.6436L53.845 53.8598L50.3112 47.8706C46.9267 53.08 43.4925 58.2894 42.5137 59.766Z" fill="white"/>
<path d="M54.3428 41.6158C55.4046 43.2915 56.6157 45.1662 57.86 47.0741L59.5024 44.2703C59.5356 44.2205 61.9412 40.3052 61.4269 37.6839L58.7061 31.5122C58.7227 31.7611 58.7227 32.0431 58.7061 32.3417C58.6729 33.0219 58.5733 33.8183 58.3411 34.6312C58.2249 35.0294 58.0756 35.4276 57.8765 35.8257C57.5116 36.5723 56.1345 38.7954 54.3428 41.6158Z" fill="white"/>
<path d="M57.8767 47.8704C57.8269 47.8041 57.7938 47.7377 57.744 47.6713C57.6942 47.605 57.661 47.5386 57.6113 47.4723C56.3836 45.5809 55.1725 43.7062 54.0941 42.014C54.0443 41.9476 54.0111 41.8813 53.9614 41.8149C53.9116 41.7485 53.8784 41.6822 53.8286 41.6158C52.0369 38.7954 50.6599 36.5723 50.3115 35.8257C50.129 35.4276 49.9631 35.0294 49.8469 34.6312C49.6147 33.8183 49.4985 33.0385 49.4819 32.3417C49.4653 32.0431 49.4653 31.7611 49.4819 31.5122L46.7445 37.6839C46.2302 40.3052 48.6524 44.2371 48.669 44.2703L50.328 47.0741L50.4442 47.2732L50.5603 47.4723L54.0775 53.4448L54.1936 53.6605L54.3098 53.8762L60.6805 64.66L61.1285 59.2017L65.6411 59.7824C64.6954 58.2893 61.2612 53.0798 57.8767 47.8704Z" fill="white"/>
<defs>
<filter id="filter0_d_201:4186" x="0.455078" y="0.000244141" width="106" height="125.567" filterUnits="userSpaceOnUse" color-interpolation-filters="sRGB">
<feFlood flood-opacity="0" result="BackgroundImageFix"/>
<feColorMatrix in="SourceAlpha" type="matrix" values="0 0 0 0 0 0 0 0 0 0 0 0 0 0 0 0 0 0 127 0" result="hardAlpha"/>
<feOffset dy="4"/>
<feGaussianBlur stdDeviation="2"/>
<feComposite in2="hardAlpha" operator="out"/>
<feColorMatrix type="matrix" values="0 0 0 0 0 0 0 0 0 0 0 0 0 0 0 0 0 0 0.45 0"/>
<feBlend mode="normal" in2="BackgroundImageFix" result="effect1_dropShadow_201:4186"/>
<feBlend mode="normal" in="SourceGraphic" in2="effect1_dropShadow_201:4186" result="shape"/>
</filter>
</defs>
</svg>
