<svg width="36" height="36" fill="none" xmlns="http://www.w3.org/2000/svg"><path d="M18 .857C27.468.857 35.143 8.532 35.143 18S27.468 35.143 18 35.143C8.533 35.143.857 27.468.857 18S8.533.857 18 .857zm0 2.857C10.11 3.714 3.715 10.11 3.715 18S10.11 32.286 18 32.286c7.89 0 14.286-6.396 14.286-14.286S25.89 3.714 18 3.714zm-2.92 7.316c.489 0 .969.129 1.393.373l7.255 4.177a2.792 2.792 0 010 4.84l-7.255 4.177a2.792 2.792 0 01-4.186-2.42v-8.354a2.792 2.792 0 012.793-2.793zm.064 2.905v8.13L22.204 18l-7.06-4.065z" fill="#fff"/></svg>