<svg width="65" height="65" viewBox="0 0 65 65" fill="none" xmlns="http://www.w3.org/2000/svg">
<path fill-rule="evenodd" clip-rule="evenodd" d="M43.5233 7.74458C38.1886 5.36757 32.2284 4.7787 26.5317 6.0658C20.835 7.3529 15.7069 10.447 11.9123 14.8866C8.11776 19.3263 5.85998 24.8736 5.4757 30.7013C5.09143 36.5289 6.60126 42.3247 9.78001 47.2241C12.9588 52.1236 17.6361 55.8643 23.1145 57.8882C28.5929 59.9122 34.5788 60.1111 40.1794 58.4551C45.7801 56.7992 50.6954 53.3772 54.1923 48.6995C57.6892 44.0218 59.5803 38.339 59.5837 32.4987V29.7785C59.5837 28.3978 60.703 27.2785 62.0837 27.2785C63.4644 27.2785 64.5837 28.3978 64.5837 29.7785V32.5016C64.5797 39.4201 62.3394 46.152 58.1969 51.6933C54.0544 57.2346 48.2317 61.2883 41.5971 63.2499C34.9625 65.2116 27.8715 64.976 21.3818 62.5784C14.892 60.1807 9.35109 55.7495 5.58549 49.9455C1.81989 44.1415 0.0313222 37.2758 0.486539 30.3723C0.941755 23.4687 3.61636 16.8973 8.11147 11.638C12.6066 6.37877 18.6813 2.71345 25.4298 1.18873C32.1782 -0.335982 39.2387 0.361597 45.5583 3.17743C46.8194 3.73938 47.3863 5.21732 46.8243 6.4785C46.2624 7.73969 44.7844 8.30653 43.5233 7.74458Z" fill="white"/>
<path fill-rule="evenodd" clip-rule="evenodd" d="M63.8502 7.06472C64.827 8.04055 64.8278 9.62346 63.852 10.6003L34.2687 40.2132C33.7999 40.6824 33.1639 40.9461 32.5006 40.9463C31.8374 40.9465 31.2012 40.6831 30.7322 40.2141L21.8572 31.3391C20.8809 30.3627 20.8809 28.7798 21.8572 27.8035C22.8335 26.8272 24.4165 26.8272 25.3928 27.8035L32.4991 34.9099L60.3147 7.06649C61.2905 6.08969 62.8734 6.0889 63.8502 7.06472Z" fill="white"/>
</svg>
