<svg width="155" height="250" viewBox="0 0 155 250" fill="none" xmlns="http://www.w3.org/2000/svg">
<path d="M77.4 33.8C77.4 33.8 94.9001 32.8 103.7 44.7C107 31 104.5 18.9 104.5 18.7L103.7 14.7C99.8001 9.30001 91.2 0 77.5 0C63.8 0 55.1 9.40001 51.3 14.7L50.5 18.7C50.5 18.9 48 31 51.3 44.7C59.9 32.8 77.4 33.8 77.4 33.8Z" fill="#222222"/>
<path d="M0 216.4L30.2001 212.5L33.2001 249.1L75.8 176.9L52.2001 136.9C29.5001 171.7 6.5 206.5 0 216.4Z" fill="#222222"/>
<path d="M79.0996 94.9999C86.2996 106.2 94.3996 118.8 102.6 131.5L113.6 112.8C113.8 112.5 129.9 86.3 126.5 68.7L108.2 27.3999C108.3 29.0999 108.3 30.8999 108.2 32.8999C108 37.4999 107.3 42.7 105.7 48.2C104.9 50.9 103.9 53.6 102.6 56.2C100.2 61.3 91.0996 76.0999 79.0996 94.9999Z" fill="#222222"/>
<path d="M102.7 136.8C102.4 136.4 102.1 135.9 101.8 135.5C101.5 135.1 101.2 134.6 100.9 134.2C92.6999 121.5 84.5999 109 77.2999 97.6001C76.9999 97.2001 76.6998 96.7 76.4998 96.3C76.1998 95.9 75.8999 95.4 75.6999 95C63.6999 76.2 54.4998 61.3001 52.0998 56.2001C50.7998 53.5001 49.7998 50.8001 48.9998 48.2001C47.3998 42.8001 46.6998 37.5 46.4998 32.9C46.3998 30.9 46.3998 29 46.4998 27.3L28.1999 68.6001C24.7999 86.2001 40.8998 112.4 41.0998 112.7L52.1999 131.4L52.9998 132.8L53.7999 134.2L77.3999 174.1L78.1999 175.5L78.9998 176.9L121.6 249.1L124.6 212.5L154.8 216.4C148.3 206.5 125.3 171.7 102.7 136.8Z" fill="#222222"/>
</svg>
