<svg width="16" height="26" viewBox="0 0 16 26" fill="none" xmlns="http://www.w3.org/2000/svg">
<path d="M0.5 23V3C0.5 1.625 1.625 0.5 3 0.5H13C14.375 0.5 15.5 1.625 15.5 3V23C15.5 24.375 14.375 25.5 13 25.5H3C1.625 25.5 0.5 24.375 0.5 23Z" fill="#E38939"/>
<path d="M13 2.375H3C2.625 2.375 2.375 2.625 2.375 3V21.125C2.375 21.5 2.625 21.75 3 21.75H13C13.375 21.75 13.625 21.5 13.625 21.125V3C13.625 2.625 13.375 2.375 13 2.375Z" fill="#FFF3E0"/>
<path d="M8 24.5625C8.51777 24.5625 8.9375 24.1428 8.9375 23.625C8.9375 23.1072 8.51777 22.6875 8 22.6875C7.48223 22.6875 7.0625 23.1072 7.0625 23.625C7.0625 24.1428 7.48223 24.5625 8 24.5625Z" fill="#A6642A"/>
</svg>
