<svg width="488" height="696" viewBox="0 0 488 696" fill="none" xmlns="http://www.w3.org/2000/svg">
<path d="M134.493 205.537C134.493 205.537 153.925 222.629 169.62 263.118C185.315 303.607 190.696 318.831 190.696 318.831L171.966 330.066L160.726 325.614C160.726 325.614 145.733 278.328 133.565 256.096C121.397 233.864 121.861 220.522 121.861 220.522L134.493 205.537Z" fill="#1A2B66"/>
<path d="M36.9509 617.732C36.9509 617.732 36.5996 633.532 35.5458 639.149C34.492 644.767 32.7356 650.736 45.0302 653.544C57.3248 656.353 80.5088 658.811 89.2907 658.109C98.0725 657.407 105.801 653.544 93.506 645.469C81.2114 637.394 68.5655 632.478 66.4579 626.509C64.3503 620.541 36.9509 617.732 36.9509 617.732Z" fill="#121212"/>
<path d="M32.3845 622.296C32.3845 622.296 41.1663 632.127 72.4297 628.967L76.2937 520.827L32.0332 516.614L32.3845 622.296Z" fill="#333333"/>
<path d="M104.395 621.594C104.395 621.594 104.044 637.394 102.99 643.012C101.936 648.629 100.18 654.598 112.475 657.407C124.769 660.216 147.953 662.673 156.735 661.971C165.517 661.269 173.245 657.407 160.95 649.331C148.656 641.256 136.01 636.341 133.902 630.372C131.795 624.403 104.395 621.594 104.395 621.594Z" fill="#121212"/>
<path d="M99.8288 626.159C99.8288 626.159 108.611 635.989 139.874 632.83L143.738 524.69L99.4775 520.477L99.8288 626.159Z" fill="#333333"/>
<path d="M4.31055 520.954C4.31055 520.954 6.19337 401.565 16.8861 313.592C27.5789 225.62 54.5989 184.78 100.489 187.926C146.38 191.072 144.497 325.53 148.262 426.072C152.028 526.614 148.262 529.128 148.262 529.128C148.262 529.128 75.3381 540.433 4.31055 520.954Z" fill="#2E3B69"/>
<path d="M70.3779 191.661C72.1905 194.821 106.531 246.771 106.531 246.771L122.802 202.054C122.802 202.054 114.666 186.704 99.7584 182.631C84.8504 178.558 70.3779 191.661 70.3779 191.661Z" fill="#1E2B59"/>
<path d="M78.752 190.089L104.746 226.954C104.746 226.954 113.528 198.515 114.582 198.515C115.636 198.515 103.608 184.583 78.752 190.089Z" fill="#E5ECE3"/>
<path d="M123.715 210.228C123.715 210.228 132.609 348.324 132.145 396.551C131.682 444.765 133.087 467.235 133.087 467.235L149.484 466.772C149.484 466.772 150.889 374.544 147.616 324.463C144.342 274.367 133.101 202.742 133.101 202.742L123.715 210.228Z" fill="#E5ECE3"/>
<path d="M71.7263 190.088C71.7263 190.088 95.6129 263.581 101.697 293.551C107.781 323.508 102.638 470.971 101.233 473.316C99.8282 475.662 70.3212 472.853 70.3212 472.853C70.3212 472.853 72.6677 359.559 75.0002 332.875C77.3467 306.191 75.0002 287.47 69.3798 251.419C63.7594 215.368 60.0078 198.992 60.0078 198.992C60.0078 198.992 66.1059 191.493 71.7263 190.088Z" fill="#E5ECE3"/>
<path d="M85.0187 443.304C85.0187 443.304 85.0187 462.151 85.1592 462.432C85.2998 462.727 88.7422 462.432 88.7422 462.432L89.9787 442.784H96.1892C96.1892 442.784 98.3109 438.978 96.0487 437.967C95.3181 437.63 90.7094 437.237 90.7094 437.237L90.2738 430.805H84.5832L84.6534 437.518L78.2181 437.658C78.2181 437.658 75.6186 443.36 77.9933 443.36C78.1619 443.374 85.0187 443.304 85.0187 443.304Z" fill="#113A49"/>
<path d="M139.551 434.049C139.551 434.049 140.309 447.56 140.408 447.77C140.506 447.967 142.572 447.644 142.572 447.644L142.529 433.515L146.281 433.305C146.281 433.305 147.405 430.51 146 429.85C145.536 429.639 142.754 429.513 142.754 429.513L142.234 424.92L138.792 425.117L139.101 429.934L135.237 430.257C135.237 430.257 133.902 434.428 135.335 434.344C135.406 434.33 139.551 434.049 139.551 434.049Z" fill="#113A49"/>
<path d="M78.0501 279.62C78.7527 280.673 168.679 308.761 168.679 308.761V317.89L74.8887 286.993L78.0501 279.62Z" fill="#FFE7CC"/>
<path d="M212.939 283.833C211.829 283.707 168.679 308.761 168.679 308.761V317.89C168.679 317.89 212.588 293.664 216.101 291.557C219.613 289.451 218.911 284.535 212.939 283.833Z" fill="#FFE7CC"/>
<path d="M74.8882 286.993L41.2783 384.838C41.2783 384.838 120.905 389.993 121.608 389.993C122.31 389.993 168.678 317.904 168.678 317.904L74.8882 286.993Z" fill="#363133"/>
<path d="M216.915 291.445L170.322 371.019L121.607 389.979L168.678 317.89L216.915 291.445Z" fill="#272726"/>
<path d="M218.207 132.859C218.207 132.859 229.448 132.859 237.176 96.6951C244.904 60.5315 219.261 33.2578 181.787 11.7281C144.313 -9.80151 90.9198 3.30166 79.6791 11.7281C79.6791 11.7281 40.3364 9.86027 14.1033 63.2279C-12.1298 116.596 21.1288 182.603 61.8765 183.066L66.0918 177.912L60.9351 160.596L108.708 89.4343L216.437 103.478L218.207 132.859Z" fill="#2A3A49"/>
<path opacity="0.7" d="M105.322 186.914C104.985 184.429 100.461 182.996 95.2196 183.698C89.9646 184.401 85.9882 186.985 86.3114 189.471C86.6486 191.956 91.173 193.389 96.414 192.687C101.669 191.97 105.645 189.4 105.322 186.914ZM88.5314 188.235C88.5454 188.291 88.5314 188.333 88.5173 188.389C88.5173 188.417 88.5033 188.445 88.4892 188.473C88.4892 188.67 88.3768 188.853 88.2082 188.895C88.1661 188.937 88.1239 188.993 88.0537 189.035C87.8288 189.19 87.5478 189.021 87.4635 188.796C87.4495 188.754 87.4354 188.712 87.4354 188.67C87.3511 188.558 87.3371 188.417 87.4354 188.277C87.4776 188.221 87.5338 188.15 87.5759 188.094C87.6883 187.954 87.8289 187.841 87.9834 187.729C88.3347 187.476 88.6579 187.912 88.5314 188.235ZM92.6624 188.01C91.8615 188.178 90.639 188.347 90.0489 187.631C89.529 186.999 90.0489 186.142 90.5969 185.721C91.0465 185.37 91.5805 185.103 92.1284 185.019C93.4914 184.681 95.1213 184.864 94.9386 186.325C94.7841 187.336 93.5335 187.813 92.6624 188.01Z" fill="#F9CBC9"/>
<path d="M52.0545 162.464C52.0545 162.464 62.944 206.941 118.094 212.91C176.307 219.216 231.443 163.868 226.75 95.5294C226.75 95.5294 161.652 103.492 105.912 76.3311C105.912 76.3311 74.536 133.449 60.0074 147.956C60.0074 147.956 60.4711 134.375 52.5182 128.758C44.5513 123.14 33.3106 133.21 32.1443 145.849C30.9781 158.489 39.1698 165.75 52.0545 162.464Z" fill="#F4D9BF"/>
<path opacity="0.5" d="M52.9821 144.754C53.0523 141.819 51.9142 139.066 49.2586 136.945C47.6427 135.653 45.0855 136.398 43.4836 137.184C41.095 138.35 39.8445 141.341 39.0154 143.659C37.5401 147.759 38.0459 153.602 41.7413 156.481C46.3079 160.048 50.8604 157.113 52.6027 152.422C53.3615 150.386 53.502 147.422 52.9821 144.754Z" fill="#C69474"/>
<path d="M137.091 173.053C137.091 176.409 134.379 179.12 131.021 179.12C127.677 179.12 124.951 176.409 124.951 173.053C124.951 169.696 127.663 166.986 131.021 166.986C134.379 166.986 137.091 169.696 137.091 173.053Z" fill="#461A00"/>
<path d="M128.675 170.693C128.675 171.382 128.127 171.929 127.439 171.929C126.75 171.929 126.202 171.382 126.202 170.693C126.202 170.005 126.764 169.458 127.439 169.458C128.113 169.458 128.675 170.019 128.675 170.693Z" fill="white"/>
<path d="M194.939 174.907C194.939 178.263 192.227 180.974 188.869 180.974C185.525 180.974 182.799 178.263 182.799 174.907C182.799 171.55 185.511 168.84 188.869 168.84C192.227 168.84 194.939 171.55 194.939 174.907Z" fill="#461A00"/>
<path d="M186.523 172.547C186.523 173.236 185.975 173.783 185.286 173.783C184.598 173.783 184.05 173.236 184.05 172.547C184.05 171.859 184.612 171.312 185.286 171.312C185.961 171.312 186.523 171.873 186.523 172.547Z" fill="white"/>
<path d="M201.093 140.639C196.274 140.555 192.171 143.42 189.937 147.591C189.74 147.956 190.134 148.532 190.555 148.237C192.888 146.608 195.347 144.867 198.086 144.038C200.517 143.294 202.779 144.529 204.606 146.032C205.744 146.959 206.152 148.476 207.29 149.445C208.119 150.147 209.538 149.824 209.566 148.574C209.664 144.417 205.182 140.724 201.093 140.639Z" fill="#2A3A49"/>
<path d="M150.397 145.653C148.079 141.917 145.466 138.533 140.702 137.999C135.433 137.409 129.714 138.996 126.005 142.9C124.586 144.389 126.244 146.692 128.113 145.779C131.822 143.968 134.998 142.058 139.241 141.707C143.4 141.355 146.421 144.263 149.512 146.51C150.004 146.903 150.735 146.201 150.397 145.653Z" fill="#2A3A49"/>
<path opacity="0.5" d="M149.33 200.327C145.691 196.212 139.958 195.397 134.829 196.282C130.277 197.068 123.771 198.74 120.778 202.532C119.429 204.231 118.586 208.205 119.991 210.143C122.816 214.048 128.675 214.174 133.129 214.146C137.724 214.118 144.595 213.43 148.065 209.989C150.454 207.63 151.901 203.248 149.33 200.327Z" fill="#C69474"/>
<path d="M201.459 314.618C201.698 313.607 207.08 319.772 206.841 324.21C206.602 328.648 195.6 354.405 182.252 360.963C168.903 367.522 178.5 354.405 186.003 350.43C186.003 350.43 164.688 354.405 192.326 340.136C192.326 340.136 179.217 345.515 178.739 341.077C178.261 336.639 195.136 331.709 195.136 331.709C195.136 331.709 182.729 333.353 181.085 328.901C179.455 324.449 199.829 321.401 201.459 314.618Z" fill="#EFCAA6"/>
<path d="M87.1828 338.956L82.0261 379.221C82.0261 379.221 37.5267 389.052 12.7128 358.618C-12.1012 328.184 3.8185 266.39 23.0121 237.839C42.2197 209.287 60.0082 198.979 60.0082 198.979C60.0082 198.979 25.8223 278.089 34.7165 310.868C43.6248 343.647 87.1828 337.088 87.1828 338.956Z" fill="#283562"/>
<path d="M101.698 340.599C102.4 340.838 132.849 325.39 134.717 329.125C136.586 332.875 113.177 346.442 113.177 346.442C113.177 346.442 136.361 341.526 138.23 344.574C140.099 347.621 113.88 357.677 113.88 357.677C113.88 357.677 132.61 355.809 133.087 359.784C133.551 363.758 111.772 367.269 111.772 367.269C111.772 367.269 127.467 367.508 128.872 370.541C130.277 373.589 84.1481 381.313 82.9678 373.589L86.0168 347.607C86.0168 347.607 99.3652 322.791 103.342 323.732C107.318 324.673 101.698 340.599 101.698 340.599Z" fill="#EFCAA6"/>
<path opacity="0.7" d="M110.423 190.664C111.392 187.518 106.784 183.305 100.123 181.255C93.4633 179.204 87.2809 180.089 86.3114 183.235C85.3419 186.381 89.9506 190.594 96.6108 192.645C103.271 194.695 109.439 193.81 110.423 190.664ZM89.6415 183.01C89.6274 183.081 89.5853 183.137 89.5431 183.193C89.5291 183.235 89.4869 183.249 89.4588 183.277C89.3464 183.516 89.1075 183.67 88.8827 183.628C88.7984 183.656 88.7141 183.684 88.6298 183.713C88.2645 183.769 88.0256 183.418 88.0537 183.095C88.0537 183.038 88.0678 182.982 88.0818 182.94C88.0537 182.757 88.0959 182.575 88.3066 182.477C88.405 182.434 88.4893 182.378 88.5736 182.35C88.7703 182.238 89.0232 182.182 89.2621 182.126C89.8101 181.985 89.9647 182.673 89.6415 183.01ZM94.6858 185.005C93.632 184.766 92.0723 184.288 91.7632 183.095C91.4962 182.041 92.5781 181.311 93.4633 181.114C94.194 180.946 94.9808 180.918 95.6974 181.114C97.51 181.451 99.3507 182.575 98.325 184.218C97.6084 185.37 95.8379 185.257 94.6858 185.005Z" fill="#F9CBC9"/>
<path d="M434.55 460.227H121.326V470.016H434.55V460.227Z" fill="#2A3A49"/>
<path d="M440.24 481.574H115.635V685.776H440.24V481.574Z" fill="#394C5F"/>
<path d="M158.378 434.948L120.876 460.943H435.013L402.12 434.948H158.378Z" fill="#394C5F"/>
<path d="M410.691 508.342H145.198V659.022H410.691V508.342Z" fill="#2A3A49"/>
<path d="M403.44 517.19H152.448V650.174H403.44V517.19Z" fill="#48586E"/>
<path d="M446.97 469.145H108.904V491.222H446.97V469.145Z" fill="#48586E"/>
<path d="M458.239 677.63H86.1562V692.138H458.239V677.63Z" fill="#272726"/>
<path d="M65.7969 664.836V696H101.374V664.836C82.096 653.446 65.7969 664.836 65.7969 664.836Z" fill="#2A3A49"/>
<path d="M452.423 664.836V696H488V664.836C468.736 653.446 452.423 664.836 452.423 664.836Z" fill="#2A3A49"/>
<path d="M369.874 422.631C373.907 422.701 379.26 422.308 376.759 416.859C373.794 410.385 365.083 407.548 356.947 407.885C359.94 405.231 361.275 401.916 358.788 397.942C356.343 394.051 349.402 393.995 345.467 394.473C341.913 394.908 338.456 395.723 335.028 396.762C335.66 395.933 336.278 395.091 336.812 394.178C338.189 391.846 339.018 389.052 339.018 386.355C339.018 384.192 339.833 381.355 337.501 380.148C335.702 379.207 332.105 379.263 330.166 379.53C326.794 380.007 323.717 381.075 320.639 382.521C316.846 384.291 313.53 386.341 310.579 388.883C311.563 384.558 310.944 380.429 310.804 375.682C310.776 374.937 310.172 374.432 309.427 374.572C303.034 375.836 297.54 378.884 292.776 383.294C291.02 384.909 288.926 387.184 287.353 389.684C286.777 387.956 286.116 386.271 285.372 384.628C284.079 381.749 282.238 379.179 280.285 376.707C279.021 375.092 277.405 372.213 275.353 371.581C275.058 371.482 274.637 371.553 274.426 371.805C271.293 375.429 269.354 380.541 268.229 385.133C267.696 387.31 267.555 389.417 267.681 391.495C266.628 389.178 265.321 387.057 263.733 385.063C262.497 383.532 260.319 380.471 258.324 379.839C257.171 379.474 256.258 379.628 255.513 380.709C254.122 382.704 252.633 384.642 251.34 386.706C248.713 390.891 246.774 395.343 246.282 400.118C241.181 392.633 232.807 387.142 224.798 383.785C220.723 382.086 220.4 390.442 220.653 392.422C221.173 396.636 222.451 400.694 224.334 404.472C223.07 403.25 221.735 402.085 220.4 400.989C217.66 398.714 213.782 395.315 210.143 394.725C209.693 394.655 209.328 395.048 209.173 395.414C208.485 397.099 209.834 399.795 210.213 401.495C210.93 404.655 212.56 407.379 214.26 410.104C214.456 410.427 214.723 410.834 215.019 411.269C211.843 410.427 208.401 410.497 205.253 411.298C200.476 412.519 194.167 415.974 191.343 420.117C188.954 423.614 197.764 425.103 199.338 425.3C201.516 425.58 203.651 425.595 205.759 425.454C203.075 426.423 200.56 427.687 198.242 429.415C196.19 430.959 186.678 437.827 193.591 440.032C202.654 442.911 212.953 441.984 222.62 439.217C220.583 440.917 218.658 442.813 217.014 444.863C215.426 446.857 210.002 456.843 215.707 457.039C218.728 457.138 222.002 455.579 224.784 454.497C228.859 452.896 232.484 450.495 236.039 447.995C239.481 445.579 242.572 442.925 245.312 439.948C244.385 444.259 244.118 448.739 244.596 453.233C244.652 453.753 245.34 454.118 245.818 453.964C250.076 452.615 254.08 448.192 257.199 445.172C259.476 442.953 261.583 440.65 263.269 438.08C264.506 443.866 267.429 449.329 271.855 453.065C272.192 453.346 272.627 453.486 273.049 453.247C274.201 452.587 274.904 451.099 275.662 450.031C277.334 447.686 278.796 445.298 280.341 442.883C281.437 441.183 282.491 439.302 283.306 437.321C284.332 438.838 285.54 440.243 286.749 441.492C290.121 444.989 293.662 448.515 298.2 450.396C301.755 451.871 299.985 446.717 299.647 445.214C299.226 443.276 298.875 441.338 298.579 439.386C299.704 440.832 301.01 442.167 302.12 443.318C303.863 445.144 305.928 446.647 308.022 448.037C309.68 449.132 311.633 450.621 313.558 451.169C313.965 451.281 314.429 451.127 314.668 450.762C316.607 447.588 316.775 443.192 316.101 439.175C323.379 444.863 332.33 448.374 341.308 450.087C342.081 450.228 342.643 449.694 342.545 448.922C342.222 446.619 340.999 444.343 339.721 442.209C341.589 443.824 343.514 445.284 345.369 446.59C348.545 448.823 352.142 450.453 355.865 451.59C358.212 452.306 362.539 453.36 364.689 451.646C368.708 448.458 362.244 441.745 358.296 438.164C359.729 438.557 361.247 438.796 362.877 438.852C367.766 438.993 378.08 438.768 378.81 432.364C379.372 427.631 374.328 424.485 369.874 422.631Z" fill="#78B946"/>
<path d="M359.982 421.241C359.35 416.972 354.095 415.005 350.371 414.486C346.957 414.022 343.36 413.826 339.861 414.233C345.875 410.427 351.594 405.441 347.28 401.958C343.725 399.093 337.163 400.456 333.173 401.621C328.339 403.04 323.843 405.287 319.825 408.292C321.173 406.228 322.354 404.037 323.295 401.678C324.279 399.22 324.869 396.79 324.869 394.164C324.869 392.802 325.234 390.583 324.11 389.543C323.787 389.248 323.422 389.206 323.028 389.375C318.701 391.116 314.654 393.153 310.762 395.779C308.162 397.534 305.254 399.557 303.034 402.015C303.034 399.95 303.006 397.872 302.963 395.807C302.921 393.588 302.696 391.341 302.809 389.122C302.837 388.462 302.696 387.886 302.205 387.423C301.91 387.142 301.53 387.072 301.151 387.254C297.905 388.869 294.87 391.861 292.425 394.487C290.093 397.015 288.828 400.02 287.311 402.941C286.425 400.203 285.442 397.492 284.529 394.894C283.362 391.58 281.297 387.563 277.531 386.833C274.595 386.257 273.119 389.375 272.417 391.608C271.068 395.877 269.972 400.175 268.651 404.444C268.286 403.714 267.92 402.998 267.541 402.281C266.487 400.273 264.661 393.56 261.626 393.476C258.464 393.391 256.258 396.425 254.6 398.77C252.015 402.45 251.115 406.523 250.301 410.764C248.516 408.952 246.619 407.239 244.694 405.61C241.181 402.632 236.053 398.04 231.093 397.9C226.92 397.787 230.475 404.585 231.191 406.059C232.526 408.784 234.367 412.028 236.84 414.275C232.849 414.584 228.845 415.328 225.346 416.747C221.327 418.362 214.358 422.224 213.909 427.238C213.332 433.558 223.772 430.721 232.54 427.28C230.404 429.569 228.255 432.926 228.957 436.001C229.688 439.175 234.704 437.378 236.404 436.675C241.083 434.737 245.425 430.805 249.162 427.21C248.347 430.552 246.38 438.08 250.694 439.611C255.963 441.479 261.822 436.226 265.616 433.221C266.867 432.223 268.131 431.184 269.368 430.117C269.536 431.423 270.042 432.673 270.969 433.684C273.302 436.198 276.955 434.091 278.936 432.35C281.311 430.243 283.362 427.856 285.498 425.553C285.442 430.398 286.692 435.65 292.018 435.018C295.081 434.653 296.767 430.679 297.708 428.263C297.947 427.659 298.158 427.069 298.383 426.479C298.594 427.477 298.861 428.474 299.198 429.471C300.167 432.392 302.514 437.518 305.788 438.557C309.019 439.569 310.396 437.251 310.424 434.288C310.467 429.625 312.448 425.988 314.682 422.322C314.822 427.701 318.293 437.153 325.08 436.17C329.028 435.594 329.815 432.223 329.281 428.403C331.796 431.929 335.112 434.639 339.566 435.088C346.128 435.749 345.51 429.555 342.966 425.244C345.158 425.707 347.449 425.861 349.837 425.763C352.17 425.651 360.586 425.3 359.982 421.241Z" fill="#3B9B45"/>
<path d="M277.039 400.652C277.249 400.61 277.446 400.554 277.643 400.484C277.559 400.652 277.46 400.807 277.39 400.975C276.744 402.632 276.982 404.627 278.795 405.301C280.594 405.975 282.434 404.023 283.165 402.66C283.193 402.59 283.221 402.52 283.249 402.45C284.134 403.559 285.694 404.332 286.916 403.433C287.507 402.998 287.507 401.888 287.464 401.256C287.422 400.652 287.254 400.062 287.029 399.501C287.422 399.529 287.816 399.529 288.209 399.472C290.457 399.178 292.214 397.619 291.104 395.287C290.289 393.574 288.139 393.265 286.467 393.391C286.045 393.419 285.413 393.518 284.767 393.7C285.287 392.689 285.357 391.341 284.949 390.414C284.205 388.673 282.35 387.296 280.383 387.647C278.233 388.041 277.292 389.88 278.036 391.917C278.177 392.296 278.373 392.703 278.64 393.096C275.507 392.563 271.826 394.051 272.233 397.647C272.5 399.95 274.903 401.088 277.039 400.652Z" fill="#FFD060"/>
<path d="M289.264 417.533C289.587 416.452 289.503 415.202 289.053 414.163C288.084 411.944 286.046 410.02 283.531 409.935C281.213 409.865 279.639 412.281 280.187 414.415C280.342 415.019 280.581 415.623 280.876 416.199C278.066 414.654 274.623 414.556 272.698 417.688C271.391 419.822 272.726 422.575 274.988 423.319C275.902 423.614 276.815 423.685 277.714 423.614C276.239 424.991 275.157 426.859 275.41 428.937C275.719 431.479 279.569 430.566 280.974 429.99C281.93 429.597 282.955 428.923 283.826 428.08C284.248 430.061 286.046 431.423 288.168 430.931C290.922 430.299 291.498 427.252 290.655 424.878C291.639 425.089 292.707 425.075 293.803 424.808C296.093 424.26 298.172 422.561 297.372 420.005C296.444 416.971 292.341 416.41 289.264 417.533Z" fill="#FFD060"/>
<path d="M356.751 420.876C354.629 419.317 352.044 419.485 349.866 420.82C349.796 417.435 346.438 413.039 343.29 413.91C340.733 414.612 340.058 417.056 340.339 419.513C340.466 420.525 340.817 421.943 341.421 423.179C340.48 422.589 339.426 422.238 338.119 422.393C335.998 422.645 334.185 424.078 333.735 426.227C333.314 428.235 335.169 429.499 336.827 429.99C337.782 430.285 338.752 430.285 339.665 430.117C338.738 431.634 338.386 433.53 339.286 435.145C340.269 436.9 342.869 436.619 344.344 435.861C345.538 435.243 346.452 434.105 347.07 432.827C347.857 434.625 349.473 436.001 351.454 436.352C354.109 436.816 355.023 434.147 354.657 431.985C354.433 430.622 353.828 429.288 352.915 428.263C354.433 428.305 355.95 427.926 356.976 426.971C358.845 425.243 358.887 422.449 356.751 420.876Z" fill="#FFD060"/>
<path d="M327.271 409.598C325.796 407.113 323.07 405.568 320.147 406.115C319.164 406.298 318.082 406.663 317.14 407.197C317.576 405.708 317.365 404.065 316.775 402.52C316.03 400.568 314.133 397.829 311.66 398.433C308.148 399.29 307.796 403.293 308.907 406.523C307.965 405.736 306.771 405.16 305.324 404.767C302.246 403.925 299.029 405.048 298.326 408.334C297.666 411.396 301.136 413.699 303.595 414.514C303.947 414.626 304.312 414.71 304.677 414.767C302.738 416.62 301.488 419.19 302.078 421.409C302.738 423.909 306.096 424.036 308.021 423.362C310.002 422.673 311.618 420.96 312.63 419.05C312.855 421.381 314.386 423.909 316.733 424.274C321.061 424.963 322.494 419.443 321.004 415.75C322.143 415.862 323.337 415.679 324.517 415.188C326.653 414.289 328.718 412.042 327.271 409.598Z" fill="#FFE754"/>
<path d="M253.574 405.217C253.743 401.298 249.851 396.579 245.987 398.138C242.123 399.697 243.219 403.924 245.734 406.663C244.16 406.256 242.516 406.186 240.746 406.719C238.189 407.478 236.165 410.076 236.854 412.814C237.57 415.651 240.324 416.957 243.163 416.578C243.767 416.494 244.301 416.368 244.835 416.213C244.61 416.592 244.385 416.986 244.202 417.407C243.247 419.499 243.542 422.589 246.127 423.376C249.626 424.443 251.944 422.084 253.083 419.022C254.53 420.777 257.944 422.842 260.01 420.791C262.216 418.587 261.977 415.356 260.572 412.758C260.558 412.73 260.544 412.716 260.53 412.688C263.171 411.888 265.939 409.261 264.45 406.354C262.384 402.394 256.722 402.562 253.574 405.217Z" fill="#FFE754"/>
</svg>
